<?xml version="1.0" encoding="UTF-8"?><svg id="Layer_1" xmlns="http://www.w3.org/2000/svg" width="477.52" height="584.73" viewBox="0 0 477.52 584.73"><defs><style>.cls-1{fill:#001300;}.cls-2,.cls-3{fill:#be1e2d;}.cls-4{fill:#231f20;}.cls-5{fill:#009444;}.cls-5,.cls-6,.cls-3,.cls-7{stroke:#001300;stroke-miterlimit:10;}.cls-6{fill:#ed1c24;}.cls-7{fill:none;}</style></defs><circle class="cls-2" cx="155.54" cy="20.87" r="9.98"/><g><line class="cls-7" x1="155.54" y1="33.74" x2="155.54" y2="54.51"/><path class="cls-1" d="M155.54,60.55c-1.05-2.84-2.85-6.36-4.76-8.55l4.76,1.72,4.75-1.72c-1.9,2.18-3.7,5.71-4.75,8.55Z"/></g><rect class="cls-7" x="105.32" y="64.78" width="100.69" height="26.18" rx="6.5" ry="6.5"/><rect class="cls-3" x="57.75" y="114.16" width="195.85" height="8.75"/><rect class="cls-3" x="57.62" y="496.57" width="195.85" height="8.75"/><g><line class="cls-7" x1="155.67" y1="92.13" x2="155.67" y2="103.9"/><path class="cls-1" d="M155.67,109.94c-1.05-2.84-2.85-6.36-4.76-8.55l4.76,1.72,4.75-1.72c-1.9,2.18-3.7,5.71-4.75,8.55Z"/></g><g><line class="cls-7" x1="108.03" y1="136.77" x2="108.03" y2="157.54"/><path class="cls-1" d="M108.03,163.58c-1.05-2.84-2.85-6.36-4.76-8.55l4.76,1.72,4.75-1.72c-1.9,2.18-3.7,5.71-4.75,8.55Z"/></g><g><line class="cls-7" x1="193.91" y1="136.77" x2="193.91" y2="157.54"/><path class="cls-1" d="M193.91,163.58c-1.05-2.84-2.85-6.36-4.76-8.55l4.76,1.72,4.75-1.72c-1.9,2.18-3.7,5.71-4.75,8.55Z"/></g><rect class="cls-7" x="155.54" y="172.38" width="89.94" height="21.77" rx="6.5" ry="6.5"/><rect class="cls-7" x="60.35" y="172.38" width="89.94" height="21.77" rx="6.5" ry="6.5"/><g><line class="cls-7" x1="108.03" y1="203.79" x2="108.03" y2="224.56"/><path class="cls-1" d="M108.03,230.59c-1.05-2.84-2.85-6.36-4.76-8.55l4.76,1.72,4.75-1.72c-1.9,2.18-3.7,5.71-4.75,8.55Z"/></g><g><line class="cls-7" x1="193.91" y1="203.79" x2="193.91" y2="224.56"/><path class="cls-1" d="M193.91,230.59c-1.05-2.84-2.85-6.36-4.76-8.55l4.76,1.72,4.75-1.72c-1.9,2.18-3.7,5.71-4.75,8.55Z"/></g><rect class="cls-7" x="155.54" y="239.4" width="89.94" height="21.77" rx="6.5" ry="6.5"/><rect class="cls-7" x="60.35" y="239.4" width="89.94" height="21.77" rx="6.5" ry="6.5"/><g><line class="cls-7" x1="108.03" y1="277.82" x2="108.03" y2="298.59"/><path class="cls-1" d="M108.03,304.63c-1.05-2.84-2.85-6.36-4.76-8.55l4.76,1.72,4.75-1.72c-1.9,2.18-3.7,5.71-4.75,8.55Z"/></g><g><line class="cls-7" x1="193.91" y1="277.82" x2="193.91" y2="298.59"/><path class="cls-1" d="M193.91,304.63c-1.05-2.84-2.85-6.36-4.76-8.55l4.76,1.72,4.75-1.72c-1.9,2.18-3.7,5.71-4.75,8.55Z"/></g><rect class="cls-7" x="155.54" y="313.43" width="89.94" height="21.77" rx="6.5" ry="6.5"/><rect class="cls-7" x="60.35" y="313.43" width="89.94" height="21.77" rx="6.5" ry="6.5"/><g><path class="cls-4" d="M168.68,179.05h4.35v.88h-3.31v2.69h3.06v.86h-3.06v3.66h-1.04v-8.08Z"/><path class="cls-4" d="M177.16,187.14l-.08-.73h-.04c-.32,.46-.95,.86-1.77,.86-1.17,0-1.77-.83-1.77-1.67,0-1.4,1.25-2.17,3.49-2.16v-.12c0-.48-.13-1.34-1.32-1.34-.54,0-1.1,.17-1.51,.43l-.24-.7c.48-.31,1.17-.52,1.91-.52,1.78,0,2.21,1.21,2.21,2.37v2.17c0,.5,.02,1,.1,1.39h-.96Zm-.16-2.96c-1.15-.02-2.46,.18-2.46,1.31,0,.68,.46,1.01,1,1.01,.75,0,1.23-.48,1.4-.97,.04-.11,.06-.23,.06-.34v-1.01Z"/><path class="cls-4" d="M179.73,182.9c0-.6-.01-1.09-.05-1.57h.94l.06,.96h.03c.29-.55,.96-1.09,1.92-1.09,.8,0,2.05,.48,2.05,2.47v3.47h-1.05v-3.35c0-.94-.35-1.71-1.34-1.71-.7,0-1.24,.49-1.42,1.08-.05,.13-.07,.31-.07,.49v3.49h-1.06v-4.23Z"/><path class="cls-4" d="M191.39,181.33c-.02,.42-.05,.89-.05,1.6v3.37c0,1.33-.26,2.15-.83,2.65-.56,.53-1.38,.7-2.11,.7s-1.46-.17-1.93-.48l.26-.8c.38,.24,.98,.46,1.7,.46,1.08,0,1.87-.56,1.87-2.03v-.65h-.02c-.32,.54-.95,.97-1.85,.97-1.44,0-2.47-1.22-2.47-2.83,0-1.97,1.28-3.08,2.62-3.08,1.01,0,1.56,.53,1.81,1.01h.02l.05-.88h.92Zm-1.09,2.29c0-.18-.01-.34-.06-.48-.19-.61-.71-1.12-1.48-1.12-1.01,0-1.73,.85-1.73,2.2,0,1.14,.58,2.09,1.71,2.09,.65,0,1.24-.41,1.46-1.08,.06-.18,.08-.38,.08-.56v-1.04Z"/><path class="cls-4" d="M196.23,184.43c.02,1.43,.94,2.01,1.99,2.01,.76,0,1.21-.13,1.61-.3l.18,.76c-.37,.17-1.01,.36-1.93,.36-1.79,0-2.85-1.18-2.85-2.93s1.03-3.13,2.72-3.13c1.89,0,2.4,1.67,2.4,2.73,0,.21-.02,.38-.04,.49h-4.08Zm3.09-.76c.01-.67-.28-1.71-1.46-1.71-1.07,0-1.54,.98-1.62,1.71h3.08Z"/><path class="cls-4" d="M201.65,182.9c0-.6-.01-1.09-.05-1.57h.94l.06,.96h.03c.29-.55,.96-1.09,1.92-1.09,.8,0,2.05,.48,2.05,2.47v3.47h-1.05v-3.35c0-.94-.35-1.71-1.34-1.71-.7,0-1.24,.49-1.42,1.08-.05,.13-.07,.31-.07,.49v3.49h-1.06v-4.23Z"/><path class="cls-4" d="M210.86,182.9c0-.6-.01-1.09-.05-1.57h.92l.05,.94h.04c.32-.55,.86-1.07,1.82-1.07,.79,0,1.39,.48,1.64,1.16h.02c.18-.32,.41-.58,.65-.75,.35-.26,.73-.41,1.28-.41,.77,0,1.91,.5,1.91,2.52v3.42h-1.03v-3.29c0-1.12-.41-1.79-1.26-1.79-.6,0-1.07,.44-1.25,.96-.05,.14-.08,.34-.08,.53v3.59h-1.03v-3.48c0-.92-.41-1.59-1.21-1.59-.66,0-1.14,.53-1.31,1.05-.06,.16-.08,.34-.08,.52v3.5h-1.03v-4.23Z"/><path class="cls-4" d="M222.04,179.7c.01,.36-.25,.65-.67,.65-.37,0-.64-.29-.64-.65s.28-.66,.66-.66,.65,.29,.65,.66Zm-1.17,7.44v-5.8h1.06v5.8h-1.06Z"/><path class="cls-4" d="M223.67,182.9c0-.6-.01-1.09-.05-1.57h.94l.06,.96h.02c.29-.55,.96-1.09,1.92-1.09,.8,0,2.05,.48,2.05,2.47v3.47h-1.05v-3.35c0-.94-.35-1.71-1.34-1.71-.7,0-1.23,.49-1.41,1.08-.05,.13-.07,.31-.07,.49v3.49h-1.05v-4.23Z"/><path class="cls-4" d="M231.37,184h.03c.14-.2,.35-.46,.52-.66l1.7-2h1.27l-2.24,2.39,2.55,3.42h-1.28l-2-2.78-.54,.6v2.18h-1.04v-8.51h1.04v5.37Z"/></g><g><path class="cls-4" d="M72.05,180.54h3.43v.71h-2.61v2.19h2.41v.71h-2.41v2.99h-.82v-6.6Z"/><path class="cls-4" d="M78.73,187.14l-.07-.6h-.03c-.25,.37-.75,.71-1.4,.71-.93,0-1.4-.68-1.4-1.36,0-1.15,.98-1.77,2.75-1.76v-.1c0-.39-.1-1.1-1.04-1.1-.42,0-.87,.14-1.19,.35l-.19-.57c.38-.25,.93-.42,1.5-.42,1.4,0,1.74,.99,1.74,1.94v1.77c0,.41,.02,.81,.08,1.14h-.76Zm-.12-2.42c-.91-.02-1.94,.15-1.94,1.07,0,.56,.36,.82,.79,.82,.59,0,.97-.39,1.1-.79,.03-.09,.05-.19,.05-.27v-.82Z"/><path class="cls-4" d="M80.75,183.68c0-.49,0-.89-.04-1.28h.74l.05,.78h.02c.23-.45,.76-.89,1.51-.89,.63,0,1.62,.39,1.62,2.02v2.83h-.83v-2.73c0-.76-.27-1.4-1.06-1.4-.55,0-.97,.4-1.12,.88-.04,.11-.06,.25-.06,.4v2.85h-.83v-3.46Z"/><path class="cls-4" d="M89.93,182.4c-.02,.34-.04,.72-.04,1.3v2.75c0,1.09-.21,1.75-.65,2.17-.44,.43-1.09,.57-1.66,.57s-1.15-.14-1.52-.39l.21-.66c.3,.2,.77,.37,1.34,.37,.85,0,1.47-.46,1.47-1.66v-.53h-.02c-.25,.44-.75,.79-1.45,.79-1.13,0-1.95-1-1.95-2.31,0-1.61,1.01-2.52,2.06-2.52,.79,0,1.23,.43,1.43,.82h.02l.04-.71h.73Zm-.86,1.87c0-.15,0-.28-.05-.39-.15-.5-.56-.91-1.16-.91-.79,0-1.36,.7-1.36,1.79,0,.93,.45,1.7,1.35,1.7,.51,0,.97-.33,1.15-.88,.05-.15,.07-.31,.07-.46v-.85Z"/><path class="cls-4" d="M93.27,183.68c0-.49,0-.89-.04-1.28h.73l.04,.76h.03c.25-.45,.68-.87,1.44-.87,.62,0,1.1,.39,1.29,.95h.02c.14-.26,.32-.47,.51-.62,.27-.21,.58-.33,1.01-.33,.61,0,1.5,.41,1.5,2.06v2.79h-.81v-2.68c0-.91-.32-1.46-.99-1.46-.47,0-.84,.36-.98,.78-.04,.12-.07,.27-.07,.43v2.93h-.81v-2.84c0-.75-.32-1.3-.95-1.3-.52,0-.9,.43-1.03,.86-.05,.13-.07,.27-.07,.42v2.86h-.81v-3.46Z"/><path class="cls-4" d="M103.68,187.14l-.07-.6h-.03c-.25,.37-.75,.71-1.4,.71-.93,0-1.4-.68-1.4-1.36,0-1.15,.98-1.77,2.75-1.76v-.1c0-.39-.1-1.1-1.04-1.1-.43,0-.87,.14-1.19,.35l-.19-.57c.38-.25,.93-.42,1.5-.42,1.4,0,1.74,.99,1.74,1.94v1.77c0,.41,.02,.81,.08,1.14h-.76Zm-.12-2.42c-.91-.02-1.94,.15-1.94,1.07,0,.56,.36,.82,.78,.82,.59,0,.97-.39,1.1-.79,.03-.09,.05-.19,.05-.27v-.82Z"/><path class="cls-4" d="M106.52,184.57h.02c.11-.17,.27-.37,.41-.54l1.34-1.63h1l-1.77,1.95,2.01,2.79h-1.01l-1.58-2.27-.43,.49v1.78h-.82v-6.96h.82v4.39Z"/><path class="cls-4" d="M110.29,183.88c0-.56,0-1.04-.04-1.48h.73l.03,.93h.04c.21-.64,.71-1.04,1.27-1.04,.09,0,.16,0,.24,.03v.81c-.08-.02-.17-.03-.28-.03-.58,0-1,.46-1.11,1.11-.02,.12-.04,.25-.04,.4v2.53h-.82v-3.26Z"/><path class="cls-4" d="M113.74,184.92c.02,1.17,.74,1.64,1.57,1.64,.6,0,.95-.11,1.27-.24l.14,.62c-.29,.14-.79,.29-1.52,.29-1.41,0-2.25-.96-2.25-2.39s.81-2.56,2.14-2.56c1.49,0,1.89,1.36,1.89,2.23,0,.18-.02,.31-.03,.4h-3.21Zm2.44-.62c0-.55-.22-1.4-1.15-1.4-.84,0-1.21,.8-1.28,1.4h2.43Z"/><path class="cls-4" d="M118.01,180.18h.83v6.96h-.83v-6.96Z"/><path class="cls-4" d="M126.19,180.18v5.73c0,.42,0,.9,.04,1.22h-.75l-.04-.82h-.02c-.25,.53-.81,.93-1.56,.93-1.11,0-1.96-.97-1.96-2.41,0-1.58,.94-2.55,2.05-2.55,.7,0,1.17,.34,1.38,.73h.02v-2.83h.83Zm-.83,4.14c0-.11,0-.26-.04-.36-.12-.55-.58-1-1.2-1-.86,0-1.37,.78-1.37,1.83,0,.96,.45,1.75,1.35,1.75,.56,0,1.07-.38,1.22-1.03,.03-.12,.04-.24,.04-.37v-.82Z"/><path class="cls-4" d="M130.09,187.14l-.07-.6h-.03c-.25,.37-.75,.71-1.4,.71-.93,0-1.4-.68-1.4-1.36,0-1.15,.98-1.77,2.75-1.76v-.1c0-.39-.1-1.1-1.04-1.1-.42,0-.87,.14-1.19,.35l-.19-.57c.38-.25,.93-.42,1.5-.42,1.4,0,1.74,.99,1.74,1.94v1.77c0,.41,.02,.81,.08,1.14h-.76Zm-.12-2.42c-.91-.02-1.94,.15-1.94,1.07,0,.56,.36,.82,.78,.82,.6,0,.97-.39,1.11-.79,.03-.09,.05-.19,.05-.27v-.82Zm-1.79-3.73c0-.52,.37-.93,.96-.93s.93,.4,.93,.92-.41,.9-.94,.9c-.57,0-.95-.39-.95-.89Zm1.44-.02c0-.29-.19-.54-.49-.54s-.46,.25-.46,.56c0,.25,.19,.53,.46,.53,.3,0,.49-.25,.49-.55Z"/><path class="cls-4" d="M132,186.26c.25,.17,.68,.34,1.1,.34,.6,0,.89-.31,.89-.71s-.24-.64-.85-.87c-.82-.3-1.21-.77-1.21-1.34,0-.76,.59-1.39,1.58-1.39,.46,0,.87,.14,1.12,.29l-.21,.63c-.18-.12-.51-.27-.94-.27-.49,0-.76,.29-.76,.65,0,.39,.27,.57,.87,.8,.79,.31,1.2,.72,1.2,1.43,0,.83-.62,1.42-1.71,1.42-.5,0-.96-.13-1.29-.32l.21-.66Z"/><path class="cls-4" d="M136.32,184.92c.02,1.17,.74,1.64,1.57,1.64,.59,0,.95-.11,1.27-.24l.14,.62c-.29,.14-.79,.29-1.52,.29-1.41,0-2.25-.96-2.25-2.39s.81-2.56,2.14-2.56c1.49,0,1.89,1.36,1.89,2.23,0,.18-.02,.31-.03,.4h-3.21Zm2.44-.62c0-.55-.22-1.4-1.15-1.4-.84,0-1.21,.8-1.27,1.4h2.43Z"/></g><g><path class="cls-4" d="M127.41,72.24c-.04-.87-.09-1.9-.08-2.68h-.03c-.2,.73-.43,1.5-.72,2.36l-1.01,3.01h-.56l-.92-2.95c-.27-.87-.5-1.67-.66-2.41h-.02c-.02,.77-.06,1.81-.11,2.74l-.15,2.66h-.7l.4-6.2h.94l.97,3c.24,.76,.43,1.44,.58,2.09h.03c.14-.62,.35-1.31,.6-2.09l1.02-3h.94l.36,6.2h-.72l-.14-2.72Z"/><path class="cls-4" d="M130.32,69.26c0,.28-.18,.5-.48,.5-.26,0-.45-.22-.45-.5s.2-.51,.47-.51,.46,.22,.46,.51Zm-.83,5.7v-4.45h.75v4.45h-.75Z"/><path class="cls-4" d="M131.48,71.71c0-.46,0-.84-.03-1.21h.66l.04,.74h.02c.2-.42,.68-.84,1.36-.84,.57,0,1.45,.37,1.45,1.9v2.66h-.75v-2.57c0-.72-.25-1.32-.95-1.32-.49,0-.87,.38-1,.83-.03,.1-.05,.24-.05,.38v2.68h-.75v-3.25Z"/><path class="cls-4" d="M136.92,72.55h.02c.1-.16,.25-.35,.37-.51l1.2-1.54h.9l-1.59,1.83,1.81,2.62h-.91l-1.42-2.13-.38,.46v1.67h-.74v-6.53h.74v4.12Z"/><path class="cls-4" d="M145.68,72.7c0,1.65-1.05,2.37-2.04,2.37-1.11,0-1.97-.88-1.97-2.29,0-1.49,.9-2.37,2.04-2.37s1.98,.93,1.98,2.29Zm-3.26,.05c0,.97,.52,1.71,1.25,1.71s1.25-.73,1.25-1.73c0-.75-.35-1.71-1.23-1.71s-1.26,.88-1.26,1.73Z"/><path class="cls-4" d="M150.16,70.51c-.02,.32-.03,.68-.03,1.22v2.58c0,1.02-.19,1.65-.59,2.03-.4,.41-.97,.53-1.49,.53s-1.04-.13-1.37-.37l.19-.62c.27,.18,.7,.35,1.21,.35,.76,0,1.32-.43,1.32-1.55v-.5h-.02c-.23,.41-.67,.75-1.31,.75-1.02,0-1.75-.94-1.75-2.17,0-1.51,.91-2.37,1.85-2.37,.71,0,1.1,.41,1.28,.77h.02l.03-.67h.65Zm-.77,1.76c0-.14,0-.26-.04-.37-.14-.47-.5-.86-1.04-.86-.71,0-1.22,.65-1.22,1.68,0,.87,.41,1.6,1.21,1.6,.46,0,.87-.31,1.04-.83,.04-.14,.06-.29,.06-.43v-.8Z"/><path class="cls-4" d="M153.16,71.71c0-.46,0-.84-.03-1.21h.65l.03,.72h.03c.23-.42,.61-.82,1.29-.82,.56,0,.98,.37,1.16,.89h.02c.13-.25,.29-.44,.46-.58,.25-.2,.52-.31,.91-.31,.54,0,1.35,.39,1.35,1.93v2.62h-.73v-2.52c0-.86-.29-1.37-.89-1.37-.42,0-.75,.34-.88,.74-.03,.11-.06,.26-.06,.41v2.75h-.73v-2.67c0-.71-.29-1.22-.86-1.22-.47,0-.81,.41-.92,.81-.04,.12-.06,.26-.06,.4v2.69h-.73v-3.25Z"/><path class="cls-4" d="M162.51,74.96l-.06-.56h-.03c-.23,.35-.67,.66-1.26,.66-.83,0-1.26-.63-1.26-1.28,0-1.08,.88-1.67,2.47-1.66v-.09c0-.37-.09-1.03-.93-1.03-.38,0-.78,.13-1.07,.33l-.17-.53c.34-.24,.83-.4,1.35-.4,1.25,0,1.56,.93,1.56,1.82v1.67c0,.39,.02,.76,.07,1.07h-.68Zm-.11-2.27c-.81-.02-1.74,.14-1.74,1,0,.53,.32,.77,.71,.77,.53,0,.87-.37,.99-.75,.03-.08,.04-.17,.04-.26v-.77Z"/><path class="cls-4" d="M165.06,72.55h.02c.1-.16,.25-.35,.37-.51l1.21-1.54h.9l-1.59,1.83,1.81,2.62h-.91l-1.42-2.13-.38,.46v1.67h-.74v-6.53h.74v4.12Z"/><path class="cls-4" d="M168.45,71.9c0-.52,0-.98-.03-1.39h.65l.03,.88h.03c.19-.6,.64-.98,1.14-.98,.08,0,.14,0,.21,.03v.76c-.08-.02-.15-.03-.25-.03-.53,0-.9,.43-1,1.04-.02,.11-.03,.24-.03,.38v2.37h-.74v-3.06Z"/><path class="cls-4" d="M171.55,72.88c.02,1.09,.66,1.55,1.41,1.55,.53,0,.86-.1,1.14-.23l.13,.58c-.26,.13-.71,.28-1.37,.28-1.26,0-2.02-.9-2.02-2.24s.73-2.4,1.93-2.4c1.34,0,1.7,1.28,1.7,2.1,0,.17-.02,.29-.03,.38h-2.88Zm2.19-.58c0-.52-.2-1.32-1.04-1.32-.75,0-1.09,.75-1.15,1.32h2.18Z"/><path class="cls-4" d="M175.39,68.43h.75v6.53h-.75v-6.53Z"/><path class="cls-4" d="M182.74,68.43v5.38c0,.4,0,.85,.03,1.15h-.67l-.03-.77h-.02c-.23,.5-.73,.87-1.4,.87-.99,0-1.76-.91-1.76-2.26,0-1.48,.84-2.39,1.84-2.39,.63,0,1.05,.32,1.24,.68h.02v-2.66h.75Zm-.75,3.89c0-.1,0-.24-.03-.34-.11-.52-.52-.94-1.08-.94-.77,0-1.23,.74-1.23,1.72,0,.9,.41,1.65,1.21,1.65,.5,0,.96-.36,1.09-.97,.03-.11,.03-.22,.03-.35v-.77Z"/><path class="cls-4" d="M186.25,74.96l-.06-.56h-.03c-.23,.35-.67,.66-1.25,.66-.83,0-1.26-.63-1.26-1.28,0-1.08,.88-1.67,2.47-1.66v-.09c0-.37-.09-1.03-.93-1.03-.38,0-.78,.13-1.07,.33l-.17-.53c.34-.24,.83-.4,1.35-.4,1.25,0,1.56,.93,1.56,1.82v1.67c0,.39,.02,.76,.07,1.07h-.68Zm-.11-2.27c-.81-.02-1.74,.14-1.74,1,0,.53,.32,.77,.7,.77,.53,0,.87-.37,.99-.75,.03-.08,.04-.17,.04-.26v-.77Zm-1.6-3.51c0-.49,.33-.88,.87-.88s.84,.38,.84,.87-.36,.85-.85,.85c-.51,0-.86-.37-.86-.84Zm1.29-.02c0-.28-.17-.51-.44-.51s-.42,.24-.42,.53c0,.24,.17,.5,.42,.5,.27,0,.44-.24,.44-.52Z"/><path class="cls-4" d="M187.96,74.13c.22,.16,.61,.32,.98,.32,.54,0,.8-.29,.8-.66,0-.39-.21-.6-.76-.82-.74-.29-1.09-.73-1.09-1.26,0-.72,.53-1.31,1.42-1.31,.42,0,.78,.13,1.01,.28l-.19,.59c-.16-.11-.46-.26-.84-.26-.44,0-.69,.28-.69,.61,0,.37,.25,.53,.78,.75,.71,.29,1.08,.68,1.08,1.34,0,.78-.56,1.33-1.54,1.33-.45,0-.87-.12-1.15-.3l.19-.62Z"/><path class="cls-4" d="M191.84,72.88c.02,1.09,.66,1.55,1.41,1.55,.53,0,.86-.1,1.14-.23l.13,.58c-.26,.13-.71,.28-1.37,.28-1.26,0-2.02-.9-2.02-2.24s.73-2.4,1.93-2.4c1.34,0,1.7,1.28,1.7,2.1,0,.17-.02,.29-.03,.38h-2.88Zm2.19-.58c0-.52-.2-1.32-1.04-1.32-.75,0-1.09,.75-1.15,1.32h2.18Z"/><path class="cls-4" d="M195.67,71.9c0-.52,0-.98-.03-1.39h.65l.03,.88h.03c.19-.6,.64-.98,1.14-.98,.08,0,.14,0,.21,.03v.76c-.08-.02-.15-.03-.25-.03-.53,0-.9,.43-1,1.04-.02,.11-.03,.24-.03,.38v2.37h-.74v-3.06Z"/><path class="cls-4" d="M123.16,85.99v-3.84h-.58v-.62h.58v-.21c0-.62,.13-1.2,.47-1.55,.28-.29,.65-.41,1-.41,.26,0,.49,.06,.64,.13l-.1,.63c-.11-.06-.26-.1-.47-.1-.64,0-.8,.61-.8,1.29v.24h.99v.62h-.99v3.84h-.74Z"/><path class="cls-4" d="M127.84,85.99l-.06-.56h-.03c-.23,.35-.67,.66-1.25,.66-.83,0-1.26-.63-1.26-1.28,0-1.08,.88-1.67,2.47-1.66v-.09c0-.37-.09-1.03-.93-1.03-.38,0-.78,.13-1.07,.33l-.17-.53c.34-.24,.83-.4,1.35-.4,1.25,0,1.56,.93,1.56,1.82v1.67c0,.39,.02,.76,.07,1.07h-.68Zm-.11-2.27c-.81-.02-1.74,.14-1.74,1,0,.52,.32,.77,.7,.77,.53,0,.87-.37,.99-.74,.03-.08,.04-.18,.04-.26v-.77Z"/><path class="cls-4" d="M129.65,79.46h.75v6.53h-.75v-6.53Z"/><path class="cls-4" d="M135.2,79.46v5.38c0,.4,0,.85,.03,1.15h-.67l-.03-.77h-.02c-.23,.5-.73,.87-1.4,.87-.99,0-1.76-.91-1.76-2.26,0-1.48,.84-2.39,1.84-2.39,.63,0,1.05,.32,1.24,.68h.02v-2.66h.75Zm-.75,3.89c0-.1,0-.24-.03-.34-.11-.52-.52-.94-1.08-.94-.77,0-1.23,.74-1.23,1.72,0,.9,.41,1.65,1.21,1.65,.5,0,.96-.36,1.09-.97,.03-.11,.03-.22,.03-.35v-.77Z"/><path class="cls-4" d="M136.85,83.91c.02,1.1,.66,1.55,1.41,1.55,.53,0,.86-.1,1.14-.23l.13,.58c-.26,.13-.71,.28-1.37,.28-1.26,0-2.02-.9-2.02-2.25s.73-2.4,1.93-2.4c1.34,0,1.7,1.28,1.7,2.1,0,.17-.02,.29-.03,.38h-2.88Zm2.19-.58c0-.51-.2-1.31-1.04-1.31-.75,0-1.09,.75-1.14,1.31h2.18Z"/><path class="cls-4" d="M140.69,82.93c0-.52,0-.97-.03-1.39h.65l.03,.87h.03c.19-.6,.64-.97,1.14-.97,.08,0,.14,0,.21,.03v.76c-.08-.02-.15-.03-.25-.03-.53,0-.9,.43-1,1.04-.02,.11-.03,.24-.03,.38v2.38h-.74v-3.06Z"/><path class="cls-4" d="M145.26,82.75c0-.46,0-.84-.03-1.21h.66l.04,.74h.02c.2-.42,.68-.84,1.36-.84,.57,0,1.45,.37,1.45,1.89v2.66h-.75v-2.57c0-.72-.25-1.32-.95-1.32-.49,0-.87,.38-1,.83-.03,.1-.05,.24-.05,.38v2.68h-.75v-3.25Z"/><path class="cls-4" d="M150.39,83.91c.02,1.1,.66,1.55,1.41,1.55,.54,0,.86-.1,1.14-.23l.13,.58c-.26,.13-.71,.28-1.37,.28-1.26,0-2.02-.9-2.02-2.25s.73-2.4,1.93-2.4c1.34,0,1.7,1.28,1.7,2.1,0,.17-.02,.29-.03,.38h-2.88Zm2.19-.58c0-.51-.19-1.31-1.03-1.31-.76,0-1.09,.75-1.15,1.31h2.18Z"/><path class="cls-4" d="M157.77,79.46v5.38c0,.4,0,.85,.03,1.15h-.67l-.03-.77h-.02c-.23,.5-.73,.87-1.4,.87-.99,0-1.76-.91-1.76-2.26,0-1.48,.84-2.39,1.84-2.39,.63,0,1.05,.32,1.24,.68h.02v-2.66h.75Zm-.75,3.89c0-.1,0-.24-.03-.34-.11-.52-.52-.94-1.08-.94-.77,0-1.23,.74-1.23,1.72,0,.9,.41,1.65,1.21,1.65,.5,0,.96-.36,1.09-.97,.03-.11,.03-.22,.03-.35v-.77Z"/><path class="cls-4" d="M160.88,85.99v-3.84h-.58v-.62h.58v-.21c0-.62,.13-1.2,.48-1.55,.28-.29,.65-.41,1-.41,.26,0,.49,.06,.64,.13l-.1,.63c-.11-.06-.26-.1-.48-.1-.64,0-.8,.61-.8,1.29v.24h.99v.62h-.99v3.84h-.74Z"/><path class="cls-4" d="M163.28,82.93c0-.52,0-.97-.03-1.39h.65l.03,.87h.03c.19-.6,.64-.97,1.14-.97,.08,0,.14,0,.21,.03v.76c-.08-.02-.15-.03-.25-.03-.53,0-.9,.43-1,1.04-.02,.11-.03,.24-.03,.38v2.38h-.74v-3.06Z"/><path class="cls-4" d="M168.29,85.99l-.06-.56h-.03c-.23,.35-.67,.66-1.26,.66-.83,0-1.26-.63-1.26-1.28,0-1.08,.88-1.67,2.47-1.66v-.09c0-.37-.09-1.03-.93-1.03-.38,0-.78,.13-1.07,.33l-.17-.53c.34-.24,.83-.4,1.35-.4,1.25,0,1.56,.93,1.56,1.82v1.67c0,.39,.02,.76,.07,1.07h-.68Zm-.11-2.27c-.81-.02-1.74,.14-1.74,1,0,.52,.32,.77,.71,.77,.53,0,.87-.37,.99-.74,.03-.08,.04-.18,.04-.26v-.77Z"/><path class="cls-4" d="M172.8,80.26v1.28h1.07v.62h-1.07v2.4c0,.55,.14,.87,.56,.87,.19,0,.34-.03,.43-.06l.03,.61c-.14,.06-.37,.11-.66,.11-.35,0-.63-.12-.81-.34-.21-.24-.29-.63-.29-1.16v-2.43h-.64v-.62h.64v-1.07l.73-.21Z"/><path class="cls-4" d="M178.37,83.73c0,1.65-1.05,2.36-2.04,2.36-1.11,0-1.97-.88-1.97-2.29,0-1.49,.9-2.36,2.04-2.36s1.98,.93,1.98,2.29Zm-3.26,.05c0,.98,.52,1.71,1.25,1.71s1.25-.73,1.25-1.73c0-.75-.35-1.71-1.23-1.71s-1.26,.88-1.26,1.73Z"/><path class="cls-4" d="M179.32,82.99c0-.57-.02-1.03-.03-1.45h.67l.03,.76h.02c.3-.54,.79-.87,1.46-.87,.99,0,1.74,.91,1.74,2.26,0,1.6-.9,2.39-1.87,2.39-.54,0-1.02-.26-1.26-.7h-.02v2.42h-.74v-4.82Zm.74,1.19c0,.12,.02,.23,.03,.33,.14,.56,.58,.95,1.12,.95,.79,0,1.25-.7,1.25-1.72,0-.89-.43-1.66-1.22-1.66-.51,0-.98,.4-1.13,1-.03,.1-.05,.22-.05,.33v.76Z"/><path class="cls-4" d="M184.14,82.99c0-.57-.02-1.03-.03-1.45h.67l.03,.76h.02c.3-.54,.79-.87,1.46-.87,.99,0,1.74,.91,1.74,2.26,0,1.6-.9,2.39-1.87,2.39-.54,0-1.02-.26-1.26-.7h-.02v2.42h-.74v-4.82Zm.74,1.19c0,.12,.02,.23,.03,.33,.14,.56,.59,.95,1.12,.95,.79,0,1.25-.7,1.25-1.72,0-.89-.43-1.66-1.22-1.66-.51,0-.98,.4-1.13,1-.03,.1-.05,.22-.05,.33v.76Z"/><path class="cls-4" d="M189.39,83.91c.02,1.1,.66,1.55,1.41,1.55,.54,0,.86-.1,1.14-.23l.13,.58c-.26,.13-.71,.28-1.37,.28-1.26,0-2.02-.9-2.02-2.25s.73-2.4,1.93-2.4c1.34,0,1.7,1.28,1.7,2.1,0,.17-.02,.29-.03,.38h-2.88Zm2.19-.58c0-.51-.2-1.31-1.04-1.31-.76,0-1.09,.75-1.15,1.31h2.18Z"/><path class="cls-4" d="M193.22,82.75c0-.46,0-.84-.03-1.21h.66l.04,.74h.02c.2-.42,.68-.84,1.36-.84,.57,0,1.45,.37,1.45,1.89v2.66h-.75v-2.57c0-.72-.25-1.32-.95-1.32-.49,0-.87,.38-1,.83-.03,.1-.05,.24-.05,.38v2.68h-.75v-3.25Z"/></g><g><path class="cls-4" d="M82.41,319.95h4.35v.88h-3.31v2.69h3.06v.86h-3.06v3.66h-1.04v-8.08Z"/><path class="cls-4" d="M90.89,328.03l-.08-.73h-.04c-.32,.46-.95,.86-1.77,.86-1.18,0-1.78-.83-1.78-1.67,0-1.4,1.25-2.17,3.49-2.16v-.12c0-.48-.13-1.34-1.32-1.34-.54,0-1.1,.17-1.51,.43l-.24-.7c.48-.31,1.17-.52,1.91-.52,1.77,0,2.21,1.21,2.21,2.38v2.17c0,.5,.02,1,.1,1.39h-.96Zm-.16-2.96c-1.15-.02-2.46,.18-2.46,1.31,0,.68,.46,1.01,1,1.01,.76,0,1.24-.48,1.4-.97,.04-.11,.06-.23,.06-.34v-1.01Zm-2.27-4.57c0-.63,.47-1.14,1.22-1.14s1.19,.49,1.19,1.13-.52,1.1-1.2,1.1c-.72,0-1.21-.48-1.21-1.09Zm1.82-.02c0-.36-.24-.66-.62-.66s-.59,.31-.59,.68c0,.31,.24,.65,.59,.65,.38,0,.62-.31,.62-.67Z"/><path class="cls-4" d="M93.46,324.04c0-.68-.01-1.27-.05-1.81h.92l.04,1.14h.05c.26-.78,.9-1.27,1.61-1.27,.12,0,.2,.01,.3,.04v1c-.11-.02-.22-.04-.36-.04-.74,0-1.27,.56-1.42,1.36-.02,.14-.05,.31-.05,.49v3.09h-1.04v-3.99Z"/><path class="cls-4" d="M101.88,321.22h-.02l-1.36,.73-.2-.8,1.7-.91h.9v7.8h-1.02v-6.81Z"/><path class="cls-4" d="M108.63,324.12c0-.74-.02-1.34-.05-1.9h.95l.05,1h.02c.43-.71,1.12-1.13,2.06-1.13,1.4,0,2.46,1.19,2.46,2.95,0,2.09-1.27,3.12-2.64,3.12-.77,0-1.44-.34-1.79-.91h-.02v3.15h-1.04v-6.28Zm1.04,1.55c0,.16,.02,.3,.05,.43,.19,.73,.83,1.23,1.58,1.23,1.12,0,1.76-.91,1.76-2.24,0-1.16-.61-2.16-1.73-2.16-.72,0-1.39,.52-1.59,1.31-.04,.13-.07,.29-.07,.43v1Z"/><path class="cls-4" d="M120.71,325.08c0,2.15-1.49,3.08-2.89,3.08-1.57,0-2.78-1.15-2.78-2.99,0-1.94,1.27-3.08,2.88-3.08s2.79,1.21,2.79,2.99Zm-4.61,.06c0,1.27,.73,2.23,1.76,2.23s1.76-.95,1.76-2.26c0-.98-.49-2.23-1.74-2.23s-1.79,1.15-1.79,2.25Z"/><path class="cls-4" d="M123.22,320.59c.01,.36-.25,.65-.67,.65-.37,0-.64-.29-.64-.65s.28-.66,.66-.66,.65,.29,.65,.66Zm-1.17,7.44v-5.8h1.06v5.8h-1.06Z"/><path class="cls-4" d="M124.85,323.8c0-.6-.01-1.09-.05-1.57h.94l.06,.96h.02c.29-.55,.96-1.09,1.92-1.09,.8,0,2.05,.48,2.05,2.47v3.47h-1.06v-3.35c0-.94-.35-1.71-1.34-1.71-.7,0-1.24,.49-1.42,1.08-.05,.13-.07,.31-.07,.49v3.49h-1.06v-4.23Z"/><path class="cls-4" d="M132.73,320.56v1.67h1.51v.8h-1.51v3.13c0,.72,.2,1.13,.79,1.13,.28,0,.48-.04,.61-.07l.05,.79c-.2,.08-.53,.14-.94,.14-.49,0-.89-.16-1.14-.44-.3-.31-.41-.83-.41-1.51v-3.17h-.9v-.8h.9v-1.39l1.03-.28Z"/></g><g><path class="cls-4" d="M177.52,324.48c-.06-1.13-.13-2.48-.12-3.49h-.04c-.28,.95-.61,1.96-1.02,3.07l-1.43,3.92h-.79l-1.31-3.85c-.38-1.14-.71-2.18-.94-3.14h-.02c-.02,1.01-.08,2.36-.16,3.57l-.22,3.47h-.99l.56-8.08h1.33l1.38,3.91c.34,1,.61,1.88,.82,2.72h.04c.2-.82,.49-1.7,.85-2.72l1.44-3.91h1.33l.5,8.08h-1.02l-.2-3.55Z"/><path class="cls-4" d="M181.64,320.59c.01,.36-.25,.65-.67,.65-.37,0-.63-.29-.63-.65s.28-.66,.66-.66,.65,.29,.65,.66Zm-1.18,7.44v-5.8h1.06v5.8h-1.06Z"/><path class="cls-4" d="M183.13,326.95c.31,.2,.86,.42,1.39,.42,.77,0,1.13-.38,1.13-.86,0-.5-.3-.78-1.08-1.07-1.04-.37-1.54-.95-1.54-1.64,0-.94,.76-1.7,2-1.7,.59,0,1.1,.17,1.43,.36l-.26,.77c-.23-.14-.65-.34-1.19-.34-.62,0-.97,.36-.97,.79,0,.48,.35,.7,1.1,.98,1.01,.38,1.52,.89,1.52,1.75,0,1.02-.79,1.74-2.17,1.74-.63,0-1.22-.16-1.63-.4l.26-.8Z"/><path class="cls-4" d="M189.29,320.56v1.67h1.51v.8h-1.51v3.13c0,.72,.2,1.13,.79,1.13,.28,0,.48-.04,.61-.07l.05,.79c-.21,.08-.53,.14-.94,.14-.49,0-.89-.16-1.14-.44-.3-.31-.41-.83-.41-1.51v-3.17h-.9v-.8h.9v-1.39l1.03-.28Z"/><path class="cls-4" d="M192.51,325.32c.02,1.43,.94,2.01,1.99,2.01,.75,0,1.21-.13,1.61-.3l.18,.76c-.37,.17-1.01,.36-1.93,.36-1.79,0-2.85-1.18-2.85-2.93s1.03-3.13,2.72-3.13c1.9,0,2.4,1.67,2.4,2.73,0,.22-.03,.38-.04,.49h-4.08Zm3.09-.76c.01-.67-.28-1.71-1.46-1.71-1.07,0-1.54,.98-1.62,1.71h3.08Z"/><path class="cls-4" d="M197.94,324.04c0-.68-.01-1.27-.05-1.81h.92l.04,1.14h.05c.26-.78,.9-1.27,1.61-1.27,.12,0,.2,.01,.3,.04v1c-.11-.02-.22-.04-.36-.04-.74,0-1.27,.56-1.42,1.36-.02,.14-.05,.31-.05,.49v3.09h-1.04v-3.99Z"/><path class="cls-4" d="M206.36,321.22h-.02l-1.36,.73-.2-.8,1.7-.91h.9v7.8h-1.02v-6.81Z"/><path class="cls-4" d="M213.1,319.51h1.06v8.51h-1.06v-8.51Z"/><path class="cls-4" d="M217.11,320.59c.01,.36-.25,.65-.67,.65-.37,0-.63-.29-.63-.65s.28-.66,.66-.66,.65,.29,.65,.66Zm-1.18,7.44v-5.8h1.06v5.8h-1.06Z"/><path class="cls-4" d="M219.15,322.22l1.14,3.26c.19,.53,.35,1.01,.47,1.49h.04c.13-.48,.3-.96,.49-1.49l1.13-3.26h1.1l-2.28,5.8h-1.01l-2.21-5.8h1.13Z"/></g><g><path class="cls-4" d="M77.7,246.15c.5-.08,1.16-.16,2-.16,1.03,0,1.79,.24,2.27,.67,.44,.38,.71,.97,.71,1.69s-.21,1.31-.62,1.73c-.55,.59-1.45,.89-2.47,.89-.31,0-.6-.01-.84-.07v3.24h-1.04v-7.99Zm1.04,3.9c.23,.06,.52,.08,.86,.08,1.26,0,2.03-.61,2.03-1.73s-.76-1.58-1.91-1.58c-.46,0-.8,.04-.98,.08v3.14Z"/><path class="cls-4" d="M89,251.19c0,2.15-1.49,3.08-2.89,3.08-1.57,0-2.78-1.15-2.78-2.99,0-1.94,1.27-3.08,2.88-3.08s2.79,1.21,2.79,2.99Zm-4.61,.06c0,1.27,.73,2.23,1.76,2.23s1.76-.95,1.76-2.25c0-.98-.49-2.23-1.74-2.23s-1.79,1.15-1.79,2.25Z"/><path class="cls-4" d="M90.19,253.06c.31,.21,.86,.42,1.39,.42,.77,0,1.13-.38,1.13-.86s-.3-.78-1.08-1.07c-1.04-.37-1.54-.95-1.54-1.64,0-.93,.76-1.7,2-1.7,.59,0,1.1,.17,1.43,.36l-.26,.77c-.23-.14-.65-.33-1.19-.33-.62,0-.97,.36-.97,.79,0,.48,.35,.7,1.1,.98,1.01,.38,1.52,.89,1.52,1.75,0,1.02-.79,1.74-2.17,1.74-.64,0-1.22-.16-1.63-.4l.26-.8Z"/><path class="cls-4" d="M96.26,246.7c.01,.36-.25,.65-.67,.65-.37,0-.63-.29-.63-.65s.28-.66,.66-.66,.65,.29,.65,.66Zm-1.17,7.44v-5.8h1.05v5.8h-1.05Z"/><path class="cls-4" d="M99.17,246.67v1.67h1.51v.8h-1.51v3.13c0,.72,.2,1.13,.79,1.13,.28,0,.48-.04,.61-.07l.05,.79c-.2,.08-.53,.14-.94,.14-.49,0-.89-.16-1.14-.44-.3-.31-.41-.83-.41-1.51v-3.17h-.9v-.8h.9v-1.39l1.03-.28Z"/><path class="cls-4" d="M103.04,246.7c.01,.36-.25,.65-.67,.65-.37,0-.64-.29-.64-.65s.28-.66,.66-.66,.65,.29,.65,.66Zm-1.18,7.44v-5.8h1.05v5.8h-1.05Z"/><path class="cls-4" d="M105.08,248.33l1.14,3.26c.19,.53,.35,1.01,.47,1.49h.04c.13-.48,.3-.96,.49-1.49l1.13-3.26h1.1l-2.28,5.8h-1.01l-2.21-5.8h1.13Z"/><path class="cls-4" d="M112.99,245.62h1.05v8.52h-1.05v-8.52Z"/><path class="cls-4" d="M116.21,248.33l1.27,3.43c.13,.38,.28,.84,.37,1.19h.02c.11-.35,.23-.79,.37-1.21l1.15-3.41h1.12l-1.58,4.14c-.75,1.99-1.27,3.01-1.99,3.63-.52,.46-1.03,.64-1.29,.68l-.26-.89c.26-.08,.61-.25,.92-.52,.29-.23,.65-.64,.89-1.18,.05-.11,.08-.19,.08-.25s-.02-.14-.07-.28l-2.15-5.35h1.15Z"/><path class="cls-4" d="M126.37,245.62v7.02c0,.52,.01,1.1,.05,1.5h-.95l-.05-1.01h-.02c-.32,.65-1.03,1.14-1.98,1.14-1.4,0-2.48-1.19-2.48-2.95-.01-1.93,1.19-3.12,2.6-3.12,.89,0,1.49,.42,1.75,.89h.02v-3.47h1.05Zm-1.05,5.07c0-.13-.01-.31-.05-.44-.15-.67-.73-1.22-1.52-1.22-1.09,0-1.74,.96-1.74,2.24,0,1.17,.58,2.15,1.71,2.15,.71,0,1.36-.47,1.55-1.26,.04-.14,.05-.29,.05-.46v-1.01Z"/></g><g><path class="cls-4" d="M173.14,254.14v-8.08h1.14l2.59,4.09c.6,.95,1.07,1.8,1.45,2.63h.02c-.1-1.09-.12-2.08-.12-3.33v-3.38h.98v8.08h-1.06l-2.57-4.1c-.56-.9-1.1-1.82-1.51-2.7h-.04c.06,1.03,.08,2,.08,3.35v3.45h-.98Z"/><path class="cls-4" d="M181.59,251.43c.02,1.43,.94,2.01,1.99,2.01,.76,0,1.21-.13,1.61-.3l.18,.76c-.37,.17-1.01,.36-1.93,.36-1.79,0-2.85-1.18-2.85-2.93s1.03-3.13,2.72-3.13c1.89,0,2.4,1.67,2.4,2.73,0,.22-.02,.38-.04,.49h-4.08Zm3.09-.76c.01-.67-.28-1.71-1.46-1.71-1.07,0-1.54,.98-1.62,1.71h3.08Z"/><path class="cls-4" d="M192.01,248.33c-.02,.42-.05,.89-.05,1.59v3.37c0,1.33-.26,2.15-.83,2.65-.56,.53-1.38,.7-2.11,.7s-1.46-.17-1.93-.48l.26-.8c.38,.24,.98,.46,1.7,.46,1.08,0,1.87-.56,1.87-2.03v-.65h-.02c-.32,.54-.95,.97-1.85,.97-1.44,0-2.47-1.22-2.47-2.83,0-1.97,1.28-3.08,2.61-3.08,1.01,0,1.56,.53,1.81,1.01h.02l.05-.88h.92Zm-1.09,2.29c0-.18-.01-.34-.06-.48-.19-.61-.71-1.12-1.48-1.12-1.01,0-1.73,.85-1.73,2.19,0,1.14,.58,2.09,1.72,2.09,.65,0,1.24-.41,1.46-1.08,.06-.18,.08-.38,.08-.56v-1.04Z"/><path class="cls-4" d="M196.93,254.14l-.08-.73h-.04c-.32,.46-.95,.86-1.77,.86-1.18,0-1.78-.83-1.78-1.67,0-1.4,1.25-2.17,3.49-2.16v-.12c0-.48-.13-1.34-1.32-1.34-.54,0-1.1,.17-1.51,.43l-.24-.7c.48-.31,1.18-.52,1.91-.52,1.78,0,2.21,1.21,2.21,2.37v2.17c0,.5,.02,1,.1,1.39h-.96Zm-.16-2.96c-1.15-.02-2.46,.18-2.46,1.31,0,.68,.46,1.01,1,1.01,.76,0,1.24-.48,1.4-.97,.04-.11,.06-.23,.06-.34v-1.01Z"/><path class="cls-4" d="M200.72,246.67v1.67h1.51v.8h-1.51v3.13c0,.72,.2,1.13,.79,1.13,.28,0,.48-.04,.61-.07l.05,.79c-.2,.08-.53,.14-.94,.14-.49,0-.89-.16-1.14-.44-.3-.31-.41-.83-.41-1.51v-3.17h-.9v-.8h.9v-1.39l1.03-.28Z"/><path class="cls-4" d="M204.6,246.7c.01,.36-.25,.65-.67,.65-.37,0-.64-.29-.64-.65s.28-.66,.66-.66,.65,.29,.65,.66Zm-1.17,7.44v-5.8h1.05v5.8h-1.05Z"/><path class="cls-4" d="M206.64,248.33l1.14,3.26c.19,.53,.35,1.01,.47,1.49h.04c.13-.48,.3-.96,.49-1.49l1.13-3.26h1.1l-2.28,5.8h-1.01l-2.21-5.8h1.13Z"/><path class="cls-4" d="M214.55,245.62h1.06v8.52h-1.06v-8.52Z"/><path class="cls-4" d="M217.76,248.33l1.27,3.43c.13,.38,.28,.84,.37,1.19h.02c.11-.35,.23-.79,.37-1.21l1.15-3.41h1.12l-1.58,4.14c-.76,1.99-1.27,3.01-1.99,3.63-.52,.46-1.03,.64-1.29,.68l-.26-.89c.26-.08,.61-.25,.92-.52,.29-.23,.65-.64,.89-1.18,.05-.11,.08-.19,.08-.25s-.02-.14-.07-.28l-2.15-5.35h1.15Z"/><path class="cls-4" d="M227.93,245.62v7.02c0,.52,.01,1.1,.05,1.5h-.95l-.05-1.01h-.02c-.32,.65-1.03,1.14-1.98,1.14-1.4,0-2.48-1.19-2.48-2.95-.01-1.93,1.19-3.12,2.6-3.12,.89,0,1.49,.42,1.75,.89h.03v-3.47h1.05Zm-1.05,5.07c0-.13-.01-.31-.05-.44-.16-.67-.73-1.22-1.52-1.22-1.09,0-1.74,.96-1.74,2.24,0,1.17,.58,2.15,1.71,2.15,.71,0,1.36-.47,1.55-1.26,.04-.14,.05-.29,.05-.46v-1.01Z"/></g><g><line class="cls-7" x1="193.91" y1="348.74" x2="193.91" y2="369.51"/><path class="cls-1" d="M193.91,375.55c-1.05-2.84-2.85-6.36-4.76-8.55l4.76,1.72,4.75-1.72c-1.9,2.18-3.7,5.71-4.75,8.55Z"/></g><ellipse class="cls-7" cx="193.91" cy="403.68" rx="23.26" ry="18.14"/><g><path class="cls-4" d="M180.6,396.02c0-.59-.01-1.08-.05-1.56h.92l.05,.93h.04c.32-.55,.86-1.06,1.82-1.06,.79,0,1.39,.48,1.64,1.15h.03c.18-.32,.41-.57,.65-.75,.35-.26,.73-.4,1.28-.4,.77,0,1.91,.5,1.91,2.5v3.39h-1.03v-3.26c0-1.11-.41-1.77-1.26-1.77-.6,0-1.07,.44-1.25,.95-.05,.14-.08,.33-.08,.52v3.55h-1.03v-3.45c0-.92-.41-1.58-1.21-1.58-.66,0-1.14,.52-1.31,1.05-.06,.15-.08,.33-.08,.51v3.47h-1.03v-4.2Z"/><path class="cls-4" d="M191.78,392.84c.01,.36-.25,.64-.67,.64-.37,0-.63-.29-.63-.64s.28-.65,.66-.65,.65,.29,.65,.65Zm-1.17,7.37v-5.75h1.05v5.75h-1.05Z"/><path class="cls-4" d="M193.27,399.14c.31,.2,.86,.42,1.39,.42,.77,0,1.13-.38,1.13-.86,0-.5-.3-.77-1.08-1.06-1.04-.37-1.54-.94-1.54-1.63,0-.93,.76-1.69,2-1.69,.59,0,1.1,.17,1.43,.36l-.26,.76c-.23-.14-.65-.33-1.19-.33-.62,0-.97,.36-.97,.78,0,.48,.35,.69,1.1,.97,1.01,.38,1.52,.88,1.52,1.74,0,1.01-.79,1.72-2.17,1.72-.64,0-1.22-.15-1.63-.39l.26-.8Z"/><path class="cls-4" d="M199.43,392.81v1.65h1.51v.8h-1.51v3.1c0,.71,.21,1.12,.79,1.12,.28,0,.48-.04,.61-.07l.05,.78c-.2,.08-.53,.14-.94,.14-.49,0-.89-.15-1.14-.44-.3-.31-.41-.82-.41-1.5v-3.14h-.9v-.8h.9v-1.38l1.03-.27Z"/><path class="cls-4" d="M202.65,397.53c.02,1.42,.94,2,1.99,2,.76,0,1.21-.13,1.61-.3l.18,.75c-.37,.17-1.01,.36-1.93,.36-1.79,0-2.86-1.17-2.86-2.9s1.03-3.1,2.72-3.1c1.89,0,2.4,1.65,2.4,2.71,0,.21-.02,.38-.04,.49h-4.08Zm3.09-.75c.01-.67-.28-1.7-1.46-1.7-1.07,0-1.54,.97-1.62,1.7h3.08Z"/><path class="cls-4" d="M209.35,392.81v1.65h1.51v.8h-1.51v3.1c0,.71,.2,1.12,.79,1.12,.28,0,.48-.04,.61-.07l.05,.78c-.2,.08-.53,.14-.94,.14-.49,0-.89-.15-1.14-.44-.3-.31-.41-.82-.41-1.5v-3.14h-.9v-.8h.9v-1.38l1.03-.27Z"/><path class="cls-4" d="M187.45,413.28c.3,.19,1,.49,1.73,.49,1.36,0,1.78-.86,1.76-1.5-.01-1.08-1-1.54-2.02-1.54h-.59v-.78h.59c.77,0,1.74-.39,1.74-1.31,0-.62-.4-1.17-1.37-1.17-.62,0-1.22,.27-1.56,.51l-.28-.76c.41-.3,1.2-.59,2.04-.59,1.54,0,2.23,.9,2.23,1.84,0,.8-.48,1.47-1.44,1.82v.02c.96,.19,1.74,.9,1.74,1.99,0,1.24-.97,2.32-2.84,2.32-.88,0-1.64-.27-2.03-.52l.29-.81Z"/><path class="cls-4" d="M196.24,406.04h1.05v8.44h-1.05v-8.44Z"/><path class="cls-4" d="M200.24,407.11c.01,.36-.25,.64-.67,.64-.37,0-.64-.29-.64-.64s.28-.65,.66-.65,.65,.29,.65,.65Zm-1.18,7.37v-5.75h1.05v5.75h-1.05Z"/><path class="cls-4" d="M202.29,408.72l1.14,3.23c.19,.52,.35,1,.47,1.47h.04c.13-.48,.3-.95,.49-1.47l1.13-3.23h1.1l-2.28,5.75h-1.01l-2.21-5.75h1.13Z"/></g><g><line class="cls-7" x1="193.91" y1="431.81" x2="193.91" y2="469.02"/><path class="cls-1" d="M193.91,475.05c-1.05-2.84-2.85-6.36-4.76-8.55l4.76,1.72,4.75-1.72c-1.9,2.18-3.7,5.71-4.75,8.55Z"/></g><g><line class="cls-7" x1="108.03" y1="353.39" x2="108.03" y2="469.02"/><path class="cls-1" d="M108.03,475.05c-1.05-2.84-2.85-6.36-4.76-8.55l4.76,1.72,4.75-1.72c-1.9,2.18-3.7,5.71-4.75,8.55Z"/></g><ellipse class="cls-6" cx="302.36" cy="542.96" rx="28.47" ry="22.93"/><g><path class="cls-4" d="M294.35,536.78c-.47,.17-1.39,.44-2.48,.44-1.22,0-2.23-.31-3.02-1.06-.7-.67-1.13-1.74-1.13-2.98,.01-2.39,1.67-4.14,4.38-4.14,.94,0,1.67,.2,2.01,.37l-.25,.84c-.43-.19-.97-.34-1.79-.34-1.97,0-3.25,1.21-3.25,3.22s1.24,3.23,3.12,3.23c.68,0,1.15-.09,1.39-.21v-2.39h-1.64v-.83h2.66v3.85Z"/><path class="cls-4" d="M299.22,537.13l-.08-.72h-.04c-.32,.45-.95,.86-1.78,.86-1.18,0-1.78-.82-1.78-1.65,0-1.39,1.25-2.15,3.49-2.14v-.12c0-.48-.13-1.33-1.32-1.33-.54,0-1.1,.17-1.51,.43l-.24-.69c.48-.31,1.18-.51,1.91-.51,1.78,0,2.21,1.2,2.21,2.35v2.15c0,.5,.03,.99,.1,1.38h-.96Zm-.16-2.94c-1.15-.02-2.46,.18-2.46,1.3,0,.68,.46,1,.99,1,.76,0,1.24-.48,1.4-.96,.04-.11,.06-.23,.06-.33v-1Z"/><path class="cls-4" d="M301.79,532.94c0-.59-.01-1.08-.05-1.56h.92l.05,.93h.04c.32-.55,.86-1.06,1.82-1.06,.79,0,1.39,.48,1.64,1.15h.02c.18-.32,.41-.57,.65-.75,.35-.26,.73-.4,1.28-.4,.77,0,1.91,.5,1.91,2.5v3.39h-1.03v-3.26c0-1.11-.41-1.77-1.26-1.77-.6,0-1.07,.44-1.25,.95-.05,.14-.08,.33-.08,.52v3.55h-1.03v-3.45c0-.92-.41-1.58-1.21-1.58-.66,0-1.14,.52-1.31,1.05-.06,.15-.08,.33-.08,.51v3.47h-1.03v-4.2Z"/><path class="cls-4" d="M312.39,534.45c.02,1.42,.94,2,1.99,2,.76,0,1.21-.13,1.61-.3l.18,.75c-.37,.17-1.01,.36-1.93,.36-1.79,0-2.86-1.17-2.86-2.9s1.03-3.1,2.72-3.1c1.89,0,2.4,1.65,2.4,2.71,0,.21-.02,.38-.04,.49h-4.08Zm3.09-.75c.01-.67-.28-1.7-1.46-1.7-1.07,0-1.54,.97-1.62,1.7h3.08Z"/><path class="cls-4" d="M298.46,548.47c0,2.13-1.49,3.05-2.89,3.05-1.57,0-2.78-1.14-2.78-2.96,0-1.93,1.27-3.05,2.88-3.05s2.79,1.2,2.79,2.96Zm-4.61,.06c0,1.26,.73,2.21,1.76,2.21s1.76-.94,1.76-2.24c0-.97-.49-2.21-1.74-2.21s-1.79,1.14-1.79,2.23Z"/><path class="cls-4" d="M300.12,545.64l1.14,3.23c.19,.52,.35,1,.47,1.47h.04c.13-.48,.3-.95,.49-1.47l1.13-3.23h1.1l-2.28,5.75h-1.01l-2.21-5.75h1.13Z"/><path class="cls-4" d="M305.96,548.71c.02,1.42,.94,2,1.99,2,.76,0,1.21-.13,1.61-.3l.18,.75c-.37,.17-1.01,.36-1.93,.36-1.79,0-2.86-1.17-2.86-2.9s1.03-3.1,2.72-3.1c1.89,0,2.4,1.65,2.4,2.71,0,.21-.02,.38-.04,.49h-4.08Zm3.09-.75c.01-.67-.28-1.7-1.46-1.7-1.07,0-1.54,.97-1.62,1.7h3.08Z"/><path class="cls-4" d="M311.38,547.44c0-.68-.01-1.26-.05-1.79h.92l.04,1.13h.05c.26-.77,.9-1.26,1.61-1.26,.12,0,.2,.01,.3,.04v.99c-.11-.02-.22-.04-.36-.04-.74,0-1.27,.56-1.41,1.34-.02,.14-.05,.31-.05,.49v3.07h-1.04v-3.96Z"/></g><ellipse class="cls-5" cx="385.59" cy="542.96" rx="29.82" ry="22.01"/><g><path class="cls-4" d="M373.42,529.12h1.04v7.14h3.45v.87h-4.5v-8.01Z"/><path class="cls-4" d="M379.47,534.45c.02,1.42,.94,2,1.99,2,.76,0,1.21-.13,1.61-.3l.18,.75c-.37,.17-1.01,.36-1.93,.36-1.79,0-2.85-1.17-2.85-2.9s1.03-3.1,2.72-3.1c1.89,0,2.4,1.65,2.4,2.71,0,.21-.02,.38-.04,.49h-4.08Zm3.09-.75c.01-.67-.28-1.7-1.46-1.7-1.07,0-1.54,.97-1.62,1.7h3.08Z"/><path class="cls-4" d="M385.3,531.38l1.14,3.23c.19,.52,.35,1,.47,1.47h.04c.13-.48,.3-.95,.49-1.47l1.13-3.23h1.1l-2.28,5.75h-1.01l-2.21-5.75h1.13Z"/><path class="cls-4" d="M391.13,534.45c.02,1.42,.94,2,1.99,2,.76,0,1.21-.13,1.61-.3l.18,.75c-.37,.17-1.01,.36-1.93,.36-1.79,0-2.85-1.17-2.85-2.9s1.03-3.1,2.72-3.1c1.89,0,2.4,1.65,2.4,2.71,0,.21-.02,.38-.04,.49h-4.08Zm3.09-.75c.01-.67-.28-1.7-1.46-1.7-1.07,0-1.54,.97-1.62,1.7h3.08Z"/><path class="cls-4" d="M396.55,528.69h1.05v8.44h-1.05v-8.44Z"/><path class="cls-4" d="M366.78,551.18c-.28,.14-.89,.33-1.67,.33-1.75,0-2.89-1.18-2.89-2.94s1.22-3.06,3.12-3.06c.62,0,1.17,.16,1.46,.3l-.24,.81c-.25-.14-.65-.27-1.22-.27-1.33,0-2.05,.97-2.05,2.18,0,1.33,.86,2.15,2.01,2.15,.6,0,1-.15,1.29-.29l.18,.78Z"/><path class="cls-4" d="M373.2,548.47c0,2.13-1.49,3.05-2.89,3.05-1.57,0-2.78-1.14-2.78-2.96,0-1.93,1.27-3.05,2.88-3.05s2.79,1.2,2.79,2.96Zm-4.61,.06c0,1.26,.73,2.21,1.76,2.21s1.76-.94,1.76-2.24c0-.97-.49-2.21-1.74-2.21s-1.79,1.14-1.79,2.23Z"/><path class="cls-4" d="M374.53,547.2c0-.59-.01-1.08-.05-1.56h.92l.05,.93h.04c.32-.55,.86-1.06,1.82-1.06,.79,0,1.39,.48,1.64,1.15h.02c.18-.32,.41-.57,.65-.75,.35-.26,.73-.4,1.28-.4,.77,0,1.91,.5,1.91,2.5v3.39h-1.03v-3.26c0-1.11-.41-1.77-1.26-1.77-.6,0-1.07,.44-1.25,.95-.05,.14-.08,.33-.08,.52v3.55h-1.03v-3.45c0-.92-.41-1.58-1.21-1.58-.66,0-1.14,.52-1.31,1.05-.06,.15-.08,.33-.08,.51v3.47h-1.03v-4.2Z"/><path class="cls-4" d="M384.54,547.52c0-.74-.02-1.33-.05-1.88h.95l.05,.99h.02c.43-.7,1.12-1.12,2.06-1.12,1.4,0,2.46,1.18,2.46,2.92,0,2.07-1.27,3.09-2.64,3.09-.77,0-1.44-.33-1.79-.9h-.02v3.13h-1.04v-6.23Zm1.04,1.53c0,.16,.02,.3,.05,.43,.19,.72,.83,1.22,1.58,1.22,1.12,0,1.76-.9,1.76-2.22,0-1.15-.61-2.14-1.73-2.14-.72,0-1.39,.51-1.59,1.3-.04,.13-.07,.29-.07,.43v.99Z"/><path class="cls-4" d="M391.37,542.96h1.05v8.44h-1.05v-8.44Z"/><path class="cls-4" d="M394.79,548.71c.02,1.42,.94,2,1.99,2,.76,0,1.21-.13,1.61-.3l.18,.75c-.37,.17-1.01,.36-1.93,.36-1.79,0-2.85-1.17-2.85-2.9s1.03-3.1,2.72-3.1c1.89,0,2.4,1.65,2.4,2.71,0,.21-.02,.38-.04,.49h-4.08Zm3.09-.75c.01-.67-.28-1.7-1.46-1.7-1.07,0-1.54,.97-1.62,1.7h3.08Z"/><path class="cls-4" d="M401.48,543.99v1.65h1.51v.8h-1.51v3.1c0,.71,.2,1.12,.79,1.12,.28,0,.48-.04,.61-.07l.05,.78c-.2,.08-.53,.14-.94,.14-.49,0-.89-.15-1.14-.44-.3-.31-.41-.82-.41-1.5v-3.14h-.9v-.8h.9v-1.38l1.03-.27Z"/><path class="cls-4" d="M404.7,548.71c.02,1.42,.94,2,1.99,2,.76,0,1.21-.13,1.61-.3l.18,.75c-.37,.17-1.01,.36-1.93,.36-1.79,0-2.85-1.17-2.85-2.9s1.03-3.1,2.72-3.1c1.89,0,2.4,1.65,2.4,2.71,0,.21-.02,.38-.04,.49h-4.08Zm3.09-.75c.01-.67-.28-1.7-1.46-1.7-1.07,0-1.54,.97-1.62,1.7h3.08Z"/></g><rect class="cls-1" x="245.26" y="136.77" width=".46" height="26.81"/><rect class="cls-1" x="245.26" y="163.15" width="102.33" height=".92"/><polygon class="cls-2" points="354.12 261.06 356.84 256.38 366.21 240.28 347.59 240.22 328.96 240.15 338.21 256.32 341.05 261.28 338.33 265.96 328.96 282.06 347.59 282.12 366.21 282.19 356.96 266.03 354.12 261.06"/><g><line class="cls-7" x1="347.59" y1="163.15" x2="347.59" y2="224.56"/><path class="cls-1" d="M347.59,230.59c-1.05-2.84-2.85-6.36-4.76-8.55l4.76,1.72,4.75-1.72c-1.9,2.18-3.7,5.71-4.75,8.55Z"/></g><g><line class="cls-7" x1="347.46" y1="286.39" x2="347.71" y2="468.55"/><path class="cls-1" d="M347.72,474.59c-1.06-2.84-2.86-6.36-4.77-8.54l4.76,1.71,4.75-1.73c-1.9,2.19-3.69,5.71-4.74,8.55Z"/></g><g><line class="cls-7" x1="302.36" y1="475.05" x2="302.36" y2="507.84"/><path class="cls-1" d="M302.36,513.87c-1.05-2.84-2.85-6.36-4.76-8.55l4.76,1.72,4.75-1.72c-1.9,2.18-3.7,5.71-4.75,8.55Z"/></g><g><line class="cls-7" x1="385.59" y1="475.51" x2="385.59" y2="507.84"/><path class="cls-1" d="M385.59,513.87c-1.05-2.84-2.85-6.36-4.76-8.55l4.76,1.72,4.75-1.72c-1.9,2.18-3.7,5.71-4.75,8.55Z"/></g><rect class="cls-1" x="302.36" y="474.59" width="83.22" height=".92"/><rect class="cls-1" x="223.52" y="400.55" width="64.2" height=".49"/><g><line class="cls-7" x1="287.72" y1="400.2" x2="287.72" y2="507.84"/><path class="cls-1" d="M287.72,513.87c-1.05-2.84-2.85-6.36-4.76-8.55l4.76,1.72,4.75-1.72c-1.9,2.18-3.7,5.71-4.75,8.55Z"/></g><g><path class="cls-4" d="M366.56,261.17v-.65l.83-.8c1.99-1.89,2.89-2.9,2.9-4.08,0-.79-.38-1.52-1.55-1.52-.71,0-1.29,.36-1.65,.66l-.34-.74c.54-.46,1.31-.79,2.21-.79,1.68,0,2.39,1.15,2.39,2.27,0,1.44-1.04,2.6-2.69,4.19l-.62,.58v.02h3.5v.88h-4.98Z"/><path class="cls-4" d="M377.9,257.19c0,2.65-.98,4.11-2.71,4.11-1.52,0-2.55-1.43-2.58-4.01,0-2.61,1.13-4.05,2.71-4.05s2.58,1.46,2.58,3.95Zm-4.23,.12c0,2.03,.62,3.18,1.58,3.18,1.08,0,1.59-1.26,1.59-3.25s-.49-3.18-1.58-3.18c-.92,0-1.59,1.13-1.59,3.25Z"/><path class="cls-4" d="M381.61,260.09c.31,.2,.86,.42,1.39,.42,.77,0,1.13-.38,1.13-.86,0-.5-.3-.78-1.08-1.07-1.04-.37-1.54-.95-1.54-1.64,0-.94,.76-1.7,2-1.7,.59,0,1.1,.17,1.43,.36l-.26,.77c-.23-.14-.65-.33-1.19-.33-.62,0-.97,.36-.97,.79,0,.48,.35,.7,1.1,.98,1.01,.38,1.52,.89,1.52,1.75,0,1.02-.79,1.74-2.17,1.74-.64,0-1.22-.16-1.63-.4l.26-.8Z"/><path class="cls-4" d="M387.09,258.46c.02,1.43,.94,2.01,1.99,2.01,.76,0,1.21-.13,1.61-.3l.18,.76c-.37,.17-1.01,.36-1.93,.36-1.79,0-2.85-1.17-2.85-2.93s1.03-3.13,2.72-3.13c1.89,0,2.4,1.67,2.4,2.73,0,.22-.02,.38-.04,.49h-4.08Zm3.09-.76c.01-.67-.28-1.71-1.46-1.71-1.07,0-1.54,.98-1.62,1.71h3.08Z"/><path class="cls-4" d="M393.56,258.03h.02c.14-.2,.35-.46,.52-.66l1.7-2h1.27l-2.24,2.39,2.55,3.42h-1.28l-2-2.78-.54,.6v2.18h-1.04v-8.51h1.04v5.37Z"/><path class="cls-4" d="M403.05,259.59c0,.6,.01,1.13,.05,1.58h-.94l-.06-.95h-.02c-.28,.47-.89,1.08-1.92,1.08-.91,0-2-.5-2-2.54v-3.39h1.05v3.21c0,1.1,.34,1.85,1.3,1.85,.71,0,1.2-.49,1.39-.96,.06-.16,.1-.35,.1-.54v-3.56h1.05v4.22Z"/><path class="cls-4" d="M404.8,256.94c0-.6-.01-1.09-.05-1.57h.94l.06,.96h.02c.29-.55,.96-1.09,1.92-1.09,.8,0,2.05,.48,2.05,2.47v3.47h-1.05v-3.35c0-.94-.35-1.71-1.34-1.71-.7,0-1.24,.49-1.42,1.08-.05,.13-.07,.31-.07,.49v3.49h-1.05v-4.23Z"/><path class="cls-4" d="M416.48,252.66v7.02c0,.52,.01,1.1,.05,1.5h-.95l-.05-1.01h-.02c-.32,.65-1.03,1.14-1.98,1.14-1.4,0-2.48-1.19-2.48-2.95-.01-1.93,1.19-3.12,2.6-3.12,.89,0,1.49,.42,1.75,.89h.02v-3.47h1.06Zm-1.06,5.07c0-.13-.01-.31-.05-.44-.16-.67-.73-1.22-1.52-1.22-1.09,0-1.74,.96-1.74,2.24,0,1.18,.58,2.15,1.71,2.15,.71,0,1.36-.47,1.55-1.26,.04-.14,.05-.29,.05-.46v-1.01Z"/><path class="cls-4" d="M418.82,258.46c.02,1.43,.94,2.01,1.99,2.01,.76,0,1.21-.13,1.61-.3l.18,.76c-.37,.17-1.01,.36-1.93,.36-1.79,0-2.85-1.17-2.85-2.93s1.03-3.13,2.72-3.13c1.89,0,2.4,1.67,2.4,2.73,0,.22-.02,.38-.04,.49h-4.08Zm3.09-.76c.01-.67-.28-1.71-1.46-1.71-1.07,0-1.54,.98-1.62,1.71h3.08Z"/><path class="cls-4" d="M424.24,257.18c0-.68-.01-1.27-.05-1.81h.92l.04,1.14h.05c.26-.78,.9-1.27,1.61-1.27,.12,0,.2,.01,.3,.04v1c-.11-.02-.22-.04-.36-.04-.74,0-1.27,.56-1.42,1.36-.02,.14-.05,.31-.05,.49v3.09h-1.04v-3.99Z"/><path class="cls-4" d="M431.3,258.46c.02,1.43,.94,2.01,1.99,2.01,.76,0,1.21-.13,1.61-.3l.18,.76c-.37,.17-1.01,.36-1.93,.36-1.79,0-2.85-1.17-2.85-2.93s1.03-3.13,2.72-3.13c1.89,0,2.4,1.67,2.4,2.73,0,.22-.02,.38-.04,.49h-4.08Zm3.09-.76c.01-.67-.28-1.71-1.46-1.71-1.07,0-1.54,.98-1.62,1.71h3.08Z"/><path class="cls-4" d="M436.72,257.18c0-.68-.01-1.27-.05-1.81h.92l.04,1.14h.05c.26-.78,.9-1.27,1.61-1.27,.12,0,.2,.01,.3,.04v1c-.11-.02-.22-.04-.36-.04-.74,0-1.27,.56-1.42,1.36-.02,.14-.05,.31-.05,.49v3.09h-1.04v-3.99Z"/><path class="cls-4" d="M448.19,255.37c-.02,.42-.05,.89-.05,1.6v3.37c0,1.33-.26,2.15-.83,2.65-.56,.53-1.38,.7-2.11,.7s-1.46-.17-1.93-.48l.26-.8c.38,.24,.98,.46,1.7,.46,1.08,0,1.87-.56,1.87-2.03v-.65h-.02c-.32,.54-.95,.97-1.85,.97-1.44,0-2.47-1.22-2.47-2.83,0-1.97,1.28-3.08,2.61-3.08,1.01,0,1.56,.53,1.81,1.01h.02l.05-.88h.92Zm-1.09,2.29c0-.18-.01-.34-.06-.48-.19-.61-.71-1.12-1.48-1.12-1.01,0-1.73,.85-1.73,2.2,0,1.14,.58,2.09,1.71,2.09,.65,0,1.24-.41,1.46-1.08,.06-.18,.08-.38,.08-.56v-1.04Z"/><path class="cls-4" d="M453.11,261.17l-.08-.73h-.04c-.32,.46-.95,.86-1.78,.86-1.17,0-1.77-.83-1.77-1.67,0-1.4,1.25-2.17,3.49-2.16v-.12c0-.48-.13-1.34-1.32-1.34-.54,0-1.1,.17-1.51,.43l-.24-.7c.48-.31,1.17-.52,1.91-.52,1.78,0,2.21,1.21,2.21,2.38v2.17c0,.5,.02,1,.1,1.39h-.96Zm-.16-2.96c-1.15-.02-2.46,.18-2.46,1.31,0,.68,.46,1.01,1,1.01,.76,0,1.24-.48,1.4-.97,.04-.11,.06-.23,.06-.34v-1.01Zm-2.27-4.57c0-.64,.47-1.14,1.22-1.14s1.19,.49,1.19,1.13-.52,1.1-1.2,1.1c-.72,0-1.21-.48-1.21-1.09Zm1.82-.02c0-.36-.24-.66-.62-.66s-.59,.31-.59,.68c0,.31,.24,.65,.59,.65,.38,0,.62-.31,.62-.67Z"/><path class="cls-4" d="M456.27,258.46c.02,1.43,.94,2.01,1.99,2.01,.76,0,1.21-.13,1.61-.3l.18,.76c-.37,.17-1.01,.36-1.93,.36-1.79,0-2.85-1.17-2.85-2.93s1.03-3.13,2.72-3.13c1.89,0,2.4,1.67,2.4,2.73,0,.22-.02,.38-.04,.49h-4.08Zm3.09-.76c.01-.67-.28-1.71-1.46-1.71-1.07,0-1.54,.98-1.62,1.71h3.08Z"/><path class="cls-4" d="M462.97,253.7v1.67h1.51v.8h-1.51v3.13c0,.72,.2,1.13,.79,1.13,.28,0,.48-.04,.61-.07l.05,.79c-.2,.08-.53,.14-.94,.14-.49,0-.89-.16-1.14-.44-.3-.31-.41-.83-.41-1.51v-3.17h-.9v-.8h.9v-1.39l1.03-.28Z"/></g><g><path class="cls-4" d="M372.39,464.87c-.06-1.13-.13-2.48-.12-3.49h-.04c-.28,.95-.61,1.96-1.02,3.07l-1.43,3.92h-.79l-1.31-3.85c-.38-1.14-.71-2.18-.94-3.14h-.02c-.02,1.01-.08,2.36-.16,3.57l-.21,3.47h-1l.56-8.08h1.33l1.38,3.91c.34,1,.61,1.88,.82,2.72h.04c.21-.82,.49-1.7,.85-2.72l1.44-3.91h1.33l.5,8.08h-1.02l-.21-3.55Z"/><path class="cls-4" d="M375.85,465.71c.03,1.43,.94,2.02,1.99,2.02,.76,0,1.21-.13,1.61-.3l.18,.75c-.37,.17-1.01,.36-1.93,.36-1.79,0-2.85-1.18-2.85-2.93s1.03-3.13,2.72-3.13c1.89,0,2.4,1.67,2.4,2.73,0,.22-.03,.38-.04,.49h-4.08Zm3.1-.75c.01-.67-.28-1.71-1.46-1.71-1.07,0-1.54,.98-1.62,1.71h3.08Z"/><path class="cls-4" d="M381.27,464.42c0-.68-.01-1.27-.05-1.81h.92l.04,1.14h.05c.26-.78,.9-1.27,1.61-1.27,.12,0,.2,.01,.3,.04v1c-.11-.02-.21-.04-.36-.04-.74,0-1.27,.56-1.42,1.36-.02,.14-.05,.31-.05,.49v3.09h-1.04v-3.99Z"/><path class="cls-4" d="M385.66,465.71c.03,1.43,.94,2.02,1.99,2.02,.76,0,1.21-.13,1.61-.3l.18,.75c-.37,.17-1.01,.36-1.93,.36-1.79,0-2.85-1.18-2.85-2.93s1.03-3.13,2.72-3.13c1.89,0,2.4,1.67,2.4,2.73,0,.22-.03,.38-.04,.49h-4.08Zm3.1-.75c.01-.67-.28-1.71-1.46-1.71-1.07,0-1.54,.98-1.62,1.71h3.08Z"/><path class="cls-4" d="M394.22,465.71c.02,1.43,.94,2.02,1.99,2.02,.76,0,1.21-.13,1.61-.3l.18,.75c-.37,.17-1.01,.36-1.93,.36-1.79,0-2.86-1.18-2.86-2.93s1.03-3.13,2.72-3.13c1.89,0,2.4,1.67,2.4,2.73,0,.22-.02,.38-.04,.49h-4.08Zm3.09-.75c.01-.67-.28-1.71-1.46-1.71-1.07,0-1.54,.98-1.62,1.71h3.08Z"/><path class="cls-4" d="M399.64,464.18c0-.6-.01-1.09-.05-1.57h.94l.06,.96h.02c.29-.55,.96-1.09,1.92-1.09,.8,0,2.05,.48,2.05,2.47v3.47h-1.05v-3.35c0-.94-.35-1.72-1.34-1.72-.7,0-1.24,.49-1.42,1.08-.05,.13-.07,.31-.07,.49v3.49h-1.05v-4.23Z"/><path class="cls-4" d="M411.32,459.9v7.02c0,.52,.01,1.1,.05,1.5h-.95l-.05-1.01h-.03c-.32,.65-1.03,1.14-1.98,1.14-1.4,0-2.48-1.19-2.48-2.95-.01-1.93,1.19-3.12,2.6-3.12,.89,0,1.49,.42,1.75,.89h.02v-3.47h1.06Zm-1.06,5.07c0-.13-.01-.31-.05-.44-.16-.67-.73-1.22-1.52-1.22-1.09,0-1.74,.96-1.74,2.24,0,1.17,.57,2.15,1.71,2.15,.71,0,1.36-.47,1.55-1.26,.04-.14,.05-.29,.05-.46v-1.01Z"/><path class="cls-4" d="M419.93,461.51h-2.97l-.3,2c.18-.02,.35-.05,.63-.05,.6,0,1.2,.13,1.68,.42,.61,.35,1.12,1.02,1.12,2,0,1.52-1.21,2.66-2.9,2.66-.85,0-1.57-.24-1.94-.48l.26-.8c.32,.19,.96,.43,1.67,.43,.99,0,1.85-.65,1.85-1.69-.01-1.01-.68-1.73-2.24-1.73-.44,0-.79,.05-1.08,.08l.5-3.74h3.73v.89Z"/><path class="cls-4" d="M424.32,464.51c0-.74-.03-1.34-.05-1.89h.95l.05,1h.02c.43-.71,1.12-1.13,2.06-1.13,1.4,0,2.46,1.19,2.46,2.95,0,2.09-1.27,3.12-2.64,3.12-.77,0-1.44-.34-1.79-.91h-.02v3.15h-1.04v-6.29Zm1.04,1.55c0,.16,.02,.3,.05,.43,.19,.73,.83,1.24,1.58,1.24,1.12,0,1.76-.91,1.76-2.24,0-1.16-.61-2.16-1.73-2.16-.72,0-1.39,.52-1.59,1.31-.04,.13-.07,.29-.07,.43v1Z"/><path class="cls-4" d="M436.4,465.47c0,2.15-1.49,3.08-2.89,3.08-1.57,0-2.78-1.15-2.78-2.99,0-1.94,1.27-3.08,2.88-3.08s2.79,1.21,2.79,2.99Zm-4.61,.06c0,1.27,.73,2.23,1.76,2.23s1.76-.95,1.76-2.25c0-.98-.49-2.23-1.74-2.23s-1.79,1.15-1.79,2.25Z"/><path class="cls-4" d="M438.91,460.98c.01,.36-.25,.65-.67,.65-.37,0-.63-.29-.63-.65s.28-.66,.66-.66,.65,.29,.65,.66Zm-1.17,7.44v-5.8h1.05v5.8h-1.05Z"/><path class="cls-4" d="M440.54,464.18c0-.6-.01-1.09-.05-1.57h.94l.06,.96h.02c.29-.55,.96-1.09,1.92-1.09,.8,0,2.05,.48,2.05,2.47v3.47h-1.05v-3.35c0-.94-.35-1.72-1.34-1.72-.7,0-1.23,.49-1.41,1.08-.05,.13-.07,.31-.07,.49v3.49h-1.05v-4.23Z"/><path class="cls-4" d="M448.42,460.95v1.67h1.51v.8h-1.51v3.13c0,.72,.21,1.13,.79,1.13,.28,0,.48-.04,.61-.07l.05,.79c-.2,.08-.53,.14-.94,.14-.49,0-.89-.16-1.14-.44-.3-.31-.41-.83-.41-1.51v-3.17h-.9v-.8h.9v-1.39l1.03-.28Z"/></g><g><line class="cls-7" x1="43" y1="118.54" x2="48.71" y2="118.16"/><path class="cls-1" d="M54.74,117.76c-2.76,1.24-6.16,3.27-8.21,5.31l1.4-4.86-2.03-4.63c2.31,1.76,5.94,3.32,8.84,4.18Z"/></g><rect class="cls-1" x="43.24" y="500.48" width="14.38" height=".92"/><rect class="cls-1" x="42.72" y="335.2" width="1.03" height="166.2"/><g><path class="cls-4" d="M45.31,329.95c.21-.31,.42-.86,.42-1.39,0-.77-.38-1.13-.86-1.13s-.78,.3-1.07,1.08c-.37,1.04-.95,1.54-1.64,1.54-.93,0-1.7-.76-1.7-2,0-.59,.17-1.1,.36-1.43l.77,.26c-.14,.23-.33,.65-.33,1.19,0,.62,.36,.97,.79,.97,.48,0,.7-.35,.98-1.1,.38-1.01,.89-1.52,1.75-1.52,1.02,0,1.74,.79,1.74,2.17,0,.64-.16,1.22-.4,1.63l-.8-.26Z"/><path class="cls-4" d="M42.48,325.05c-.74,0-1.34,.02-1.89,.05v-.95l1-.05v-.02c-.71-.43-1.13-1.12-1.13-2.06,0-1.4,1.19-2.46,2.95-2.46,2.09,0,3.12,1.27,3.12,2.64,0,.77-.34,1.44-.91,1.79v.02h3.15v1.04h-6.29Zm1.55-1.04c.16,0,.3-.02,.43-.05,.73-.19,1.24-.83,1.24-1.58,0-1.12-.91-1.76-2.24-1.76-1.16,0-2.16,.61-2.16,1.73,0,.72,.52,1.39,1.31,1.59,.13,.04,.29,.07,.43,.07h1Z"/><path class="cls-4" d="M38.96,317.05c.36-.01,.65,.25,.65,.67,0,.37-.29,.64-.65,.64s-.66-.28-.66-.66,.29-.65,.66-.65Zm7.44,1.17h-5.8v-1.05h5.8v1.05Z"/><path class="cls-4" d="M37.88,315.42v-1.05h8.52v1.05h-8.52Z"/><path class="cls-4" d="M38.96,308.87c.36-.01,.65,.25,.65,.67,0,.37-.29,.64-.65,.64s-.66-.28-.66-.66,.29-.65,.66-.65Zm7.44,1.17h-5.8v-1.05h5.8v1.05Z"/><path class="cls-4" d="M40.59,302.23c.42,.02,.89,.05,1.6,.05h3.37c1.33,0,2.15,.26,2.65,.83,.53,.56,.7,1.38,.7,2.11s-.17,1.46-.48,1.93l-.8-.26c.24-.38,.46-.98,.46-1.7,0-1.08-.56-1.87-2.03-1.87h-.65v.02c.54,.32,.97,.95,.97,1.85,0,1.44-1.22,2.47-2.83,2.47-1.97,0-3.08-1.28-3.08-2.61,0-1.01,.53-1.56,1.01-1.81v-.02l-.88-.05v-.92Zm2.29,1.09c-.18,0-.34,.01-.48,.06-.61,.19-1.12,.71-1.12,1.48,0,1.01,.85,1.73,2.2,1.73,1.14,0,2.09-.58,2.09-1.71,0-.65-.41-1.24-1.08-1.46-.18-.06-.38-.08-.56-.08h-1.04Z"/><path class="cls-4" d="M43.68,299.94c1.43-.02,2.02-.94,2.02-1.99,0-.76-.13-1.21-.3-1.61l.76-.18c.17,.37,.36,1.01,.36,1.93,0,1.79-1.18,2.85-2.93,2.85s-3.13-1.03-3.13-2.72c0-1.89,1.67-2.4,2.73-2.4,.22,0,.38,.02,.49,.04v4.08Zm-.76-3.09c-.67-.01-1.71,.28-1.71,1.46,0,1.07,.98,1.54,1.71,1.62v-3.08Z"/><path class="cls-4" d="M42.16,294.51c-.6,0-1.09,.01-1.57,.05v-.94l.96-.06v-.02c-.55-.29-1.09-.96-1.09-1.92,0-.8,.48-2.05,2.47-2.05h3.47v1.05h-3.35c-.94,0-1.71,.35-1.71,1.34,0,.7,.49,1.24,1.08,1.42,.13,.05,.31,.07,.49,.07h3.49v1.05h-4.23Z"/></g><rect class="cls-1" x="42.44" y="118.54" width=".56" height="163.66"/></svg>