<?xml version="1.0" encoding="UTF-8"?><svg id="Layer_1" xmlns="http://www.w3.org/2000/svg" width="629.82" height="481.68" viewBox="0 0 629.82 481.68"><defs><style>.cls-1,.cls-2{fill:none;}.cls-3{fill:#f9a560;}.cls-4{fill:#f9a561;}.cls-5{fill:#e88734;}.cls-6{fill:#e88833;}.cls-7{fill:#fee1c9;}.cls-8,.cls-9{fill:#fff;}.cls-10{fill:#944520;}.cls-11{fill:#aed8e6;}.cls-12{fill:#d22a27;}.cls-13{fill:#c83627;}.cls-14{fill:#180a10;}.cls-15{fill:#200c16;}.cls-16{fill:#231f20;}.cls-17{fill:#1c190f;}.cls-18{fill:#3e3e3f;}.cls-19{fill:#3f3f40;}.cls-20{fill:#1a170c;}.cls-21{fill:#954621;}.cls-22{fill:#384ba0;}.cls-9{stroke:#ec2227;}.cls-9,.cls-2{stroke-miterlimit:10;}.cls-2{stroke:#231f20;}</style></defs><rect class="cls-11" x="-6.26" y="-5.86" width="642.65" height="495.18"/><g><ellipse class="cls-5" cx="179.9" cy="126.77" rx="113.4" ry="107.86" transform="translate(-21.42 37.87) rotate(-11.35)"/><ellipse class="cls-7" cx="170.55" cy="160.4" rx="27.61" ry="29.25" transform="translate(-28.22 36.68) rotate(-11.35)"/><path class="cls-5" d="M83.58,121.68c13.25-.04,24.02-26.52,23.14-48.43-.65-16.29-8.1-39.06-19.69-40.98-13.09-2.17-30.04,22.5-29.39,46.46,.55,20.12,13.61,42.98,25.94,42.94Z"/><path class="cls-10" d="M83.42,115.84c10.88-15.83,10.37-24.25,19.36-43.06,5.99-12.54-7.04-34.82-16.86-36.57-11.09-1.98-25.32,19.93-24.65,41.28,.56,17.93,15.94,47.4,22.16,38.35Z"/><path class="cls-5" d="M248.36,.51c-13.13,4.24-16.87,35.14-10.27,57.59,4.91,16.7,18.26,37.97,30.26,36.29,13.55-1.9,23.9-32.87,16.97-57.53-5.82-20.71-24.75-40.29-36.97-36.35Z"/><path class="cls-10" d="M250.84,3.85c-10.65,3.41-19.83,33.05-7.88,47.88,10.6,13.15,17.84,33.09,24.93,30.51,13.63-4.96,19.18-27.16,13.34-47.77-4.91-17.31-20.48-33.8-30.39-30.63Z"/><ellipse class="cls-20" cx="219.8" cy="96.62" rx="12.86" ry="14.52" transform="translate(-14.71 45.13) rotate(-11.35)"/><ellipse class="cls-20" cx="133.07" cy="114.02" rx="12.86" ry="14.52" transform="translate(-19.83 28.41) rotate(-11.35)"/><path class="cls-3" d="M210.37,63.24c3.19-.17,7.29-.16,11.96,.48,13.6,1.87,26.73,8.4,26.08,11.04-1.02,4.14-28.87-1.21-35.76,1.28-.36,.13-8.54-1.09-9.7-2.13-1.16-1.03-2-3.7-1.23-6.51,.85-3.11,6.34-4.88,8.66-4.16"/><path class="cls-3" d="M129.43,81.7c-3.01,1.07-3.84,1.53-7.89,3.92-11.83,6.98-21.42,18.06-19.8,20.25,2.54,3.43,31.62-16.5,38.94-16.86,.38-.02,2-.05,2.68-1.46,.67-1.4,.42-4.18-1.37-6.48-1.98-2.54-5.26-3.76-7.13-2.2"/><g><line class="cls-1" x1="172.91" y1="130.09" x2="173.23" y2="130.02"/><line class="cls-2" x1="166.03" y1="129.56" x2="165.7" y2="129.62"/></g><ellipse class="cls-7" cx="205.74" cy="153.34" rx="27.61" ry="29.25" transform="translate(-26.15 43.47) rotate(-11.35)"/><path class="cls-7" d="M197.58,141.27l17.74,88.41c1.79-.36,3.55-.66,5.28-.91,2.94-1.29,5.97-2.31,9.08-3.06,3.43-2.02,6.8-4.22,10.21-5.88,1.7-.83,3.56-1.67,5.5-2.37,1.86-1.27,3.68-2.6,5.45-4.01,7.01-5.6,13.43-12.23,19.26-19.37,.14-.49,.38-.96,.74-1.39,4.75-5.77,9.06-11.99,12.58-18.82,3.03-5.89,4.99-12.2,7.03-18.61,.03-.08,.05-.16,.08-.24,.81-4.92,1.44-9.89,2.11-14.86,.17-4.37,.29-8.75,.37-13.12-24.34,13.91-56.93,26.81-95.42,14.21Z"/><ellipse class="cls-7" cx="252.74" cy="171.77" rx="7.73" ry="7.14" transform="translate(-28.85 53.08) rotate(-11.35)"/><path class="cls-7" d="M168.83,147.03l17.74,88.41c-1.79,.36-3.53,.76-5.22,1.2-3.2-.06-6.4,.18-9.56,.68-3.95-.54-7.9-1.27-11.69-1.48-1.89-.1-3.93-.17-5.99-.06-2.2-.45-4.4-.98-6.58-1.6-8.63-2.46-17.11-6.1-25.24-10.44-.32-.39-.72-.74-1.22-1-6.61-3.49-12.99-7.57-18.86-12.51-5.07-4.26-9.31-9.33-13.66-14.45-.05-.06-.11-.13-.16-.19-2.65-4.22-5.15-8.57-7.67-12.89-1.84-3.96-3.64-7.96-5.4-11.97,27.82,3.45,62.86,2.77,93.51-23.69Z"/><path class="cls-7" d="M215.08,230.55c11.59-7.73,18.06-21.26,15.31-34.95-3.71-18.49-22.81-30.25-42.66-26.27s-32.94,22.2-29.23,40.69c2.87,14.32,14.97,24.59,29.5,26.65,8.99-2.19,18-4.35,27.08-6.13Z"/><path class="cls-18" d="M168.91,140.66c-1.66-8.26,2.93-16.14,10.24-17.61,7.31-1.47,14.58,4.04,16.24,12.29,1.66,8.26-2.93,16.14-10.24,17.61-7.31,1.47-14.58-4.04-16.24-12.29"/><ellipse class="cls-8" cx="221.03" cy="89.44" rx="2.62" ry="2.96" transform="translate(-13.28 45.23) rotate(-11.35)"/><ellipse class="cls-8" cx="134.94" cy="105.94" rx="2.62" ry="2.96" transform="translate(-18.2 28.62) rotate(-11.35)"/><path class="cls-7" d="M156.79,191.79c8.38,3.13,17.48,6.36,26.48,3.89s13.21-9.75,17.27-17.08l-3.42,.9c6.09,3.35,12.85,6.19,19.93,6.1,6.12-.07,12.25-2.45,16.28-7.17,.88-1.03,1.01-2.53,0-3.54-.9-.9-2.65-1.03-3.54,0-3.3,3.86-8.09,5.72-13.12,5.7-6.06-.02-11.81-2.55-17.02-5.42-1.16-.64-2.75-.31-3.42,.9-3.47,6.27-7.22,13-14.68,14.88-7.93,2-16.09-1.26-23.42-4-1.27-.47-2.74,.53-3.08,1.75-.38,1.4,.48,2.6,1.75,3.08h0Z"/><path class="cls-7" d="M129.7,206.07c3.22,0,3.22-5,0-5s-3.22,5,0,5h0Z"/><path class="cls-7" d="M160.34,182.99c6.08,2.81,12.92,1.97,18.61-1.42s9.72-8.58,13.5-13.77c.8-1.09,.19-2.79-.9-3.42-1.26-.74-2.62-.2-3.42,.9-3.11,4.27-6.51,8.64-11,11.54-4.16,2.69-9.58,4.02-14.26,1.85-1.22-.57-2.69-.35-3.42,.9-.63,1.08-.33,2.85,.9,3.42h0Z"/><path class="cls-7" d="M188.35,168.01c8.71,8.98,22.38,13.19,34.36,8.75,1.27-.47,2.13-1.69,1.75-3.08-.33-1.22-1.8-2.22-3.08-1.75-10.39,3.85-21.92,.34-29.49-7.46-2.25-2.31-5.78,1.22-3.54,3.54h0Z"/><path class="cls-16" d="M184.85,167.67c-.05,.13-.1,.27-.16,.4-.13,.33-.12,.17,.02-.05-.14,.23-.23,.53-.35,.77-.24,.51-.5,1.01-.78,1.49s-.57,.96-.88,1.42c-.16,.23-.31,.46-.48,.68-.05,.07-.1,.13-.15,.2-.11,.15-.07,.09,.14-.18-.05,.12-.18,.22-.26,.32-.69,.84-1.44,1.64-2.25,2.37-.2,.18-.4,.36-.61,.53-.1,.09-.21,.17-.31,.25-.35,.29,.31-.23,.06-.05-.46,.33-.91,.65-1.39,.95-1.11,.69-1.64,2.26-.9,3.42s2.23,1.64,3.42,.9c4.53-2.83,7.78-7.14,9.69-12.09,.47-1.22-.52-2.8-1.75-3.08-1.43-.33-2.57,.44-3.08,1.75h0Z"/><path class="cls-16" d="M185.73,168.75c2.42,4.69,7.08,8.58,12.38,9.38,.69,.1,1.3,.11,1.93-.25,.52-.3,1.01-.9,1.15-1.49,.27-1.19-.36-2.86-1.75-3.08-.54-.08-1.07-.19-1.59-.34-.28-.08-.55-.17-.82-.26-.12-.04-.25-.09-.37-.14-.45-.18,.04-.06,.09,.04-.05-.11-.6-.28-.72-.34-.26-.13-.52-.27-.77-.42-.48-.28-.92-.7-1.41-.94,.21,.1,.34,.27,.05,.04-.11-.09-.21-.17-.32-.26-.21-.18-.41-.36-.61-.55-.42-.4-.82-.82-1.2-1.26-.09-.11-.18-.21-.27-.32-.38-.45,.32,.45-.02-.02-.16-.23-.33-.46-.49-.69-.35-.52-.66-1.06-.94-1.61-.6-1.16-2.33-1.6-3.42-.9-1.19,.76-1.54,2.18-.9,3.42h0Z"/></g><path class="cls-12" d="M135.67,426.19s43.24-64.4,47.54-99.78l.92-7.91c.42-9.92-2-20.21-8.06-29.65-11.57-17.99-33.69-26.71-53.99-21.24-19.24,5.19-32.08,20.75-35.33,38.64-14.83-10.52-34.89-12.68-52.28-2.94-18.35,10.27-28.07,31.98-23.78,52.92,2.25,10.99,7.72,20.04,14.95,26.85l6.18,5.01c27.8,22.3,103.74,38.14,103.74,38.14l.11-.05Z"/><path class="cls-16" d="M314.76,354c-.46-.85-5.08-4.41-4.61-5.27l15.61-13.64,24.36-44.13c1.18-2.13-.68-4.57-3.5-4.58l-47.41-.18-47.39-.18c-2.82-.01-4.7,2.42-3.54,4.56l24.05,44.3,16.13,13.84c.46,.85-3.22,3.52-3.69,4.37l-12.11,10.95-24.36,44.13c-1.18,2.13,.68,4.57,3.5,4.58l47.41,.18,47.39,.18c2.82,.01,4.7-2.42,3.54-4.56l-24.05-44.3-11.32-10.26Z"/><g><ellipse class="cls-13" cx="462.97" cy="127.64" rx="101.38" ry="103.53" transform="translate(245.58 555.86) rotate(-78.5)"/><path class="cls-22" d="M538.02,80.74l-3.33,16.37-125.82-25.6,3.33-16.37c4.96,1.67,12.91,3.91,22.69,4.62,23.45,1.68,28.78-7.55,44.22-4.18,15.09,3.3,15.88,13.41,37.16,20.73,8.95,3.08,16.85,4.06,21.76,4.43Z"/><rect class="cls-15" x="417.02" y="93.19" width="27.83" height="28.48" rx="13.92" ry="13.92" transform="translate(30.07 -83.77) rotate(11.5)"/><rect class="cls-14" x="477.76" y="104.71" width="27.83" height="28.48" rx="13.92" ry="13.92" transform="translate(33.59 -95.64) rotate(11.5)"/><polygon class="cls-15" points="519.49 112.46 488.65 96.84 491.16 91.74 522 107.35 519.49 112.46"/><polygon class="cls-15" points="443.87 87.55 409.4 90.22 409.03 84.55 443.5 81.87 443.87 87.55"/><g><path class="cls-8" d="M460.5,60.91c.11-.54,.19-.98,.24-1.42l.81,.16-.13,.85h.03c.39-.43,.96-.8,1.8-.63,.7,.14,1.14,.68,1.23,1.34h.02c.22-.26,.46-.44,.71-.56,.35-.18,.72-.24,1.2-.14,.67,.14,1.58,.79,1.22,2.61l-.63,3.08-.91-.18,.6-2.96c.2-1-.03-1.68-.78-1.83-.53-.11-1.02,.21-1.27,.64-.07,.12-.13,.29-.17,.46l-.66,3.23-.91-.19,.64-3.13c.17-.83-.07-1.51-.77-1.65-.58-.12-1.1,.27-1.34,.72-.08,.13-.14,.29-.17,.45l-.64,3.15-.91-.19,.78-3.81Z"/><path class="cls-8" d="M471.34,67.09l.06-.67h-.03c-.37,.35-.99,.6-1.72,.45-1.03-.21-1.41-1.06-1.26-1.82,.26-1.26,1.49-1.73,3.46-1.32l.02-.11c.09-.43,.13-1.23-.91-1.45-.47-.1-1-.05-1.41,.12l-.08-.67c.48-.2,1.13-.25,1.77-.12,1.56,.32,1.72,1.48,1.5,2.53l-.4,1.96c-.09,.45-.16,.9-.17,1.27l-.84-.17Zm.41-2.69c-1.01-.23-2.19-.28-2.4,.74-.12,.62,.22,.99,.69,1.08,.66,.14,1.17-.21,1.41-.62,.05-.09,.09-.19,.11-.29l.18-.91Z"/><path class="cls-8" d="M475.09,64.91h.02c.16-.15,.39-.34,.57-.5l1.86-1.5,1.12,.23-2.41,1.75,1.62,3.53-1.13-.23-1.25-2.86-.58,.44-.4,1.96-.92-.19,1.56-7.66,.92,.19-.98,4.84Z"/><path class="cls-8" d="M479.46,65c.12-.62,.22-1.14,.29-1.64l.81,.16-.18,1.03h.04c.38-.65,1.02-.97,1.64-.85,.11,.02,.18,.05,.26,.09l-.18,.9c-.09-.04-.18-.07-.31-.1-.65-.13-1.22,.28-1.49,.97-.05,.13-.1,.27-.13,.43l-.57,2.79-.92-.19,.73-3.6Z"/><path class="cls-8" d="M483.08,66.94c-.24,1.29,.45,1.98,1.38,2.17,.66,.13,1.09,.1,1.47,.02l.02,.71c-.36,.09-.95,.14-1.76-.02-1.57-.32-2.29-1.57-1.97-3.14s1.48-2.63,2.97-2.33c1.67,.34,1.8,1.93,1.61,2.89-.04,.2-.09,.34-.12,.44l-3.58-.73Zm2.86-.13c.13-.6,.07-1.59-.97-1.8-.94-.19-1.53,.61-1.74,1.25l2.71,.55Z"/><path class="cls-8" d="M488.91,62.68l.93,.19-1.56,7.67-.93-.19,1.56-7.66Z"/><path class="cls-8" d="M471.33,75.13c-.1,.37-.2,.79-.33,1.43l-.62,3.03c-.24,1.2-.63,1.89-1.21,2.24-.59,.38-1.34,.38-1.98,.25-.61-.12-1.25-.41-1.61-.78l.38-.68c.29,.28,.78,.58,1.41,.71,.95,.19,1.75-.17,2.02-1.49l.12-.58h-.02c-.38,.42-1.01,.7-1.8,.54-1.26-.26-1.95-1.54-1.65-2.99,.36-1.77,1.69-2.54,2.86-2.31,.88,.18,1.27,.75,1.41,1.23h.02s.2-.77,.2-.77l.81,.17Zm-1.38,1.87c.03-.16,.05-.3,.04-.44-.06-.58-.42-1.13-1.09-1.27-.88-.18-1.67,.46-1.92,1.67-.21,1.03,.12,1.98,1.13,2.19,.57,.12,1.16-.15,1.48-.71,.09-.15,.14-.33,.18-.49l.19-.94Z"/><path class="cls-8" d="M476.33,80.11c-.11,.54-.2,1.02-.25,1.43l-.82-.17,.12-.86h-.02c-.33,.37-.98,.81-1.88,.62-.8-.16-1.67-.81-1.29-2.65l.62-3.05,.93,.19-.59,2.89c-.2,.99-.04,1.72,.8,1.89,.62,.13,1.14-.23,1.4-.62,.08-.13,.15-.29,.18-.47l.65-3.21,.93,.19-.77,3.8Z"/><path class="cls-8" d="M477.67,81.86l.92-4.5-.72-.15,.15-.72,.72,.14,.05-.25c.15-.73,.44-1.37,.96-1.71,.42-.28,.91-.32,1.34-.23,.33,.07,.6,.2,.76,.31l-.28,.71c-.12-.09-.3-.19-.57-.24-.79-.16-1.14,.51-1.3,1.31l-.06,.28,1.23,.25-.15,.72-1.23-.25-.92,4.5-.92-.19Z"/></g><path class="cls-16" d="M430.67,169.17c1.7,3.22,9.78,17.78,25.69,20.81,15.71,2.99,32.8-6.46,43.58-24.07"/></g><g><ellipse class="cls-6" cx="512.09" cy="350.26" rx="71.35" ry="86.44" transform="translate(66.76 782.24) rotate(-78.5)"/><ellipse class="cls-7" cx="496.22" cy="368.05" rx="19.35" ry="21.05" transform="translate(36.62 780.93) rotate(-78.5)"/><path class="cls-6" d="M445.46,320.57c9.37,3.65,24.29-9.42,29.72-22.94,4.05-10.04,5.08-25.88-2.59-30.26-8.67-4.93-27.44,5.31-33.6,20.02-5.16,12.33-2.27,29.8,6.46,33.18Z"/><path class="cls-21" d="M446.96,316.96c12.06-6.58,14.03-11.83,25.57-20.74,7.69-5.93,4.66-23.04-1.82-26.81-7.3-4.27-23.4,5.07-28.82,18.18-4.57,11-1.82,33.12,5.07,29.37Z"/><path class="cls-6" d="M595.36,292.73c-10.44-1.06-21.64,16.62-23.15,32.04-1.15,11.46,2.4,28.06,11.35,30.35,10.1,2.59,25.97-13.31,27.87-30.16,1.6-14.15-6.34-31.26-16.07-32.23h0Z"/><path class="cls-21" d="M596.18,295.44c-8.47-.89-23.13,14.54-18.8,26.82,3.85,10.88,3.47,24.99,9.17,25.38,11.02,.76,21.07-11.14,22.63-25.24,1.32-11.84-5.12-26.12-12.99-26.95Z"/><ellipse class="cls-17" cx="548.61" cy="343.03" rx="9.6" ry="9.79" transform="translate(103.08 812.23) rotate(-78.5)"/><ellipse class="cls-17" cx="482.53" cy="329.59" rx="9.6" ry="9.79" transform="translate(63.35 736.72) rotate(-78.5)"/><path class="cls-4" d="M551.18,320.22c2.3,.76,5.2,1.92,8.3,3.58,9.09,4.9,16.54,12.49,15.36,13.9-1.86,2.23-20.06-8.7-25.62-9.12-.28-.03-5.73-3.03-6.28-3.97s-.39-2.8,.93-4.28c1.45-1.66,5.83-1.21,7.27-.12"/><path class="cls-4" d="M488.89,309.03c-2.42-.2-3.13-.13-6.64,.19-10.28,.96-20.11,5.03-19.57,6.8,.84,2.78,26.9-1.25,32.18,.57,.27,.08,1.42,.53,2.3-.15,.87-.65,1.45-2.43,.81-4.31-.69-2.09-2.69-3.74-4.43-3.3"/><line class="cls-2" x1="501.52" y1="348.11" x2="501.28" y2="348.06"/><ellipse class="cls-7" cx="523" cy="373.5" rx="19.35" ry="21.05" transform="translate(52.72 811.54) rotate(-78.5)"/><path class="cls-7" d="M520.58,363.95l-11.89,58.46c1.38,.28,2.69,.58,4,.9,2.42,.02,4.86,.25,7.27,.65,2.99-.28,5.98-.68,8.83-.75,1.44-.03,2.97-.02,4.54,.1,1.65-.26,3.31-.57,4.94-.92,6.49-1.46,12.88-3.69,18.96-6.42,.24-.25,.54-.48,.9-.65,4.95-2.19,9.71-4.75,14.09-7.91,3.78-2.73,6.9-6,10.1-9.32,.01-.06,.08-.07,.12-.12,1.93-2.75,3.76-5.6,5.61-8.42,1.33-2.6,2.62-5.21,3.9-7.85-21.03,1.7-47.62,.5-71.32-17.77l-.04,.02Z"/><ellipse class="cls-7" cx="551.12" cy="397.67" rx="4.73" ry="5.88" transform="translate(51.55 858.44) rotate(-78.5)"/><path class="cls-7" d="M498.69,359.5l-11.89,58.46c-1.38-.28-2.7-.52-4.03-.73-2.24-.93-4.57-1.67-6.95-2.24-2.65-1.43-5.24-2.96-7.84-4.14-1.32-.59-2.73-1.18-4.22-1.69-1.42-.88-2.82-1.82-4.19-2.78-5.4-3.88-10.41-8.43-14.94-13.31-.13-.32-.31-.66-.57-.95-3.7-3.95-7.08-8.16-9.88-12.79-2.41-3.98-4.01-8.22-5.65-12.52,.01-.06-.04-.1-.06-.16-.7-3.28-1.27-6.62-1.87-9.94-.2-2.91-.38-5.82-.52-8.75,18.69,9.78,43.64,19.07,72.6,11.51l.02,.03Z"/><path class="cls-7" d="M508.27,422.86c10.32-1.48,18.61-7.88,20.45-16.92,2.49-12.23-7.76-24.62-22.9-27.7-15.14-3.08-29.42,4.35-31.9,16.55-1.93,9.47,3.79,19.04,13.47,24.3,6.95,1.15,13.92,2.33,20.81,3.76h.06Z"/><ellipse class="cls-19" cx="510.58" cy="357.68" rx="10.1" ry="10.29" transform="translate(58.28 786.7) rotate(-78.5)"/><path class="cls-7" d="M473.85,387.34c5.87,4.89,12.46,10,20.44,11.09,7.98,1.09,14.89-1.95,21.32-6.26l-10.85-2.21c8.08,8.78,20.06,16.7,32.68,11.77,3.85-1.5,6.23-5.22,4.74-9.16-1.33-3.53-6.11-6.19-9.96-4.69-1.84,.72-2.35,.88-4.11,.76,.88,.06-1.53-.31-1.5-.31-1.62-.33,.02,.21-1.43-.5-2.87-1.41-5.35-3.34-7.52-5.71-2.66-2.91-7.15-4.71-10.85-2.21-1.92,1.3-3.88,2.74-6.04,3.66-1.19,.53-2.91,.8-4.57,.49-4.58-.87-8.52-4.4-12.12-7.41-3.19-2.66-8.24-2.48-11,.43-2.76,2.9-2.41,7.62,.78,10.29h0v-.03Z"/><path class="cls-7" d="M453.96,390.01c9.87,2.01,12.76-12.21,2.89-14.22s-12.76,12.21-2.89,14.22h0Z"/><path class="cls-7" d="M479.13,383.32c4.38,4.21,11.22,6.04,17.26,5.53,6.04-.52,11.3-2.85,16.47-5.47,1.64-.85,2.92-2.9,3.26-4.58s-.05-4.01-1.21-5.49c-2.69-3.42-7.04-4.13-10.85-2.21-1.17,.59-2.35,1.18-3.54,1.71l1.79-.79c-2.38,1.05-4.83,1.92-7.44,2.39l1.98-.34c-1.52,.25-3,.34-4.52,.24l2.07,.16c-1.38-.1-2.7-.37-4.01-.82l1.97,.67c-1.04-.36-2.03-.86-2.96-1.43l1.69,1.08c-.62-.42-1.17-.86-1.7-1.38-1.36-1.31-3.87-2-5.77-1.91s-4.06,.98-5.23,2.34c-2.79,3.19-2.32,7.32,.78,10.29h0l-.04,.02Z"/><path class="cls-7" d="M501.06,379.25c2.34,4.98,5.83,9.6,10.64,12.8,2.36,1.58,4.72,2.97,7.43,3.94,1.58,.56,3.19,1.12,4.84,1.46,1.78,.36,3.57,.49,5.37,.59s4.1-1.15,5.23-2.34c1.26-1.34,2.15-3.5,1.88-5.33s-1.06-3.74-2.66-4.95l-1.69-1.08c-1.28-.62-2.66-.9-4.08-.83h-.32s2.07,.15,2.07,.15c-1.98-.17-3.94-.56-5.82-1.18l1.97,.67c-1.88-.65-3.68-1.52-5.35-2.57l1.69,1.08c-1.77-1.16-3.39-2.5-4.8-4l1.34,1.43c-1.36-1.46-2.51-3.06-3.43-4.78l.9,1.69c-.21-.4-.39-.76-.59-1.19-.82-1.77-2.01-3.28-3.9-4.2-1.75-.83-4.24-1.13-6.06-.49-3.68,1.29-6.49,5.4-4.74,9.16h0l.07-.02Z"/><path class="cls-16" d="M499.93,372.54c-.24,.22-.5,.43-.74,.65l1.49-1.21c-1.07,.85-2.2,1.54-3.46,2.11l1.79-.79c-1.19,.53-2.45,.92-3.78,1.16l1.98-.34c-.33,.05-.66,.1-.99,.15-1.06,.02-2,.27-2.87,.75-.93,.34-1.74,.86-2.37,1.59-.72,.71-1.21,1.53-1.46,2.46-.41,.89-.57,1.84-.46,2.87l.42,1.86c.45,1.22,1.21,2.23,2.24,3.12l1.69,1.08c1.28,.62,2.66,.9,4.08,.83,1.47-.17,2.99-.43,4.41-.82,1.42-.39,2.76-1.01,4.1-1.62,2.15-.98,4-2.41,5.68-3.94,.72-.71,1.21-1.53,1.46-2.46,.41-.89,.57-1.84,.46-2.87-.05-.99-.35-1.88-.89-2.7-.4-.88-.97-1.65-1.78-2.26l-1.69-1.08c-1.28-.62-2.66-.9-4.08-.83l-1.98,.34c-1.29,.39-2.35,1.06-3.28,2h0v-.06Z"/><path class="cls-16" d="M498.73,377.54c.16,1.42,.5,2.88,1.02,4.23,.17,.42,.35,.81,.55,1.21,.49,.9,.93,1.85,1.52,2.71,.81,1.2,1.86,2.3,2.93,3.32,.32,.3,.65,.58,1.01,.83,.86,.62,1.79,1.22,2.74,1.74,.95,.49,1.95,.75,3.04,.74,1.02,.15,2.03,.09,3.02-.27,.98-.27,1.84-.72,2.52-1.38,.81-.55,1.43-1.25,1.87-2.14l.66-1.82c.26-1.28,.14-2.55-.31-3.79l-.9-1.69c-.77-1.07-1.78-1.9-3-2.51-.2-.13-.43-.24-.63-.36l1.69,1.08c-.73-.47-1.39-1.02-1.99-1.65l1.34,1.43c-.66-.7-1.17-1.45-1.62-2.25l.9,1.69c-.44-.83-.77-1.7-.97-2.6l.42,1.86c-.08-.37-.14-.74-.19-1.1-.05-.99-.35-1.88-.89-2.7-.4-.88-.97-1.65-1.78-2.26-.78-.69-1.68-1.17-2.68-1.43-.97-.4-1.99-.58-3.09-.51l-1.98,.34c-1.29,.39-2.35,1.06-3.28,2l-1.11,1.55c-.62,1.18-.88,2.46-.77,3.78h0l-.06-.04Z"/></g><path class="cls-9" d="M562.43,338.47l-27.64,9.12"/><path class="cls-9" d="M496.35,325.03l-27.64,9.12"/><path class="cls-9" d="M472.97,319.32l19.35,19.88"/><path class="cls-9" d="M543.39,331.01l13.83,24.05"/></svg>