<?xml version="1.0" encoding="UTF-8"?><svg id="Layer_1" xmlns="http://www.w3.org/2000/svg" width="974.58" height="632.34" viewBox="0 0 974.58 632.34"><defs><style>.cls-1,.cls-2{fill:none;}.cls-3{fill:#f9a560;}.cls-4{fill:#e88734;}.cls-5{fill:#fee1c9;}.cls-6,.cls-7{fill:#fff;}.cls-8,.cls-9{fill:#925a26;}.cls-10{fill:#944520;}.cls-11{fill:#a0d2e9;}.cls-12{fill:#add589;}.cls-13,.cls-14{fill:#231f20;}.cls-15{fill:#3e3e3f;}.cls-16{fill:#1a170c;}.cls-17{fill:#6d6e71;stroke-width:.5px;}.cls-17,.cls-7,.cls-14,.cls-2,.cls-9{stroke-miterlimit:10;}.cls-17,.cls-14,.cls-2,.cls-9{stroke:#231f20;}.cls-7{stroke:#ed1c24;}.cls-18{opacity:.2;}.cls-19,.cls-9,.cls-20,.cls-21,.cls-22,.cls-23{opacity:.8;}.cls-24{opacity:.6;}.cls-24,.cls-23{fill:#e9e61b;}.cls-20{fill:#35b44a;}.cls-21{fill:#17753b;}.cls-22{fill:#b1d235;}</style></defs><rect class="cls-11" x="-2.57" y="1.26" width="977.16" height="605.5"/><ellipse class="cls-24" cx="171.48" cy="197.17" rx="154.32" ry="146.67"/><g class="cls-18"><ellipse class="cls-23" cx="175.88" cy="213.2" rx="208.31" ry="194.52"/></g><g class="cls-18"><ellipse class="cls-23" cx="175.88" cy="197.17" rx="233.96" ry="195.58"/></g><g class="cls-18"><ellipse class="cls-23" cx="175.88" cy="213.2" rx="190.51" ry="182.18"/></g><path class="cls-12" d="M-44.45,375.88c37.7-78.57,150.58-93.03,274.67-108.92,150.2-19.24,160.15,9.84,296.77-14.21,98.04-17.25,116.96-36.46,221-47.36,100.23-10.5,175.22-18.36,216.56,25.26,45.34,47.84,35.07,141.62,7.6,203.64-99.43,224.47-512.18,231.5-704.05,209.95-101.22-11.37-259.71-31.25-309.4-138.92-2.8-6.06-31.42-70.53-3.16-129.44Z"/><path class="cls-22" d="M17.79,462.41c68.1-16.75,124.63-24.47,164.13-28.41,80.81-8.07,127.55-4.08,221-20.52,77.69-13.67,101.07-26.22,118.39-39.46,49.41-37.77,31.82-82.72,71.04-116.81,54.71-47.57,149.16-21.58,198.9-7.89,58.11,15.99,188.6,51.9,208.37,151.54,17.41,87.72-63.16,163.43-72.61,172.07-52.94,48.35-117.24,56.52-145.23,59.99-490.11,60.66-735.17,90.99-782.98-1.58-14.46-28-24.46-78.08,18.98-168.91Z"/><ellipse class="cls-4" cx="625.34" cy="215.05" rx="75.64" ry="80.19" transform="translate(74.68 581.21) rotate(-52.6)"/><ellipse class="cls-5" cx="610.17" cy="233.96" rx="19.21" ry="20.86" transform="translate(-12.66 36.14) rotate(-3.36)"/><path class="cls-4" d="M565.3,182.43c8.46,4.01,22.58-9.85,28.01-24.28,4.04-10.73,5.52-27.73-1.35-32.5-7.76-5.39-25.32,5.41-31.46,21.11-5.16,13.19-3.08,31.95,4.79,35.68Z"/><path class="cls-10" d="M566.79,178.6c11.27-6.93,13.25-12.53,24.13-21.96,7.25-6.29,5.04-24.67-.75-28.79-6.53-4.66-21.61,5.18-27.02,19.2-4.55,11.77-2.8,35.51,3.64,31.56Z"/><path class="cls-4" d="M703.56,154.21c-9.53-1.26-20.38,17.6-22.31,34.13-1.44,12.3,1.25,30.12,9.37,32.69,9.16,2.9,24.24-13.99,26.57-32.05,1.96-15.17-4.76-33.6-13.63-34.77Z"/><path class="cls-10" d="M704.23,157.13c-7.73-1.04-21.69,15.35-18.13,28.58,3.16,11.73,2.32,26.84,7.55,27.33,10.05,.94,19.67-11.73,21.58-26.84,1.61-12.69-3.81-28.1-11-29.07Z"/><ellipse class="cls-16" cx="659.04" cy="207.69" rx="10.33" ry="8.97" transform="translate(409.47 852.04) rotate(-86.32)"/><ellipse class="cls-16" cx="598.97" cy="192.54" rx="10.33" ry="8.97" transform="translate(368.37 777.91) rotate(-86.32)"/><path class="cls-3" d="M662.16,183.22c2.08,.86,4.7,2.11,7.5,3.95,8.16,5.35,14.75,13.57,13.61,15.08-1.78,2.37-18.08-9.57-23.16-10.06-.26-.03-5.15-3.3-5.61-4.33-.46-1.02-.26-3,1-4.59,1.39-1.75,5.38-1.22,6.66-.06"/><path class="cls-3" d="M605.48,170.52c-2.21-.22-2.87-.18-6.11,.13-9.45,.91-18.6,5.16-18.17,7.07,.68,2.99,24.68-1.04,29.45,.95,.25,.1,1.29,.58,2.11-.13,.81-.7,1.41-2.58,.9-4.61-.57-2.25-2.33-4.03-3.94-3.59"/><g><line class="cls-1" x1="619.97" y1="215.07" x2="620.2" y2="215.12"/><line class="cls-2" x1="615.73" y1="212.63" x2="615.51" y2="212.57"/></g><ellipse class="cls-5" cx="634.55" cy="240.1" rx="19.21" ry="20.86" transform="translate(-12.97 37.58) rotate(-3.36)"/><path class="cls-5" d="M632.65,229.81l-12.88,62.59c1.24,.31,2.44,.66,3.62,1.02,2.22,.06,4.44,.33,6.63,.79,2.74-.26,5.49-.66,8.12-.69,1.31-.02,2.73,0,4.15,.14,1.53-.26,3.06-.56,4.57-.94,6-1.49,11.91-3.82,17.58-6.67,.22-.27,.5-.5,.85-.68,4.61-2.28,9.06-5,13.17-8.34,3.54-2.89,6.52-6.37,9.57-9.9,.04-.04,.08-.09,.11-.13,1.87-2.93,3.63-5.96,5.41-8.97,1.31-2.77,2.58-5.57,3.82-8.38-19.33,1.59-43.65,0-64.75-19.86Z"/><ellipse class="cls-5" cx="659.49" cy="266.34" rx="5.03" ry="5.45" transform="translate(102.14 708.19) rotate(-60.4)"/><path class="cls-5" d="M612.73,224.79l-12.88,62.59c-1.24-.31-2.46-.58-3.66-.81-2.03-1.01-4.13-1.83-6.28-2.47-2.37-1.55-4.69-3.23-7.05-4.52-1.18-.64-2.46-1.31-3.8-1.86-1.28-.96-2.54-1.97-3.76-3.04-4.83-4.22-9.24-9.16-13.24-14.44-.09-.35-.26-.7-.5-1.02-3.26-4.27-6.21-8.85-8.61-13.84-2.07-4.3-3.38-8.87-4.76-13.51-.02-.06-.03-.12-.05-.17-.53-3.54-.94-7.11-1.37-10.68-.09-3.13-.14-6.26-.17-9.39,16.8,10.7,39.34,20.93,66.13,13.15Z"/><path class="cls-5" d="M619.38,292.9c9.51-1.47,17.34-8.25,19.33-17.94,2.69-13.09-6.27-26.52-20.02-29.98s-27.08,4.33-29.78,17.42c-2.09,10.14,2.82,20.47,11.52,26.23,6.33,1.32,12.67,2.67,18.95,4.28Z"/><ellipse class="cls-15" cx="623.71" cy="223" rx="10.84" ry="9.42" transform="translate(361.13 831.1) rotate(-86.32)"/><path class="cls-5" d="M592.12,250.49c4.36,4.44,9.13,9.26,15.43,10.69,3.05,.69,6.16,.5,9.07-.69s5.44-3.03,7.93-4.93l-3.42-.9c2.86,3.87,6.13,7.64,10.45,9.92s9.64,2.8,14.31,.64c1.23-.57,1.53-2.33,.9-3.42-.74-1.26-2.19-1.47-3.42-.9-7.17,3.32-14.06-3.54-17.92-8.77-.73-.98-2.26-1.78-3.42-.9-3.97,3.02-8.29,6.37-13.56,5.01s-9.15-5.57-12.81-9.3c-2.26-2.3-5.79,1.24-3.54,3.54h0Z"/><path class="cls-5" d="M572.31,251.94c3.22,0,3.22-5,0-5s-3.22,5,0,5h0Z"/><path class="cls-5" d="M597.11,246.22c2.83,3.33,7.25,4.96,11.57,4.77,4.94-.21,9.46-2.47,13.67-4.89,2.79-1.6,.27-5.93-2.52-4.32-5.73,3.29-13.95,7.05-19.18,.9-.87-1.03-2.64-.9-3.54,0-1.02,1.02-.88,2.5,0,3.54h0Z"/><path class="cls-5" d="M618.65,244.36c3.25,8.88,10.91,15.96,20.55,16.8,1.35,.12,2.5-1.23,2.5-2.5,0-1.45-1.15-2.38-2.5-2.5-.25-.02-.5-.04-.74-.08,.48,.06-.3-.06-.32-.06-.45-.08-.9-.18-1.34-.3s-.88-.25-1.32-.39c-.24-.08-.47-.17-.71-.26-.05-.02-.62-.26-.4-.16-.57-.25-1.67-.83-2.4-1.28-.8-.49-1.51-1.01-2-1.42-.74-.62-1.44-1.28-2.09-1.98-.71-.77-1.13-1.27-1.63-1.98-.57-.81-1.1-1.66-1.57-2.54-.56-1.04-.85-1.7-1.21-2.68-.46-1.27-1.7-2.13-3.08-1.75-1.22,.34-2.21,1.8-1.75,3.08h0Z"/><path class="cls-13" d="M616.89,242.41c-.33,.34-.67,.66-1.03,.96-.11,.09-.22,.18-.32,.27-.26,.21,.12-.08,.18-.13-.18,.17-.42,.31-.62,.45-.77,.53-1.59,.98-2.45,1.35l.6-.25c-1.11,.47-2.27,.79-3.46,.96l.66-.09-.13,.02c-.69,.09-1.26,.22-1.77,.73-.43,.43-.76,1.15-.73,1.77s.24,1.32,.73,1.77c.45,.42,1.13,.81,1.77,.73,2-.25,3.84-.77,5.66-1.68,1.65-.83,3.17-1.99,4.46-3.3,.92-.93,1-2.62,0-3.54s-2.56-1-3.54,0h0Z"/><path class="cls-13" d="M616.8,243.82c.3,4.3,2.32,8.35,5.93,10.8,1.09,.74,2.82,.24,3.42-.9,.67-1.26,.26-2.64-.9-3.42-.14-.09-.27-.19-.41-.29,.66,.46,.13,.1-.03-.04-.27-.24-.53-.49-.77-.76-.12-.13-.23-.26-.34-.39-.05-.07-.11-.14-.16-.2,.47,.55,.22,.28,.12,.14-.22-.3-.42-.61-.61-.94s-.34-.62-.49-.94c-.04-.09-.21-.47-.04-.07,.16,.38,.03,.07,0-.01-.07-.17-.13-.34-.19-.51-.26-.75-.44-1.53-.55-2.32l.09,.66c-.04-.27-.06-.55-.08-.82-.09-1.3-1.08-2.56-2.5-2.5-1.28,.06-2.6,1.1-2.5,2.5h0Z"/><path class="cls-21" d="M83.41,617.11c2.89-17.97,127.53,11.84,211.53-66.3,34.87-32.43,22.6-46.13,55.25-69.46,55.89-39.92,101.48-6.69,227.32-34.73,59.61-13.28,83.55-28.36,97.87-39.46,38.79-30.09,32.87-51.17,63.14-80.51,62.42-60.5,188.73-68.86,259.18-12.63,5.73,4.57,17.02,14.31,28.12,29.99,59.77,84.48,44.52,243.35-26.84,328.34-91.68,109.21-268.04,86.96-531.98,53.67-233.31-29.43-386.84-88.75-383.6-108.92Z"/><path class="cls-20" d="M955.71,398.57c-45.73-28.34-136.61-3.01-177.1,50.51-18.11,23.94-8.72,30.5-23.68,50.51-44.39,59.4-150.78,33.26-315.72,59.99-15.24,2.47-51.16,8.71-83.66,34.73-28.65,22.93-40.32,49.76-42.62,55.25-5.72,13.68-10.21,31.03-9.47,38.58,6.42,66.12,492.36,204.28,645.64,0,68.2-90.9,70.72-249.84,6.61-289.58Z"/><g class="cls-19"><ellipse class="cls-6" cx="220.52" cy="144.47" rx="20.83" ry="17.96"/><ellipse class="cls-6" cx="266.22" cy="159.74" rx="49.74" ry="19.39"/><ellipse class="cls-6" cx="315.96" cy="134.46" rx="44.39" ry="27.97"/><ellipse class="cls-6" cx="266.22" cy="130.94" rx="52.02" ry="33.15" transform="translate(-29.73 110.13) rotate(-22.17)"/></g><g class="cls-19"><ellipse class="cls-6" cx="907.77" cy="93.86" rx="26.6" ry="22.6"/><ellipse class="cls-6" cx="849.4" cy="113.08" rx="63.52" ry="24.39"/><ellipse class="cls-6" cx="785.89" cy="81.27" rx="56.68" ry="35.18"/><ellipse class="cls-6" cx="849.4" cy="76.85" rx="41.78" ry="66.29" transform="translate(467.1 839.24) rotate(-68.54)"/></g><g><polygon class="cls-8" points="700.03 440.39 314.05 445.55 299.5 252.98 685.48 247.82 700.03 440.39"/><rect class="cls-8" x="471.76" y="395.86" width="24.57" height="280.38" transform="translate(75.44 -59.51) rotate(7.63)"/><path class="cls-9" d="M314.05,445.55l385.98-5.16-14.54-192.57-385.98,5.16,14.54,192.57,384.26-27.93-385.29,14.32-1.92-25.47,386.29-1.03-2.92-38.65-386.04,4.3-2.92-38.67,386.86,6.46-3.19-42.24h0l-385.83,7.11"/><ellipse class="cls-17" cx="315.66" cy="262.71" rx="3.62" ry="6.94" transform="translate(13.38 540.71) rotate(-82.37)"/><ellipse class="cls-17" cx="328.57" cy="437.77" rx="4.82" ry="9.98" transform="translate(-148.94 705.32) rotate(-82.37)"/><ellipse class="cls-17" cx="680.88" cy="427.45" rx="4.82" ry="9.98" transform="translate(166.84 1045.57) rotate(-82.37)"/><ellipse class="cls-17" cx="668.84" cy="256.45" rx="4.82" ry="9.98" transform="translate(325.88 885.33) rotate(-82.37)"/></g><path class="cls-7" d="M594.43,184.38l10.08,13.96"/><path class="cls-7" d="M606.97,186.89l-14.36,9.11"/><path class="cls-7" d="M656.53,197.72l6.07,16.07"/><path class="cls-7" d="M667.49,202.75l-16.05,6.47"/><g><path class="cls-14" d="M410.52,295.8c-1.66,1.02-4.96,2.84-9.12,3.93-4.66,1.22-8.78,1.21-12.58-.54-3.34-1.56-6.17-4.8-7.52-9.19-2.58-8.37,2.25-16.67,13.44-19.58,3.84-1,7.03-1,8.6-.74-.11,1.09-.21,2.17-.31,3.26-1.92-.26-4.27-.27-7.59,.59-8.04,2.09-11.97,7.94-9.86,15,2.14,7.16,8.09,9.96,15.3,8.08,2.63-.68,4.34-1.47,5.17-2.12-.7-2.84-1.4-5.68-2.1-8.52-2.16,.53-4.32,1.08-6.47,1.65-.26-.99-.52-1.97-.78-2.96,3.52-.93,7.05-1.8,10.58-2.64,1.08,4.59,2.16,9.18,3.24,13.77Z"/><path class="cls-14" d="M420.11,285.55c-.48,3.25-.94,6.5-1.37,9.75-1.38,.3-2.77,.6-4.15,.91,1.36-10.36,3-20.74,4.9-31.11,1.74-.34,3.48-.67,5.22-.99,5.59,8.95,10.91,18,15.98,27.15-1.44,.22-2.88,.46-4.32,.69-1.62-2.86-3.27-5.71-4.94-8.55-3.78,.66-7.56,1.38-11.32,2.15Zm9.95-4.93c-1.55-2.59-3.11-5.18-4.7-7.76-1.08-1.75-1.9-3.38-2.71-4.96-.03,0-.07,.01-.1,.02-.17,1.81-.37,3.67-.66,5.55-.53,2.99-1.04,5.99-1.52,8.98,3.22-.65,6.45-1.27,9.69-1.84Z"/><path class="cls-14" d="M470.67,274.81c-.55-4.07-1.22-8.97-1.45-12.63-.05,0-.1,0-.15,.01-.88,3.53-1.97,7.29-3.27,11.48-1.51,4.91-2.95,9.83-4.33,14.75-1.03,.1-2.06,.21-3.09,.32-2.2-4.46-4.47-8.9-6.79-13.33-2.05-3.93-3.86-7.52-5.26-10.87-.03,0-.07,0-.1,.01,.38,3.65,.78,8.58,1.08,12.98,.27,4.21,.54,8.42,.83,12.62-1.29,.18-2.58,.36-3.87,.54-.69-9.81-1.32-19.64-1.89-29.46,1.85-.26,3.7-.51,5.56-.74,2.52,4.46,4.97,8.95,7.36,13.46,1.76,3.45,3.21,6.55,4.33,9.5,.05,0,.09,0,.14-.01,.5-3.04,1.31-6.37,2.42-10.2,1.49-4.91,3.05-9.81,4.68-14.7,1.86-.15,3.72-.29,5.58-.42,1.37,9.74,2.69,19.49,3.96,29.24-1.33,.08-2.65,.17-3.98,.27-.58-4.28-1.17-8.56-1.76-12.83Z"/><path class="cls-14" d="M498.98,272.79c-4.24,.02-8.48,.11-12.72,.27,.13,3.54,.26,7.07,.39,10.61,4.6-.17,9.2-.26,13.81-.27,0,1.06,0,2.12,0,3.19-5.93,.01-11.85,.16-17.78,.44-.46-9.8-.92-19.6-1.38-29.4,6.11-.29,12.23-.44,18.34-.47,0,1.06,0,2.12,.01,3.19-4.62,.02-9.24,.11-13.86,.28,.11,3.1,.23,6.2,.34,9.3,4.27-.16,8.54-.25,12.82-.27,0,1.05,.01,2.1,.02,3.14Z"/><path class="cls-14" d="M544.26,273.82c-1.12,10.07-8.25,14.69-16.25,14.15-8.28-.56-13.94-6.72-13.71-15.64,.24-9.34,7.15-15.28,16.27-14.66,9.32,.65,14.65,7.47,13.69,16.14Zm-25.44-1.4c-.24,6.29,3.2,12.04,9.63,12.48,6.47,.45,10.67-4.69,11.33-11.34,.57-5.81-2.33-12.28-9.62-12.79-7.23-.49-11.08,5.21-11.34,11.66Z"/><path class="cls-14" d="M554.85,290.24c-2.09-10.19-4.43-20.37-7.03-30.52,1.57,.17,3.14,.36,4.71,.55,1.17,5.01,2.28,10.03,3.33,15.04,.87,4.13,1.56,7.84,1.92,11.38,.03,0,.06,0,.09,.01,1.38-3.24,3.24-6.72,5.27-10.3,2.57-4.51,5.2-9,7.89-13.47,1.55,.26,3.09,.52,4.64,.8-5.72,8.95-11.17,18-16.35,27.15-1.49-.22-2.98-.43-4.47-.64Z"/><path class="cls-14" d="M593.11,283.23c-4.16-.96-8.33-1.85-12.51-2.68-.69,3.47-1.37,6.94-2.06,10.41,4.54,.9,9.06,1.87,13.57,2.93-.24,1.03-.48,2.07-.73,3.1-5.81-1.36-11.64-2.59-17.49-3.68,1.8-9.64,3.61-19.29,5.41-28.93,6.04,1.13,12.06,2.39,18.05,3.78-.24,1.03-.48,2.07-.72,3.1-4.53-1.05-9.07-2.03-13.62-2.93-.6,3.04-1.2,6.08-1.8,9.12,4.21,.83,8.41,1.73,12.6,2.7-.24,1.02-.47,2.04-.71,3.06Z"/><path class="cls-14" d="M603.58,270.07c2.26,.16,5.42,.74,8.37,1.54,4.57,1.24,7.31,2.81,8.87,5,1.28,1.74,1.62,3.95,.96,6.12-1.13,3.72-4.52,5.38-8.15,5.43-.01,.04-.02,.08-.04,.13,2.24,1.46,3.1,3.9,2.97,7.05-.16,4.24-.25,7.17,.05,8.45-1.36-.42-2.72-.82-4.09-1.22-.27-.94-.24-3.57-.1-7.35,.2-4.17-1.08-6.13-4.77-7.27-1.29-.35-2.58-.69-3.87-1.03-1.07,4.11-2.14,8.23-3.2,12.34-1.33-.34-2.66-.68-3.99-1.01,2.34-9.39,4.67-18.79,7.01-28.18Zm.91,14.06c1.41,.37,2.82,.74,4.23,1.12,4.41,1.2,7.82-.12,8.77-3.34,1.07-3.64-1.53-6.14-6.01-7.4-2.05-.55-3.56-.77-4.29-.77-.9,3.47-1.8,6.93-2.7,10.4Z"/></g><g><path class="cls-13" d="M451.95,319.59c-.09-2.59-.2-5.71-.18-8.03h-.05c-.41,2.18-.92,4.5-1.53,7.07l-2.14,9.03h-1.19l-1.96-8.86c-.58-2.62-1.06-5.02-1.4-7.23h-.04c-.04,2.32-.13,5.44-.23,8.23l-.32,7.98h-1.49l.84-18.6h2l2.07,9c.5,2.29,.92,4.33,1.22,6.27h.05c.31-1.88,.74-3.92,1.28-6.27l2.16-9h2l.75,18.6h-1.53l-.3-8.17Z"/><path class="cls-13" d="M458.11,310.65c.02,.83-.38,1.49-1.01,1.49-.56,0-.95-.66-.95-1.49s.41-1.52,.99-1.52,.97,.66,.97,1.52Zm-1.76,17.11v-13.36h1.58v13.36h-1.58Z"/><path class="cls-13" d="M460.56,318.02c0-1.38-.02-2.51-.07-3.62h1.4l.09,2.21h.04c.43-1.27,1.44-2.51,2.88-2.51,1.21,0,3.07,1.1,3.07,5.69v7.98h-1.58v-7.7c0-2.15-.52-3.95-2.01-3.95-1.04,0-1.85,1.13-2.12,2.48-.07,.3-.11,.72-.11,1.13v8.03h-1.58v-9.74Z"/><path class="cls-13" d="M472.1,320.53h.04c.21-.47,.52-1.05,.77-1.52l2.55-4.61h1.91l-3.36,5.49,3.83,7.87h-1.92l-3-6.4-.81,1.38v5.02h-1.56v-19.6h1.56v12.37Z"/><path class="cls-13" d="M482.94,327.76v-11.51h-1.22v-1.85h1.22v-.63c0-1.88,.27-3.59,1.01-4.67,.59-.88,1.38-1.24,2.12-1.24,.56,0,1.04,.19,1.35,.39l-.21,1.88c-.23-.17-.56-.3-1.01-.3-1.35,0-1.69,1.82-1.69,3.87v.72h2.1v1.85h-2.1v11.51h-1.56Z"/><path class="cls-13" d="M492.85,327.76l-.12-1.68h-.05c-.48,1.05-1.42,1.99-2.66,1.99-1.76,0-2.66-1.9-2.66-3.84,0-3.23,1.87-5,5.23-4.97v-.28c0-1.1-.2-3.09-1.98-3.09-.81,0-1.65,.39-2.27,.99l-.36-1.6c.72-.72,1.76-1.19,2.86-1.19,2.66,0,3.31,2.79,3.31,5.46v5c0,1.16,.04,2.29,.14,3.2h-1.44Zm-.23-6.82c-1.72-.05-3.68,.41-3.68,3.01,0,1.57,.68,2.32,1.49,2.32,1.13,0,1.85-1.1,2.1-2.24,.05-.25,.09-.52,.09-.77v-2.32Z"/><path class="cls-13" d="M496.69,318.57c0-1.57-.02-2.93-.07-4.17h1.38l.05,2.62h.07c.4-1.79,1.35-2.93,2.41-2.93,.18,0,.3,.03,.45,.08v2.29c-.16-.05-.32-.08-.54-.08-1.12,0-1.91,1.3-2.12,3.12-.04,.33-.07,.72-.07,1.13v7.12h-1.56v-9.19Z"/><path class="cls-13" d="M502.65,318.02c0-1.38-.02-2.51-.07-3.62h1.38l.07,2.15h.05c.48-1.27,1.29-2.46,2.73-2.46,1.19,0,2.08,1.1,2.46,2.68h.04c.27-.75,.61-1.32,.97-1.74,.52-.61,1.1-.94,1.92-.94,1.15,0,2.86,1.16,2.86,5.8v7.87h-1.55v-7.56c0-2.57-.61-4.11-1.89-4.11-.9,0-1.6,1.02-1.87,2.21-.07,.33-.12,.77-.12,1.21v8.25h-1.55v-8c0-2.12-.61-3.67-1.81-3.67-.99,0-1.71,1.21-1.96,2.43-.09,.36-.12,.77-.12,1.19v8.06h-1.54v-9.74Z"/><path class="cls-13" d="M521.23,325.28c.47,.47,1.29,.97,2.09,.97,1.15,0,1.69-.88,1.69-1.99,0-1.16-.45-1.79-1.62-2.46-1.56-.86-2.3-2.18-2.3-3.78,0-2.15,1.13-3.92,3-3.92,.88,0,1.65,.39,2.14,.83l-.4,1.77c-.34-.33-.97-.77-1.78-.77-.94,0-1.46,.83-1.46,1.82,0,1.1,.52,1.6,1.65,2.26,1.51,.88,2.28,2.04,2.28,4.03,0,2.35-1.19,4-3.25,4-.95,0-1.83-.36-2.44-.91l.39-1.85Z"/><path class="cls-13" d="M536.44,320.97c0,4.94-2.23,7.09-4.33,7.09-2.36,0-4.17-2.65-4.17-6.87,0-4.47,1.91-7.09,4.31-7.09s4.19,2.79,4.19,6.87Zm-6.9,.14c0,2.93,1.1,5.13,2.64,5.13s2.64-2.18,2.64-5.19c0-2.26-.74-5.13-2.61-5.13s-2.68,2.65-2.68,5.19Z"/><path class="cls-13" d="M538.44,308.17h1.58v19.6h-1.58v-19.6Z"/><path class="cls-13" d="M550.17,314.4c-.04,.97-.07,2.04-.07,3.67v7.76c0,3.06-.39,4.94-1.24,6.1-.84,1.21-2.07,1.6-3.16,1.6s-2.19-.39-2.89-1.1l.39-1.85c.58,.55,1.47,1.05,2.55,1.05,1.62,0,2.8-1.3,2.8-4.67v-1.49h-.04c-.49,1.24-1.42,2.24-2.77,2.24-2.16,0-3.7-2.82-3.7-6.51,0-4.53,1.92-7.09,3.92-7.09,1.51,0,2.34,1.21,2.71,2.32h.04l.07-2.02h1.38Zm-1.63,5.27c0-.41-.02-.77-.09-1.1-.29-1.41-1.06-2.57-2.21-2.57-1.51,0-2.59,1.96-2.59,5.05,0,2.62,.86,4.8,2.57,4.8,.97,0,1.85-.94,2.19-2.48,.09-.41,.13-.88,.13-1.3v-2.4Z"/><path class="cls-13" d="M554.64,310.57v3.84h2.26v1.85h-2.26v7.21c0,1.66,.3,2.59,1.19,2.59,.41,0,.72-.08,.92-.17l.07,1.82c-.3,.19-.79,.33-1.4,.33-.74,0-1.33-.36-1.71-1.02-.45-.72-.61-1.91-.61-3.48v-7.29h-1.35v-1.85h1.35v-3.2l1.55-.63Z"/><path class="cls-13" d="M558.25,326.33c0-1.02,.45-1.74,1.08-1.74s1.06,.72,1.06,1.74-.41,1.74-1.08,1.74c-.63,0-1.06-.75-1.06-1.74Z"/><path class="cls-13" d="M561.97,326.33c0-1.02,.45-1.74,1.08-1.74s1.06,.72,1.06,1.74-.41,1.74-1.08,1.74c-.63,0-1.06-.75-1.06-1.74Z"/><path class="cls-13" d="M565.69,326.33c0-1.02,.45-1.74,1.08-1.74s1.06,.72,1.06,1.74-.41,1.74-1.08,1.74c-.63,0-1.06-.75-1.06-1.74Z"/></g><g><path class="cls-13" d="M423.87,342.4c.96-.2,2.11-.34,3.36-.34,2.27,0,3.89,.71,4.96,2.06,1.09,1.35,1.72,3.26,1.72,5.94s-.62,4.91-1.76,6.43c-1.14,1.54-3.03,2.38-5.41,2.38-1.13,0-2.07-.07-2.87-.2v-16.27Zm1.58,14.62c.4,.1,.98,.12,1.6,.12,3.38,0,5.21-2.55,5.21-7.02,.02-3.9-1.62-6.38-4.96-6.38-.82,0-1.43,.1-1.85,.22v13.05Z"/><path class="cls-13" d="M437.54,342.18v9.79c0,3.7,1.22,5.27,2.85,5.27,1.82,0,2.98-1.62,2.98-5.27v-9.79h1.6v9.64c0,5.08-1.98,7.16-4.63,7.16-2.51,0-4.39-1.94-4.39-7.07v-9.74h1.6Z"/><path class="cls-13" d="M451.55,342.18h6.59v1.79h-5.01v5.5h4.63v1.77h-4.63v7.48h-1.58v-16.54Z"/><path class="cls-13" d="M461.97,342.18v16.54h-1.58v-16.54h1.58Z"/><path class="cls-13" d="M464.73,342.18h1.58v7.97h.05c.33-.64,.65-1.23,.96-1.77l3.74-6.21h1.96l-4.43,7.02,4.78,9.52h-1.87l-4.03-8.12-1.16,1.82v6.31h-1.58v-16.54Z"/><path class="cls-13" d="M524.6,342.38c.76-.17,1.76-.32,3.03-.32,1.56,0,2.71,.49,3.43,1.37,.67,.79,1.07,1.99,1.07,3.46s-.33,2.67-.94,3.53c-.84,1.2-2.2,1.82-3.74,1.82-.47,0-.91-.02-1.27-.15v6.62h-1.58v-16.34Zm1.58,7.97c.34,.12,.78,.17,1.31,.17,1.91,0,3.07-1.25,3.07-3.53s-1.14-3.24-2.89-3.24c-.69,0-1.22,.07-1.49,.17v6.43Z"/><path class="cls-13" d="M544.71,350.28c0,5.69-2.56,8.71-5.68,8.71s-5.5-3.39-5.5-8.39c0-5.25,2.42-8.69,5.68-8.69s5.5,3.46,5.5,8.37Zm-9.5,.27c0,3.53,1.42,6.7,3.9,6.7s3.92-3.12,3.92-6.87c0-3.29-1.27-6.72-3.9-6.72s-3.92,3.26-3.92,6.89Z"/><path class="cls-13" d="M548.34,342.18v16.54h-1.58v-16.54h1.58Z"/><path class="cls-13" d="M551.1,358.72v-16.54h1.73l3.92,8.37c.91,1.94,1.62,3.68,2.2,5.37l.04-.02c-.15-2.21-.18-4.22-.18-6.8v-6.92h1.49v16.54h-1.6l-3.89-8.39c-.85-1.84-1.67-3.73-2.29-5.52l-.05,.02c.09,2.09,.13,4.07,.13,6.82v7.07h-1.49Z"/><path class="cls-13" d="M565.37,343.99h-3.72v-1.82h9.06v1.82h-3.74v14.72h-1.6v-14.72Z"/></g></svg>