<?xml version="1.0" encoding="UTF-8"?><svg id="Layer_1" xmlns="http://www.w3.org/2000/svg" width="977.16" height="605.5" viewBox="0 0 977.16 605.5"><defs><style>.cls-1,.cls-2{fill:none;}.cls-3{fill:#f9a560;}.cls-4{fill:#e88734;}.cls-5{fill:#fee1c9;}.cls-6{fill:#fff;}.cls-7,.cls-8{fill:#925a26;}.cls-9{fill:#944520;}.cls-10{fill:#a0d2e9;}.cls-11{fill:#add589;}.cls-12,.cls-13{fill:#231f20;}.cls-14{fill:#3e3e3f;}.cls-15{fill:#1a170c;}.cls-16{fill:#6d6e71;stroke-width:.5px;}.cls-16,.cls-13,.cls-2,.cls-8{stroke:#231f20;stroke-miterlimit:10;}.cls-17{opacity:.2;}.cls-18,.cls-8,.cls-19,.cls-20,.cls-21,.cls-22{opacity:.8;}.cls-23{opacity:.6;}.cls-23,.cls-22{fill:#e9e61b;}.cls-19{fill:#35b44a;}.cls-20{fill:#17753b;}.cls-21{fill:#b1d235;}</style></defs><rect class="cls-10" width="977.16" height="605.5"/><ellipse class="cls-23" cx="174.05" cy="195.91" rx="154.32" ry="146.67"/><g class="cls-17"><ellipse class="cls-22" cx="178.46" cy="211.94" rx="208.31" ry="194.52"/></g><g class="cls-17"><ellipse class="cls-22" cx="178.46" cy="195.91" rx="233.96" ry="195.58"/></g><g class="cls-17"><ellipse class="cls-22" cx="178.46" cy="211.94" rx="190.51" ry="182.18"/></g><path class="cls-11" d="M-41.88,374.62c37.7-78.57,150.58-93.03,274.67-108.92,150.2-19.24,160.15,9.84,296.77-14.21,98.04-17.25,116.96-36.46,221-47.36,100.23-10.5,175.22-18.36,216.56,25.26,45.34,47.84,35.07,141.62,7.6,203.64-99.43,224.47-512.18,231.5-704.05,209.95-101.22-11.37-259.71-31.25-309.4-138.92-2.8-6.06-31.42-70.53-3.16-129.44Z"/><path class="cls-21" d="M20.36,461.15c68.1-16.75,124.63-24.47,164.13-28.41,80.81-8.07,127.55-4.08,221-20.52,77.69-13.67,101.07-26.22,118.39-39.46,49.41-37.77,31.82-82.72,71.04-116.81,54.71-47.57,149.16-21.58,198.9-7.89,58.11,15.99,188.6,51.9,208.37,151.54,17.41,87.72-63.16,163.43-72.61,172.07-52.94,48.35-117.24,56.52-145.23,59.99-490.11,60.66-735.17,90.99-782.98-1.58-14.46-28-24.46-78.08,18.98-168.91Z"/><path class="cls-20" d="M85.98,615.85c2.89-17.97,127.53,11.84,211.53-66.3,34.87-32.43,22.6-46.13,55.25-69.46,55.89-39.92,101.48-6.69,227.32-34.73,59.61-13.28,83.55-28.36,97.87-39.46,38.79-30.09,32.87-51.17,63.14-80.51,62.42-60.5,188.73-68.86,259.18-12.63,5.73,4.57,17.02,14.31,28.12,29.99,59.77,84.48,44.52,243.35-26.84,328.34-91.68,109.21-268.04,86.96-531.98,53.67-233.31-29.43-386.84-88.75-383.6-108.92Z"/><path class="cls-19" d="M958.28,397.31c-45.73-28.34-136.61-3.01-177.1,50.51-18.11,23.94-8.72,30.5-23.68,50.51-44.39,59.4-150.78,33.26-315.72,59.99-15.24,2.47-51.16,8.71-83.66,34.73-28.65,22.93-40.32,49.76-42.62,55.25-5.72,13.68-10.21,31.03-9.47,38.58,6.42,66.12,492.36,204.28,645.64,0,68.2-90.9,70.72-249.84,6.61-289.58Z"/><g class="cls-18"><ellipse class="cls-6" cx="756.28" cy="122.59" rx="20.83" ry="17.96"/><ellipse class="cls-6" cx="801.98" cy="137.86" rx="49.74" ry="19.39"/><ellipse class="cls-6" cx="851.72" cy="112.58" rx="44.39" ry="27.97"/><ellipse class="cls-6" cx="801.98" cy="109.06" rx="52.02" ry="33.15" transform="translate(18.13 310.66) rotate(-22.17)"/></g><g class="cls-18"><ellipse class="cls-6" cx="967.02" cy="85.21" rx="26.6" ry="22.6"/><ellipse class="cls-6" cx="908.66" cy="104.42" rx="63.52" ry="24.39"/><ellipse class="cls-6" cx="845.14" cy="72.62" rx="56.68" ry="35.18"/><ellipse class="cls-6" cx="908.66" cy="68.2" rx="41.78" ry="66.29" transform="translate(512.72 888.9) rotate(-68.54)"/></g><g><ellipse class="cls-4" cx="306.84" cy="259.34" rx="87.99" ry="74.66" transform="translate(-88.59 330.33) rotate(-50.38)"/><ellipse class="cls-5" cx="308.99" cy="285.09" rx="21.79" ry="19.92" transform="translate(-67.79 471.62) rotate(-69.03)"/><path class="cls-4" d="M240.76,288.85c8.9-4.56,9.5-26,3.41-40.4-4.53-10.7-15.26-23.43-23.54-20.75-9.35,3.02-14.56,25.36-8.1,41.21,5.43,13.31,19.95,24.18,28.23,19.94Z"/><path class="cls-9" d="M239.18,284.99c3.34-14.34,.88-19.81,2.21-35.5,.88-10.46-13.48-20.95-20.53-18.77-7.96,2.47-12.03,22.03-6.22,36.12,4.88,11.83,22.63,26.34,24.54,18.15Z"/><path class="cls-4" d="M321.19,151.24c-7.77,7.33-2.53,29.34,7.56,42.14,7.5,9.52,21.82,19.23,29.47,14,8.64-5.91,7.83-30.22-3.03-44.39-9.12-11.9-26.77-18.57-34-11.75Z"/><path class="cls-9" d="M323.7,152.63c-6.31,5.93-5.04,28.95,6.73,34.81,10.43,5.2,20.32,16.1,24.43,11.95,7.93-7.99,6.08-24.77-3.02-36.6-7.65-9.93-22.27-15.67-28.14-10.16Z"/><ellipse class="cls-15" cx="326.11" cy="225.47" rx="9.58" ry="10.47"/><ellipse class="cls-15" cx="272.13" cy="266.79" rx="9.58" ry="10.47"/><path class="cls-3" d="M311.38,206.3c2.1-1.21,4.87-2.6,8.17-3.77,9.62-3.39,20.09-3.5,20.32-1.51,.36,3.13-19.73,9.06-23.74,13.09-.21,.21-6.02,2.19-7.06,1.89-1.04-.3-2.27-1.8-2.46-3.95-.21-2.38,3.04-5.44,4.78-5.75"/><path class="cls-3" d="M261.56,246.36c-1.76,1.75-2.2,2.34-4.33,5.33-6.21,8.72-9.88,19.44-8.24,20.35,2.57,1.43,17.13-21.88,21.97-24.62,.25-.14,1.33-.72,1.43-1.89,.1-1.17-.77-2.95-2.55-3.88-1.97-1.03-4.49-.72-5.35,.96"/><g><line class="cls-1" x1="302.97" y1="263.95" x2="303.17" y2="263.8"/><line class="cls-2" x1="298.21" y1="265.95" x2="298" y2="266.1"/></g><ellipse class="cls-5" cx="330.9" cy="268.33" rx="21.79" ry="19.92" transform="translate(-38.06 481.3) rotate(-69.03)"/><path class="cls-5" d="M322.38,263.02l34.14,53.24c1.12-.85,2.22-1.65,3.33-2.41,1.65-1.87,3.44-3.59,5.34-5.16,1.8-2.53,3.51-5.16,5.39-7.43,.94-1.14,1.98-2.34,3.11-3.47,.93-1.49,1.82-3,2.66-4.56,3.31-6.15,5.96-12.79,8.09-19.57-.03-.37,.01-.77,.15-1.19,1.75-5.49,3.09-11.14,3.74-16.92,.56-4.99,.29-9.89,.06-14.88,0-.06,0-.13,0-.19-.69-3.58-1.51-7.13-2.31-10.69-.98-2.99-2-5.96-3.05-8.93-12.88,17.65-31.57,37.44-60.63,42.15Z"/><ellipse class="cls-5" cx="367.15" cy="264.62" rx="5.99" ry="4.95" transform="translate(-74.82 362.02) rotate(-48.21)"/><path class="cls-5" d="M304.48,276.71l34.14,53.24c-1.12,.85-2.18,1.72-3.21,2.59-2.17,1.06-4.26,2.31-6.26,3.73-2.79,.99-5.63,1.85-8.24,3-1.3,.58-2.69,1.23-4.04,2.01-1.6,.45-3.2,.85-4.83,1.17-6.42,1.3-13.04,1.75-19.6,1.62-.31-.16-.67-.25-1.07-.26-5.32-.08-10.64-.63-15.83-1.94-4.48-1.13-8.61-3.08-12.82-5.03-.05-.02-.11-.05-.16-.07-2.84-1.93-5.61-3.99-8.4-6.03-2.24-2.03-4.45-4.09-6.64-6.18,19.58-7.2,42.99-19.63,56.97-47.86Z"/><path class="cls-5" d="M356.58,316.92c5.86-9.15,6.81-20.43,1.53-28.68-7.14-11.13-22.94-12.49-35.3-3.03-12.36,9.46-16.59,26.15-9.45,37.29,5.53,8.62,16.25,11.38,26.54,7.79,5.5-4.54,11.02-9.07,16.68-13.37Z"/><ellipse class="cls-14" cx="311.17" cy="266.1" rx="10.06" ry="10.99"/><ellipse class="cls-6" cx="325.14" cy="220.23" rx="1.96" ry="2.14"/><ellipse class="cls-6" cx="271.36" cy="260.73" rx="1.96" ry="2.14"/><path class="cls-5" d="M307.46,311.51c6.89-.82,13.8-1.87,19.32-6.42s6.69-11,7.61-17.48l-2.41,1.84c5.32,.17,10.8-.42,15.54-3,4.22-2.3,7.47-6.07,9.02-10.62,1.04-3.05-3.79-4.36-4.82-1.33-2.81,8.27-12.03,10.21-19.74,9.96-.98-.03-2.26,.79-2.41,1.84-.78,5.5-1.62,11.18-6.02,15.02s-10.56,4.55-16.08,5.21c-1.34,.16-2.5,1.03-2.5,2.5,0,1.23,1.15,2.66,2.5,2.5h0Z"/><path class="cls-5" d="M292.35,330.51c3.22,0,3.22-5,0-5s-3.22,5,0,5h0Z"/><path class="cls-5" d="M308.11,304.36c5.03-.2,9.22-3.17,12.18-7.08,3.11-4.11,4.66-9.22,5.94-14.15,.81-3.12-4.01-4.45-4.82-1.33-1.11,4.26-2.37,8.55-4.9,12.21-.96,1.39-2.31,2.78-3.7,3.69-1.52,1.01-3.07,1.59-4.7,1.66-1.35,.05-2.5,1.11-2.5,2.5,0,1.31,1.14,2.55,2.5,2.5h0Z"/><path class="cls-5" d="M322.97,284.73c8.97,3.34,19.31,.62,25.95-6.12,2.26-2.29-1.27-5.83-3.54-3.54-5.49,5.58-13.72,7.58-21.08,4.83-1.27-.47-2.74,.53-3.08,1.75-.38,1.4,.48,2.6,1.75,3.08h0Z"/><path class="cls-12" d="M319.73,284.7c0,.46-.02,.92-.06,1.39-.02,.2-.04,.4-.06,.6-.02,.19-.01,.11,.03-.24-.02,.11-.03,.23-.05,.34-.14,.85-.33,1.69-.59,2.52-.12,.38-.25,.76-.39,1.14-.04,.11-.08,.21-.13,.32-.1,.25-.09,.21,.05-.12-.02,.19-.2,.45-.28,.62-.37,.76-.79,1.5-1.27,2.2-.73,1.09-.24,2.82,.9,3.42,1.26,.67,2.64,.26,3.42-.9,2.23-3.3,3.38-7.31,3.43-11.29,.02-1.31-1.16-2.56-2.5-2.5s-2.48,1.1-2.5,2.5h0Z"/><path class="cls-12" d="M320.68,285.69c1.63,1.34,3.51,2.37,5.6,2.77s4.21,.34,6.22-.33c1.24-.41,2.18-1.74,1.75-3.08-.4-1.23-1.75-2.19-3.08-1.75-.37,.12-.75,.23-1.13,.31-.19,.04-.39,.06-.57,.1,.77-.18,.16-.03-.06-.01-.39,.03-.78,.03-1.16,0-.19-.01-.39-.06-.58-.05,.42,.06,.5,.07,.23,.03-.1-.02-.19-.03-.29-.05-.38-.07-.76-.17-1.13-.29-.19-.06-.37-.13-.55-.19-.25-.1-.18-.07,.19,.08-.09-.04-.18-.08-.27-.12-.36-.17-.71-.36-1.04-.57-.17-.11-.33-.22-.5-.33-.08-.06-.16-.12-.24-.18,.31,.24,.36,.28,.15,.11-.53-.43-1.06-.73-1.77-.73-.61,0-1.35,.27-1.77,.73-.84,.92-1.08,2.65,0,3.54h0Z"/></g><g><polygon class="cls-7" points="702.51 437.32 316.59 445.75 300.41 253.31 686.34 244.87 702.51 437.32"/><rect class="cls-7" x="475.07" y="394.61" width="24.57" height="280.38" transform="translate(70.27 -56.44) rotate(7.14)"/><path class="cls-8" d="M316.59,445.75l385.92-8.43-16.18-192.44-385.92,8.43,16.18,192.44,384.01-31.2-385.15,17.59-2.14-25.45,386.27-4.31-3.25-38.63-385.99,7.58-3.25-38.64,386.9,3.18-3.55-42.21h0l-385.76,10.39"/><ellipse class="cls-16" cx="316.66" cy="262.91" rx="3.62" ry="6.94" transform="translate(16.42 544.42) rotate(-82.86)"/><ellipse class="cls-16" cx="331.04" cy="437.84" rx="4.82" ry="9.98" transform="translate(-144.56 711.89) rotate(-82.86)"/><ellipse class="cls-16" cx="677.41" cy="255.11" rx="3.62" ry="6.94" transform="translate(340.07 895.55) rotate(-82.86)"/><ellipse class="cls-16" cx="692.01" cy="427.02" rx="4.82" ry="9.98" transform="translate(182.28 1060.57) rotate(-82.86)"/></g><g><path class="cls-13" d="M353.09,279.59c1.08-.33,2.16-.66,3.24-.98,2.27,7.57,4.53,15.14,6.8,22.71,3.42-1.02,6.84-2.01,10.27-2.95,.25,.93,.51,1.85,.76,2.78-4.44,1.22-8.87,2.51-13.29,3.86-2.6-8.47-5.19-16.95-7.79-25.42Z"/><path class="cls-13" d="M387.18,284.93c-3.21,.77-6.41,1.56-9.6,2.4,.8,3.09,1.61,6.18,2.41,9.28,3.49-.91,6.99-1.78,10.49-2.61,.22,.93,.44,1.87,.66,2.8-4.52,1.07-9.03,2.21-13.53,3.41-2.29-8.56-4.58-17.12-6.87-25.68,4.56-1.22,9.13-2.37,13.71-3.46,.22,.93,.44,1.87,.67,2.8-3.47,.82-6.93,1.69-10.38,2.58,.71,2.71,1.41,5.42,2.12,8.13,3.21-.84,6.43-1.64,9.65-2.41,.22,.92,.44,1.84,.66,2.76Z"/><path class="cls-13" d="M400.83,294.61c-4.5-8.1-9.13-16.14-13.91-24.13,1.18-.28,2.37-.55,3.55-.81,2.28,3.96,4.53,7.93,6.75,11.92,1.83,3.28,3.41,6.25,4.71,9.16,.02,0,.05,0,.07-.01,.05-3.16,.39-6.65,.8-10.28,.53-4.58,1.09-9.16,1.7-13.73,1.18-.23,2.36-.46,3.54-.68-1.42,9.28-2.67,18.57-3.76,27.84-1.15,.24-2.3,.48-3.45,.73Z"/><path class="cls-13" d="M426.29,277.24c-3.24,.5-6.48,1.04-9.72,1.61,.55,3.15,1.1,6.29,1.66,9.44,3.54-.62,7.08-1.2,10.62-1.74,.15,.95,.29,1.9,.44,2.85-4.58,.7-9.14,1.46-13.7,2.3-1.59-8.72-3.18-17.44-4.77-26.15,4.62-.84,9.25-1.62,13.89-2.33,.15,.95,.29,1.9,.44,2.85-3.51,.54-7.01,1.12-10.51,1.73,.48,2.76,.97,5.52,1.45,8.27,3.25-.57,6.51-1.11,9.78-1.62,.15,.94,.29,1.87,.44,2.81Z"/><path class="cls-13" d="M429.59,262.47c1.11-.16,2.22-.32,3.33-.47,1.07,7.83,2.15,15.66,3.22,23.49,3.5-.48,7.01-.92,10.52-1.33,.11,.95,.22,1.91,.33,2.86-4.54,.52-9.08,1.11-13.61,1.76-1.26-8.77-2.53-17.54-3.79-26.31Z"/><path class="cls-13" d="M475.36,283.73c-1.13,.69-3.43,1.46-6.42,1.66-6.9,.48-12.54-3.72-13.39-12.4-.82-8.28,4.15-14.45,12.24-15,3.24-.22,5.32,.38,6.23,.8-.22,.95-.43,1.89-.65,2.84-1.3-.56-3.13-.92-5.27-.78-6.07,.41-9.74,4.75-9.11,11.7,.58,6.48,4.42,10.32,10.42,9.91,1.94-.13,3.9-.68,5.14-1.43,.27,.89,.54,1.79,.81,2.68Z"/><path class="cls-13" d="M499.59,270.3c.01,9.15-5.11,14.01-11.35,14.19-6.47,.19-11.3-4.99-11.75-13.03-.47-8.42,4.38-14.23,11.35-14.43,7.13-.2,11.74,5.38,11.76,13.26Zm-19.62,.92c.27,5.68,3.36,10.62,8.37,10.47,5.05-.14,7.85-5.16,7.8-11.2-.05-5.28-2.79-10.79-8.38-10.64-5.54,.16-8.06,5.55-7.79,11.37Z"/><path class="cls-13" d="M525.07,272.73c-.01-3.71-.04-8.18,.15-11.48-.04,0-.08,0-.11,0-1.02,3.07-2.23,6.34-3.65,9.95-1.66,4.24-3.27,8.48-4.85,12.74-.8-.02-1.61-.05-2.41-.07-1.22-4.25-2.48-8.5-3.77-12.74-1.13-3.77-2.12-7.21-2.81-10.37-.03,0-.05,0-.08,0-.11,3.31-.35,7.77-.61,11.75-.26,3.8-.52,7.59-.77,11.39-1.01,0-2.02-.01-3.03-.02,.59-8.86,1.22-17.72,1.87-26.58,1.43,0,2.85,.02,4.28,.04,1.42,4.31,2.8,8.62,4.14,12.94,.98,3.3,1.75,6.24,2.3,9.02,.04,0,.07,0,.11,0,.7-2.67,1.68-5.56,2.92-8.87,1.65-4.23,3.33-8.46,5.06-12.67,1.43,.06,2.85,.13,4.28,.2,.08,8.88,.14,17.75,.17,26.63-1.03-.06-2.07-.11-3.1-.16-.02-3.9-.04-7.79-.07-11.69Z"/><path class="cls-13" d="M534.83,258.66c1.63-.17,3.77-.26,6.46-.05,3.31,.26,5.66,1.26,7.07,2.82,1.3,1.39,1.95,3.39,1.72,5.75-.23,2.4-1.09,4.21-2.49,5.47-1.9,1.77-4.77,2.5-7.94,2.26-.97-.07-1.86-.18-2.59-.43-.25,3.54-.51,7.08-.76,10.62-1.06-.08-2.11-.15-3.17-.22,.57-8.74,1.13-17.48,1.7-26.21Zm2.43,13.01c.7,.25,1.59,.4,2.68,.48,3.93,.3,6.5-1.48,6.83-5.13,.32-3.5-1.94-5.41-5.62-5.69-1.45-.11-2.57-.08-3.16,.04-.25,3.44-.49,6.87-.74,10.31Z"/><path class="cls-13" d="M555.3,260.08c1.11,.12,2.23,.24,3.34,.36-.88,7.85-1.76,15.7-2.64,23.56,3.51,.39,7.02,.83,10.53,1.3-.13,.95-.26,1.9-.38,2.85-4.54-.61-9.08-1.15-13.63-1.63,.93-8.81,1.86-17.63,2.79-26.44Z"/><path class="cls-13" d="M584.37,278.31c-3.24-.55-6.48-1.06-9.73-1.54-.47,3.16-.94,6.32-1.41,9.48,3.55,.53,7.09,1.09,10.63,1.7-.16,.95-.32,1.89-.49,2.84-4.56-.78-9.14-1.5-13.72-2.15,1.24-8.77,2.49-17.55,3.73-26.32,4.64,.66,9.28,1.38,13.91,2.17-.16,.95-.32,1.89-.48,2.84-3.5-.6-7.01-1.15-10.52-1.68-.41,2.77-.82,5.54-1.24,8.31,3.26,.49,6.53,1,9.78,1.55-.16,.93-.32,1.87-.47,2.8Z"/><path class="cls-13" d="M597.1,269.23c-2.58-.49-5.17-.97-7.76-1.42,.17-.96,.34-1.92,.5-2.88,6.34,1.11,12.66,2.35,18.97,3.7-.2,.95-.41,1.9-.61,2.85-2.59-.56-5.18-1.09-7.77-1.61-1.54,7.74-3.07,15.47-4.61,23.21-1.06-.21-2.11-.42-3.17-.62,1.48-7.75,2.97-15.5,4.45-23.24Z"/><path class="cls-13" d="M621.43,286.05c-3.2-.8-6.41-1.56-9.62-2.29-.71,3.11-1.42,6.23-2.13,9.34,3.51,.8,7.01,1.64,10.51,2.52-.23,.93-.47,1.86-.7,2.79-4.51-1.13-9.03-2.2-13.56-3.2,1.91-8.65,3.82-17.31,5.74-25.96,4.59,1.02,9.18,2.09,13.75,3.24-.23,.93-.47,1.86-.7,2.79-3.46-.87-6.93-1.69-10.4-2.49-.62,2.73-1.24,5.46-1.87,8.19,3.23,.74,6.45,1.51,9.67,2.31-.23,.92-.46,1.84-.69,2.76Z"/><path class="cls-13" d="M630.13,274.06c2.07,.22,4.5,.62,7.09,1.33,4.69,1.3,7.7,3.38,9.27,6.11,1.61,2.75,1.99,6.08,.73,10.19-1.27,4.15-3.54,7.16-6.48,8.84-2.96,1.71-7.01,1.92-11.66,.65-2.2-.6-4.02-1.21-5.54-1.81,2.2-8.44,4.4-16.87,6.6-25.31Zm-2.82,23.57c.75,.36,1.88,.71,3.1,1.04,6.63,1.83,11.38-.99,13.46-7.87,1.85-5.98-.34-10.84-7.23-12.75-1.68-.46-2.99-.66-3.9-.69-1.81,6.76-3.62,13.51-5.43,20.27Z"/></g><g><path class="cls-12" d="M420.84,316.49c-.09-2.25-.2-4.96-.18-6.97h-.05c-.41,1.89-.9,3.91-1.5,6.13l-2.11,7.83h-1.17l-1.93-7.69c-.57-2.28-1.04-4.36-1.38-6.28h-.04c-.04,2.01-.12,4.72-.23,7.14l-.32,6.92h-1.47l.83-16.15h1.96l2.04,7.81c.5,1.99,.9,3.76,1.21,5.44h.05c.3-1.63,.72-3.4,1.26-5.44l2.12-7.81h1.96l.74,16.15h-1.5l-.3-7.09Z"/><path class="cls-12" d="M426.91,308.73c.02,.72-.37,1.29-.99,1.29-.55,0-.94-.57-.94-1.29s.41-1.32,.97-1.32,.96,.58,.96,1.32Zm-1.73,14.85v-11.59h1.56v11.59h-1.56Z"/><path class="cls-12" d="M429.32,315.12c0-1.2-.02-2.18-.07-3.14h1.38l.09,1.92h.04c.42-1.1,1.42-2.18,2.83-2.18,1.19,0,3.03,.96,3.03,4.93v6.92h-1.56v-6.68c0-1.87-.51-3.43-1.98-3.43-1.03,0-1.82,.98-2.09,2.16-.07,.26-.11,.62-.11,.98v6.97h-1.56v-8.46Z"/><path class="cls-12" d="M440.69,317.3h.04c.21-.41,.51-.91,.76-1.32l2.51-4h1.88l-3.31,4.77,3.77,6.83h-1.89l-2.96-5.56-.8,1.2v4.36h-1.54v-17.01h1.54v10.73Z"/><path class="cls-12" d="M451.36,323.58v-9.99h-1.2v-1.6h1.2v-.55c0-1.63,.27-3.11,.99-4.05,.58-.77,1.36-1.08,2.09-1.08,.55,0,1.03,.17,1.33,.33l-.21,1.63c-.23-.14-.55-.26-.99-.26-1.33,0-1.66,1.58-1.66,3.35v.62h2.07v1.6h-2.07v9.99h-1.54Z"/><path class="cls-12" d="M461.12,323.58l-.12-1.46h-.05c-.48,.91-1.4,1.72-2.62,1.72-1.73,0-2.62-1.65-2.62-3.33,0-2.8,1.84-4.34,5.15-4.31v-.24c0-.96-.2-2.68-1.95-2.68-.8,0-1.63,.33-2.23,.86l-.35-1.39c.71-.62,1.73-1.03,2.81-1.03,2.62,0,3.26,2.42,3.26,4.74v4.34c0,1.01,.04,1.99,.14,2.78h-1.42Zm-.23-5.92c-1.7-.05-3.63,.36-3.63,2.61,0,1.37,.67,2.01,1.47,2.01,1.12,0,1.82-.96,2.07-1.94,.05-.22,.09-.46,.09-.67v-2.01Z"/><path class="cls-12" d="M464.9,315.6c0-1.37-.02-2.54-.07-3.62h1.36l.05,2.28h.07c.39-1.56,1.33-2.54,2.37-2.54,.18,0,.3,.02,.44,.07v1.99c-.16-.05-.32-.07-.53-.07-1.1,0-1.88,1.13-2.09,2.71-.04,.29-.07,.62-.07,.98v6.18h-1.54v-7.98Z"/><path class="cls-12" d="M470.76,315.12c0-1.2-.02-2.18-.07-3.14h1.36l.07,1.87h.05c.48-1.1,1.27-2.13,2.69-2.13,1.17,0,2.05,.96,2.43,2.32h.04c.27-.65,.6-1.15,.96-1.51,.51-.53,1.08-.81,1.89-.81,1.13,0,2.81,1.01,2.81,5.03v6.83h-1.52v-6.56c0-2.23-.6-3.57-1.86-3.57-.88,0-1.58,.89-1.84,1.92-.07,.29-.12,.67-.12,1.05v7.16h-1.52v-6.95c0-1.84-.6-3.19-1.79-3.19-.97,0-1.68,1.05-1.93,2.11-.09,.31-.12,.67-.12,1.03v7h-1.52v-8.46Z"/><path class="cls-12" d="M486.4,318.17c.04,2.85,1.38,4.02,2.94,4.02,1.12,0,1.79-.26,2.37-.6l.27,1.51c-.55,.34-1.49,.72-2.85,.72-2.64,0-4.21-2.35-4.21-5.84s1.52-6.25,4.02-6.25c2.8,0,3.54,3.33,3.54,5.46,0,.43-.04,.77-.05,.98h-6.02Zm4.57-1.51c.02-1.34-.41-3.42-2.16-3.42-1.57,0-2.27,1.96-2.39,3.42h4.55Z"/><path class="cls-12" d="M494.4,315.12c0-1.2-.02-2.18-.07-3.14h1.38l.09,1.92h.04c.42-1.1,1.42-2.18,2.83-2.18,1.19,0,3.03,.96,3.03,4.93v6.92h-1.56v-6.68c0-1.87-.51-3.43-1.98-3.43-1.03,0-1.82,.98-2.09,2.16-.07,.26-.11,.62-.11,.98v6.97h-1.56v-8.46Z"/><path class="cls-12" d="M508.84,318.17c.04,2.85,1.38,4.02,2.94,4.02,1.12,0,1.79-.26,2.37-.6l.27,1.51c-.55,.34-1.49,.72-2.85,.72-2.64,0-4.21-2.35-4.21-5.84s1.52-6.25,4.02-6.25c2.8,0,3.54,3.33,3.54,5.46,0,.43-.04,.77-.05,.98h-6.02Zm4.57-1.51c.02-1.34-.41-3.42-2.16-3.42-1.57,0-2.27,1.96-2.39,3.42h4.55Z"/><path class="cls-12" d="M516.85,315.6c0-1.37-.02-2.54-.07-3.62h1.36l.05,2.28h.07c.39-1.56,1.33-2.54,2.37-2.54,.18,0,.3,.02,.44,.07v1.99c-.16-.05-.32-.07-.53-.07-1.1,0-1.88,1.13-2.09,2.71-.04,.29-.07,.62-.07,.98v6.18h-1.54v-7.98Z"/><path class="cls-12" d="M526.39,315.6c0-1.37-.02-2.54-.07-3.62h1.36l.05,2.28h.07c.39-1.56,1.33-2.54,2.37-2.54,.18,0,.3,.02,.44,.07v1.99c-.16-.05-.32-.07-.53-.07-1.1,0-1.88,1.13-2.09,2.71-.04,.29-.07,.62-.07,.98v6.18h-1.54v-7.98Z"/><path class="cls-12" d="M532.87,318.17c.04,2.85,1.38,4.02,2.94,4.02,1.12,0,1.79-.26,2.37-.6l.27,1.51c-.55,.34-1.49,.72-2.85,.72-2.64,0-4.21-2.35-4.21-5.84s1.52-6.25,4.02-6.25c2.8,0,3.54,3.33,3.54,5.46,0,.43-.04,.77-.05,.98h-6.02Zm4.57-1.51c.02-1.34-.41-3.42-2.16-3.42-1.58,0-2.27,1.96-2.39,3.42h4.55Z"/><path class="cls-12" d="M548.27,306.57v14.01c0,1.03,.02,2.2,.07,2.99h-1.4l-.07-2.01h-.04c-.48,1.29-1.52,2.28-2.92,2.28-2.07,0-3.66-2.37-3.66-5.89-.02-3.86,1.75-6.23,3.84-6.23,1.31,0,2.19,.84,2.58,1.77h.04v-6.92h1.56Zm-1.56,10.13c0-.26-.02-.62-.07-.89-.23-1.34-1.08-2.44-2.25-2.44-1.61,0-2.57,1.92-2.57,4.48,0,2.35,.85,4.29,2.53,4.29,1.04,0,2-.93,2.28-2.52,.05-.29,.07-.57,.07-.91v-2.01Z"/><path class="cls-12" d="M558.25,306.57v14.01c0,1.03,.02,2.2,.07,2.99h-1.4l-.07-2.01h-.04c-.48,1.29-1.52,2.28-2.92,2.28-2.07,0-3.66-2.37-3.66-5.89-.02-3.86,1.75-6.23,3.84-6.23,1.31,0,2.2,.84,2.58,1.77h.04v-6.92h1.56Zm-1.56,10.13c0-.26-.02-.62-.07-.89-.23-1.34-1.08-2.44-2.25-2.44-1.61,0-2.57,1.92-2.57,4.48,0,2.35,.85,4.29,2.53,4.29,1.04,0,2-.93,2.28-2.52,.05-.29,.07-.57,.07-.91v-2.01Z"/><path class="cls-12" d="M561.71,318.17c.04,2.85,1.38,4.02,2.94,4.02,1.12,0,1.79-.26,2.37-.6l.27,1.51c-.55,.34-1.49,.72-2.85,.72-2.64,0-4.21-2.35-4.21-5.84s1.52-6.25,4.02-6.25c2.8,0,3.54,3.33,3.54,5.46,0,.43-.04,.77-.05,.98h-6.02Zm4.57-1.51c.02-1.34-.41-3.42-2.16-3.42-1.57,0-2.27,1.96-2.39,3.42h4.55Z"/><path class="cls-12" d="M571.58,308.66v3.33h2.23v1.6h-2.23v6.25c0,1.44,.3,2.25,1.17,2.25,.41,0,.71-.07,.9-.14l.07,1.58c-.3,.17-.78,.29-1.38,.29-.72,0-1.31-.31-1.68-.89-.44-.62-.6-1.65-.6-3.02v-6.33h-1.33v-1.6h1.33v-2.78l1.52-.55Z"/><path class="cls-12" d="M575.27,322.36c0-.86,.44-1.49,1.04-1.49,.64,0,1.04,.62,1.04,1.49s-.41,1.49-1.04,1.49-1.04-.65-1.04-1.49Zm.44-3.43l-.25-11.5h1.7l-.25,11.5h-1.2Z"/></g><g><path class="cls-12" d="M420.3,341.64c.96-.2,2.11-.34,3.36-.34,2.27,0,3.89,.71,4.96,2.06,1.09,1.35,1.72,3.26,1.72,5.94s-.62,4.91-1.76,6.43c-1.14,1.54-3.03,2.38-5.41,2.38-1.13,0-2.07-.07-2.87-.2v-16.27Zm1.58,14.62c.4,.1,.98,.12,1.6,.12,3.38,0,5.21-2.55,5.21-7.02,.02-3.9-1.62-6.38-4.96-6.38-.82,0-1.43,.1-1.85,.22v13.05Z"/><path class="cls-12" d="M433.97,341.42v9.79c0,3.7,1.22,5.27,2.85,5.27,1.82,0,2.98-1.62,2.98-5.27v-9.79h1.6v9.64c0,5.08-1.98,7.16-4.63,7.16-2.51,0-4.39-1.94-4.39-7.07v-9.74h1.6Z"/><path class="cls-12" d="M447.98,341.42h6.59v1.79h-5.01v5.5h4.63v1.77h-4.63v7.48h-1.58v-16.54Z"/><path class="cls-12" d="M458.4,341.42v16.54h-1.58v-16.54h1.58Z"/><path class="cls-12" d="M461.16,341.42h1.58v7.97h.05c.33-.64,.65-1.23,.96-1.77l3.74-6.21h1.96l-4.43,7.02,4.78,9.52h-1.87l-4.03-8.12-1.16,1.82v6.31h-1.58v-16.54Z"/><path class="cls-12" d="M521.03,341.62c.76-.17,1.76-.32,3.03-.32,1.56,0,2.71,.49,3.43,1.37,.67,.79,1.07,1.99,1.07,3.46s-.33,2.67-.94,3.53c-.84,1.2-2.2,1.82-3.74,1.82-.47,0-.91-.02-1.27-.15v6.62h-1.58v-16.34Zm1.58,7.97c.34,.12,.78,.17,1.31,.17,1.91,0,3.07-1.25,3.07-3.53s-1.14-3.24-2.89-3.24c-.69,0-1.22,.07-1.49,.17v6.43Z"/><path class="cls-12" d="M541.14,349.52c0,5.69-2.56,8.71-5.68,8.71s-5.5-3.39-5.5-8.39c0-5.25,2.42-8.69,5.68-8.69s5.5,3.46,5.5,8.37Zm-9.5,.27c0,3.53,1.42,6.7,3.9,6.7s3.92-3.12,3.92-6.87c0-3.29-1.27-6.72-3.9-6.72s-3.92,3.26-3.92,6.89Z"/><path class="cls-12" d="M544.77,341.42v16.54h-1.58v-16.54h1.58Z"/><path class="cls-12" d="M547.53,357.96v-16.54h1.73l3.92,8.37c.91,1.94,1.62,3.68,2.2,5.37l.04-.02c-.15-2.21-.18-4.22-.18-6.8v-6.92h1.49v16.54h-1.6l-3.89-8.39c-.85-1.84-1.67-3.73-2.29-5.52l-.05,.02c.09,2.09,.13,4.07,.13,6.82v7.07h-1.49Z"/><path class="cls-12" d="M561.8,343.24h-3.72v-1.82h9.06v1.82h-3.74v14.72h-1.6v-14.72Z"/></g></svg>