<?xml version="1.0" encoding="UTF-8"?><svg id="Layer_1" xmlns="http://www.w3.org/2000/svg" width="230.86" height="220.93" viewBox="0 0 230.86 220.93"><defs><style>.cls-1{fill:#fff;}.cls-2{fill:#c83627;}.cls-3{fill:#180a10;}.cls-4{fill:#200c16;}.cls-5{fill:#231f20;}.cls-6{fill:#384ba0;}</style></defs><ellipse class="cls-2" cx="115.43" cy="110.47" rx="115.43" ry="110.47"/><path class="cls-6" d="M187.01,44.08v18.2H43.86v-18.2c5.79,.71,14.97,1.38,25.81,0,25.99-3.3,29.76-14.32,47.38-14.07,17.22,.24,20.33,10.87,45.21,14.07,10.47,1.35,19.31,.67,24.76,0Z"/><rect class="cls-4" x="60.43" y="80.33" width="31.03" height="31.03" rx="14.3" ry="14.3"/><rect class="cls-3" x="129.34" y="79.44" width="31.03" height="31.03" rx="14.3" ry="14.3"/><rect class="cls-4" x="136.79" y="70.88" width="38.48" height="6.21" transform="translate(24.51 -37.92) rotate(15.02)"/><rect class="cls-4" x="47.05" y="70.88" width="38.48" height="6.21" transform="translate(-17.45 20.55) rotate(-15.6)"/><g><path class="cls-1" d="M97.9,39.76c0-.6-.01-1.09-.05-1.57h.92l.05,.94h.04c.32-.55,.86-1.07,1.82-1.07,.79,0,1.39,.48,1.64,1.16h.02c.18-.32,.41-.58,.65-.76,.35-.26,.73-.41,1.28-.41,.77,0,1.91,.5,1.91,2.52v3.42h-1.03v-3.29c0-1.12-.41-1.79-1.26-1.79-.6,0-1.07,.44-1.25,.96-.05,.14-.08,.34-.08,.53v3.59h-1.03v-3.48c0-.92-.41-1.59-1.21-1.59-.66,0-1.14,.53-1.31,1.06-.06,.16-.08,.33-.08,.52v3.5h-1.03v-4.23Z"/><path class="cls-1" d="M111.12,43.99l-.08-.73h-.04c-.32,.46-.95,.86-1.77,.86-1.18,0-1.77-.83-1.77-1.67,0-1.4,1.25-2.17,3.49-2.16v-.12c0-.48-.13-1.34-1.32-1.34-.54,0-1.1,.17-1.51,.43l-.24-.7c.48-.31,1.18-.52,1.91-.52,1.77,0,2.21,1.21,2.21,2.37v2.17c0,.5,.02,1,.1,1.39h-.96Zm-.16-2.96c-1.15-.02-2.46,.18-2.46,1.31,0,.68,.46,1.01,1,1.01,.76,0,1.24-.48,1.4-.97,.04-.11,.06-.23,.06-.34v-1.01Z"/><path class="cls-1" d="M114.73,40.85h.02c.14-.2,.35-.46,.52-.66l1.7-2h1.27l-2.24,2.39,2.55,3.42h-1.28l-2-2.78-.54,.6v2.18h-1.04v-8.52h1.04v5.37Z"/><path class="cls-1" d="M119.52,40c0-.68-.01-1.27-.05-1.81h.92l.04,1.14h.05c.26-.78,.9-1.27,1.61-1.27,.12,0,.2,.01,.3,.04v1c-.11-.02-.22-.04-.36-.04-.74,0-1.27,.56-1.42,1.36-.02,.14-.05,.31-.05,.49v3.09h-1.04v-3.99Z"/><path class="cls-1" d="M123.91,41.28c.02,1.43,.94,2.01,1.99,2.01,.76,0,1.21-.13,1.61-.3l.18,.76c-.37,.17-1.01,.36-1.93,.36-1.79,0-2.85-1.18-2.85-2.93s1.03-3.13,2.72-3.13c1.9,0,2.4,1.67,2.4,2.73,0,.22-.02,.38-.04,.49h-4.08Zm3.09-.76c.01-.67-.28-1.71-1.46-1.71-1.07,0-1.54,.98-1.62,1.71h3.08Z"/><path class="cls-1" d="M129.34,35.48h1.06v8.52h-1.06v-8.52Z"/><path class="cls-1" d="M112.9,52.59c-.02,.42-.05,.89-.05,1.6v3.37c0,1.33-.26,2.15-.83,2.65-.56,.53-1.38,.7-2.11,.7s-1.46-.17-1.93-.48l.26-.8c.38,.24,.98,.46,1.7,.46,1.08,0,1.87-.56,1.87-2.03v-.65h-.02c-.32,.54-.95,.97-1.85,.97-1.44,0-2.47-1.22-2.47-2.83,0-1.97,1.28-3.08,2.61-3.08,1.01,0,1.56,.53,1.81,1.01h.02l.05-.88h.92Zm-1.09,2.29c0-.18-.01-.34-.06-.48-.19-.61-.71-1.12-1.48-1.12-1.01,0-1.73,.85-1.73,2.2,0,1.14,.58,2.09,1.72,2.09,.65,0,1.24-.41,1.46-1.08,.06-.18,.08-.38,.08-.56v-1.04Z"/><path class="cls-1" d="M119.46,56.81c0,.6,.01,1.13,.05,1.58h-.94l-.06-.95h-.02c-.28,.47-.89,1.08-1.92,1.08-.91,0-2-.5-2-2.54v-3.39h1.06v3.21c0,1.1,.34,1.85,1.3,1.85,.71,0,1.2-.49,1.39-.96,.06-.16,.1-.35,.1-.54v-3.56h1.06v4.22Z"/><path class="cls-1" d="M121.32,58.39v-5h-.82v-.8h.82v-.28c0-.82,.18-1.56,.67-2.03,.4-.38,.92-.54,1.42-.54,.37,0,.7,.08,.9,.17l-.14,.82c-.16-.07-.37-.13-.67-.13-.9,0-1.13,.79-1.13,1.68v.31h1.4v.8h-1.4v5h-1.04Z"/></g><path class="cls-5" d="M89.38,161.83c2.57,3.07,14.64,16.86,32.69,16.63,17.83-.22,34.4-14.03,42.26-35.17"/></svg>