<?xml version="1.0" encoding="UTF-8"?><svg id="Layer_1" xmlns="http://www.w3.org/2000/svg" width="362.54" height="294.68" viewBox="0 0 362.54 294.68"><defs><style>.cls-1{fill:#f9a560;}.cls-2{fill:#e88734;}.cls-3{fill:#fee1c9;}.cls-4{fill:#fff;}.cls-5{fill:#944520;}.cls-6{fill:#231f20;}.cls-7{fill:#3e3e3f;}.cls-8{fill:#1a170c;}.cls-9{fill:none;stroke:#231f20;stroke-miterlimit:10;}</style></defs><ellipse class="cls-2" cx="179.97" cy="148.82" rx="170.79" ry="143.85"/><ellipse class="cls-3" cx="156.2" cy="190.34" rx="41.59" ry="39.02"/><path class="cls-2" d="M39.25,116.89c19.58,3.43,43.33-28.38,48.53-57.25,3.87-21.47-.38-53.2-16.94-58.75C52.14-5.38,19.8,22.43,13.67,53.93c-5.15,26.46,7.36,59.77,25.58,62.96Z"/><path class="cls-5" d="M40.73,109.21c20.75-17.84,22.5-28.99,41.34-51.22,12.57-14.82-.08-47.38-14.07-52.25C52.22,.24,24.71,25.16,19.38,53.25c-4.48,23.59,9.49,66.16,21.36,55.96Z"/><path class="cls-2" d="M318.49,1.68c-20.64,2.1-35.32,41.52-32.23,72.62,2.3,23.12,15.71,54.44,33.93,55.39,20.57,1.07,45.03-36.71,42.11-70.78-2.45-28.61-24.61-59.18-43.82-57.23Z"/><path class="cls-5" d="M321.16,6.69c-16.74,1.66-39.07,38.02-25.82,60.55,11.75,19.98,16.54,47.96,27.77,46.44,21.6-2.92,36.37-30.48,33.85-58.97-2.12-23.92-20.23-49.57-35.8-48.02Z"/><circle class="cls-8" cx="247.82" cy="119.86" r="19.37"/><circle class="cls-8" cx="114.6" cy="119.86" r="19.37"/><path class="cls-1" d="M243.79,73.73c4.76,.61,10.82,1.7,17.52,3.76,19.53,6.02,36.98,18,35.24,21.28-2.73,5.15-42.27-9.15-53.19-7.71-.57,.07-12.28-3.66-13.7-5.33-1.41-1.65-1.86-5.36,.11-8.84,2.17-3.84,10.81-4.71,14.02-3.17"/><path class="cls-1" d="M118.79,76.65c-4.76,.61-6.12,.99-12.82,3.06-19.53,6.02-36.98,18-35.24,21.28,2.73,5.15,51.58-13.28,62.51-11.83,.57,.07,2.97,.46,4.38-1.21,1.41-1.65,1.86-5.36-.11-8.84-2.17-3.84-6.66-6.29-9.87-4.75"/><line class="cls-9" x1="158.66" y1="148.82" x2="158.16" y2="148.82"/><ellipse class="cls-3" cx="210.26" cy="190.34" rx="41.59" ry="39.02"/><path class="cls-3" d="M201.79,172.41v120.26c2.75,0,5.44,.07,8.07,.2,4.72-.91,9.5-1.45,14.32-1.62,5.67-1.74,11.29-3.74,16.82-5.01,2.76-.63,5.76-1.25,8.82-1.65,3.12-1.17,6.2-2.43,9.24-3.82,12.01-5.48,23.45-12.47,34.18-20.27,.35-.6,.84-1.15,1.5-1.63,8.73-6.29,16.94-13.3,24.15-21.31,6.22-6.9,10.98-14.65,15.89-22.49,.06-.1,.12-.2,.18-.29,2.66-6.22,5.06-12.56,7.51-18.87,1.55-5.67,3.02-11.36,4.43-17.06-40.06,11.81-92.01,20.12-145.11-6.45Z"/><ellipse class="cls-3" cx="274.21" cy="226.78" rx="11.64" ry="9.53"/><path class="cls-3" d="M157.62,172.41v120.26c-2.75,0-5.44,.07-8.07,.2-4.72-.91-9.5-1.45-14.32-1.62-5.67-1.74-11.29-3.74-16.82-5.01-2.76-.63-5.76-1.25-8.82-1.65-3.12-1.17-6.2-2.43-9.24-3.82-12.01-5.48-23.45-12.47-34.18-20.27-.35-.6-.84-1.15-1.5-1.63-8.73-6.29-16.94-13.3-24.15-21.31-6.22-6.9-10.98-14.65-15.89-22.49-.06-.1-.12-.2-.18-.29-2.66-6.22-5.06-12.56-7.51-18.87-1.55-5.67-3.02-11.36-4.43-17.06,40.06,11.81,92.01,20.12,145.11-6.45Z"/><path class="cls-3" d="M201.18,293.76c19.41-7.06,32.97-23.06,32.97-41.68,0-25.15-24.72-45.54-55.22-45.54s-55.22,20.39-55.22,45.54c0,19.47,14.83,36.08,35.67,42.6,13.92-.51,27.86-.97,41.8-.92Z"/><circle class="cls-7" cx="179.97" cy="164.09" r="20.34"/><circle class="cls-4" cx="251.78" cy="110.79" r="3.95"/><circle class="cls-4" cx="119.76" cy="109.78" r="3.95"/><path class="cls-3" d="M127.01,226.96c8.81,4.84,17.93,9.85,27.98,11.48,4.94,.8,9.96,.87,14.86-.22,4.62-1.03,8.9-3.2,12.69-6.02,4.21-3.13,7.88-6.85,11.5-10.63l-3.03,.39c11.63,8.71,25.78,15.57,40.66,12.52,3.94-.81,7.76-2.39,11.06-4.7,1.11-.77,1.62-2.19,.9-3.42-.64-1.09-2.31-1.67-3.42-.9-6.73,4.71-15.33,5.72-23.25,4-8.68-1.88-16.39-6.56-23.42-11.83-.86-.64-2.33-.34-3.03,.39-5.74,5.98-11.85,12.44-20.04,14.86-8.84,2.61-18.3,.52-26.59-2.98-4.94-2.09-9.65-4.69-14.34-7.27-2.82-1.55-5.35,2.77-2.52,4.32h0Z"/><path class="cls-3" d="M83.09,238.57c3.22,0,3.22-5,0-5s-3.22,5,0,5h0Z"/><path class="cls-3" d="M135.67,216.87c7.48,4.9,17.13,5.27,25.53,2.79,9.1-2.69,16.84-8.43,24.09-14.34,1.05-.85,.89-2.65,0-3.54-1.04-1.04-2.49-.86-3.54,0-6.47,5.27-13.43,10.46-21.5,12.94-7.3,2.24-15.52,2.11-22.06-2.17-2.7-1.77-5.21,2.56-2.52,4.32h0Z"/><path class="cls-3" d="M181.21,204.38c8.38,11.56,21.52,18.92,35.68,20.42,3.97,.42,7.93,.27,11.88-.3,1.34-.19,2.07-1.89,1.75-3.08-.4-1.44-1.73-1.94-3.08-1.75-12.21,1.74-25.24-2.24-34.66-10.12-2.71-2.27-5.18-4.84-7.26-7.7-.79-1.09-2.17-1.63-3.42-.9-1.08,.63-1.69,2.32-.9,3.42h0Z"/><path class="cls-6" d="M176.37,203.84c-.12,.17-.24,.34-.37,.5-.04,.05-.37,.48-.14,.19-.23,.29-.47,.58-.71,.87-.51,.6-1.04,1.18-1.59,1.74-.58,.59-1.19,1.16-1.82,1.7-.28,.24-.57,.48-.86,.72-.1,.08-.44,.35-.18,.15-.16,.13-.33,.25-.5,.37-1.27,.93-2.61,1.77-4.01,2.5-.7,.37-1.41,.71-2.13,1.02,.32-.14-.09,.03-.21,.08-.19,.08-.39,.15-.58,.22-.39,.15-.78,.28-1.17,.41-1.24,.41-2.18,1.74-1.75,3.08,.4,1.23,1.75,2.19,3.08,1.75,6.98-2.34,12.96-6.79,17.24-12.76,.77-1.07,.22-2.83-.9-3.42-1.29-.68-2.6-.24-3.42,.9h0Z"/><path class="cls-6" d="M177.3,204.83c2.34,7.25,8.13,13.04,15.39,15.37,1.25,.4,2.78-.47,3.08-1.75,.31-1.37-.41-2.65-1.75-3.08-.38-.12-.76-.25-1.13-.4-.21-.08-.54-.22-.14-.05-.18-.08-.37-.16-.55-.25-.73-.34-1.43-.72-2.11-1.14-.34-.21-.68-.43-1-.66-.16-.11-.33-.23-.49-.35-.54-.39,.39,.32-.13-.1-.62-.5-1.22-1.03-1.79-1.6s-1.09-1.17-1.6-1.79c-.34-.41,.24,.34-.1-.13-.12-.16-.24-.32-.35-.49-.23-.33-.45-.66-.66-1-.4-.65-.77-1.33-1.1-2.02-.09-.18-.16-.36-.25-.55-.07-.17-.05-.12,.06,.14-.04-.09-.08-.19-.11-.28-.16-.4-.3-.81-.43-1.23-.4-1.24-1.75-2.17-3.08-1.75-1.24,.4-2.18,1.74-1.75,3.08h0Z"/></svg>