<?xml version="1.0" encoding="UTF-8"?><svg id="Layer_1" xmlns="http://www.w3.org/2000/svg" width="1362.72" height="361.73" viewBox="0 0 1362.72 361.73"><defs><style>.cls-1{fill:#ee3224;}.cls-2{fill:#231f20;}</style></defs><rect class="cls-1" x="260.13" y="63.04" width="856.38" height="196.07" rx="72.78" ry="72.78"/><g><path class="cls-2" d="M583.02,152.28c1.98,.51,3.67,1.47,5.07,2.88,1.4,1.41,3.14,4.22,5.22,8.44l7.73,15.54h-8.26l-6.78-14.36c-1.96-4.09-3.71-6.72-5.28-7.9-1.56-1.18-3.6-1.77-6.11-1.77h-7.35v24.03h-7.73v-56.86h15.84c6.25,0,11.03,1.41,14.36,4.23s4.99,6.89,4.99,12.23c0,3.76-1.02,6.82-3.07,9.2-2.04,2.37-4.92,3.83-8.63,4.36Zm-15.77-23.69v20.19h8.42c3.68,0,6.42-.83,8.23-2.48s2.7-4.18,2.7-7.58-.96-5.78-2.88-7.52c-1.92-1.74-4.7-2.61-8.36-2.61h-8.11Z"/><path class="cls-2" d="M643.69,154.29v3.43h-30.35v.23c-.2,5.81,.91,9.99,3.33,12.53,2.42,2.54,5.85,3.81,10.26,3.81,2.23,0,4.57-.36,7.01-1.07s5.04-1.79,7.81-3.24v6.97c-2.67,1.09-5.24,1.91-7.71,2.46-2.48,.55-4.87,.82-7.18,.82-6.63,0-11.81-1.99-15.54-5.96s-5.6-9.45-5.6-16.43,1.83-12.24,5.48-16.3,8.53-6.09,14.62-6.09c5.43,0,9.72,1.84,12.85,5.52,3.13,3.68,4.8,8.12,5.01,13.33Zm-7.01-2.06c-.3-2.95-1.38-5.49-3.22-7.64-1.84-2.14-4.49-3.22-7.94-3.22s-6.16,1.12-8.34,3.35-3.38,4.75-3.58,7.54l23.08-.04Z"/><path class="cls-2" d="M687.68,176.38c0,6.4-1.51,11.25-4.53,14.55s-7.46,4.95-13.33,4.95c-1.93,0-3.95-.18-6.06-.53s-4.21-.88-6.32-1.56v-6.93c2.49,1.17,4.75,2.03,6.78,2.59s3.9,.84,5.6,.84c3.78,0,6.54-1.03,8.26-3.08s2.59-5.32,2.59-9.79v-5.07c-1.12,2.39-2.64,4.16-4.57,5.33s-4.28,1.75-7.05,1.75c-4.98,0-8.95-1.99-11.92-5.98s-4.46-9.32-4.46-16,1.49-12.05,4.46-16.03,6.94-5.98,11.92-5.98c2.74,0,5.07,.55,6.97,1.64s3.45,2.78,4.65,5.07v-5.52h7.01v39.76Zm-7.01-18.93c0-5.26-.86-9.25-2.57-11.98-1.71-2.73-4.21-4.09-7.48-4.09s-6.04,1.37-7.85,4.09-2.7,6.72-2.7,11.98,.91,9.26,2.72,12.02c1.81,2.75,4.45,4.13,7.9,4.13,3.22,0,5.69-1.38,7.41-4.15,1.71-2.77,2.57-6.77,2.57-12Z"/><path class="cls-2" d="M722.34,163.7c0,3.15,.58,5.52,1.73,7.12,1.15,1.6,2.86,2.4,5.12,2.4h8.19v5.9h-8.87c-4.19,0-7.43-1.34-9.73-4.02s-3.45-6.48-3.45-11.41v-38.58h-11.24v-5.48h18.24v44.07Z"/><path class="cls-2" d="M784.57,154.29v3.43h-30.35v.23c-.2,5.81,.91,9.99,3.33,12.53,2.42,2.54,5.85,3.81,10.26,3.81,2.23,0,4.57-.36,7.01-1.07s5.04-1.79,7.81-3.24v6.97c-2.67,1.09-5.24,1.91-7.71,2.46-2.48,.55-4.87,.82-7.18,.82-6.63,0-11.81-1.99-15.54-5.96s-5.6-9.45-5.6-16.43,1.83-12.24,5.48-16.3,8.53-6.09,14.62-6.09c5.43,0,9.72,1.84,12.85,5.52,3.13,3.68,4.8,8.12,5.01,13.33Zm-7.01-2.06c-.3-2.95-1.38-5.49-3.22-7.64-1.84-2.14-4.49-3.22-7.94-3.22s-6.16,1.12-8.34,3.35-3.38,4.75-3.58,7.54l23.08-.04Z"/><path class="cls-2" d="M832.87,145.27c-1.5-1.17-3.02-2.02-4.57-2.55s-3.25-.8-5.1-.8c-4.37,0-7.71,1.37-10.02,4.11s-3.47,6.7-3.47,11.88v21.21h-7.05v-42.66h7.05v8.34c1.17-3.02,2.96-5.34,5.39-6.95,2.42-1.61,5.3-2.42,8.63-2.42,1.73,0,3.34,.22,4.84,.65s2.93,1.1,4.3,2.02v7.16Z"/></g></svg>