<?xml version="1.0" encoding="UTF-8"?><svg id="Layer_1" xmlns="http://www.w3.org/2000/svg" width="1002.99" height="605.82" xmlns:xlink="http://www.w3.org/1999/xlink" viewBox="0 0 1002.99 605.82"><defs><style>.cls-1{fill:#f9a560;}.cls-2{fill:#e88734;}.cls-3{fill:#fee1c9;}.cls-4{fill:#fff;}.cls-5{fill:#f1f2f2;}.cls-6{fill:#944520;}.cls-7{fill:#cd5f29;}.cls-8{fill:#d22a27;}.cls-9{fill:#231f20;}.cls-10{fill:#3e3e3f;}.cls-11{fill:#1a170c;}.cls-12,.cls-13,.cls-14{stroke:#231f20;stroke-miterlimit:10;}.cls-12,.cls-13,.cls-15,.cls-16,.cls-17,.cls-18,.cls-19,.cls-20,.cls-21,.cls-22{opacity:.5;}.cls-12,.cls-21{fill:#925a26;}.cls-13{fill:#6d6e71;stroke-width:.5px;}.cls-23{filter:url(#AI_Shadow_1-2);}.cls-24{filter:url(#AI_Shadow_1);}.cls-14{fill:none;}.cls-16{fill:#17753b;}.cls-17{fill:#35b44a;}.cls-18{fill:#add589;}.cls-19{fill:#b1d235;}.cls-20{fill:#a0d2e9;}.cls-22,.cls-25{fill:#e9e61b;}.cls-25{opacity:.8;}</style><filter id="AI_Shadow_1"><feGaussianBlur in="SourceAlpha" result="blur" stdDeviation="2"/><feOffset dx="4" dy="4" in="blur" result="offsetBlurredAlpha"/><feMerge><feMergeNode in="offsetBlurredAlpha"/><feMergeNode in="SourceGraphic"/></feMerge></filter><filter id="AI_Shadow_1-2"><feGaussianBlur in="SourceAlpha" result="blur" stdDeviation="2"/><feOffset dx="4" dy="4" in="blur" result="offsetBlurredAlpha"/><feMerge><feMergeNode in="offsetBlurredAlpha"/><feMergeNode in="SourceGraphic"/></feMerge></filter></defs><rect class="cls-20" x="-4.89" y="-4.76" width="1007.88" height="610.58"/><g class="cls-15"><ellipse class="cls-25" cx="477.65" cy="218.05" rx="208.01" ry="172.9"/></g><g class="cls-15"><ellipse class="cls-25" cx="477.65" cy="213.36" rx="174.64" ry="149.99"/></g><g class="cls-15"><ellipse class="cls-25" cx="477.65" cy="218.05" rx="233.96" ry="195.58"/></g><ellipse class="cls-22" cx="477.65" cy="226.11" rx="154.32" ry="146.67"/><path class="cls-18" d="M24.34,231.05c11.85-6.83,21.46-6.67,83.66,1.04,77.42,9.6,116.14,14.4,143.88,20.85,74.66,17.37,68.27,26.45,100.09,26.07,56.18-.68,77.54-28.98,124.07-20.85,16.86,2.94,33.31,14.92,66.73,36.49,32.37,20.9,48.54,31.55,47.96,41.71-1.38,24.14-77.61,38.19-113.65,44.83-73.93,13.63-95.99,7.22-188.72,14.6-102.31,8.13-119.11,19.4-176.21,10.43-46.68-7.34-99.88-15.7-119.9-57.34-19.05-39.62-2.54-97.86,32.07-117.82Z"/><path class="cls-19" d="M6.37,309.93c14.58-17.99,54.64-18.6,134.75-19.81,36.81-.56,65.15,1.1,79.24,2.09,31.82,2.23,72.96,5.3,124.07,17.72,32.56,7.92,29.94,10.1,47.96,12.51,12.72,1.7,48.19,5.2,103.22-11.47,45.97-13.92,43.98-23.26,79.24-34.41,60.21-19.04,115.55-7.48,156.4,1.04,12.52,2.61,.34,.65,111.56,35.45,30.73,9.62,60.45,22.69,91.75,30.24,10.97,2.64,34.79,8.01,61.52,23.98,10.45,6.25,16.43,9.82,21.9,15.64,23.04,24.54,21.72,72.83,8.34,96.97-9.57,17.25-39.88,48.47-240.85,30.24-192.46-17.46-188.36-48.23-304.45-45.88-80.92,1.64-104.42,17.03-267.96,25.02-83.41,4.08-123.38,2.33-158.48-25.02C3.61,424.53-20.83,343.5,6.37,309.93Z"/><g class="cls-15"><path class="cls-2" d="M518.78,368.26c6.5-12.3-54.24-38.45-65.89-29.14-.76,.61-1.08,1.13-1.04,1.61,.19,1.85,5.02,3,6.24,3.3,4.81,1.2,12.32,5.27,27.33,13.42,17.57,9.53,27.65,21.59,33.35,10.81Z"/><path class="cls-5" d="M461.35,344.94c6.27,.53,6.03,1.13,6.03,1.13l-2.02-2.65,3.53,.89-2.08-2.34,3.39,.62-1.77-2.13,3.65,.99-3.74-2.85,2.87-.37-7.86-1.39-7.95,.57-2.93,1.4-.8,2.35,2.14,1.85,3.86,1.23,3.66,.7Z"/></g><path class="cls-17" d="M6.37,357.91c29.63-23.47,63.14,11.81,167.07,3.13,39.13-3.27,32.37-8.1,69.86-10.43,51.35-3.19,102.74,3.47,162.65,11.47,29.79,3.98,44.65,6.71,66.73,2.09,30.72-6.43,37.16-19.09,64.64-30.24,33.25-13.48,63.18-10.03,123.03-3.13,41.11,4.74,32.81,7.71,104.26,19.81,70.5,11.94,82.53,9.71,113.65,22.94,18.24,7.75,34.4,17.33,66.73,36.49,44.74,26.51,51.7,28.05,57.99,36.49,21.52,28.87,13.66,77.69,0,102.18-48.2,86.42-272.24,55.44-446.9,31.28-226.54-31.33-273.5-72.84-371.18-33.36-44.75,18.09-104.71,55.02-147.01,29.19-24.15-14.74-32.19-43.61-40.66-74.03-5.06-18.18-31.18-111.95,9.13-143.88Z"/><g class="cls-15"><g><ellipse class="cls-2" cx="713.74" cy="408.49" rx="30.01" ry="24.22"/><path class="cls-2" d="M689.01,403.12c3.44,.58,7.61-4.78,8.53-9.64,.68-3.61-.07-8.96-2.98-9.89-3.28-1.06-8.97,3.63-10.04,8.93-.9,4.46,1.29,10.06,4.49,10.6Z"/><path class="cls-6" d="M689.27,401.82c3.65-3,3.95-4.88,7.26-8.62,2.21-2.5-.01-7.98-2.47-8.8-2.77-.93-7.61,3.27-8.54,8-.79,3.97,1.67,11.14,3.75,9.42Z"/><path class="cls-2" d="M738.07,383.72c-3.63,.35-6.21,6.99-5.66,12.23,.4,3.89,2.76,9.17,5.96,9.33,3.61,.18,7.91-6.18,7.4-11.92-.43-4.82-4.32-9.96-7.7-9.64Z"/><path class="cls-6" d="M738.54,384.56c-2.94,.28-6.86,6.4-4.54,10.19,2.06,3.36,2.91,8.07,4.88,7.82,3.8-.49,6.39-5.13,5.95-9.93-.37-4.03-3.55-8.35-6.29-8.09Z"/><ellipse class="cls-11" cx="725.66" cy="403.62" rx="3.4" ry="3.26"/><ellipse class="cls-11" cx="702.25" cy="403.62" rx="3.4" ry="3.26"/><path class="cls-1" d="M724.95,395.85c.84,.1,1.9,.29,3.08,.63,3.43,1.01,6.5,3.03,6.19,3.58-.48,.87-7.43-1.54-9.35-1.3-.1,.01-2.16-.62-2.41-.9-.25-.28-.33-.9,.02-1.49,.38-.65,1.9-.79,2.46-.53"/><path class="cls-1" d="M702.99,396.34c-.84,.1-1.08,.17-2.25,.51-3.43,1.01-6.5,3.03-6.19,3.58,.48,.87,9.06-2.24,10.98-1.99,.1,.01,.52,.08,.77-.2,.25-.28,.33-.9-.02-1.49-.38-.65-1.17-1.06-1.73-.8"/><line class="cls-14" x1="709.99" y1="408.49" x2="709.9" y2="408.49"/><image class="cls-24" width="73" height="66" transform="translate(700.79 408.15) scale(.24)" xlink:href="regelskærm1.png"/><ellipse class="cls-3" cx="719.06" cy="415.48" rx="7.31" ry="6.57"/><path class="cls-3" d="M717.57,412.47v20.25c.48,0,.96,.01,1.42,.03,.83-.15,1.67-.24,2.52-.27,1-.29,1.98-.63,2.95-.84,.48-.11,1.01-.21,1.55-.28,.55-.2,1.09-.41,1.62-.64,2.11-.92,4.12-2.1,6-3.41,.06-.1,.15-.19,.26-.27,1.53-1.06,2.98-2.24,4.24-3.59,1.09-1.16,1.93-2.47,2.79-3.79,.01-.02,.02-.03,.03-.05,.47-1.05,.89-2.11,1.32-3.18,.27-.95,.53-1.91,.78-2.87-7.04,1.99-16.16,3.39-25.49-1.09Z"/><ellipse class="cls-3" cx="730.29" cy="421.62" rx="2.05" ry="1.6"/><path class="cls-3" d="M709.81,412.47v20.25c-.48,0-.96,.01-1.42,.03-.83-.15-1.67-.24-2.52-.27-1-.29-1.98-.63-2.95-.84-.48-.11-1.01-.21-1.55-.28-.55-.2-1.09-.41-1.62-.64-2.11-.92-4.12-2.1-6-3.41-.06-.1-.15-.19-.26-.27-1.53-1.06-2.98-2.24-4.24-3.59-1.09-1.16-1.93-2.47-2.79-3.79-.01-.02-.02-.03-.03-.05-.47-1.05-.89-2.11-1.32-3.18-.27-.95-.53-1.91-.78-2.87,7.04,1.99,16.16,3.39,25.49-1.09Z"/><path class="cls-3" d="M717.46,432.9c3.41-1.19,5.79-3.88,5.79-7.02,0-4.23-4.34-7.67-9.7-7.67s-9.7,3.43-9.7,7.67c0,3.28,2.6,6.08,6.27,7.17,2.45-.09,4.9-.16,7.34-.15Z"/><ellipse class="cls-10" cx="713.74" cy="411.06" rx="3.57" ry="3.42"/><ellipse class="cls-4" cx="726.35" cy="402.09" rx=".69" ry=".67"/><ellipse class="cls-4" cx="703.16" cy="401.92" rx=".69" ry=".67"/><path class="cls-3" d="M703.39,423.45c2.3,1.21,4.76,2.41,7.44,2.32,2.82-.1,4.91-1.63,6.83-3.55l-3.03,.39c3.22,2.28,7.57,3.59,11.17,1.32,2.71-1.71,.21-6.04-2.52-4.32-.87,.55-1.78,.64-2.73,.41-1.26-.3-2.34-.98-3.39-1.73-.89-.63-2.29-.34-3.03,.39-1.05,1.04-2.07,2.13-3.65,2.09s-3.15-.89-4.57-1.64c-1.19-.63-2.72-.3-3.42,.9-.66,1.13-.3,2.79,.9,3.42h0Z"/><path class="cls-3" d="M696.71,425.68c3.22,0,3.22-5,0-5s-3.22,5,0,5h0Z"/><path class="cls-3" d="M704.91,421.75c1.79,1.11,4.09,1.25,6.08,.68s3.56-1.72,5.13-2.95c.47-.37,.73-1.21,.73-1.77,0-.61-.27-1.35-.73-1.77s-1.1-.76-1.77-.73c-.71,.03-1.21,.3-1.77,.73-.38,.3,.49-.37,0,0-.11,.08-.22,.17-.34,.25-.25,.18-.49,.35-.75,.51-.51,.33-1.04,.62-1.6,.86l.6-.25c-.55,.23-1.11,.39-1.7,.48l.66-.09c-.53,.07-1.06,.08-1.6,0l.66,.09c-.39-.06-.77-.16-1.14-.31l.6,.25c-.2-.09-.39-.19-.58-.3-1.11-.69-2.8-.28-3.42,.9s-.29,2.69,.9,3.42h0Z"/><path class="cls-3" d="M712.17,418.9c.71,.93,1.44,1.68,2.37,2.38,.69,.52,1.44,.91,2.24,1.24,1.69,.71,3.58,1.05,5.4,.81,.69-.09,1.25-.22,1.77-.73,.43-.43,.76-1.15,.73-1.77s-.24-1.32-.73-1.77c-.45-.41-1.13-.82-1.77-.73-.75,.1-1.51,.1-2.26,0l.66,.09c-.75-.11-1.48-.3-2.18-.59l.6,.25c-.69-.29-1.34-.66-1.94-1.12l.51,.39c-.52-.41-1-.87-1.41-1.39l.39,.51-.07-.09c-.41-.54-.81-.96-1.49-1.15-.6-.16-1.4-.09-1.93,.25s-1,.86-1.15,1.49-.15,1.4,.25,1.93h0Z"/><path class="cls-9" d="M711.32,416.71s-.03,.05-.05,.07l.39-.51c-.29,.37-.62,.7-.99,.99l.51-.39c-.38,.29-.79,.53-1.22,.71l.6-.25c-.16,.07-.33,.13-.5,.19-.62,.2-1.16,.58-1.49,1.15-.18,.29-.28,.6-.3,.93-.07,.33-.06,.66,.04,1,.2,.6,.57,1.19,1.15,1.49s1.28,.46,1.93,.25c.75-.24,1.51-.57,2.16-1.03,.4-.28,.8-.58,1.15-.93s.65-.75,.95-1.15c.18-.29,.28-.6,.3-.93,.07-.33,.06-.66-.04-1-.08-.33-.23-.61-.45-.85-.18-.27-.41-.49-.7-.64-.58-.31-1.28-.46-1.93-.25l-.6,.25c-.38,.22-.67,.52-.9,.9h0Z"/><path class="cls-9" d="M711.28,418.48c.16,.46,.35,.94,.61,1.35s.58,.83,.94,1.17,.76,.65,1.19,.91c.13,.08,.26,.14,.4,.21,.33,.15,.66,.3,1,.4,.33,.1,.66,.12,1,.04,.33-.02,.64-.11,.93-.3,.29-.16,.53-.37,.7-.64,.22-.24,.37-.52,.45-.85l.09-.66c0-.45-.12-.87-.34-1.26l-.39-.51c-.31-.31-.68-.52-1.1-.64-.13-.04-.25-.08-.37-.14l.6,.25c-.29-.12-.55-.28-.8-.47l.51,.39c-.25-.2-.48-.42-.68-.67l.39,.51c-.19-.24-.34-.5-.46-.79l.25,.6c-.03-.08-.06-.15-.09-.23-.08-.33-.23-.61-.45-.85-.18-.27-.41-.49-.7-.64-.29-.18-.6-.28-.93-.3-.33-.07-.66-.06-1,.04l-.6,.25c-.38,.22-.67,.52-.9,.9l-.25,.6c-.12,.44-.12,.89,0,1.33h0Z"/></g></g><path class="cls-16" d="M-2.48,475.98c2.24-.75,4.44-.46,6.1,0,30.05-14.22,72.85-31.73,126.29-44.81,33.73-8.26,72.72-17.82,123.58-17.65,44.39,.15,63.26,7.61,145.31,23.09,98.51,18.58,105.92,23.23,133.08,21.73,34.71-1.92,31.25-8.6,116.79-28.52,67.63-15.74,102.22-23.52,139.87-19.01,32.79,3.93,29.58,10.58,88.27,24.44,76.6,18.09,92.88,9.32,111.36,24.44,40.49,33.14,26.61,127.9,5.98,173.82-111.88,249.03-933.4,199.25-996.62,0-10.71-33.75-24.29-149.41,0-157.53Z"/><g class="cls-15"><ellipse class="cls-4" cx="76.01" cy="81.46" rx="26.18" ry="21.21"/><ellipse class="cls-4" cx="133.45" cy="99.5" rx="62.5" ry="22.89"/><ellipse class="cls-4" cx="195.95" cy="69.65" rx="55.78" ry="33.03"/><ellipse class="cls-4" cx="133.45" cy="65.49" rx="64.85" ry="39.44" transform="translate(-14.2 48.24) rotate(-19.48)"/></g><g class="cls-15"><ellipse class="cls-4" cx="693.11" cy="190.68" rx="20.83" ry="17.96"/><ellipse class="cls-4" cx="738.81" cy="205.95" rx="49.74" ry="19.39"/><ellipse class="cls-4" cx="788.55" cy="180.67" rx="44.39" ry="27.97"/><ellipse class="cls-4" cx="738.81" cy="177.15" rx="52.02" ry="33.15" transform="translate(-12.23 291.86) rotate(-22.17)"/></g><g class="cls-15"><g><ellipse class="cls-2" cx="266.45" cy="319.7" rx="30.01" ry="24.22"/><path class="cls-2" d="M241.73,314.32c3.44,.58,7.61-4.78,8.53-9.64,.68-3.61-.07-8.96-2.98-9.89-3.28-1.06-8.97,3.63-10.04,8.93-.9,4.46,1.29,10.06,4.49,10.6Z"/><path class="cls-6" d="M241.99,313.03c3.65-3,3.95-4.88,7.26-8.62,2.21-2.5-.01-7.98-2.47-8.8-2.77-.93-7.61,3.27-8.54,8-.79,3.97,1.67,11.14,3.75,9.42Z"/><path class="cls-2" d="M290.79,294.92c-3.63,.35-6.21,6.99-5.66,12.23,.4,3.89,2.76,9.17,5.96,9.33,3.61,.18,7.91-6.18,7.4-11.92-.43-4.82-4.32-9.96-7.7-9.64Z"/><path class="cls-6" d="M291.26,295.77c-2.94,.28-6.86,6.4-4.54,10.19,2.06,3.36,2.91,8.07,4.88,7.82,3.8-.49,6.39-5.13,5.95-9.93-.37-4.03-3.55-8.35-6.29-8.09Z"/><ellipse class="cls-11" cx="278.37" cy="314.82" rx="3.4" ry="3.26"/><ellipse class="cls-11" cx="254.97" cy="314.82" rx="3.4" ry="3.26"/><path class="cls-1" d="M277.67,307.06c.84,.1,1.9,.29,3.08,.63,3.43,1.01,6.5,3.03,6.19,3.58-.48,.87-7.43-1.54-9.35-1.3-.1,.01-2.16-.62-2.41-.9-.25-.28-.33-.9,.02-1.49,.38-.65,1.9-.79,2.46-.53"/><path class="cls-1" d="M255.71,307.55c-.84,.1-1.08,.17-2.25,.51-3.43,1.01-6.5,3.03-6.19,3.58,.48,.87,9.06-2.24,10.98-1.99,.1,.01,.52,.08,.77-.2,.25-.28,.33-.9-.02-1.49-.38-.65-1.17-1.06-1.73-.8"/><line class="cls-14" x1="262.71" y1="319.7" x2="262.62" y2="319.7"/><image class="cls-23" width="73" height="66" transform="translate(253.51 319.36) scale(.24)" xlink:href="regelskærm2.png"/><ellipse class="cls-3" cx="271.77" cy="326.69" rx="7.31" ry="6.57"/><path class="cls-3" d="M270.29,323.67v20.25c.48,0,.96,.01,1.42,.03,.83-.15,1.67-.24,2.52-.27,1-.29,1.98-.63,2.95-.84,.48-.11,1.01-.21,1.55-.28,.55-.2,1.09-.41,1.62-.64,2.11-.92,4.12-2.1,6-3.41,.06-.1,.15-.19,.26-.27,1.53-1.06,2.98-2.24,4.24-3.59,1.09-1.16,1.93-2.47,2.79-3.79,.01-.02,.02-.03,.03-.05,.47-1.05,.89-2.11,1.32-3.18,.27-.95,.53-1.91,.78-2.87-7.04,1.99-16.16,3.39-25.49-1.09Z"/><ellipse class="cls-3" cx="283.01" cy="332.82" rx="2.05" ry="1.6"/><path class="cls-3" d="M262.53,323.67v20.25c-.48,0-.96,.01-1.42,.03-.83-.15-1.67-.24-2.52-.27-1-.29-1.98-.63-2.95-.84-.48-.11-1.01-.21-1.55-.28-.55-.2-1.09-.41-1.62-.64-2.11-.92-4.12-2.1-6-3.41-.06-.1-.15-.19-.26-.27-1.53-1.06-2.98-2.24-4.24-3.59-1.09-1.16-1.93-2.47-2.79-3.79-.01-.02-.02-.03-.03-.05-.47-1.05-.89-2.11-1.32-3.18-.27-.95-.53-1.91-.78-2.87,7.04,1.99,16.16,3.39,25.49-1.09Z"/><path class="cls-3" d="M270.18,344.1c3.41-1.19,5.79-3.88,5.79-7.02,0-4.23-4.34-7.67-9.7-7.67s-9.7,3.43-9.7,7.67c0,3.28,2.6,6.08,6.27,7.17,2.45-.09,4.9-.16,7.34-.15Z"/><ellipse class="cls-10" cx="266.45" cy="322.27" rx="3.57" ry="3.42"/><ellipse class="cls-4" cx="279.07" cy="313.29" rx=".69" ry=".67"/><ellipse class="cls-4" cx="255.87" cy="313.12" rx=".69" ry=".67"/><path class="cls-3" d="M256.11,334.65c2.3,1.21,4.76,2.41,7.44,2.32,2.82-.1,4.91-1.63,6.83-3.55l-3.03,.39c3.22,2.28,7.57,3.59,11.17,1.32,2.71-1.71,.21-6.04-2.52-4.32-.87,.55-1.78,.64-2.73,.41-1.26-.3-2.34-.98-3.39-1.73-.89-.63-2.29-.34-3.03,.39-1.05,1.04-2.07,2.13-3.65,2.09s-3.15-.89-4.57-1.64c-1.19-.63-2.72-.3-3.42,.9-.66,1.13-.3,2.79,.9,3.42h0Z"/><path class="cls-3" d="M249.43,336.89c3.22,0,3.22-5,0-5s-3.22,5,0,5h0Z"/><path class="cls-3" d="M257.63,332.95c1.79,1.11,4.09,1.25,6.08,.68s3.56-1.72,5.13-2.95c.47-.37,.73-1.21,.73-1.77,0-.61-.27-1.35-.73-1.77s-1.1-.76-1.77-.73c-.71,.03-1.21,.3-1.77,.73-.38,.3,.49-.37,0,0-.11,.08-.22,.17-.34,.25-.25,.18-.49,.35-.75,.51-.51,.33-1.04,.62-1.6,.86l.6-.25c-.55,.23-1.11,.39-1.7,.48l.66-.09c-.53,.07-1.06,.08-1.6,0l.66,.09c-.39-.06-.77-.16-1.14-.31l.6,.25c-.2-.09-.39-.19-.58-.3-1.11-.69-2.8-.28-3.42,.9s-.29,2.69,.9,3.42h0Z"/><path class="cls-3" d="M264.89,330.1c.71,.93,1.44,1.68,2.37,2.38,.69,.52,1.44,.91,2.24,1.24,1.69,.71,3.58,1.05,5.4,.81,.69-.09,1.25-.22,1.77-.73,.43-.43,.76-1.15,.73-1.77s-.24-1.32-.73-1.77c-.45-.41-1.13-.82-1.77-.73-.75,.1-1.51,.1-2.26,0l.66,.09c-.75-.11-1.48-.3-2.18-.59l.6,.25c-.69-.29-1.34-.66-1.94-1.12l.51,.39c-.52-.41-1-.87-1.41-1.39l.39,.51-.07-.09c-.41-.54-.81-.96-1.49-1.15-.6-.16-1.4-.09-1.93,.25s-1,.86-1.15,1.49-.15,1.4,.25,1.93h0Z"/><path class="cls-9" d="M264.04,327.91s-.03,.05-.05,.07l.39-.51c-.29,.37-.62,.7-.99,.99l.51-.39c-.38,.29-.79,.53-1.22,.71l.6-.25c-.16,.07-.33,.13-.5,.19-.62,.2-1.16,.58-1.49,1.15-.18,.29-.28,.6-.3,.93-.07,.33-.06,.66,.04,1,.2,.6,.57,1.19,1.15,1.49s1.28,.46,1.93,.25c.75-.24,1.51-.57,2.16-1.03,.4-.28,.8-.58,1.15-.93s.65-.75,.95-1.15c.18-.29,.28-.6,.3-.93,.07-.33,.06-.66-.04-1-.08-.33-.23-.61-.45-.85-.18-.27-.41-.49-.7-.64-.58-.31-1.28-.46-1.93-.25l-.6,.25c-.38,.22-.67,.52-.9,.9h0Z"/><path class="cls-9" d="M264,329.68c.16,.46,.35,.94,.61,1.35s.58,.83,.94,1.17,.76,.65,1.19,.91c.13,.08,.26,.14,.4,.21,.33,.15,.66,.3,1,.4,.33,.1,.66,.12,1,.04,.33-.02,.64-.11,.93-.3,.29-.16,.53-.37,.7-.64,.22-.24,.37-.52,.45-.85l.09-.66c0-.45-.12-.87-.34-1.26l-.39-.51c-.31-.31-.68-.52-1.1-.64-.13-.04-.25-.08-.37-.14l.6,.25c-.29-.12-.55-.28-.8-.47l.51,.39c-.25-.2-.48-.42-.68-.67l.39,.51c-.19-.24-.34-.5-.46-.79l.25,.6c-.03-.08-.06-.15-.09-.23-.08-.33-.23-.61-.45-.85-.18-.27-.41-.49-.7-.64-.29-.18-.6-.28-.93-.3-.33-.07-.66-.06-1,.04l-.6,.25c-.38,.22-.67,.52-.9,.9l-.25,.6c-.12,.44-.12,.89,0,1.33h0Z"/></g></g><g class="cls-15"><path class="cls-2" d="M79.02,377.49c6.5-12.3-54.24-38.45-65.89-29.14-.76,.61-1.08,1.13-1.04,1.61,.19,1.85,5.02,3,6.24,3.3,4.81,1.2,12.32,5.27,27.33,13.42,17.57,9.53,27.65,21.59,33.35,10.81Z"/><path class="cls-5" d="M21.58,354.17c6.27,.53,6.03,1.13,6.03,1.13l-2.02-2.65,3.53,.89-2.08-2.34,3.39,.62-1.77-2.13,3.65,.99-3.74-2.85,2.87-.37-7.86-1.39-7.95,.57-2.93,1.4-.8,2.35,2.14,1.85,3.86,1.23,3.66,.7Z"/></g><g><rect class="cls-21" x="30.53" y="346.28" width="273.29" height="161.92" transform="translate(-71.79 35.6) rotate(-10.02)"/><rect class="cls-21" x="165.25" y="469.09" width="17.32" height="236.62"/><path class="cls-12" d="M46.7,530.75l269.13-47.55-28.17-159.45L18.52,371.29l28.17,159.45,265.79-66.41-267.79,55.14-3.73-21.09,269.73-44.13-5.65-32L35.8,469.09l-5.66-32.02,270.83-37.93-6.18-34.97h0L25.95,413.34"/><ellipse class="cls-13" cx="30.72" cy="377.63" rx="4.89" ry="3.06"/><ellipse class="cls-13" cx="56.11" cy="522.61" rx="7.03" ry="4.07"/></g><rect class="cls-7" x="269.52" y="76.6" width="459.07" height="431.25"/><g><path class="cls-4" d="M423.45,115.02h9.44v1.9h-7.18v5.82h6.63v1.87h-6.63v7.93h-2.26v-17.52Z"/><path class="cls-4" d="M436.11,115.26c1.14-.23,2.78-.36,4.34-.36,2.42,0,3.98,.44,5.07,1.43,.88,.78,1.38,1.98,1.38,3.33,0,2.31-1.46,3.85-3.3,4.47v.08c1.35,.47,2.16,1.72,2.57,3.54,.57,2.44,.99,4.13,1.35,4.81h-2.34c-.29-.49-.68-2-1.17-4.19-.52-2.42-1.46-3.33-3.51-3.41h-2.13v7.59h-2.26v-17.29Zm2.26,7.98h2.31c2.42,0,3.95-1.33,3.95-3.33,0-2.26-1.64-3.25-4.03-3.28-1.09,0-1.87,.1-2.24,.21v6.4Z"/><path class="cls-4" d="M465.15,123.6c0,6.03-3.67,9.23-8.14,9.23s-7.88-3.59-7.88-8.89c0-5.56,3.46-9.2,8.14-9.2s7.88,3.67,7.88,8.87Zm-13.6,.29c0,3.74,2.03,7.1,5.59,7.1s5.62-3.3,5.62-7.28c0-3.48-1.82-7.12-5.59-7.12s-5.62,3.46-5.62,7.31Z"/><path class="cls-4" d="M468.09,115.02h2.26v8.45h.08c.47-.68,.94-1.3,1.38-1.87l5.36-6.58h2.81l-6.34,7.44,6.84,10.09h-2.68l-5.77-8.61-1.66,1.92v6.68h-2.26v-17.52Z"/><path class="cls-4" d="M496.72,123.6c0,6.03-3.67,9.23-8.14,9.23s-7.88-3.59-7.88-8.89c0-5.56,3.46-9.2,8.14-9.2s7.88,3.67,7.88,8.87Zm-13.6,.29c0,3.74,2.03,7.1,5.59,7.1s5.62-3.3,5.62-7.28c0-3.48-1.82-7.12-5.59-7.12s-5.62,3.46-5.62,7.31Z"/><path class="cls-4" d="M499.34,129.79c1.01,.62,2.5,1.14,4.06,1.14,2.31,0,3.67-1.22,3.67-2.99,0-1.64-.94-2.57-3.3-3.48-2.86-1.01-4.63-2.5-4.63-4.97,0-2.73,2.26-4.76,5.67-4.76,1.79,0,3.09,.42,3.87,.86l-.62,1.85c-.57-.31-1.74-.83-3.33-.83-2.39,0-3.3,1.43-3.3,2.63,0,1.64,1.07,2.44,3.48,3.38,2.96,1.14,4.47,2.57,4.47,5.15,0,2.7-2,5.04-6.14,5.04-1.69,0-3.54-.49-4.47-1.12l.57-1.9Z"/><path class="cls-4" d="M515.8,116.95h-5.33v-1.92h12.97v1.92h-5.36v15.6h-2.29v-15.6Z"/><path class="cls-4" d="M529.71,116.95h-5.33v-1.92h12.97v1.92h-5.36v15.6h-2.29v-15.6Z"/><path class="cls-4" d="M541.57,115.02v17.52h-2.26v-17.52h2.26Z"/><path class="cls-4" d="M545.52,115.26c1.38-.21,3.02-.36,4.81-.36,3.25,0,5.56,.75,7.1,2.18,1.56,1.43,2.47,3.46,2.47,6.29s-.88,5.2-2.52,6.81c-1.64,1.64-4.34,2.52-7.75,2.52-1.61,0-2.96-.08-4.11-.21v-17.24Zm2.26,15.5c.57,.1,1.4,.13,2.29,.13,4.84,0,7.46-2.7,7.46-7.44,.03-4.13-2.31-6.76-7.1-6.76-1.17,0-2.05,.1-2.65,.23v13.83Z"/><path class="cls-4" d="M562.31,131.22c0-.94,.65-1.61,1.53-1.61,.94,0,1.53,.68,1.53,1.61s-.6,1.61-1.53,1.61-1.53-.7-1.53-1.61Zm.65-3.72l-.36-12.48h2.5l-.36,12.48h-1.77Z"/></g><g><path class="cls-9" d="M331.7,146.85c1.01-.15,2.2-.27,3.51-.27,2.37,0,4.06,.55,5.19,1.6,1.14,1.04,1.8,2.53,1.8,4.6s-.65,3.8-1.84,4.98c-1.2,1.2-3.17,1.84-5.66,1.84-1.18,0-2.17-.06-3-.15v-12.59Zm1.65,11.32c.42,.08,1.03,.09,1.67,.09,3.53,0,5.45-1.98,5.45-5.43,.02-3.02-1.69-4.94-5.19-4.94-.85,0-1.5,.08-1.94,.17v10.11Z"/><path class="cls-9" d="M345.31,155.19c.04,2.26,1.48,3.19,3.15,3.19,1.2,0,1.92-.21,2.55-.48l.29,1.2c-.59,.27-1.6,.57-3.06,.57-2.83,0-4.52-1.86-4.52-4.64s1.63-4.96,4.31-4.96c3,0,3.8,2.64,3.8,4.33,0,.34-.04,.61-.06,.78h-6.46Zm4.9-1.2c.02-1.06-.44-2.72-2.32-2.72-1.69,0-2.43,1.56-2.56,2.72h4.88Z"/><path class="cls-9" d="M355.91,147.65v2.64h2.39v1.27h-2.39v4.96c0,1.14,.32,1.79,1.25,1.79,.44,0,.76-.06,.97-.11l.08,1.25c-.32,.13-.84,.23-1.48,.23-.78,0-1.41-.25-1.8-.7-.48-.49-.65-1.31-.65-2.39v-5.02h-1.42v-1.27h1.42v-2.2l1.63-.44Z"/><path class="cls-9" d="M365.14,155.19c.04,2.26,1.48,3.19,3.15,3.19,1.2,0,1.92-.21,2.55-.48l.29,1.2c-.59,.27-1.6,.57-3.06,.57-2.83,0-4.52-1.86-4.52-4.64s1.63-4.96,4.31-4.96c3,0,3.8,2.64,3.8,4.33,0,.34-.04,.61-.06,.78h-6.46Zm4.9-1.2c.02-1.06-.44-2.72-2.32-2.72-1.69,0-2.43,1.56-2.56,2.72h4.88Z"/><path class="cls-9" d="M373.73,153.16c0-1.08-.02-2.01-.08-2.87h1.46l.06,1.8h.08c.42-1.24,1.42-2.01,2.55-2.01,.19,0,.32,.02,.48,.06v1.58c-.17-.04-.34-.06-.57-.06-1.18,0-2.01,.89-2.24,2.15-.04,.23-.08,.49-.08,.78v4.9h-1.65v-6.33Z"/><path class="cls-9" d="M384.14,159.48v-7.92h-1.29v-1.27h1.29v-.44c0-1.29,.29-2.47,1.06-3.21,.63-.61,1.46-.86,2.24-.86,.59,0,1.1,.13,1.42,.27l-.23,1.29c-.25-.11-.59-.21-1.06-.21-1.42,0-1.79,1.25-1.79,2.66v.49h2.22v1.27h-2.22v7.92h-1.65Z"/><path class="cls-9" d="M389.52,153.16c0-1.08-.02-2.01-.08-2.87h1.46l.06,1.8h.08c.42-1.24,1.42-2.01,2.55-2.01,.19,0,.32,.02,.48,.06v1.58c-.17-.04-.34-.06-.57-.06-1.18,0-2.01,.89-2.24,2.15-.04,.23-.08,.49-.08,.78v4.9h-1.65v-6.33Z"/><path class="cls-9" d="M403.86,154.81c0,3.4-2.36,4.88-4.58,4.88-2.49,0-4.41-1.82-4.41-4.73,0-3.08,2.01-4.88,4.56-4.88s4.43,1.92,4.43,4.73Zm-7.29,.09c0,2.01,1.16,3.53,2.79,3.53s2.79-1.5,2.79-3.57c0-1.56-.78-3.53-2.75-3.53s-2.83,1.82-2.83,3.57Z"/><path class="cls-9" d="M407.62,154.51h.04c.23-.32,.55-.72,.82-1.04l2.7-3.17h2.01l-3.55,3.78,4.05,5.41h-2.03l-3.17-4.41-.85,.95v3.46h-1.65v-13.49h1.65v8.51Z"/><path class="cls-9" d="M423.2,154.81c0,3.4-2.36,4.88-4.58,4.88-2.49,0-4.41-1.82-4.41-4.73,0-3.08,2.01-4.88,4.56-4.88s4.43,1.92,4.43,4.73Zm-7.29,.09c0,2.01,1.16,3.53,2.79,3.53s2.79-1.5,2.79-3.57c0-1.56-.78-3.53-2.75-3.53s-2.83,1.82-2.83,3.57Z"/><path class="cls-9" d="M425.08,157.77c.49,.32,1.37,.67,2.2,.67,1.22,0,1.79-.61,1.79-1.37s-.48-1.23-1.71-1.69c-1.65-.59-2.43-1.5-2.43-2.6,0-1.48,1.2-2.7,3.17-2.7,.93,0,1.75,.27,2.26,.57l-.42,1.22c-.36-.23-1.03-.53-1.88-.53-.99,0-1.54,.57-1.54,1.25,0,.76,.55,1.1,1.75,1.56,1.6,.61,2.41,1.41,2.41,2.77,0,1.61-1.25,2.75-3.44,2.75-1.01,0-1.94-.25-2.58-.63l.42-1.27Z"/><path class="cls-9" d="M434.85,147.65v2.64h2.39v1.27h-2.39v4.96c0,1.14,.32,1.79,1.25,1.79,.44,0,.76-.06,.97-.11l.08,1.25c-.32,.13-.84,.23-1.48,.23-.78,0-1.41-.25-1.8-.7-.48-.49-.65-1.31-.65-2.39v-5.02h-1.42v-1.27h1.42v-2.2l1.63-.44Z"/><path class="cls-9" d="M441.14,147.65v2.64h2.39v1.27h-2.39v4.96c0,1.14,.32,1.79,1.25,1.79,.44,0,.76-.06,.97-.11l.08,1.25c-.32,.13-.84,.23-1.48,.23-.78,0-1.41-.25-1.8-.7-.48-.49-.65-1.31-.65-2.39v-5.02h-1.42v-1.27h1.42v-2.2l1.63-.44Z"/><path class="cls-9" d="M447.28,147.71c.02,.57-.4,1.03-1.06,1.03-.59,0-1.01-.46-1.01-1.03s.44-1.04,1.04-1.04,1.03,.46,1.03,1.04Zm-1.86,11.78v-9.19h1.67v9.19h-1.67Z"/><path class="cls-9" d="M457.8,146v11.11c0,.82,.02,1.75,.08,2.38h-1.5l-.08-1.6h-.04c-.51,1.03-1.63,1.8-3.13,1.8-2.22,0-3.93-1.88-3.93-4.67-.02-3.06,1.88-4.94,4.12-4.94,1.41,0,2.36,.67,2.77,1.41h.04v-5.49h1.67Zm-1.67,8.04c0-.21-.02-.49-.08-.7-.25-1.06-1.16-1.94-2.41-1.94-1.73,0-2.75,1.52-2.75,3.55,0,1.86,.91,3.4,2.72,3.4,1.12,0,2.15-.74,2.45-2,.06-.23,.08-.46,.08-.72v-1.6Z"/><path class="cls-9" d="M464.6,153.29c0-1.18-.04-2.13-.08-3h1.5l.08,1.58h.04c.68-1.12,1.77-1.79,3.27-1.79,2.22,0,3.89,1.88,3.89,4.67,0,3.31-2.01,4.94-4.18,4.94-1.22,0-2.28-.53-2.83-1.44h-.04v5h-1.65v-9.96Zm1.65,2.45c0,.25,.04,.47,.08,.68,.3,1.16,1.31,1.96,2.51,1.96,1.77,0,2.79-1.44,2.79-3.55,0-1.84-.97-3.42-2.74-3.42-1.14,0-2.2,.82-2.53,2.07-.06,.21-.11,.46-.11,.68v1.58Z"/><path class="cls-9" d="M480.51,159.48l-.13-1.16h-.06c-.51,.72-1.5,1.37-2.81,1.37-1.86,0-2.81-1.31-2.81-2.64,0-2.22,1.98-3.44,5.53-3.42v-.19c0-.76-.21-2.13-2.09-2.13-.85,0-1.75,.27-2.39,.68l-.38-1.1c.76-.49,1.86-.82,3.02-.82,2.81,0,3.5,1.92,3.5,3.76v3.44c0,.8,.04,1.58,.15,2.2h-1.52Zm-.25-4.69c-1.82-.04-3.89,.29-3.89,2.07,0,1.08,.72,1.6,1.58,1.6,1.2,0,1.96-.76,2.22-1.54,.06-.17,.09-.36,.09-.53v-1.6Zm-3.59-7.24c0-1.01,.74-1.8,1.94-1.8s1.88,.78,1.88,1.79-.82,1.75-1.9,1.75c-1.14,0-1.92-.76-1.92-1.73Zm2.89-.04c0-.57-.38-1.04-.99-1.04s-.93,.49-.93,1.08c0,.49,.38,1.03,.93,1.03,.61,0,.99-.49,.99-1.06Z"/><path class="cls-9" d="M488.77,159.48v-7.92h-1.29v-1.27h1.29v-.44c0-1.29,.29-2.47,1.06-3.21,.63-.61,1.46-.86,2.24-.86,.59,0,1.1,.13,1.42,.27l-.23,1.29c-.25-.11-.59-.21-1.06-.21-1.42,0-1.79,1.25-1.79,2.66v.49h2.22v1.27h-2.22v7.92h-1.65Z"/><path class="cls-9" d="M499.24,159.48l-.13-1.16h-.06c-.51,.72-1.5,1.37-2.81,1.37-1.86,0-2.81-1.31-2.81-2.64,0-2.22,1.98-3.44,5.53-3.42v-.19c0-.76-.21-2.13-2.09-2.13-.85,0-1.75,.27-2.39,.68l-.38-1.1c.76-.49,1.86-.82,3.02-.82,2.81,0,3.5,1.92,3.5,3.76v3.44c0,.8,.04,1.58,.15,2.2h-1.52Zm-.25-4.69c-1.82-.04-3.89,.29-3.89,2.07,0,1.08,.72,1.6,1.58,1.6,1.2,0,1.96-.76,2.22-1.54,.06-.17,.09-.36,.09-.53v-1.6Z"/><path class="cls-9" d="M503.31,153.16c0-1.08-.02-2.01-.08-2.87h1.46l.06,1.8h.08c.42-1.24,1.42-2.01,2.55-2.01,.19,0,.32,.02,.48,.06v1.58c-.17-.04-.34-.06-.57-.06-1.18,0-2.01,.89-2.24,2.15-.04,.23-.08,.49-.08,.78v4.9h-1.65v-6.33Z"/><path class="cls-9" d="M509.6,152.78c0-.95-.02-1.73-.08-2.49h1.46l.08,1.48h.06c.51-.87,1.37-1.69,2.89-1.69,1.25,0,2.2,.76,2.6,1.84h.04c.29-.51,.65-.91,1.03-1.2,.55-.42,1.16-.65,2.03-.65,1.22,0,3.02,.8,3.02,3.99v5.41h-1.63v-5.21c0-1.77-.65-2.83-1.99-2.83-.95,0-1.69,.7-1.98,1.52-.08,.23-.13,.53-.13,.84v5.68h-1.63v-5.51c0-1.46-.65-2.53-1.92-2.53-1.04,0-1.8,.84-2.07,1.67-.09,.25-.13,.53-.13,.82v5.55h-1.63v-6.71Z"/><path class="cls-9" d="M526.37,155.19c.04,2.26,1.48,3.19,3.15,3.19,1.2,0,1.92-.21,2.55-.48l.29,1.2c-.59,.27-1.6,.57-3.06,.57-2.83,0-4.52-1.86-4.52-4.64s1.63-4.96,4.31-4.96c3,0,3.8,2.64,3.8,4.33,0,.34-.04,.61-.06,.78h-6.46Zm4.9-1.2c.02-1.06-.44-2.72-2.32-2.72-1.69,0-2.43,1.56-2.56,2.72h4.88Z"/><path class="cls-9" d="M534.96,152.78c0-.95-.02-1.73-.08-2.49h1.48l.1,1.52h.04c.46-.87,1.52-1.73,3.04-1.73,1.27,0,3.25,.76,3.25,3.91v5.49h-1.67v-5.3c0-1.48-.55-2.72-2.13-2.72-1.1,0-1.96,.78-2.24,1.71-.08,.21-.11,.49-.11,.78v5.53h-1.67v-6.71Z"/><path class="cls-9" d="M557.85,154.81c0,3.4-2.36,4.88-4.58,4.88-2.49,0-4.41-1.82-4.41-4.73,0-3.08,2.01-4.88,4.56-4.88s4.43,1.92,4.43,4.73Zm-7.29,.09c0,2.01,1.16,3.53,2.79,3.53s2.79-1.5,2.79-3.57c0-1.56-.78-3.53-2.75-3.53s-2.83,1.82-2.83,3.57Z"/><path class="cls-9" d="M567.89,150.29c-.04,.67-.08,1.41-.08,2.53v5.34c0,2.11-.42,3.4-1.31,4.2-.89,.84-2.18,1.1-3.34,1.1s-2.32-.27-3.06-.76l.42-1.27c.61,.38,1.56,.72,2.7,.72,1.71,0,2.96-.89,2.96-3.21v-1.03h-.04c-.51,.86-1.5,1.54-2.93,1.54-2.28,0-3.91-1.94-3.91-4.48,0-3.12,2.03-4.88,4.14-4.88,1.6,0,2.47,.84,2.87,1.6h.04l.08-1.39h1.46Zm-1.73,3.63c0-.29-.02-.53-.1-.76-.3-.97-1.12-1.77-2.34-1.77-1.6,0-2.74,1.35-2.74,3.48,0,1.8,.91,3.31,2.72,3.31,1.03,0,1.96-.65,2.32-1.71,.1-.29,.13-.61,.13-.89v-1.65Z"/><path class="cls-9" d="M585.46,153.86c-.1-1.79-.21-3.93-.19-5.53h-.06c-.44,1.5-.97,3.1-1.61,4.86l-2.26,6.21h-1.25l-2.07-6.1c-.61-1.8-1.12-3.46-1.48-4.98h-.04c-.04,1.6-.13,3.74-.25,5.66l-.34,5.49h-1.58l.89-12.8h2.11l2.18,6.19c.53,1.58,.97,2.98,1.29,4.31h.06c.32-1.29,.78-2.7,1.35-4.31l2.28-6.19h2.11l.8,12.8h-1.61l-.32-5.62Z"/><path class="cls-9" d="M590.93,155.19c.04,2.26,1.48,3.19,3.15,3.19,1.2,0,1.92-.21,2.54-.48l.29,1.2c-.59,.27-1.6,.57-3.06,.57-2.83,0-4.52-1.86-4.52-4.64s1.63-4.96,4.31-4.96c3,0,3.8,2.64,3.8,4.33,0,.34-.04,.61-.06,.78h-6.46Zm4.9-1.2c.02-1.06-.44-2.72-2.32-2.72-1.69,0-2.43,1.56-2.56,2.72h4.88Z"/><path class="cls-9" d="M601.53,147.65v2.64h2.39v1.27h-2.39v4.96c0,1.14,.32,1.79,1.25,1.79,.44,0,.76-.06,.97-.11l.08,1.25c-.32,.13-.84,.23-1.48,.23-.78,0-1.41-.25-1.8-.7-.47-.49-.65-1.31-.65-2.39v-5.02h-1.42v-1.27h1.42v-2.2l1.63-.44Z"/><path class="cls-9" d="M607.82,147.65v2.64h2.39v1.27h-2.39v4.96c0,1.14,.32,1.79,1.25,1.79,.44,0,.76-.06,.97-.11l.08,1.25c-.32,.13-.84,.23-1.48,.23-.78,0-1.41-.25-1.8-.7-.48-.49-.65-1.31-.65-2.39v-5.02h-1.42v-1.27h1.42v-2.2l1.63-.44Z"/><path class="cls-9" d="M612.92,155.19c.04,2.26,1.48,3.19,3.15,3.19,1.2,0,1.92-.21,2.55-.48l.29,1.2c-.59,.27-1.6,.57-3.06,.57-2.83,0-4.52-1.86-4.52-4.64s1.63-4.96,4.31-4.96c3,0,3.8,2.64,3.8,4.33,0,.34-.04,.61-.06,.78h-6.46Zm4.9-1.2c.02-1.06-.44-2.72-2.32-2.72-1.69,0-2.43,1.56-2.57,2.72h4.88Z"/><path class="cls-9" d="M625.59,146.68h6.9v1.39h-5.24v4.25h4.84v1.37h-4.84v5.79h-1.65v-12.8Z"/><path class="cls-9" d="M638.58,157.77c.49,.32,1.37,.67,2.2,.67,1.22,0,1.79-.61,1.79-1.37s-.48-1.23-1.71-1.69c-1.65-.59-2.43-1.5-2.43-2.6,0-1.48,1.2-2.7,3.17-2.7,.93,0,1.75,.27,2.26,.57l-.42,1.22c-.36-.23-1.03-.53-1.88-.53-.99,0-1.54,.57-1.54,1.25,0,.76,.55,1.1,1.75,1.56,1.6,.61,2.41,1.41,2.41,2.77,0,1.61-1.25,2.75-3.44,2.75-1.01,0-1.94-.25-2.58-.63l.42-1.27Z"/><path class="cls-9" d="M647.99,154.51h.04c.23-.32,.55-.72,.82-1.04l2.7-3.17h2.01l-3.55,3.78,4.05,5.41h-2.03l-3.17-4.41-.85,.95v3.46h-1.65v-13.49h1.65v8.51Z"/><path class="cls-9" d="M660.68,159.48l-.13-1.16h-.06c-.51,.72-1.5,1.37-2.81,1.37-1.86,0-2.81-1.31-2.81-2.64,0-2.22,1.98-3.44,5.53-3.42v-.19c0-.76-.21-2.13-2.09-2.13-.86,0-1.75,.27-2.39,.68l-.38-1.1c.76-.49,1.86-.82,3.02-.82,2.81,0,3.5,1.92,3.5,3.76v3.44c0,.8,.04,1.58,.15,2.2h-1.52Zm-.25-4.69c-1.82-.04-3.89,.29-3.89,2.07,0,1.08,.72,1.6,1.58,1.6,1.2,0,1.96-.76,2.22-1.54,.06-.17,.1-.36,.1-.53v-1.6Z"/><path class="cls-9" d="M664.75,146h1.67v13.49h-1.67v-13.49Z"/><path class="cls-9" d="M379.26,168.8h1.67v5.74h.04c.27-.47,.68-.89,1.2-1.18,.49-.29,1.08-.47,1.71-.47,1.23,0,3.21,.76,3.21,3.93v5.47h-1.67v-5.28c0-1.48-.55-2.74-2.13-2.74-1.08,0-1.94,.76-2.24,1.67-.09,.23-.11,.47-.11,.8v5.55h-1.67v-13.49Z"/><path class="cls-9" d="M394.89,182.28l-.13-1.16h-.06c-.51,.72-1.5,1.37-2.81,1.37-1.86,0-2.81-1.31-2.81-2.64,0-2.22,1.98-3.44,5.53-3.42v-.19c0-.76-.21-2.13-2.09-2.13-.85,0-1.75,.27-2.39,.68l-.38-1.1c.76-.49,1.86-.82,3.02-.82,2.81,0,3.5,1.92,3.5,3.76v3.44c0,.8,.04,1.58,.15,2.2h-1.52Zm-.25-4.69c-1.82-.04-3.89,.29-3.89,2.07,0,1.08,.72,1.6,1.58,1.6,1.2,0,1.96-.76,2.22-1.54,.06-.17,.09-.36,.09-.53v-1.6Z"/><path class="cls-9" d="M399.45,173.09l1.8,5.17c.3,.84,.55,1.6,.74,2.36h.06c.21-.76,.48-1.52,.78-2.36l1.79-5.17h1.75l-3.61,9.19h-1.6l-3.5-9.19h1.79Z"/><path class="cls-9" d="M408.69,177.99c.04,2.26,1.48,3.19,3.15,3.19,1.2,0,1.92-.21,2.55-.48l.29,1.2c-.59,.27-1.6,.57-3.06,.57-2.83,0-4.52-1.86-4.52-4.64s1.63-4.96,4.31-4.96c3,0,3.8,2.64,3.8,4.33,0,.34-.04,.61-.06,.78h-6.46Zm4.9-1.2c.02-1.06-.44-2.72-2.32-2.72-1.69,0-2.43,1.56-2.56,2.72h4.88Z"/><path class="cls-9" d="M421.08,180.57c.49,.32,1.37,.67,2.2,.67,1.22,0,1.79-.61,1.79-1.37s-.48-1.23-1.71-1.69c-1.65-.59-2.43-1.5-2.43-2.6,0-1.48,1.2-2.7,3.17-2.7,.93,0,1.75,.27,2.26,.57l-.42,1.22c-.36-.23-1.03-.53-1.88-.53-.99,0-1.54,.57-1.54,1.25,0,.76,.55,1.1,1.75,1.56,1.6,.61,2.41,1.41,2.41,2.77,0,1.61-1.25,2.75-3.44,2.75-1.01,0-1.94-.25-2.58-.63l.42-1.27Z"/><path class="cls-9" d="M430.69,170.51c.02,.57-.4,1.03-1.06,1.03-.59,0-1.01-.46-1.01-1.03s.44-1.04,1.04-1.04,1.03,.46,1.03,1.04Zm-1.86,11.78v-9.19h1.67v9.19h-1.67Z"/><path class="cls-9" d="M433.27,175.58c0-.95-.02-1.73-.08-2.49h1.48l.1,1.52h.04c.46-.87,1.52-1.73,3.04-1.73,1.27,0,3.25,.76,3.25,3.91v5.49h-1.67v-5.3c0-1.48-.55-2.72-2.13-2.72-1.1,0-1.96,.78-2.24,1.71-.08,.21-.11,.49-.11,.78v5.53h-1.67v-6.71Z"/><path class="cls-9" d="M448.78,177.99c.04,2.26,1.48,3.19,3.15,3.19,1.2,0,1.92-.21,2.55-.48l.29,1.2c-.59,.27-1.6,.57-3.06,.57-2.83,0-4.52-1.86-4.52-4.64s1.63-4.96,4.31-4.96c3,0,3.8,2.64,3.8,4.33,0,.34-.04,.61-.06,.78h-6.46Zm4.9-1.2c.02-1.06-.44-2.72-2.32-2.72-1.69,0-2.43,1.56-2.56,2.72h4.88Z"/><path class="cls-9" d="M457.37,168.8h1.67v13.49h-1.67v-13.49Z"/><path class="cls-9" d="M461.62,180.57c.49,.32,1.37,.67,2.2,.67,1.22,0,1.79-.61,1.79-1.37s-.48-1.23-1.71-1.69c-1.65-.59-2.43-1.5-2.43-2.6,0-1.48,1.2-2.7,3.17-2.7,.93,0,1.75,.27,2.26,.57l-.42,1.22c-.36-.23-1.03-.53-1.88-.53-.99,0-1.54,.57-1.54,1.25,0,.76,.55,1.1,1.75,1.56,1.6,.61,2.41,1.41,2.41,2.77,0,1.61-1.25,2.75-3.44,2.75-1.01,0-1.94-.25-2.58-.63l.42-1.27Z"/><path class="cls-9" d="M471.03,177.31h.04c.23-.32,.55-.72,.82-1.04l2.7-3.17h2.01l-3.55,3.78,4.05,5.41h-2.03l-3.17-4.41-.85,.95v3.46h-1.65v-13.49h1.65v8.51Z"/><path class="cls-9" d="M479.21,177.99c.04,2.26,1.48,3.19,3.15,3.19,1.2,0,1.92-.21,2.55-.48l.29,1.2c-.59,.27-1.6,.57-3.06,.57-2.83,0-4.52-1.86-4.52-4.64s1.63-4.96,4.31-4.96c3,0,3.8,2.64,3.8,4.33,0,.34-.04,.61-.06,.78h-6.46Zm4.9-1.2c.02-1.06-.44-2.72-2.32-2.72-1.69,0-2.43,1.56-2.56,2.72h4.88Z"/><path class="cls-9" d="M495.74,168.8v11.11c0,.82,.02,1.75,.08,2.38h-1.5l-.08-1.6h-.04c-.51,1.03-1.63,1.8-3.13,1.8-2.22,0-3.93-1.88-3.93-4.67-.02-3.06,1.88-4.94,4.12-4.94,1.41,0,2.36,.67,2.77,1.41h.04v-5.49h1.67Zm-1.67,8.04c0-.21-.02-.49-.08-.7-.25-1.06-1.16-1.94-2.41-1.94-1.73,0-2.75,1.52-2.75,3.55,0,1.86,.91,3.4,2.72,3.4,1.12,0,2.15-.74,2.45-2,.06-.23,.08-.46,.08-.72v-1.6Z"/><path class="cls-9" d="M499.45,177.99c.04,2.26,1.48,3.19,3.15,3.19,1.2,0,1.92-.21,2.55-.48l.29,1.2c-.59,.27-1.6,.57-3.06,.57-2.83,0-4.52-1.86-4.52-4.64s1.63-4.96,4.31-4.96c3,0,3.8,2.64,3.8,4.33,0,.34-.04,.61-.06,.78h-6.46Zm4.9-1.2c.02-1.06-.44-2.72-2.32-2.72-1.69,0-2.43,1.56-2.56,2.72h4.88Z"/><path class="cls-9" d="M512.06,175.58c0-.95-.02-1.73-.08-2.49h1.46l.08,1.48h.06c.51-.87,1.37-1.69,2.89-1.69,1.25,0,2.2,.76,2.6,1.84h.04c.29-.51,.65-.91,1.03-1.2,.55-.42,1.16-.65,2.03-.65,1.22,0,3.02,.8,3.02,3.99v5.41h-1.63v-5.21c0-1.77-.65-2.83-1.99-2.83-.95,0-1.69,.7-1.98,1.52-.08,.23-.13,.53-.13,.84v5.68h-1.63v-5.51c0-1.46-.65-2.53-1.92-2.53-1.04,0-1.8,.84-2.07,1.67-.09,.25-.13,.53-.13,.82v5.55h-1.63v-6.71Z"/><path class="cls-9" d="M533,182.28l-.13-1.16h-.06c-.51,.72-1.5,1.37-2.81,1.37-1.86,0-2.81-1.31-2.81-2.64,0-2.22,1.98-3.44,5.53-3.42v-.19c0-.76-.21-2.13-2.09-2.13-.85,0-1.75,.27-2.39,.68l-.38-1.1c.76-.49,1.86-.82,3.02-.82,2.81,0,3.5,1.92,3.5,3.76v3.44c0,.8,.04,1.58,.15,2.2h-1.52Zm-.25-4.69c-1.82-.04-3.89,.29-3.89,2.07,0,1.08,.72,1.6,1.58,1.6,1.2,0,1.96-.76,2.22-1.54,.06-.17,.09-.36,.09-.53v-1.6Z"/><path class="cls-9" d="M538.72,177.31h.04c.23-.32,.55-.72,.82-1.04l2.7-3.17h2.01l-3.55,3.78,4.05,5.41h-2.03l-3.17-4.41-.85,.95v3.46h-1.65v-13.49h1.65v8.51Z"/><path class="cls-9" d="M546.3,175.96c0-1.08-.02-2.01-.08-2.87h1.46l.06,1.8h.08c.42-1.24,1.42-2.01,2.55-2.01,.19,0,.32,.02,.48,.06v1.58c-.17-.04-.34-.06-.57-.06-1.18,0-2.01,.89-2.24,2.15-.04,.23-.08,.49-.08,.78v4.9h-1.65v-6.33Z"/><path class="cls-9" d="M553.26,177.99c.04,2.26,1.48,3.19,3.15,3.19,1.2,0,1.92-.21,2.55-.48l.29,1.2c-.59,.27-1.6,.57-3.06,.57-2.83,0-4.52-1.86-4.52-4.64s1.63-4.96,4.31-4.96c3,0,3.8,2.64,3.8,4.33,0,.34-.04,.61-.06,.78h-6.46Zm4.9-1.2c.02-1.06-.44-2.72-2.32-2.72-1.69,0-2.43,1.56-2.56,2.72h4.88Z"/><path class="cls-9" d="M561.84,168.8h1.67v13.49h-1.67v-13.49Z"/><path class="cls-9" d="M570.36,175.58c0-.95-.02-1.73-.08-2.49h1.46l.08,1.48h.06c.51-.87,1.37-1.69,2.89-1.69,1.25,0,2.2,.76,2.6,1.84h.04c.29-.51,.65-.91,1.03-1.2,.55-.42,1.16-.65,2.03-.65,1.22,0,3.02,.8,3.02,3.99v5.41h-1.63v-5.21c0-1.77-.65-2.83-1.99-2.83-.95,0-1.69,.7-1.98,1.52-.08,.23-.13,.53-.13,.84v5.68h-1.63v-5.51c0-1.46-.65-2.53-1.92-2.53-1.04,0-1.8,.84-2.07,1.67-.09,.25-.13,.53-.13,.82v5.55h-1.63v-6.71Z"/><path class="cls-9" d="M591.29,182.28l-.13-1.16h-.06c-.51,.72-1.5,1.37-2.81,1.37-1.86,0-2.81-1.31-2.81-2.64,0-2.22,1.98-3.44,5.53-3.42v-.19c0-.76-.21-2.13-2.09-2.13-.86,0-1.75,.27-2.39,.68l-.38-1.1c.76-.49,1.86-.82,3.02-.82,2.81,0,3.5,1.92,3.5,3.76v3.44c0,.8,.04,1.58,.15,2.2h-1.52Zm-.25-4.69c-1.82-.04-3.89,.29-3.89,2.07,0,1.08,.72,1.6,1.58,1.6,1.2,0,1.96-.76,2.22-1.54,.06-.17,.09-.36,.09-.53v-1.6Z"/><path class="cls-9" d="M603.3,168.8v11.11c0,.82,.02,1.75,.08,2.38h-1.5l-.08-1.6h-.04c-.51,1.03-1.63,1.8-3.13,1.8-2.22,0-3.93-1.88-3.93-4.67-.02-3.06,1.88-4.94,4.12-4.94,1.41,0,2.36,.67,2.77,1.41h.04v-5.49h1.67Zm-1.67,8.04c0-.21-.02-.49-.08-.7-.25-1.06-1.16-1.94-2.41-1.94-1.73,0-2.75,1.52-2.75,3.55,0,1.86,.91,3.4,2.72,3.4,1.12,0,2.15-.74,2.45-2,.06-.23,.08-.46,.08-.72v-1.6Z"/><path class="cls-9" d="M605.49,181.3c0-.7,.48-1.2,1.14-1.2s1.12,.49,1.12,1.2-.44,1.2-1.14,1.2c-.67,0-1.12-.51-1.12-1.2Z"/><path class="cls-9" d="M609.42,181.3c0-.7,.48-1.2,1.14-1.2s1.12,.49,1.12,1.2-.44,1.2-1.14,1.2c-.67,0-1.12-.51-1.12-1.2Z"/><path class="cls-9" d="M613.35,181.3c0-.7,.47-1.2,1.14-1.2s1.12,.49,1.12,1.2-.44,1.2-1.14,1.2c-.67,0-1.12-.51-1.12-1.2Z"/><path class="cls-9" d="M617.29,181.3c0-.7,.47-1.2,1.14-1.2s1.12,.49,1.12,1.2-.44,1.2-1.14,1.2c-.67,0-1.12-.51-1.12-1.2Z"/><path class="cls-9" d="M322.97,192.28h6.9v1.39h-5.24v4.25h4.84v1.37h-4.84v5.79h-1.65v-12.8Z"/><path class="cls-9" d="M336.4,205.08l-.13-1.16h-.06c-.51,.72-1.5,1.37-2.81,1.37-1.86,0-2.81-1.31-2.81-2.64,0-2.22,1.98-3.44,5.53-3.42v-.19c0-.76-.21-2.13-2.09-2.13-.85,0-1.75,.27-2.39,.68l-.38-1.1c.76-.49,1.86-.82,3.02-.82,2.81,0,3.5,1.92,3.5,3.76v3.44c0,.8,.04,1.58,.15,2.2h-1.52Zm-.25-4.69c-1.82-.04-3.89,.29-3.89,2.07,0,1.08,.72,1.6,1.58,1.6,1.2,0,1.96-.76,2.22-1.54,.06-.17,.09-.36,.09-.53v-1.6Z"/><path class="cls-9" d="M340.47,198.38c0-.95-.02-1.73-.08-2.49h1.48l.1,1.52h.04c.46-.87,1.52-1.73,3.04-1.73,1.27,0,3.25,.76,3.25,3.91v5.49h-1.67v-5.3c0-1.48-.55-2.72-2.13-2.72-1.1,0-1.96,.78-2.24,1.71-.08,.21-.11,.49-.11,.78v5.53h-1.67v-6.71Z"/><path class="cls-9" d="M358.94,195.89c-.04,.67-.08,1.41-.08,2.53v5.34c0,2.11-.42,3.4-1.31,4.2-.89,.84-2.18,1.1-3.34,1.1s-2.32-.27-3.06-.76l.42-1.27c.61,.38,1.56,.72,2.7,.72,1.71,0,2.96-.89,2.96-3.21v-1.03h-.04c-.51,.86-1.5,1.54-2.93,1.54-2.28,0-3.91-1.94-3.91-4.48,0-3.12,2.03-4.88,4.14-4.88,1.6,0,2.47,.84,2.87,1.6h.04l.08-1.39h1.46Zm-1.73,3.63c0-.29-.02-.53-.1-.76-.3-.97-1.12-1.77-2.34-1.77-1.6,0-2.74,1.35-2.74,3.48,0,1.8,.91,3.31,2.72,3.31,1.03,0,1.96-.65,2.32-1.71,.1-.29,.13-.61,.13-.89v-1.65Z"/><path class="cls-9" d="M365.66,198.38c0-.95-.02-1.73-.08-2.49h1.46l.08,1.48h.06c.51-.87,1.37-1.69,2.89-1.69,1.25,0,2.2,.76,2.6,1.84h.04c.29-.51,.65-.91,1.03-1.2,.55-.42,1.16-.65,2.03-.65,1.22,0,3.02,.8,3.02,3.99v5.41h-1.63v-5.21c0-1.77-.65-2.83-1.99-2.83-.95,0-1.69,.7-1.98,1.52-.08,.23-.13,.53-.13,.84v5.68h-1.63v-5.51c0-1.46-.65-2.53-1.92-2.53-1.04,0-1.8,.84-2.07,1.67-.09,.25-.13,.53-.13,.82v5.55h-1.63v-6.71Z"/><path class="cls-9" d="M386.6,205.08l-.13-1.16h-.06c-.51,.72-1.5,1.37-2.81,1.37-1.86,0-2.81-1.31-2.81-2.64,0-2.22,1.98-3.44,5.53-3.42v-.19c0-.76-.21-2.13-2.09-2.13-.85,0-1.75,.27-2.39,.68l-.38-1.1c.76-.49,1.86-.82,3.02-.82,2.81,0,3.5,1.92,3.5,3.76v3.44c0,.8,.04,1.58,.15,2.2h-1.52Zm-.25-4.69c-1.82-.04-3.89,.29-3.89,2.07,0,1.08,.72,1.6,1.58,1.6,1.2,0,1.96-.76,2.22-1.54,.06-.17,.09-.36,.09-.53v-1.6Z"/><path class="cls-9" d="M392.32,200.11h.04c.23-.32,.55-.72,.82-1.04l2.7-3.17h2.01l-3.55,3.78,4.05,5.41h-2.03l-3.17-4.41-.85,.95v3.46h-1.65v-13.49h1.65v8.51Z"/><path class="cls-9" d="M399.9,198.76c0-1.08-.02-2.01-.08-2.87h1.46l.06,1.8h.08c.42-1.24,1.42-2.01,2.55-2.01,.19,0,.32,.02,.48,.06v1.58c-.17-.04-.34-.06-.57-.06-1.18,0-2.01,.89-2.24,2.15-.04,.23-.08,.49-.08,.78v4.9h-1.65v-6.33Z"/><path class="cls-9" d="M406.86,200.79c.04,2.26,1.48,3.19,3.15,3.19,1.2,0,1.92-.21,2.55-.48l.29,1.2c-.59,.27-1.6,.57-3.06,.57-2.83,0-4.52-1.86-4.52-4.64s1.63-4.96,4.31-4.96c3,0,3.8,2.64,3.8,4.33,0,.34-.04,.61-.06,.78h-6.46Zm4.9-1.2c.02-1.06-.44-2.72-2.32-2.72-1.69,0-2.43,1.56-2.56,2.72h4.88Z"/><path class="cls-9" d="M415.44,191.6h1.67v13.49h-1.67v-13.49Z"/><path class="cls-9" d="M419.93,191.6h1.67v13.49h-1.67v-13.49Z"/><path class="cls-9" d="M425.34,200.79c.04,2.26,1.48,3.19,3.15,3.19,1.2,0,1.92-.21,2.55-.48l.29,1.2c-.59,.27-1.6,.57-3.06,.57-2.83,0-4.52-1.86-4.52-4.64s1.63-4.96,4.31-4.96c3,0,3.8,2.64,3.8,4.33,0,.34-.04,.61-.06,.78h-6.46Zm4.9-1.2c.02-1.06-.44-2.72-2.32-2.72-1.69,0-2.43,1.56-2.56,2.72h4.88Z"/><path class="cls-9" d="M433.93,198.38c0-.95-.02-1.73-.08-2.49h1.48l.1,1.52h.04c.46-.87,1.52-1.73,3.04-1.73,1.27,0,3.25,.76,3.25,3.91v5.49h-1.67v-5.3c0-1.48-.55-2.72-2.13-2.72-1.1,0-1.96,.78-2.24,1.71-.08,.21-.11,.49-.11,.78v5.53h-1.67v-6.71Z"/><path class="cls-9" d="M448.5,198.38c0-.95-.02-1.73-.08-2.49h1.48l.1,1.52h.04c.46-.87,1.52-1.73,3.04-1.73,1.27,0,3.25,.76,3.25,3.91v5.49h-1.67v-5.3c0-1.48-.55-2.72-2.13-2.72-1.1,0-1.96,.78-2.24,1.71-.08,.21-.11,.49-.11,.78v5.53h-1.67v-6.71Z"/><path class="cls-9" d="M464.14,205.08l-.13-1.16h-.06c-.51,.72-1.5,1.37-2.81,1.37-1.86,0-2.81-1.31-2.81-2.64,0-2.22,1.98-3.44,5.53-3.42v-.19c0-.76-.21-2.13-2.09-2.13-.85,0-1.75,.27-2.39,.68l-.38-1.1c.76-.49,1.86-.82,3.02-.82,2.81,0,3.5,1.92,3.5,3.76v3.44c0,.8,.04,1.58,.15,2.2h-1.52Zm-.25-4.69c-1.82-.04-3.89,.29-3.89,2.07,0,1.08,.72,1.6,1.58,1.6,1.2,0,1.96-.76,2.22-1.54,.06-.17,.09-.36,.09-.53v-1.6Zm-3.59-7.24c0-1.01,.74-1.8,1.94-1.8s1.88,.78,1.88,1.79-.82,1.75-1.9,1.75c-1.14,0-1.92-.76-1.92-1.73Zm2.89-.04c0-.57-.38-1.04-.99-1.04s-.93,.49-.93,1.08c0,.49,.38,1.03,.93,1.03,.61,0,.99-.49,.99-1.06Z"/><path class="cls-9" d="M468.2,198.76c0-1.08-.02-2.01-.08-2.87h1.46l.06,1.8h.08c.42-1.24,1.42-2.01,2.55-2.01,.19,0,.32,.02,.48,.06v1.58c-.17-.04-.34-.06-.57-.06-1.18,0-2.01,.89-2.24,2.15-.04,.23-.08,.49-.08,.78v4.9h-1.65v-6.33Z"/><path class="cls-9" d="M486.39,191.6v11.11c0,.82,.02,1.75,.08,2.38h-1.5l-.08-1.6h-.04c-.51,1.03-1.63,1.8-3.13,1.8-2.22,0-3.93-1.88-3.93-4.67-.02-3.06,1.88-4.94,4.12-4.94,1.41,0,2.36,.67,2.77,1.41h.04v-5.49h1.67Zm-1.67,8.04c0-.21-.02-.49-.08-.7-.25-1.06-1.16-1.94-2.41-1.94-1.73,0-2.75,1.52-2.75,3.55,0,1.86,.91,3.4,2.72,3.4,1.12,0,2.15-.74,2.45-2,.06-.23,.08-.46,.08-.72v-1.6Z"/><path class="cls-9" d="M490.09,200.79c.04,2.26,1.48,3.19,3.15,3.19,1.2,0,1.92-.21,2.55-.48l.29,1.2c-.59,.27-1.6,.57-3.06,.57-2.83,0-4.52-1.86-4.52-4.64s1.63-4.96,4.31-4.96c3,0,3.8,2.64,3.8,4.33,0,.34-.04,.61-.06,.78h-6.46Zm4.9-1.2c.02-1.06-.44-2.72-2.32-2.72-1.69,0-2.43,1.56-2.56,2.72h4.88Z"/><path class="cls-9" d="M498.68,198.38c0-.95-.02-1.73-.08-2.49h1.48l.1,1.52h.04c.46-.87,1.52-1.73,3.04-1.73,1.27,0,3.25,.76,3.25,3.91v5.49h-1.67v-5.3c0-1.48-.55-2.72-2.13-2.72-1.1,0-1.96,.78-2.24,1.71-.08,.21-.11,.49-.11,.78v5.53h-1.67v-6.71Z"/><path class="cls-9" d="M513.42,205.08v-7.92h-1.29v-1.27h1.29v-.44c0-1.29,.29-2.47,1.06-3.21,.63-.61,1.46-.86,2.24-.86,.59,0,1.1,.13,1.42,.27l-.23,1.29c-.25-.11-.59-.21-1.06-.21-1.42,0-1.79,1.25-1.79,2.66v.49h2.22v1.27h-2.22v7.92h-1.65Z"/><path class="cls-9" d="M523.89,205.08l-.13-1.16h-.06c-.51,.72-1.5,1.37-2.81,1.37-1.86,0-2.81-1.31-2.81-2.64,0-2.22,1.98-3.44,5.53-3.42v-.19c0-.76-.21-2.13-2.09-2.13-.85,0-1.75,.27-2.39,.68l-.38-1.1c.76-.49,1.86-.82,3.02-.82,2.81,0,3.5,1.92,3.5,3.76v3.44c0,.8,.04,1.58,.15,2.2h-1.52Zm-.25-4.69c-1.82-.04-3.89,.29-3.89,2.07,0,1.08,.72,1.6,1.58,1.6,1.2,0,1.96-.76,2.22-1.54,.06-.17,.09-.36,.09-.53v-1.6Z"/><path class="cls-9" d="M527.96,191.6h1.67v13.49h-1.67v-13.49Z"/><path class="cls-9" d="M540.38,191.6v11.11c0,.82,.02,1.75,.08,2.38h-1.5l-.08-1.6h-.04c-.51,1.03-1.63,1.8-3.13,1.8-2.22,0-3.93-1.88-3.93-4.67-.02-3.06,1.88-4.94,4.12-4.94,1.41,0,2.36,.67,2.77,1.41h.04v-5.49h1.67Zm-1.67,8.04c0-.21-.02-.49-.08-.7-.25-1.06-1.16-1.94-2.41-1.94-1.73,0-2.75,1.52-2.75,3.55,0,1.86,.91,3.4,2.72,3.4,1.12,0,2.15-.74,2.45-2,.06-.23,.08-.46,.08-.72v-1.6Z"/><path class="cls-9" d="M544.09,200.79c.04,2.26,1.48,3.19,3.15,3.19,1.2,0,1.92-.21,2.55-.48l.29,1.2c-.59,.27-1.6,.57-3.06,.57-2.83,0-4.52-1.86-4.52-4.64s1.63-4.96,4.31-4.96c3,0,3.8,2.64,3.8,4.33,0,.34-.04,.61-.06,.78h-6.46Zm4.9-1.2c.02-1.06-.44-2.72-2.32-2.72-1.69,0-2.43,1.56-2.56,2.72h4.88Z"/><path class="cls-9" d="M552.68,198.76c0-1.08-.02-2.01-.08-2.87h1.46l.06,1.8h.08c.42-1.24,1.42-2.01,2.55-2.01,.19,0,.32,.02,.48,.06v1.58c-.17-.04-.34-.06-.57-.06-1.18,0-2.01,.89-2.24,2.15-.04,.23-.08,.49-.08,.78v4.9h-1.65v-6.33Z"/><path class="cls-9" d="M562.92,198.38c0-.95-.02-1.73-.08-2.49h1.48l.1,1.52h.04c.46-.87,1.52-1.73,3.04-1.73,1.27,0,3.25,.76,3.25,3.91v5.49h-1.67v-5.3c0-1.48-.55-2.72-2.13-2.72-1.1,0-1.96,.78-2.24,1.71-.08,.21-.11,.49-.11,.78v5.53h-1.67v-6.71Z"/><path class="cls-9" d="M574.39,200.79c.04,2.26,1.48,3.19,3.15,3.19,1.2,0,1.92-.21,2.55-.48l.29,1.2c-.59,.27-1.6,.57-3.06,.57-2.83,0-4.52-1.86-4.52-4.64s1.63-4.96,4.31-4.96c3,0,3.8,2.64,3.8,4.33,0,.34-.04,.61-.06,.78h-6.46Zm4.9-1.2c.02-1.06-.44-2.72-2.32-2.72-1.69,0-2.43,1.56-2.56,2.72h4.88Z"/><path class="cls-9" d="M590.92,191.6v11.11c0,.82,.02,1.75,.08,2.38h-1.5l-.08-1.6h-.04c-.51,1.03-1.63,1.8-3.13,1.8-2.22,0-3.93-1.88-3.93-4.67-.02-3.06,1.88-4.94,4.12-4.94,1.41,0,2.36,.67,2.77,1.41h.04v-5.49h1.67Zm-1.67,8.04c0-.21-.02-.49-.08-.7-.25-1.06-1.16-1.94-2.41-1.94-1.73,0-2.75,1.52-2.75,3.55,0,1.86,.91,3.4,2.72,3.4,1.12,0,2.15-.74,2.45-2,.06-.23,.08-.46,.08-.72v-1.6Z"/><path class="cls-9" d="M597.9,205.08v-7.92h-1.29v-1.27h1.29v-.44c0-1.29,.29-2.47,1.06-3.21,.63-.61,1.46-.86,2.24-.86,.59,0,1.1,.13,1.42,.27l-.23,1.29c-.25-.11-.59-.21-1.06-.21-1.42,0-1.79,1.25-1.79,2.66v.49h2.22v1.27h-2.22v7.92h-1.65Z"/><path class="cls-9" d="M603.27,198.76c0-1.08-.02-2.01-.08-2.87h1.46l.06,1.8h.08c.42-1.24,1.42-2.01,2.55-2.01,.19,0,.32,.02,.47,.06v1.58c-.17-.04-.34-.06-.57-.06-1.18,0-2.01,.89-2.24,2.15-.04,.23-.08,.49-.08,.78v4.9h-1.65v-6.33Z"/><path class="cls-9" d="M614.48,205.08l-.13-1.16h-.06c-.51,.72-1.5,1.37-2.81,1.37-1.86,0-2.81-1.31-2.81-2.64,0-2.22,1.98-3.44,5.53-3.42v-.19c0-.76-.21-2.13-2.09-2.13-.86,0-1.75,.27-2.39,.68l-.38-1.1c.76-.49,1.86-.82,3.02-.82,2.81,0,3.5,1.92,3.5,3.76v3.44c0,.8,.04,1.58,.15,2.2h-1.52Zm-.25-4.69c-1.82-.04-3.89,.29-3.89,2.07,0,1.08,.72,1.6,1.58,1.6,1.2,0,1.96-.76,2.22-1.54,.06-.17,.09-.36,.09-.53v-1.6Z"/><path class="cls-9" d="M622.58,191.6h1.67v5.74h.04c.27-.47,.68-.89,1.2-1.18,.49-.29,1.08-.47,1.71-.47,1.23,0,3.21,.76,3.21,3.93v5.47h-1.67v-5.28c0-1.48-.55-2.74-2.13-2.74-1.08,0-1.94,.76-2.24,1.67-.09,.23-.11,.47-.11,.8v5.55h-1.67v-13.49Z"/><path class="cls-9" d="M634.98,193.31c.02,.57-.4,1.03-1.06,1.03-.59,0-1.01-.46-1.01-1.03s.44-1.04,1.04-1.04,1.03,.46,1.03,1.04Zm-1.86,11.78v-9.19h1.67v9.19h-1.67Z"/><path class="cls-9" d="M637.57,198.38c0-.95-.02-1.73-.08-2.49h1.46l.08,1.48h.06c.51-.87,1.37-1.69,2.89-1.69,1.25,0,2.2,.76,2.6,1.84h.04c.29-.51,.65-.91,1.03-1.2,.55-.42,1.16-.65,2.03-.65,1.22,0,3.02,.8,3.02,3.99v5.41h-1.63v-5.21c0-1.77-.65-2.83-1.99-2.83-.95,0-1.69,.7-1.98,1.52-.08,.23-.13,.53-.13,.84v5.68h-1.63v-5.51c0-1.46-.65-2.53-1.92-2.53-1.04,0-1.8,.84-2.07,1.67-.09,.25-.13,.53-.13,.82v5.55h-1.63v-6.71Z"/><path class="cls-9" d="M653.41,191.6h1.67v13.49h-1.67v-13.49Z"/><path class="cls-9" d="M658.83,200.79c.04,2.26,1.48,3.19,3.15,3.19,1.2,0,1.92-.21,2.55-.48l.29,1.2c-.59,.27-1.6,.57-3.06,.57-2.83,0-4.52-1.86-4.52-4.64s1.63-4.96,4.31-4.96c3,0,3.8,2.64,3.8,4.33,0,.34-.04,.61-.06,.78h-6.46Zm4.9-1.2c.02-1.06-.44-2.72-2.32-2.72-1.69,0-2.43,1.56-2.56,2.72h4.88Z"/><path class="cls-9" d="M667.42,198.38c0-.95-.02-1.73-.08-2.49h1.48l.09,1.52h.04c.46-.87,1.52-1.73,3.04-1.73,1.27,0,3.25,.76,3.25,3.91v5.49h-1.67v-5.3c0-1.48-.55-2.72-2.13-2.72-1.1,0-1.96,.78-2.24,1.71-.08,.21-.11,.49-.11,.78v5.53h-1.67v-6.71Z"/></g><g><path class="cls-4" d="M455.17,233.88c1.09-.18,2.52-.34,4.34-.34,2.24,0,3.87,.52,4.91,1.46,.96,.83,1.53,2.11,1.53,3.67s-.47,2.83-1.35,3.74c-1.2,1.27-3.15,1.92-5.36,1.92-.68,0-1.3-.03-1.82-.16v7.02h-2.26v-17.32Zm2.26,8.45c.49,.13,1.12,.18,1.87,.18,2.73,0,4.39-1.33,4.39-3.74s-1.64-3.43-4.13-3.43c-.99,0-1.74,.08-2.13,.18v6.81Z"/><path class="cls-4" d="M469.66,245.69l-1.82,5.51h-2.34l5.95-17.52h2.73l5.98,17.52h-2.42l-1.87-5.51h-6.21Zm5.75-1.77l-1.72-5.04c-.39-1.14-.65-2.18-.91-3.2h-.05c-.26,1.04-.55,2.11-.88,3.17l-1.72,5.07h5.28Z"/><path class="cls-4" d="M482.42,248.44c1.01,.62,2.5,1.14,4.06,1.14,2.31,0,3.67-1.22,3.67-2.99,0-1.64-.94-2.57-3.3-3.48-2.86-1.01-4.63-2.5-4.63-4.97,0-2.73,2.26-4.76,5.67-4.76,1.79,0,3.09,.42,3.87,.86l-.62,1.85c-.57-.31-1.74-.83-3.33-.83-2.39,0-3.3,1.43-3.3,2.63,0,1.64,1.07,2.44,3.48,3.38,2.96,1.14,4.47,2.57,4.47,5.15,0,2.7-2,5.04-6.14,5.04-1.69,0-3.54-.49-4.47-1.12l.57-1.9Z"/><path class="cls-4" d="M501.06,233.88c1.09-.18,2.52-.34,4.34-.34,2.24,0,3.87,.52,4.91,1.46,.96,.83,1.53,2.11,1.53,3.67s-.47,2.83-1.35,3.74c-1.2,1.27-3.15,1.92-5.36,1.92-.68,0-1.3-.03-1.82-.16v7.02h-2.26v-17.32Zm2.26,8.45c.49,.13,1.12,.18,1.87,.18,2.73,0,4.39-1.33,4.39-3.74s-1.64-3.43-4.13-3.43c-.99,0-1.74,.08-2.13,.18v6.81Z"/><path class="cls-4" d="M515.54,245.69l-1.82,5.51h-2.34l5.95-17.52h2.73l5.98,17.52h-2.42l-1.87-5.51h-6.21Zm5.75-1.77l-1.72-5.04c-.39-1.14-.65-2.18-.91-3.2h-.05c-.26,1.04-.55,2.11-.88,3.17l-1.72,5.07h5.28Zm.03-13.21c0,1.3-1.07,2.31-2.57,2.31-1.59,0-2.6-1.04-2.6-2.29s.99-2.37,2.6-2.37,2.57,1.04,2.57,2.34Zm-3.85,.03c0,.65,.49,1.33,1.25,1.33s1.25-.62,1.25-1.38-.49-1.38-1.25-1.38c-.81,0-1.25,.68-1.25,1.43Z"/><path class="cls-4" d="M528.1,249.87c0-.94,.65-1.61,1.53-1.61,.94,0,1.53,.68,1.53,1.61s-.6,1.61-1.53,1.61-1.53-.7-1.53-1.61Zm.65-3.72l-.36-12.48h2.5l-.36,12.48h-1.77Z"/></g><g><path class="cls-9" d="M383.45,276.62c-.1-1.79-.21-3.93-.19-5.53h-.06c-.44,1.5-.97,3.1-1.61,4.86l-2.26,6.21h-1.25l-2.07-6.1c-.61-1.8-1.12-3.46-1.48-4.98h-.04c-.04,1.6-.13,3.74-.25,5.66l-.34,5.49h-1.58l.89-12.8h2.11l2.18,6.19c.53,1.58,.97,2.98,1.29,4.31h.06c.32-1.29,.78-2.7,1.35-4.31l2.28-6.19h2.11l.8,12.8h-1.61l-.32-5.62Z"/><path class="cls-9" d="M388.92,277.95c.04,2.26,1.48,3.19,3.15,3.19,1.2,0,1.92-.21,2.55-.48l.29,1.2c-.59,.27-1.6,.57-3.06,.57-2.83,0-4.52-1.86-4.52-4.64s1.63-4.96,4.31-4.96c3,0,3.8,2.64,3.8,4.33,0,.34-.04,.61-.06,.78h-6.46Zm4.9-1.2c.02-1.06-.44-2.72-2.32-2.72-1.69,0-2.43,1.56-2.56,2.72h4.88Z"/><path class="cls-9" d="M399.53,270.41v2.64h2.39v1.27h-2.39v4.96c0,1.14,.32,1.79,1.25,1.79,.44,0,.76-.06,.97-.11l.08,1.25c-.32,.13-.84,.23-1.48,.23-.78,0-1.41-.25-1.8-.7-.48-.49-.65-1.31-.65-2.39v-5.02h-1.42v-1.27h1.42v-2.2l1.63-.44Z"/><path class="cls-9" d="M405.81,270.41v2.64h2.39v1.27h-2.39v4.96c0,1.14,.32,1.79,1.25,1.79,.44,0,.76-.06,.97-.11l.08,1.25c-.32,.13-.84,.23-1.48,.23-.78,0-1.41-.25-1.8-.7-.48-.49-.65-1.31-.65-2.39v-5.02h-1.42v-1.27h1.42v-2.2l1.63-.44Z"/><path class="cls-9" d="M410.91,277.95c.04,2.26,1.48,3.19,3.15,3.19,1.2,0,1.92-.21,2.55-.48l.29,1.2c-.59,.27-1.6,.57-3.06,.57-2.83,0-4.52-1.86-4.52-4.64s1.63-4.96,4.31-4.96c3,0,3.8,2.64,3.8,4.33,0,.34-.04,.61-.06,.78h-6.46Zm4.9-1.2c.02-1.06-.44-2.72-2.32-2.72-1.69,0-2.43,1.56-2.56,2.72h4.88Z"/><path class="cls-9" d="M423.58,269.44h6.9v1.39h-5.24v4.25h4.84v1.37h-4.84v5.79h-1.65v-12.8Z"/><path class="cls-9" d="M436.8,275.54c0-.95-.02-1.73-.08-2.49h1.46l.08,1.48h.06c.51-.87,1.37-1.69,2.89-1.69,1.25,0,2.2,.76,2.6,1.84h.04c.29-.51,.65-.91,1.03-1.2,.55-.42,1.16-.65,2.03-.65,1.22,0,3.02,.8,3.02,3.99v5.41h-1.63v-5.21c0-1.77-.65-2.83-1.99-2.83-.95,0-1.69,.7-1.98,1.52-.08,.23-.13,.53-.13,.84v5.68h-1.63v-5.51c0-1.46-.65-2.53-1.92-2.53-1.04,0-1.8,.84-2.07,1.67-.09,.25-.13,.53-.13,.82v5.55h-1.63v-6.71Z"/><path class="cls-9" d="M457.74,282.25l-.13-1.16h-.06c-.51,.72-1.5,1.37-2.81,1.37-1.86,0-2.81-1.31-2.81-2.64,0-2.22,1.98-3.44,5.53-3.42v-.19c0-.76-.21-2.13-2.09-2.13-.85,0-1.75,.27-2.39,.68l-.38-1.1c.76-.49,1.86-.82,3.02-.82,2.81,0,3.5,1.92,3.5,3.76v3.44c0,.8,.04,1.58,.15,2.2h-1.52Zm-.25-4.69c-1.82-.04-3.89,.29-3.89,2.07,0,1.08,.72,1.6,1.58,1.6,1.2,0,1.96-.76,2.22-1.54,.06-.17,.09-.36,.09-.53v-1.6Zm-3.59-7.24c0-1.01,.74-1.8,1.94-1.8s1.88,.78,1.88,1.79-.82,1.75-1.9,1.75c-1.14,0-1.92-.76-1.92-1.73Zm2.89-.04c0-.57-.38-1.04-.99-1.04s-.93,.49-.93,1.08c0,.49,.38,1.03,.93,1.03,.61,0,.99-.49,.99-1.06Z"/><path class="cls-9" d="M467.7,270.47c.02,.57-.4,1.03-1.06,1.03-.59,0-1.01-.46-1.01-1.03s.44-1.04,1.04-1.04,1.03,.46,1.03,1.04Zm-1.86,11.78v-9.19h1.67v9.19h-1.67Z"/><path class="cls-9" d="M471.93,277.27h.04c.23-.32,.55-.72,.82-1.04l2.7-3.17h2.01l-3.55,3.78,4.05,5.41h-2.03l-3.17-4.41-.85,.95v3.46h-1.65v-13.49h1.65v8.51Z"/><path class="cls-9" d="M481.17,277.27h.04c.23-.32,.55-.72,.82-1.04l2.7-3.17h2.01l-3.55,3.78,4.05,5.41h-2.03l-3.17-4.41-.85,.95v3.46h-1.65v-13.49h1.65v8.51Z"/><path class="cls-9" d="M489.36,277.95c.04,2.26,1.48,3.19,3.15,3.19,1.2,0,1.92-.21,2.55-.48l.29,1.2c-.59,.27-1.6,.57-3.06,.57-2.83,0-4.52-1.86-4.52-4.64s1.63-4.96,4.31-4.96c3,0,3.8,2.64,3.8,4.33,0,.34-.04,.61-.06,.78h-6.46Zm4.9-1.2c.02-1.06-.44-2.72-2.32-2.72-1.69,0-2.43,1.56-2.56,2.72h4.88Z"/><path class="cls-9" d="M502.14,282.25v-7.92h-1.29v-1.27h1.29v-.44c0-1.29,.29-2.47,1.06-3.21,.63-.61,1.46-.86,2.24-.86,.59,0,1.1,.13,1.42,.27l-.23,1.29c-.25-.11-.59-.21-1.06-.21-1.42,0-1.79,1.25-1.79,2.66v.49h2.22v1.27h-2.22v7.92h-1.65Z"/><path class="cls-9" d="M512.61,282.25l-.13-1.16h-.06c-.51,.72-1.5,1.37-2.81,1.37-1.86,0-2.81-1.31-2.81-2.64,0-2.22,1.98-3.44,5.53-3.42v-.19c0-.76-.21-2.13-2.09-2.13-.85,0-1.75,.27-2.39,.68l-.38-1.1c.76-.49,1.86-.82,3.02-.82,2.81,0,3.5,1.92,3.5,3.76v3.44c0,.8,.04,1.58,.15,2.2h-1.52Zm-.25-4.69c-1.82-.04-3.89,.29-3.89,2.07,0,1.08,.72,1.6,1.58,1.6,1.2,0,1.96-.76,2.22-1.54,.06-.17,.09-.36,.09-.53v-1.6Zm-3.59-7.24c0-1.01,.74-1.8,1.94-1.8s1.88,.78,1.88,1.79-.82,1.75-1.9,1.75c-1.14,0-1.92-.76-1.92-1.73Zm2.89-.04c0-.57-.38-1.04-.99-1.04s-.93,.49-.93,1.08c0,.49,.38,1.03,.93,1.03,.61,0,.99-.49,.99-1.06Z"/><path class="cls-9" d="M520.88,282.25v-7.92h-1.29v-1.27h1.29v-.49c0-2.43,1.42-4.01,4.01-4.01,.85,0,1.86,.27,2.34,.61l-.48,1.27c-.4-.29-1.12-.53-1.94-.53-1.77,0-2.28,1.24-2.28,2.7v.46h5.34v9.19h-1.65v-7.92h-3.69v7.92h-1.65Z"/><path class="cls-9" d="M530.64,275.54c0-.95-.02-1.73-.08-2.49h1.48l.1,1.52h.04c.46-.87,1.52-1.73,3.04-1.73,1.27,0,3.25,.76,3.25,3.91v5.49h-1.67v-5.3c0-1.48-.55-2.72-2.13-2.72-1.1,0-1.96,.78-2.24,1.71-.08,.21-.11,.49-.11,.78v5.53h-1.67v-6.71Z"/><path class="cls-9" d="M549.11,273.05c-.04,.67-.08,1.41-.08,2.53v5.34c0,2.11-.42,3.4-1.31,4.2-.89,.84-2.18,1.1-3.34,1.1s-2.32-.27-3.06-.76l.42-1.27c.61,.38,1.56,.72,2.7,.72,1.71,0,2.96-.89,2.96-3.21v-1.03h-.04c-.51,.86-1.5,1.54-2.93,1.54-2.28,0-3.91-1.94-3.91-4.48,0-3.12,2.03-4.88,4.14-4.88,1.6,0,2.47,.84,2.87,1.6h.04l.08-1.39h1.46Zm-1.73,3.63c0-.29-.02-.53-.1-.76-.3-.97-1.12-1.77-2.34-1.77-1.6,0-2.74,1.35-2.74,3.48,0,1.8,.91,3.31,2.72,3.31,1.03,0,1.96-.65,2.32-1.71,.1-.29,.13-.61,.13-.89v-1.65Z"/><path class="cls-9" d="M551.69,275.92c0-1.08-.02-2.01-.08-2.87h1.46l.06,1.8h.08c.42-1.24,1.42-2.01,2.55-2.01,.19,0,.32,.02,.48,.06v1.58c-.17-.04-.34-.06-.57-.06-1.18,0-2.01,.89-2.24,2.15-.04,.23-.08,.49-.08,.78v4.9h-1.65v-6.33Z"/><path class="cls-9" d="M558.65,277.95c.04,2.26,1.48,3.19,3.15,3.19,1.2,0,1.92-.21,2.55-.48l.29,1.2c-.59,.27-1.6,.57-3.06,.57-2.83,0-4.52-1.86-4.52-4.64s1.63-4.96,4.31-4.96c3,0,3.8,2.64,3.8,4.33,0,.34-.04,.61-.06,.78h-6.46Zm4.9-1.2c.02-1.06-.44-2.72-2.32-2.72-1.69,0-2.43,1.56-2.56,2.72h4.88Z"/><path class="cls-9" d="M567.24,275.54c0-.95-.02-1.73-.08-2.49h1.48l.1,1.52h.04c.46-.87,1.52-1.73,3.04-1.73,1.27,0,3.25,.76,3.25,3.91v5.49h-1.67v-5.3c0-1.48-.55-2.72-2.13-2.72-1.1,0-1.96,.78-2.24,1.71-.08,.21-.11,.49-.11,.78v5.53h-1.67v-6.71Z"/><path class="cls-9" d="M585.72,268.76v11.11c0,.82,.02,1.75,.08,2.38h-1.5l-.08-1.6h-.04c-.51,1.03-1.63,1.8-3.13,1.8-2.22,0-3.93-1.88-3.93-4.67-.02-3.06,1.88-4.94,4.12-4.94,1.41,0,2.36,.67,2.77,1.41h.04v-5.49h1.67Zm-1.67,8.04c0-.21-.02-.49-.08-.7-.25-1.06-1.16-1.94-2.41-1.94-1.73,0-2.75,1.52-2.75,3.55,0,1.86,.91,3.4,2.72,3.4,1.12,0,2.15-.74,2.45-2,.06-.23,.08-.46,.08-.72v-1.6Z"/><path class="cls-9" d="M589.43,277.95c.04,2.26,1.48,3.19,3.15,3.19,1.2,0,1.92-.21,2.54-.48l.29,1.2c-.59,.27-1.6,.57-3.06,.57-2.83,0-4.52-1.86-4.52-4.64s1.63-4.96,4.31-4.96c3,0,3.8,2.64,3.8,4.33,0,.34-.04,.61-.06,.78h-6.46Zm4.9-1.2c.02-1.06-.44-2.72-2.32-2.72-1.69,0-2.43,1.56-2.56,2.72h4.88Z"/><path class="cls-9" d="M603.91,270.47c.02,.57-.4,1.03-1.06,1.03-.59,0-1.01-.46-1.01-1.03s.44-1.04,1.04-1.04,1.03,.46,1.03,1.04Zm-1.86,11.78v-9.19h1.67v9.19h-1.67Z"/><path class="cls-9" d="M618.46,268.76v11.11c0,.82,.02,1.75,.08,2.38h-1.5l-.08-1.6h-.04c-.51,1.03-1.63,1.8-3.13,1.8-2.22,0-3.93-1.88-3.93-4.67-.02-3.06,1.88-4.94,4.12-4.94,1.41,0,2.36,.67,2.77,1.41h.04v-5.49h1.67Zm-1.67,8.04c0-.21-.02-.49-.08-.7-.25-1.06-1.16-1.94-2.41-1.94-1.73,0-2.75,1.52-2.75,3.55,0,1.86,.91,3.4,2.72,3.4,1.12,0,2.15-.74,2.45-2,.06-.23,.08-.46,.08-.72v-1.6Z"/><path class="cls-9" d="M622.17,277.95c.04,2.26,1.48,3.19,3.15,3.19,1.2,0,1.92-.21,2.55-.48l.29,1.2c-.59,.27-1.6,.57-3.06,.57-2.83,0-4.52-1.86-4.52-4.64s1.63-4.96,4.31-4.96c3,0,3.8,2.64,3.8,4.33,0,.34-.04,.61-.06,.78h-6.46Zm4.9-1.2c.02-1.06-.44-2.72-2.32-2.72-1.69,0-2.43,1.56-2.56,2.72h4.88Z"/><path class="cls-9" d="M389.86,303.34c.49,.32,1.37,.67,2.2,.67,1.22,0,1.79-.61,1.79-1.37s-.48-1.23-1.71-1.69c-1.65-.59-2.43-1.5-2.43-2.6,0-1.48,1.2-2.7,3.17-2.7,.93,0,1.75,.27,2.26,.57l-.42,1.22c-.36-.23-1.03-.53-1.88-.53-.99,0-1.54,.57-1.54,1.25,0,.76,.55,1.1,1.75,1.56,1.6,.61,2.41,1.41,2.41,2.77,0,1.61-1.25,2.75-3.44,2.75-1.01,0-1.94-.25-2.58-.63l.42-1.27Z"/><path class="cls-9" d="M397.61,298.34c0-.95-.02-1.73-.08-2.49h1.46l.08,1.48h.06c.51-.87,1.37-1.69,2.89-1.69,1.25,0,2.2,.76,2.6,1.84h.04c.29-.51,.65-.91,1.03-1.2,.55-.42,1.16-.65,2.03-.65,1.22,0,3.02,.8,3.02,3.99v5.41h-1.63v-5.21c0-1.77-.65-2.83-1.99-2.83-.95,0-1.69,.7-1.98,1.52-.08,.23-.13,.53-.13,.84v5.68h-1.63v-5.51c0-1.46-.65-2.53-1.92-2.53-1.04,0-1.8,.84-2.07,1.67-.09,.25-.13,.53-.13,.82v5.55h-1.63v-6.71Z"/><path class="cls-9" d="M418.54,305.05l-.13-1.16h-.06c-.51,.72-1.5,1.37-2.81,1.37-1.86,0-2.81-1.31-2.81-2.64,0-2.22,1.98-3.44,5.53-3.42v-.19c0-.76-.21-2.13-2.09-2.13-.85,0-1.75,.27-2.39,.68l-.38-1.1c.76-.49,1.86-.82,3.02-.82,2.81,0,3.5,1.92,3.5,3.76v3.44c0,.8,.04,1.58,.15,2.2h-1.52Zm-.25-4.69c-1.82-.04-3.89,.29-3.89,2.07,0,1.08,.72,1.6,1.58,1.6,1.2,0,1.96-.76,2.22-1.54,.06-.17,.09-.36,.09-.53v-1.6Zm-3.59-7.24c0-1.01,.74-1.8,1.94-1.8s1.88,.78,1.88,1.79-.82,1.75-1.9,1.75c-1.14,0-1.92-.76-1.92-1.73Zm2.89-.04c0-.57-.38-1.04-.99-1.04s-.93,.49-.93,1.08c0,.49,.38,1.03,.93,1.03,.61,0,.99-.49,.99-1.06Z"/><path class="cls-9" d="M426.64,298.34c0-.95-.02-1.73-.08-2.49h1.46l.08,1.48h.06c.51-.87,1.37-1.69,2.89-1.69,1.25,0,2.2,.76,2.6,1.84h.04c.29-.51,.65-.91,1.03-1.2,.55-.42,1.16-.65,2.03-.65,1.22,0,3.02,.8,3.02,3.99v5.41h-1.63v-5.21c0-1.77-.65-2.83-1.99-2.83-.95,0-1.69,.7-1.98,1.52-.08,.23-.13,.53-.13,.84v5.68h-1.63v-5.51c0-1.46-.65-2.53-1.92-2.53-1.04,0-1.8,.84-2.07,1.67-.09,.25-.13,.53-.13,.82v5.55h-1.63v-6.71Z"/><path class="cls-9" d="M444.35,293.27c.02,.57-.4,1.03-1.06,1.03-.59,0-1.01-.46-1.01-1.03s.44-1.04,1.04-1.04,1.03,.46,1.03,1.04Zm-1.86,11.78v-9.19h1.67v9.19h-1.67Z"/><path class="cls-9" d="M446.93,298.34c0-.95-.02-1.73-.08-2.49h1.48l.1,1.52h.04c.46-.87,1.52-1.73,3.04-1.73,1.27,0,3.25,.76,3.25,3.91v5.49h-1.67v-5.3c0-1.48-.55-2.72-2.13-2.72-1.1,0-1.96,.78-2.24,1.71-.08,.21-.11,.49-.11,.78v5.53h-1.67v-6.71Z"/><path class="cls-9" d="M459.13,300.07h.04c.23-.32,.55-.72,.82-1.04l2.7-3.17h2.01l-3.55,3.78,4.05,5.41h-2.03l-3.17-4.41-.85,.95v3.46h-1.65v-13.49h1.65v8.51Z"/><path class="cls-9" d="M478.36,291.56v11.11c0,.82,.02,1.75,.08,2.38h-1.5l-.08-1.6h-.04c-.51,1.03-1.63,1.8-3.13,1.8-2.22,0-3.93-1.88-3.93-4.67-.02-3.06,1.88-4.94,4.12-4.94,1.41,0,2.36,.67,2.77,1.41h.04v-5.49h1.67Zm-1.67,8.04c0-.21-.02-.49-.08-.7-.25-1.06-1.16-1.94-2.41-1.94-1.73,0-2.75,1.52-2.75,3.55,0,1.86,.91,3.4,2.72,3.4,1.12,0,2.15-.74,2.45-2,.06-.23,.08-.46,.08-.72v-1.6Z"/><path class="cls-9" d="M482.06,300.75c.04,2.26,1.48,3.19,3.15,3.19,1.2,0,1.92-.21,2.55-.48l.29,1.2c-.59,.27-1.6,.57-3.06,.57-2.83,0-4.52-1.86-4.52-4.64s1.63-4.96,4.31-4.96c3,0,3.8,2.64,3.8,4.33,0,.34-.04,.61-.06,.78h-6.46Zm4.9-1.2c.02-1.06-.44-2.72-2.32-2.72-1.69,0-2.43,1.56-2.56,2.72h4.88Z"/><path class="cls-9" d="M490.65,298.72c0-1.08-.02-2.01-.08-2.87h1.46l.06,1.8h.08c.42-1.24,1.42-2.01,2.55-2.01,.19,0,.32,.02,.48,.06v1.58c-.17-.04-.34-.06-.57-.06-1.18,0-2.01,.89-2.24,2.15-.04,.23-.08,.49-.08,.78v4.9h-1.65v-6.33Z"/><path class="cls-9" d="M500.81,305.05c.04-.63,.08-1.56,.08-2.38v-11.11h1.65v5.78h.04c.59-1.03,1.65-1.69,3.13-1.69,2.28,0,3.89,1.9,3.88,4.69,0,3.29-2.07,4.92-4.12,4.92-1.33,0-2.39-.51-3.08-1.73h-.06l-.08,1.52h-1.44Zm1.73-3.69c0,.21,.04,.42,.08,.61,.32,1.16,1.29,1.96,2.51,1.96,1.75,0,2.79-1.42,2.79-3.53,0-1.84-.95-3.42-2.74-3.42-1.14,0-2.2,.78-2.55,2.05-.04,.19-.1,.42-.1,.68v1.65Z"/><path class="cls-9" d="M520.02,300.37c0,3.4-2.36,4.88-4.58,4.88-2.49,0-4.41-1.82-4.41-4.73,0-3.08,2.01-4.88,4.56-4.88s4.43,1.92,4.43,4.73Zm-7.29,.09c0,2.01,1.16,3.53,2.79,3.53s2.79-1.5,2.79-3.57c0-1.56-.78-3.53-2.75-3.53s-2.83,1.82-2.83,3.57Z"/><path class="cls-9" d="M522.13,298.72c0-1.08-.02-2.01-.08-2.87h1.46l.06,1.8h.08c.42-1.24,1.42-2.01,2.55-2.01,.19,0,.32,.02,.48,.06v1.58c-.17-.04-.34-.06-.57-.06-1.18,0-2.01,.89-2.24,2.15-.04,.23-.08,.49-.08,.78v4.9h-1.65v-6.33Z"/><path class="cls-9" d="M532.37,298.85c0-1.18-.04-2.13-.08-3h1.5l.08,1.58h.04c.68-1.12,1.77-1.79,3.27-1.79,2.22,0,3.89,1.88,3.89,4.67,0,3.31-2.01,4.94-4.18,4.94-1.22,0-2.28-.53-2.83-1.44h-.04v5h-1.65v-9.96Zm1.65,2.45c0,.25,.04,.47,.08,.68,.3,1.16,1.31,1.96,2.51,1.96,1.77,0,2.79-1.44,2.79-3.55,0-1.84-.97-3.42-2.74-3.42-1.14,0-2.2,.82-2.53,2.07-.06,.21-.11,.46-.11,.68v1.58Z"/><path class="cls-9" d="M548.27,305.05l-.13-1.16h-.06c-.51,.72-1.5,1.37-2.81,1.37-1.86,0-2.81-1.31-2.81-2.64,0-2.22,1.98-3.44,5.53-3.42v-.19c0-.76-.21-2.13-2.09-2.13-.85,0-1.75,.27-2.39,.68l-.38-1.1c.76-.49,1.86-.82,3.02-.82,2.81,0,3.5,1.92,3.5,3.76v3.44c0,.8,.04,1.58,.15,2.2h-1.52Zm-.25-4.69c-1.82-.04-3.89,.29-3.89,2.07,0,1.08,.72,1.6,1.58,1.6,1.2,0,1.96-.76,2.22-1.54,.06-.17,.09-.36,.09-.53v-1.6Zm-3.59-7.24c0-1.01,.74-1.8,1.94-1.8s1.88,.78,1.88,1.79-.82,1.75-1.9,1.75c-1.14,0-1.92-.76-1.92-1.73Zm2.89-.04c0-.57-.38-1.04-.99-1.04s-.93,.49-.93,1.08c0,.49,.38,1.03,.93,1.03,.61,0,.99-.49,.99-1.06Z"/><path class="cls-9" d="M556.54,305.05v-7.92h-1.29v-1.27h1.29v-.44c0-1.29,.29-2.47,1.06-3.21,.63-.61,1.46-.86,2.24-.86,.59,0,1.1,.13,1.42,.27l-.23,1.29c-.25-.11-.59-.21-1.06-.21-1.42,0-1.79,1.25-1.79,2.66v.49h2.22v1.27h-2.22v7.92h-1.65Z"/><path class="cls-9" d="M567.01,305.05l-.13-1.16h-.06c-.51,.72-1.5,1.37-2.81,1.37-1.86,0-2.81-1.31-2.81-2.64,0-2.22,1.98-3.44,5.53-3.42v-.19c0-.76-.21-2.13-2.09-2.13-.85,0-1.75,.27-2.39,.68l-.38-1.1c.76-.49,1.86-.82,3.02-.82,2.81,0,3.5,1.92,3.5,3.76v3.44c0,.8,.04,1.58,.15,2.2h-1.52Zm-.25-4.69c-1.82-.04-3.89,.29-3.89,2.07,0,1.08,.72,1.6,1.58,1.6,1.2,0,1.96-.76,2.22-1.54,.06-.17,.09-.36,.09-.53v-1.6Z"/><path class="cls-9" d="M571.07,298.72c0-1.08-.02-2.01-.08-2.87h1.46l.06,1.8h.08c.42-1.24,1.42-2.01,2.55-2.01,.19,0,.32,.02,.48,.06v1.58c-.17-.04-.34-.06-.57-.06-1.18,0-2.01,.89-2.24,2.15-.04,.23-.08,.49-.08,.78v4.9h-1.65v-6.33Z"/><path class="cls-9" d="M577.36,298.34c0-.95-.02-1.73-.08-2.49h1.46l.08,1.48h.06c.51-.87,1.37-1.69,2.89-1.69,1.25,0,2.2,.76,2.6,1.84h.04c.29-.51,.65-.91,1.03-1.2,.55-.42,1.16-.65,2.03-.65,1.22,0,3.02,.8,3.02,3.99v5.41h-1.63v-5.21c0-1.77-.65-2.83-2-2.83-.95,0-1.69,.7-1.98,1.52-.08,.23-.13,.53-.13,.84v5.68h-1.63v-5.51c0-1.46-.65-2.53-1.92-2.53-1.04,0-1.8,.84-2.07,1.67-.09,.25-.13,.53-.13,.82v5.55h-1.63v-6.71Z"/><path class="cls-9" d="M594.14,300.75c.04,2.26,1.48,3.19,3.15,3.19,1.2,0,1.92-.21,2.54-.48l.29,1.2c-.59,.27-1.6,.57-3.06,.57-2.83,0-4.52-1.86-4.52-4.64s1.63-4.96,4.31-4.96c3,0,3.8,2.64,3.8,4.33,0,.34-.04,.61-.06,.78h-6.46Zm4.9-1.2c.02-1.06-.44-2.72-2.32-2.72-1.69,0-2.43,1.56-2.56,2.72h4.88Z"/><path class="cls-9" d="M602.73,298.34c0-.95-.02-1.73-.08-2.49h1.48l.1,1.52h.04c.46-.87,1.52-1.73,3.04-1.73,1.27,0,3.25,.76,3.25,3.91v5.49h-1.67v-5.3c0-1.48-.55-2.72-2.13-2.72-1.1,0-1.96,.78-2.24,1.71-.08,.21-.11,.49-.11,.78v5.53h-1.67v-6.71Z"/></g><g><path class="cls-4" d="M331.52,337.31v7.33h8.48v-7.33h2.29v17.52h-2.29v-8.22h-8.48v8.22h-2.26v-17.52h2.26Z"/><path class="cls-4" d="M350.06,354.83l-5.72-17.52h2.44l2.73,8.63c.75,2.37,1.4,4.5,1.87,6.55h.05c.49-2.03,1.22-4.24,2-6.53l2.96-8.66h2.42l-6.27,17.52h-2.5Z"/><path class="cls-4" d="M375.7,345.89c0,6.03-3.67,9.23-8.14,9.23s-7.88-3.59-7.88-8.89c0-5.56,3.46-9.2,8.14-9.2s7.88,3.67,7.88,8.87Zm-13.6,.29c0,3.74,2.03,7.1,5.59,7.1s5.62-3.3,5.62-7.28c0-3.48-1.82-7.12-5.59-7.12s-5.62,3.46-5.62,7.31Z"/><path class="cls-4" d="M378.63,337.54c1.14-.23,2.78-.36,4.34-.36,2.42,0,3.98,.44,5.07,1.43,.88,.78,1.38,1.98,1.38,3.33,0,2.31-1.46,3.85-3.3,4.47v.08c1.35,.47,2.16,1.72,2.57,3.54,.57,2.44,.99,4.13,1.35,4.81h-2.34c-.29-.49-.68-2-1.17-4.19-.52-2.42-1.46-3.33-3.51-3.41h-2.13v7.59h-2.26v-17.29Zm2.26,7.98h2.31c2.42,0,3.95-1.33,3.95-3.33,0-2.26-1.64-3.25-4.03-3.28-1.09,0-1.87,.1-2.24,.21v6.4Z"/><path class="cls-4" d="M392.62,337.54c1.38-.21,3.02-.36,4.81-.36,3.25,0,5.56,.75,7.1,2.18,1.56,1.43,2.47,3.46,2.47,6.29s-.88,5.2-2.52,6.81c-1.64,1.64-4.34,2.52-7.75,2.52-1.61,0-2.96-.08-4.11-.21v-17.24Zm2.26,15.5c.57,.1,1.4,.13,2.29,.13,4.84,0,7.46-2.7,7.46-7.44,.03-4.13-2.31-6.76-7.1-6.76-1.17,0-2.05,.1-2.65,.23v13.83Z"/><path class="cls-4" d="M412.41,349.32l-1.82,5.51h-2.34l5.95-17.52h2.73l5.98,17.52h-2.42l-1.87-5.51h-6.21Zm5.75-1.77l-1.72-5.04c-.39-1.14-.65-2.18-.91-3.2h-.05c-.26,1.04-.55,2.11-.88,3.17l-1.72,5.07h5.28Z"/><path class="cls-4" d="M425.48,354.83v-17.52h2.47l5.62,8.87c1.3,2.05,2.31,3.9,3.15,5.69l.05-.03c-.21-2.34-.26-4.47-.26-7.2v-7.33h2.13v17.52h-2.29l-5.56-8.89c-1.22-1.95-2.39-3.95-3.28-5.85l-.08,.03c.13,2.21,.18,4.32,.18,7.23v7.49h-2.13Z"/><path class="cls-4" d="M448.1,337.54c1.14-.23,2.78-.36,4.34-.36,2.42,0,3.98,.44,5.07,1.43,.88,.78,1.38,1.98,1.38,3.33,0,2.31-1.46,3.85-3.3,4.47v.08c1.35,.47,2.16,1.72,2.57,3.54,.57,2.44,.99,4.13,1.35,4.81h-2.34c-.29-.49-.68-2-1.17-4.19-.52-2.42-1.46-3.33-3.51-3.41h-2.13v7.59h-2.26v-17.29Zm2.26,7.98h2.31c2.42,0,3.95-1.33,3.95-3.33,0-2.26-1.64-3.25-4.03-3.28-1.09,0-1.87,.1-2.24,.21v6.4Z"/><path class="cls-4" d="M471.17,346.62h-6.81v6.32h7.59v1.9h-9.85v-17.52h9.46v1.9h-7.2v5.54h6.81v1.87Z"/><path class="cls-4" d="M474.88,337.54c1.38-.21,3.02-.36,4.81-.36,3.25,0,5.56,.75,7.1,2.18,1.56,1.43,2.47,3.46,2.47,6.29s-.88,5.2-2.52,6.81c-1.64,1.64-4.34,2.52-7.75,2.52-1.61,0-2.96-.08-4.11-.21v-17.24Zm2.26,15.5c.57,.1,1.4,.13,2.29,.13,4.84,0,7.46-2.7,7.46-7.44,.03-4.13-2.31-6.76-7.1-6.76-1.17,0-2.05,.1-2.65,.23v13.83Z"/><path class="cls-4" d="M492.2,337.54c1.38-.21,3.02-.36,4.81-.36,3.25,0,5.56,.75,7.1,2.18,1.56,1.43,2.47,3.46,2.47,6.29s-.88,5.2-2.52,6.81c-1.64,1.64-4.34,2.52-7.75,2.52-1.61,0-2.96-.08-4.11-.21v-17.24Zm2.26,15.5c.57,.1,1.4,.13,2.29,.13,4.84,0,7.46-2.7,7.46-7.44,.03-4.13-2.31-6.76-7.1-6.76-1.17,0-2.05,.1-2.65,.23v13.83Z"/><path class="cls-4" d="M518.59,346.62h-6.81v6.32h7.59v1.9h-9.85v-17.52h9.46v1.9h-7.2v5.54h6.81v1.87Z"/><path class="cls-4" d="M522.31,337.54c1.14-.23,2.78-.36,4.34-.36,2.42,0,3.98,.44,5.07,1.43,.88,.78,1.38,1.98,1.38,3.33,0,2.31-1.46,3.85-3.3,4.47v.08c1.35,.47,2.16,1.72,2.57,3.54,.57,2.44,.99,4.13,1.35,4.81h-2.34c-.29-.49-.68-2-1.17-4.19-.52-2.42-1.46-3.33-3.51-3.41h-2.13v7.59h-2.26v-17.29Zm2.26,7.98h2.31c2.42,0,3.95-1.33,3.95-3.33,0-2.26-1.64-3.25-4.03-3.28-1.09,0-1.87,.1-2.24,.21v6.4Z"/><path class="cls-4" d="M541.81,337.54c1.38-.21,3.02-.36,4.81-.36,3.25,0,5.56,.75,7.1,2.18,1.56,1.43,2.47,3.46,2.47,6.29s-.88,5.2-2.52,6.81c-1.64,1.64-4.34,2.52-7.75,2.52-1.61,0-2.96-.08-4.11-.21v-17.24Zm2.26,15.5c.57,.1,1.4,.13,2.29,.13,4.84,0,7.46-2.7,7.46-7.44,.03-4.13-2.31-6.76-7.1-6.76-1.17,0-2.05,.1-2.65,.23v13.83Z"/><path class="cls-4" d="M561.38,337.31v10.37c0,3.93,1.74,5.59,4.08,5.59,2.6,0,4.26-1.72,4.26-5.59v-10.37h2.29v10.22c0,5.38-2.83,7.59-6.63,7.59-3.59,0-6.29-2.05-6.29-7.49v-10.32h2.29Z"/><path class="cls-4" d="M581.46,337.31h9.44v1.9h-7.18v5.82h6.63v1.87h-6.63v7.93h-2.26v-17.52Z"/><path class="cls-4" d="M594.92,349.32l-1.82,5.51h-2.34l5.95-17.52h2.73l5.98,17.52h-2.42l-1.87-5.51h-6.21Zm5.75-1.77l-1.72-5.04c-.39-1.14-.65-2.18-.91-3.2h-.05c-.26,1.04-.55,2.11-.88,3.17l-1.72,5.07h5.28Z"/><path class="cls-4" d="M608,337.54c1.14-.23,2.78-.36,4.34-.36,2.42,0,3.98,.44,5.07,1.43,.88,.78,1.38,1.98,1.38,3.33,0,2.31-1.46,3.85-3.3,4.47v.08c1.35,.47,2.16,1.72,2.57,3.54,.57,2.44,.99,4.13,1.35,4.81h-2.34c-.29-.49-.68-2-1.17-4.19-.52-2.42-1.46-3.33-3.51-3.41h-2.13v7.59h-2.26v-17.29Zm2.26,7.98h2.31c2.42,0,3.95-1.33,3.95-3.33,0-2.26-1.64-3.25-4.03-3.28-1.09,0-1.87,.1-2.24,.21v6.4Z"/><path class="cls-4" d="M636.76,347.14c-.13-2.44-.29-5.38-.26-7.57h-.08c-.6,2.05-1.33,4.24-2.21,6.66l-3.09,8.5h-1.72l-2.83-8.35c-.83-2.47-1.53-4.73-2.03-6.81h-.05c-.05,2.18-.18,5.12-.34,7.75l-.47,7.51h-2.16l1.22-17.52h2.89l2.99,8.48c.73,2.16,1.33,4.08,1.77,5.9h.08c.44-1.77,1.07-3.69,1.85-5.9l3.12-8.48h2.89l1.09,17.52h-2.21l-.44-7.7Z"/><path class="cls-4" d="M651.97,346.62h-6.81v6.32h7.59v1.9h-9.85v-17.52h9.46v1.9h-7.2v5.54h6.81v1.87Z"/><path class="cls-4" d="M655.69,354.83v-17.52h2.47l5.62,8.87c1.3,2.05,2.31,3.9,3.15,5.69l.05-.03c-.21-2.34-.26-4.47-.26-7.2v-7.33h2.13v17.52h-2.29l-5.56-8.89c-1.22-1.95-2.39-3.95-3.28-5.85l-.08,.03c.13,2.21,.18,4.32,.18,7.23v7.49h-2.13Z"/></g><g><path class="cls-9" d="M425.63,381.69c.74,.46,1.82,.84,2.96,.84,1.69,0,2.68-.89,2.68-2.18,0-1.2-.68-1.88-2.41-2.55-2.09-.74-3.38-1.82-3.38-3.63,0-2,1.65-3.48,4.14-3.48,1.31,0,2.26,.3,2.83,.63l-.46,1.35c-.42-.23-1.27-.61-2.43-.61-1.75,0-2.41,1.04-2.41,1.92,0,1.2,.78,1.79,2.55,2.47,2.17,.84,3.27,1.88,3.27,3.76,0,1.98-1.46,3.69-4.48,3.69-1.23,0-2.58-.36-3.27-.82l.42-1.39Z"/><path class="cls-9" d="M441.83,383.36c-.44,.23-1.41,.53-2.64,.53-2.77,0-4.58-1.88-4.58-4.69s1.94-4.88,4.94-4.88c.99,0,1.86,.25,2.32,.47l-.38,1.29c-.4-.23-1.03-.44-1.94-.44-2.11,0-3.25,1.56-3.25,3.48,0,2.13,1.37,3.44,3.19,3.44,.95,0,1.58-.25,2.05-.46l.29,1.25Z"/><path class="cls-9" d="M452,379.03c0,3.4-2.36,4.88-4.58,4.88-2.49,0-4.41-1.82-4.41-4.73,0-3.08,2.01-4.88,4.56-4.88s4.43,1.92,4.43,4.73Zm-7.29,.09c0,2.01,1.16,3.53,2.79,3.53s2.79-1.5,2.79-3.57c0-1.56-.78-3.53-2.75-3.53s-2.83,1.82-2.83,3.57Z"/><path class="cls-9" d="M454.11,377.38c0-1.08-.02-2.01-.08-2.87h1.46l.06,1.8h.08c.42-1.24,1.42-2.01,2.55-2.01,.19,0,.32,.02,.48,.06v1.58c-.17-.04-.34-.06-.57-.06-1.18,0-2.01,.89-2.24,2.15-.04,.23-.08,.49-.08,.78v4.9h-1.65v-6.33Z"/><path class="cls-9" d="M464.35,377c0-.95-.02-1.73-.08-2.49h1.46l.08,1.48h.06c.51-.87,1.37-1.69,2.89-1.69,1.25,0,2.2,.76,2.6,1.84h.04c.29-.51,.65-.91,1.03-1.2,.55-.42,1.16-.65,2.03-.65,1.22,0,3.02,.8,3.02,3.99v5.41h-1.63v-5.21c0-1.77-.65-2.83-1.99-2.83-.95,0-1.69,.7-1.98,1.52-.08,.23-.13,.53-.13,.84v5.68h-1.63v-5.51c0-1.46-.65-2.53-1.92-2.53-1.04,0-1.8,.84-2.07,1.67-.09,.25-.13,.53-.13,.82v5.55h-1.63v-6.71Z"/><path class="cls-9" d="M482.06,371.93c.02,.57-.4,1.03-1.06,1.03-.59,0-1.01-.46-1.01-1.03s.44-1.04,1.04-1.04,1.03,.46,1.03,1.04Zm-1.86,11.78v-9.19h1.67v9.19h-1.67Z"/><path class="cls-9" d="M484.64,377c0-.95-.02-1.73-.08-2.49h1.48l.1,1.52h.04c.46-.87,1.52-1.73,3.04-1.73,1.27,0,3.25,.76,3.25,3.91v5.49h-1.67v-5.3c0-1.48-.55-2.72-2.13-2.72-1.1,0-1.96,.78-2.24,1.71-.08,.21-.11,.49-.11,.78v5.53h-1.67v-6.71Z"/><path class="cls-9" d="M503.13,370.22v11.11c0,.82,.02,1.75,.08,2.38h-1.5l-.08-1.6h-.04c-.51,1.03-1.63,1.8-3.13,1.8-2.22,0-3.93-1.88-3.93-4.67-.02-3.06,1.88-4.94,4.12-4.94,1.41,0,2.36,.67,2.77,1.41h.04v-5.49h1.67Zm-1.67,8.04c0-.21-.02-.49-.08-.7-.25-1.06-1.16-1.94-2.41-1.94-1.73,0-2.75,1.52-2.75,3.55,0,1.86,.91,3.4,2.72,3.4,1.12,0,2.15-.74,2.45-2,.06-.23,.08-.46,.08-.72v-1.6Z"/><path class="cls-9" d="M505.67,381.99c.49,.32,1.37,.67,2.2,.67,1.22,0,1.79-.61,1.79-1.37s-.48-1.23-1.71-1.69c-1.65-.59-2.43-1.5-2.43-2.6,0-1.48,1.2-2.7,3.17-2.7,.93,0,1.75,.27,2.26,.57l-.42,1.22c-.36-.23-1.03-.53-1.88-.53-.99,0-1.54,.57-1.54,1.25,0,.76,.55,1.1,1.75,1.56,1.6,.61,2.41,1.41,2.41,2.77,0,1.61-1.25,2.75-3.44,2.75-1.01,0-1.94-.25-2.58-.63l.42-1.27Z"/><path class="cls-9" d="M515.44,371.87v2.64h2.39v1.27h-2.39v4.96c0,1.14,.32,1.79,1.25,1.79,.44,0,.76-.06,.97-.11l.08,1.25c-.32,.13-.84,.23-1.48,.23-.78,0-1.41-.25-1.8-.7-.48-.49-.65-1.31-.65-2.39v-5.02h-1.42v-1.27h1.42v-2.2l1.63-.44Z"/><path class="cls-9" d="M530.58,372.76h-4.71l-.48,3.17c.29-.04,.55-.08,1.01-.08,.95,0,1.9,.21,2.66,.67,.97,.55,1.77,1.61,1.77,3.17,0,2.41-1.92,4.22-4.6,4.22-1.35,0-2.49-.38-3.08-.76l.42-1.27c.51,.3,1.52,.68,2.64,.68,1.58,0,2.93-1.03,2.93-2.68-.02-1.6-1.08-2.74-3.55-2.74-.7,0-1.25,.08-1.71,.13l.8-5.93h5.91v1.41Z"/><path class="cls-9" d="M537.52,377.51c0-1.18-.04-2.13-.08-3h1.5l.08,1.58h.04c.68-1.12,1.77-1.79,3.27-1.79,2.22,0,3.89,1.88,3.89,4.67,0,3.31-2.01,4.94-4.18,4.94-1.22,0-2.28-.53-2.83-1.44h-.04v5h-1.65v-9.96Zm1.65,2.45c0,.25,.04,.47,.08,.68,.3,1.16,1.31,1.96,2.51,1.96,1.77,0,2.79-1.44,2.79-3.55,0-1.84-.97-3.42-2.74-3.42-1.14,0-2.2,.82-2.53,2.07-.06,.21-.11,.46-.11,.68v1.58Z"/><path class="cls-9" d="M556.65,379.03c0,3.4-2.36,4.88-4.58,4.88-2.49,0-4.41-1.82-4.41-4.73,0-3.08,2.01-4.88,4.56-4.88s4.43,1.92,4.43,4.73Zm-7.29,.09c0,2.01,1.16,3.53,2.79,3.53s2.79-1.5,2.79-3.57c0-1.56-.78-3.53-2.75-3.53s-2.83,1.82-2.83,3.57Z"/><path class="cls-9" d="M560.62,371.93c.02,.57-.4,1.03-1.06,1.03-.59,0-1.01-.46-1.01-1.03s.44-1.04,1.04-1.04,1.03,.46,1.03,1.04Zm-1.86,11.78v-9.19h1.67v9.19h-1.67Z"/><path class="cls-9" d="M563.21,377c0-.95-.02-1.73-.08-2.49h1.48l.1,1.52h.04c.46-.87,1.52-1.73,3.04-1.73,1.27,0,3.25,.76,3.25,3.91v5.49h-1.67v-5.3c0-1.48-.55-2.72-2.13-2.72-1.1,0-1.96,.78-2.24,1.71-.08,.21-.11,.49-.11,.78v5.53h-1.67v-6.71Z"/><path class="cls-9" d="M575.69,371.87v2.64h2.39v1.27h-2.39v4.96c0,1.14,.32,1.79,1.25,1.79,.44,0,.76-.06,.97-.11l.08,1.25c-.32,.13-.84,.23-1.48,.23-.78,0-1.41-.25-1.8-.7-.48-.49-.65-1.31-.65-2.39v-5.02h-1.42v-1.27h1.42v-2.2l1.63-.44Z"/><path class="cls-9" d="M454.23,393.87c1.01-.15,2.2-.27,3.51-.27,2.37,0,4.06,.55,5.19,1.6,1.14,1.04,1.8,2.53,1.8,4.6s-.65,3.8-1.84,4.98c-1.2,1.2-3.17,1.84-5.66,1.84-1.18,0-2.17-.06-3-.15v-12.59Zm1.65,11.32c.42,.08,1.03,.09,1.67,.09,3.53,0,5.45-1.98,5.45-5.43,.02-3.02-1.69-4.94-5.19-4.94-.85,0-1.5,.08-1.94,.17v10.11Z"/><path class="cls-9" d="M474.58,404c0,.95,.02,1.79,.08,2.51h-1.48l-.09-1.5h-.04c-.44,.74-1.41,1.71-3.04,1.71-1.44,0-3.17-.8-3.17-4.03v-5.38h1.67v5.09c0,1.75,.53,2.93,2.05,2.93,1.12,0,1.9-.78,2.2-1.52,.1-.25,.15-.55,.15-.86v-5.64h1.67v6.69Z"/><path class="cls-9" d="M481.38,393.02h1.67v5.74h.04c.27-.47,.68-.89,1.2-1.18,.49-.29,1.08-.47,1.71-.47,1.23,0,3.21,.76,3.21,3.93v5.47h-1.67v-5.28c0-1.48-.55-2.74-2.13-2.74-1.08,0-1.94,.76-2.24,1.67-.09,.23-.11,.47-.11,.8v5.55h-1.67v-13.49Z"/><path class="cls-9" d="M497.02,406.5l-.13-1.16h-.06c-.51,.72-1.5,1.37-2.81,1.37-1.86,0-2.81-1.31-2.81-2.64,0-2.22,1.98-3.44,5.53-3.42v-.19c0-.76-.21-2.13-2.09-2.13-.85,0-1.75,.27-2.39,.68l-.38-1.1c.76-.49,1.86-.82,3.02-.82,2.81,0,3.5,1.92,3.5,3.76v3.44c0,.8,.04,1.58,.15,2.2h-1.52Zm-.25-4.69c-1.82-.04-3.89,.29-3.89,2.07,0,1.08,.72,1.6,1.58,1.6,1.2,0,1.96-.76,2.22-1.54,.06-.17,.09-.36,.09-.53v-1.6Z"/><path class="cls-9" d="M501.09,400.18c0-1.08-.02-2.01-.08-2.87h1.46l.06,1.8h.08c.42-1.24,1.42-2.01,2.55-2.01,.19,0,.32,.02,.48,.06v1.58c-.17-.04-.34-.06-.57-.06-1.18,0-2.01,.89-2.24,2.15-.04,.23-.08,.49-.08,.78v4.9h-1.65v-6.33Z"/><path class="cls-9" d="M511.19,404.58c.47,.3,1.58,.78,2.74,.78,2.15,0,2.81-1.37,2.79-2.39-.02-1.73-1.58-2.47-3.19-2.47h-.93v-1.25h.93c1.22,0,2.75-.63,2.75-2.09,0-.99-.63-1.86-2.17-1.86-.99,0-1.94,.44-2.47,.82l-.44-1.22c.65-.47,1.9-.95,3.23-.95,2.43,0,3.53,1.44,3.53,2.95,0,1.27-.76,2.36-2.28,2.91v.04c1.52,.3,2.75,1.44,2.75,3.17,0,1.98-1.54,3.7-4.5,3.7-1.39,0-2.6-.44-3.21-.84l.46-1.29Z"/><path class="cls-9" d="M525.1,393.02h1.67v13.49h-1.67v-13.49Z"/><path class="cls-9" d="M531.45,394.73c.02,.57-.4,1.03-1.06,1.03-.59,0-1.01-.46-1.01-1.03s.44-1.04,1.04-1.04,1.03,.46,1.03,1.04Zm-1.86,11.78v-9.19h1.67v9.19h-1.67Z"/><path class="cls-9" d="M534.68,397.31l1.8,5.17c.3,.84,.55,1.6,.74,2.36h.06c.21-.76,.48-1.52,.78-2.36l1.79-5.17h1.75l-3.61,9.19h-1.6l-3.5-9.19h1.79Z"/><path class="cls-9" d="M543.23,398.83c0-.7,.48-1.2,1.14-1.2s1.1,.49,1.12,1.2c0,.67-.44,1.18-1.14,1.18-.67,0-1.12-.51-1.12-1.18Zm0,6.71c0-.7,.48-1.2,1.14-1.2s1.1,.49,1.12,1.2c0,.67-.44,1.18-1.14,1.18-.67,0-1.12-.51-1.12-1.18Z"/><path class="cls-9" d="M451.45,422.77c0,4.41-2.68,6.74-5.95,6.74s-5.76-2.62-5.76-6.5c0-4.07,2.53-6.72,5.95-6.72s5.76,2.68,5.76,6.48Zm-9.94,.21c0,2.74,1.48,5.19,4.08,5.19s4.1-2.41,4.1-5.32c0-2.55-1.33-5.21-4.08-5.21s-4.1,2.53-4.1,5.34Z"/><path class="cls-9" d="M461.58,420.11c-.04,.67-.08,1.41-.08,2.53v5.34c0,2.11-.42,3.4-1.31,4.2-.89,.84-2.18,1.1-3.34,1.1s-2.32-.27-3.06-.76l.42-1.27c.61,.38,1.56,.72,2.7,.72,1.71,0,2.96-.89,2.96-3.21v-1.03h-.04c-.51,.86-1.5,1.54-2.93,1.54-2.28,0-3.91-1.94-3.91-4.48,0-3.12,2.03-4.88,4.14-4.88,1.6,0,2.47,.84,2.87,1.6h.04l.08-1.39h1.46Zm-1.73,3.63c0-.29-.02-.53-.1-.76-.3-.97-1.12-1.77-2.34-1.77-1.6,0-2.74,1.35-2.74,3.48,0,1.8,.91,3.31,2.72,3.31,1.03,0,1.96-.65,2.32-1.71,.1-.29,.13-.61,.13-.89v-1.65Z"/><path class="cls-9" d="M467.77,429.3v-1.03l1.31-1.27c3.15-3,4.58-4.6,4.6-6.46,0-1.25-.61-2.41-2.45-2.41-1.12,0-2.05,.57-2.62,1.04l-.53-1.18c.85-.72,2.07-1.25,3.5-1.25,2.66,0,3.78,1.82,3.78,3.59,0,2.28-1.65,4.12-4.26,6.63l-.99,.91v.04h5.55v1.39h-7.88Z"/><path class="cls-9" d="M485.72,423c0,4.2-1.56,6.52-4.29,6.52-2.41,0-4.05-2.26-4.08-6.34,0-4.14,1.79-6.42,4.29-6.42s4.08,2.32,4.08,6.25Zm-6.71,.19c0,3.21,.99,5.03,2.51,5.03,1.71,0,2.53-1.99,2.53-5.15s-.78-5.03-2.51-5.03c-1.46,0-2.53,1.79-2.53,5.15Z"/><path class="cls-9" d="M491.59,427.59c.49,.32,1.37,.67,2.2,.67,1.22,0,1.79-.61,1.79-1.37s-.48-1.23-1.71-1.69c-1.65-.59-2.43-1.5-2.43-2.6,0-1.48,1.2-2.7,3.17-2.7,.93,0,1.75,.27,2.26,.57l-.42,1.22c-.36-.23-1.03-.53-1.88-.53-.99,0-1.54,.57-1.54,1.25,0,.76,.55,1.1,1.75,1.56,1.6,.61,2.41,1.41,2.41,2.77,0,1.61-1.25,2.75-3.44,2.75-1.01,0-1.94-.25-2.58-.63l.42-1.27Z"/><path class="cls-9" d="M500.28,425.01c.04,2.26,1.48,3.19,3.15,3.19,1.2,0,1.92-.21,2.55-.48l.29,1.2c-.59,.27-1.6,.57-3.06,.57-2.83,0-4.52-1.86-4.52-4.64s1.63-4.96,4.31-4.96c3,0,3.8,2.64,3.8,4.33,0,.34-.04,.61-.06,.78h-6.46Zm4.9-1.2c.02-1.06-.44-2.72-2.32-2.72-1.69,0-2.43,1.56-2.56,2.72h4.88Z"/><path class="cls-9" d="M510.52,424.33h.04c.23-.32,.55-.72,.82-1.04l2.7-3.17h2.01l-3.55,3.78,4.05,5.41h-2.03l-3.17-4.41-.85,.95v3.46h-1.65v-13.49h1.65v8.51Z"/><path class="cls-9" d="M525.55,426.8c0,.95,.02,1.79,.08,2.51h-1.48l-.09-1.5h-.04c-.44,.74-1.41,1.71-3.04,1.71-1.44,0-3.17-.8-3.17-4.03v-5.38h1.67v5.09c0,1.75,.53,2.93,2.05,2.93,1.12,0,1.9-.78,2.2-1.52,.1-.25,.15-.55,.15-.86v-5.64h1.67v6.69Z"/><path class="cls-9" d="M528.32,422.6c0-.95-.02-1.73-.08-2.49h1.48l.1,1.52h.04c.46-.87,1.52-1.73,3.04-1.73,1.27,0,3.25,.76,3.25,3.91v5.49h-1.67v-5.3c0-1.48-.55-2.72-2.13-2.72-1.1,0-1.96,.78-2.24,1.71-.08,.21-.11,.49-.11,.78v5.53h-1.67v-6.71Z"/><path class="cls-9" d="M546.81,415.82v11.11c0,.82,.02,1.75,.08,2.38h-1.5l-.08-1.6h-.04c-.51,1.03-1.63,1.8-3.13,1.8-2.22,0-3.93-1.88-3.93-4.67-.02-3.06,1.88-4.94,4.12-4.94,1.41,0,2.36,.67,2.77,1.41h.04v-5.49h1.67Zm-1.67,8.04c0-.21-.02-.49-.08-.7-.25-1.06-1.16-1.94-2.41-1.94-1.73,0-2.75,1.52-2.75,3.55,0,1.86,.91,3.4,2.72,3.4,1.12,0,2.15-.74,2.45-2,.06-.23,.08-.46,.08-.72v-1.6Z"/><path class="cls-9" d="M550.51,425.01c.04,2.26,1.48,3.19,3.15,3.19,1.2,0,1.92-.21,2.55-.48l.29,1.2c-.59,.27-1.6,.57-3.06,.57-2.83,0-4.52-1.86-4.52-4.64s1.63-4.96,4.31-4.96c3,0,3.8,2.64,3.8,4.33,0,.34-.04,.61-.06,.78h-6.46Zm4.9-1.2c.02-1.06-.44-2.72-2.32-2.72-1.69,0-2.43,1.56-2.56,2.72h4.88Z"/><path class="cls-9" d="M559.1,422.98c0-1.08-.02-2.01-.08-2.87h1.46l.06,1.8h.08c.42-1.24,1.42-2.01,2.55-2.01,.19,0,.32,.02,.48,.06v1.58c-.17-.04-.34-.06-.57-.06-1.18,0-2.01,.89-2.24,2.15-.04,.23-.08,.49-.08,.78v4.9h-1.65v-6.33Z"/></g><path class="cls-8" d="M563.65,413.44s9.09-6.45,11.54-11.09l.54-1.04c.58-1.34,.82-2.9,.53-4.54-.55-3.13-2.98-5.58-5.93-5.96-2.79-.37-5.3,1.06-6.68,3.34-1.38-2.28-3.89-3.71-6.68-3.34-2.95,.39-5.38,2.83-5.93,5.96-.29,1.64-.06,3.2,.53,4.54l.54,1.04c2.45,4.64,11.54,11.09,11.54,11.09h.02Z"/></svg>