<?xml version="1.0" encoding="UTF-8"?><svg id="Layer_1" xmlns="http://www.w3.org/2000/svg" width="961.61" height="605.5" viewBox="0 0 961.61 605.5"><defs><style>.cls-1{fill:#fff;}.cls-2{fill:#a0d2e9;}.cls-3{fill:#add589;}.cls-4{fill:none;stroke:#231f20;stroke-miterlimit:10;}.cls-5{opacity:.2;}.cls-6,.cls-7,.cls-8,.cls-9,.cls-10{opacity:.8;}.cls-11{opacity:.6;}.cls-11,.cls-10{fill:#e9e61b;}.cls-7{fill:#35b44a;}.cls-8{fill:#17753b;}.cls-9{fill:#b1d235;}</style></defs><rect class="cls-2" x="-5.52" width="977.16" height="605.5"/><ellipse class="cls-11" cx="168.54" cy="195.91" rx="154.32" ry="146.67"/><g class="cls-5"><ellipse class="cls-10" cx="172.94" cy="211.94" rx="208.31" ry="194.52"/></g><g class="cls-5"><ellipse class="cls-10" cx="172.94" cy="195.91" rx="233.96" ry="195.58"/></g><g class="cls-5"><ellipse class="cls-10" cx="172.94" cy="211.94" rx="190.51" ry="182.18"/></g><path class="cls-3" d="M-47.4,374.62c37.7-78.57,150.58-93.03,274.67-108.92,150.2-19.24,160.15,9.84,296.77-14.21,98.04-17.25,116.96-36.46,221-47.36,100.23-10.5,175.22-18.36,216.56,25.26,45.34,47.84,35.07,141.62,7.6,203.64-99.43,224.47-512.18,231.5-704.05,209.95-101.22-11.37-259.71-31.25-309.4-138.92-2.8-6.06-31.42-70.53-3.16-129.44Z"/><path class="cls-9" d="M14.85,461.15c68.1-16.75,124.63-24.47,164.13-28.41,80.81-8.07,127.55-4.08,221-20.52,77.69-13.67,101.07-26.22,118.39-39.46,49.41-37.77,31.82-82.72,71.04-116.81,54.71-47.57,149.16-21.58,198.9-7.89,58.11,15.99,188.6,51.9,208.37,151.54,17.41,87.72-63.16,163.43-72.61,172.07-52.94,48.35-117.24,56.52-145.23,59.99-490.11,60.66-735.17,90.99-782.98-1.58-14.46-28-24.46-78.08,18.98-168.91Z"/><path class="cls-8" d="M80.47,615.85c2.89-17.97,127.53,11.84,211.53-66.3,34.87-32.43,22.6-46.13,55.25-69.46,55.89-39.92,101.48-6.69,227.32-34.73,59.61-13.28,83.55-28.36,97.87-39.46,38.79-30.09,32.87-51.17,63.14-80.51,62.42-60.5,188.73-68.86,259.18-12.63,5.73,4.57,17.02,14.31,28.12,29.99,59.77,84.48,44.52,243.35-26.84,328.34-91.68,109.21-268.04,86.96-531.98,53.67-233.31-29.43-386.84-88.75-383.6-108.92Z"/><path class="cls-7" d="M952.77,397.31c-45.73-28.34-136.61-3.01-177.1,50.51-18.11,23.94-8.72,30.5-23.68,50.51-44.39,59.4-150.78,33.26-315.72,59.99-15.24,2.47-51.16,8.71-83.66,34.73-28.65,22.93-40.32,49.76-42.62,55.25-5.72,13.68-10.21,31.03-9.47,38.58,6.42,66.12,492.36,204.28,645.64,0,68.2-90.9,70.72-249.84,6.61-289.58Z"/><g class="cls-6"><ellipse class="cls-1" cx="217.58" cy="143.21" rx="20.83" ry="17.96"/><ellipse class="cls-1" cx="263.28" cy="158.48" rx="49.74" ry="19.39"/><ellipse class="cls-1" cx="313.01" cy="133.2" rx="44.39" ry="27.97"/><ellipse class="cls-1" cx="263.28" cy="129.68" rx="52.02" ry="33.15" transform="translate(-29.47 108.92) rotate(-22.17)"/></g><g class="cls-6"><ellipse class="cls-1" cx="904.82" cy="92.6" rx="26.6" ry="22.6"/><ellipse class="cls-1" cx="846.46" cy="111.82" rx="63.52" ry="24.39"/><ellipse class="cls-1" cx="782.94" cy="80.01" rx="56.68" ry="35.18"/><ellipse class="cls-1" cx="846.46" cy="75.59" rx="41.78" ry="66.29" transform="translate(466.4 835.7) rotate(-68.54)"/></g><line class="cls-4" x1="614.46" y1="40.61" x2="614.4" y2="40.61"/></svg>