<?xml version="1.0" encoding="UTF-8"?><svg id="Layer_1" xmlns="http://www.w3.org/2000/svg" width="1362.72" height="301.06" viewBox="0 0 1362.72 301.06"><defs><style>.cls-1{fill:#ee3224;}.cls-2{fill:#231f20;}</style></defs><rect class="cls-1" x="257.87" y="35.39" width="856.38" height="196.07" rx="72.78" ry="72.78"/><g><path class="cls-2" d="M519.93,96.55v7.81c-2.34-1.5-4.68-2.63-7.03-3.39s-4.72-1.14-7.1-1.14c-3.63,0-6.5,.84-8.61,2.53s-3.16,3.97-3.16,6.84c0,2.51,.69,4.43,2.08,5.75,1.38,1.32,3.97,2.42,7.75,3.31l4.04,.91c5.33,1.24,9.22,3.2,11.65,5.87s3.66,6.3,3.66,10.89c0,5.41-1.68,9.53-5.03,12.38s-8.23,4.27-14.62,4.27c-2.67,0-5.34-.29-8.04-.86-2.69-.57-5.4-1.43-8.11-2.57v-8.19c2.92,1.85,5.68,3.21,8.28,4.08s5.22,1.29,7.87,1.29c3.88,0,6.91-.87,9.06-2.61s3.24-4.17,3.24-7.29c0-2.84-.74-5.01-2.23-6.51-1.49-1.5-4.07-2.65-7.75-3.47l-4.11-.95c-5.28-1.19-9.12-3-11.5-5.41s-3.58-5.65-3.58-9.71c0-5.08,1.71-9.15,5.12-12.21s7.95-4.59,13.62-4.59c2.18,0,4.48,.25,6.89,.74,2.41,.5,4.95,1.24,7.62,2.23Z"/><path class="cls-2" d="M542.62,146.1v21.59h-7.05v-58.88h7.05v5.45c1.17-2.11,2.72-3.71,4.67-4.82,1.94-1.11,4.18-1.66,6.72-1.66,5.15,0,9.2,1.99,12.13,5.98,2.93,3.99,4.4,9.51,4.4,16.57s-1.47,12.37-4.42,16.32c-2.95,3.95-6.98,5.92-12.11,5.92-2.59,0-4.86-.55-6.8-1.66-1.94-1.1-3.47-2.71-4.59-4.82Zm20.57-15.92c0-5.43-.86-9.53-2.57-12.3-1.71-2.77-4.26-4.15-7.64-4.15s-5.98,1.39-7.73,4.17c-1.75,2.78-2.63,6.87-2.63,12.28s.88,9.47,2.63,12.26,4.33,4.19,7.73,4.19,5.92-1.38,7.64-4.15c1.71-2.77,2.57-6.87,2.57-12.3Z"/><path class="cls-2" d="M587.34,108.97h17.94v37.06h13.9v5.45h-34.81v-5.45h13.9v-31.61h-10.93v-5.45Zm10.93-16.57h7.01v8.84h-7.01v-8.84Z"/><path class="cls-2" d="M649.65,136.05c0,3.15,.58,5.52,1.73,7.12,1.15,1.6,2.86,2.4,5.12,2.4h8.19v5.9h-8.87c-4.19,0-7.43-1.34-9.73-4.02s-3.45-6.48-3.45-11.41v-38.58h-11.24v-5.48h18.24v44.07Z"/><path class="cls-2" d="M728.22,108.97h17.94v37.06h13.9v5.45h-34.81v-5.45h13.9v-31.61h-10.93v-5.45Zm10.93-16.57h7.01v8.84h-7.01v-8.84Z"/><path class="cls-2" d="M802.83,148.73c0,6.4-1.51,11.25-4.53,14.55s-7.46,4.95-13.33,4.95c-1.93,0-3.95-.18-6.06-.53s-4.21-.88-6.32-1.56v-6.93c2.49,1.17,4.75,2.03,6.78,2.59s3.9,.84,5.6,.84c3.78,0,6.54-1.03,8.26-3.08s2.59-5.32,2.59-9.79v-5.07c-1.12,2.39-2.64,4.16-4.57,5.33s-4.28,1.75-7.05,1.75c-4.98,0-8.95-1.99-11.92-5.98s-4.46-9.32-4.46-16,1.49-12.05,4.46-16.03,6.94-5.98,11.92-5.98c2.74,0,5.07,.55,6.97,1.64s3.45,2.78,4.65,5.07v-5.52h7.01v39.76Zm-7.01-18.93c0-5.26-.86-9.25-2.57-11.98-1.71-2.73-4.21-4.09-7.48-4.09s-6.04,1.37-7.85,4.09-2.7,6.72-2.7,11.98,.91,9.26,2.72,12.02c1.81,2.75,4.45,4.13,7.9,4.13,3.22,0,5.69-1.38,7.41-4.15,1.71-2.77,2.57-6.77,2.57-12Z"/><path class="cls-2" d="M852.76,126.64v3.43h-30.35v.23c-.2,5.81,.91,9.99,3.33,12.53,2.42,2.54,5.85,3.81,10.26,3.81,2.23,0,4.57-.36,7.01-1.07s5.04-1.79,7.81-3.24v6.97c-2.67,1.09-5.24,1.91-7.71,2.46-2.48,.55-4.87,.82-7.18,.82-6.63,0-11.81-1.99-15.54-5.96s-5.6-9.45-5.6-16.43,1.83-12.24,5.48-16.3,8.53-6.09,14.62-6.09c5.43,0,9.72,1.84,12.85,5.52,3.13,3.68,4.8,8.12,5.01,13.33Zm-7.01-2.06c-.3-2.95-1.38-5.49-3.22-7.64-1.84-2.14-4.49-3.22-7.94-3.22s-6.16,1.12-8.34,3.35-3.38,4.75-3.58,7.54l23.08-.04Z"/><path class="cls-2" d="M897.09,125.04v26.43h-7.05v-26.43c0-3.83-.67-6.65-2.02-8.46s-3.45-2.7-6.32-2.7c-3.28,0-5.8,1.16-7.56,3.49-1.77,2.32-2.65,5.66-2.65,10v24.11h-7.01v-42.66h7.01v6.4c1.24-2.44,2.93-4.29,5.07-5.54,2.13-1.26,4.66-1.89,7.58-1.89,4.34,0,7.58,1.43,9.73,4.28,2.14,2.86,3.22,7.18,3.22,12.97Z"/></g></svg>