<?xml version="1.0" encoding="UTF-8"?><svg id="Layer_1" xmlns="http://www.w3.org/2000/svg" width="996.62" height="605.5" viewBox="0 0 996.62 605.5"><defs><style>.cls-1{fill:#f9a560;}.cls-2{fill:#e88734;}.cls-3{fill:#fee1c9;}.cls-4{fill:#fff;}.cls-5{fill:#f1f2f2;}.cls-6,.cls-7{fill:#925a26;}.cls-8{fill:#944520;}.cls-9{fill:#a0d2e9;}.cls-10{fill:#add589;}.cls-11{fill:#231f20;}.cls-12{fill:#3e3e3f;}.cls-13{fill:#1a170c;}.cls-14{fill:#6d6e71;stroke-width:.5px;}.cls-14,.cls-7,.cls-15{stroke:#231f20;stroke-miterlimit:10;}.cls-15{fill:none;}.cls-16{opacity:.2;}.cls-17,.cls-18,.cls-19{opacity:.9;}.cls-20,.cls-21,.cls-22{opacity:.8;}.cls-23{opacity:.6;}.cls-23,.cls-22{fill:#e9e61b;}.cls-18{fill:#35b44a;}.cls-19{fill:#17753b;}.cls-21{fill:#b1d235;}</style></defs><g><ellipse class="cls-2" cx="704.15" cy="413.61" rx="31.77" ry="29.97"/><ellipse class="cls-3" cx="699.73" cy="422.27" rx="7.74" ry="8.13"/><path class="cls-2" d="M677.98,406.96c3.64,.71,8.06-5.91,9.03-11.93,.72-4.47-.07-11.09-3.15-12.24-3.48-1.31-9.49,4.49-10.63,11.05-.96,5.51,1.37,12.46,4.76,13.12Z"/><path class="cls-8" d="M678.25,405.36c3.86-3.72,4.18-6.04,7.69-10.67,2.34-3.09-.01-9.87-2.62-10.89-2.94-1.15-8.05,4.05-9.05,9.9-.83,4.92,1.77,13.79,3.97,11.66Z"/><path class="cls-2" d="M729.91,382.95c-3.84,.44-6.57,8.65-5.99,15.13,.43,4.82,2.92,11.34,6.31,11.54,3.83,.22,8.38-7.65,7.83-14.75-.46-5.96-4.58-12.33-8.15-11.93Z"/><path class="cls-8" d="M730.41,384c-3.11,.35-7.27,7.92-4.8,12.62,2.19,4.16,3.08,9.99,5.17,9.68,4.02-.61,6.76-6.35,6.3-12.29-.39-4.98-3.76-10.33-6.66-10.01Z"/><ellipse class="cls-13" cx="716.77" cy="407.58" rx="3.6" ry="4.04"/><ellipse class="cls-13" cx="691.99" cy="407.58" rx="3.6" ry="4.04"/><path class="cls-1" d="M716.02,397.97c.89,.13,2.01,.35,3.26,.78,3.63,1.25,6.88,3.75,6.56,4.43-.51,1.07-7.86-1.91-9.89-1.61-.11,.02-2.28-.76-2.55-1.11-.26-.34-.35-1.12,.02-1.84,.4-.8,2.01-.98,2.61-.66"/><path class="cls-1" d="M692.77,398.57c-.89,.13-1.14,.21-2.38,.64-3.63,1.25-6.88,3.75-6.56,4.43,.51,1.07,9.59-2.77,11.63-2.47,.11,.02,.55,.1,.82-.25,.26-.34,.35-1.12-.02-1.84-.4-.8-1.24-1.31-1.84-.99"/><line class="cls-15" x1="700.19" y1="413.61" x2="700.09" y2="413.61"/><ellipse class="cls-3" cx="709.78" cy="422.27" rx="7.74" ry="8.13"/><path class="cls-3" d="M708.21,418.53v25.06c.51,0,1.01,.02,1.5,.04,.88-.19,1.77-.3,2.66-.34,1.05-.36,2.1-.78,3.13-1.04,.51-.13,1.07-.26,1.64-.34,.58-.24,1.15-.51,1.72-.8,2.23-1.14,4.36-2.6,6.36-4.22,.07-.12,.16-.24,.28-.34,1.62-1.31,3.15-2.77,4.49-4.44,1.16-1.44,2.04-3.05,2.96-4.69,.01-.02,.02-.04,.03-.06,.49-1.3,.94-2.62,1.4-3.93,.29-1.18,.56-2.37,.82-3.56-7.45,2.46-17.11,4.19-26.99-1.34Z"/><ellipse class="cls-3" cx="721.68" cy="429.86" rx="2.17" ry="1.99"/><path class="cls-3" d="M699.99,418.53v25.06c-.51,0-1.01,.02-1.5,.04-.88-.19-1.77-.3-2.66-.34-1.05-.36-2.1-.78-3.13-1.04-.51-.13-1.07-.26-1.64-.34-.58-.24-1.15-.51-1.72-.8-2.23-1.14-4.36-2.6-6.36-4.22-.07-.12-.16-.24-.28-.34-1.62-1.31-3.15-2.77-4.49-4.44-1.16-1.44-2.04-3.05-2.96-4.69-.01-.02-.02-.04-.03-.06-.49-1.3-.94-2.62-1.4-3.93-.29-1.18-.56-2.37-.82-3.56,7.45,2.46,17.11,4.19,26.99-1.34Z"/><path class="cls-3" d="M708.09,443.82c3.61-1.47,6.13-4.81,6.13-8.68,0-5.24-4.6-9.49-10.27-9.49s-10.27,4.25-10.27,9.49c0,4.06,2.76,7.52,6.63,8.88,2.59-.11,5.18-.2,7.77-.19Z"/><ellipse class="cls-12" cx="704.15" cy="416.8" rx="3.78" ry="4.24"/><ellipse class="cls-4" cx="717.5" cy="405.69" rx=".74" ry=".82"/><ellipse class="cls-4" cx="692.95" cy="405.48" rx=".74" ry=".82"/><path class="cls-3" d="M693.27,431.61c2.39,1.47,5.07,2.99,7.98,2.77s5.07-2.01,6.95-4.2h-3.54c3.35,2.78,8.18,4.98,12.18,2.02,1.08-.8,1.63-2.17,.9-3.42-.63-1.07-2.33-1.7-3.42-.9-2.07,1.53-4.36,.22-6.12-1.24-.98-.81-2.59-1.1-3.54,0-1,1.17-2.1,2.71-3.78,2.76-1.86,.05-3.58-1.18-5.09-2.11-2.75-1.69-5.26,2.63-2.52,4.32h0Z"/><path class="cls-3" d="M686.13,434.29c3.22,0,3.22-5,0-5s-3.22,5,0,5h0Z"/><path class="cls-3" d="M694.88,429.5c1.76,1.27,4.24,1.45,6.28,.79s3.81-2.05,5.42-3.51c.97-.88,.96-2.65,0-3.54-1.04-.95-2.5-.94-3.54,0-.38,.34-.75,.68-1.15,1-.12,.1-.56,.39,.03-.01-.08,.06-.16,.12-.24,.18-.22,.16-.45,.32-.68,.46-.21,.13-.42,.25-.64,.37-.11,.06-.22,.11-.33,.16-.4,.19,.42-.15,.12-.05-.45,.15-.9,.28-1.37,.35l.66-.09c-.45,.05-.89,.06-1.33,0l.66,.09c-.33-.05-.64-.14-.96-.24-.18-.07-.08-.03,.29,.12-.08-.04-.16-.08-.24-.12-.16-.09-.31-.19-.46-.3-.5-.36-1.36-.41-1.93-.25s-1.21,.61-1.49,1.15c-.68,1.29-.24,2.6,.9,3.42h0Z"/><path class="cls-3" d="M702.62,426.19c1.14,1.75,2.72,3.28,4.63,4.17,.92,.43,1.87,.79,2.88,.94,1.26,.19,2.37,.18,3.63-.01,.58-.09,1.21-.67,1.49-1.15,.31-.54,.45-1.33,.25-1.93s-.57-1.19-1.15-1.49c-.63-.33-1.22-.36-1.93-.25-.08,.01-.16,.02-.24,.03l.66-.09c-.67,.08-1.34,.08-2.01-.01l.66,.09c-.71-.1-1.4-.3-2.07-.58l.6,.25c-.37-.16-.73-.34-1.08-.55-.17-.11-.35-.22-.51-.33-.16-.11-.46-.4,.11,.1-.08-.07-.16-.13-.24-.2-.32-.27-.62-.56-.9-.87-.07-.08-.14-.16-.21-.24s-.31-.39-.04-.04,.03,.03-.03-.05c-.07-.1-.14-.21-.21-.32-.71-1.09-2.25-1.65-3.42-.9-1.09,.7-1.66,2.25-.9,3.42h0Z"/><path class="cls-11" d="M701.72,424.08c-.1,.16-.21,.31-.33,.47l.39-.51c-.32,.42-.69,.79-1.11,1.12l.51-.39c-.4,.3-.82,.56-1.28,.75l.6-.25c-.07,.03-.14,.06-.21,.08-.33,.08-.61,.23-.85,.45-.27,.18-.49,.41-.64,.7-.18,.29-.28,.6-.3,.93-.07,.33-.06,.66,.04,1,.2,.6,.57,1.19,1.15,1.49l.6,.25c.44,.12,.89,.12,1.33,0,.49-.18,.99-.39,1.45-.65s.87-.59,1.27-.92c.26-.21,.5-.44,.72-.69,.36-.41,.69-.84,.99-1.3,.18-.29,.28-.6,.3-.93,.07-.33,.06-.66-.04-1-.08-.33-.23-.61-.45-.85-.18-.27-.41-.49-.7-.64-.58-.31-1.28-.46-1.93-.25l-.6,.25c-.38,.22-.67,.52-.9,.9h0Z"/><path class="cls-11" d="M701.69,425.81c.31,1.08,.86,2.03,1.61,2.86,.35,.39,.79,.72,1.22,1.02s.96,.52,1.46,.7c.33,.1,.66,.12,1,.04,.33-.02,.64-.11,.93-.3,.29-.16,.53-.37,.7-.64,.22-.24,.37-.52,.45-.85l.09-.66c0-.45-.12-.87-.34-1.26l-.39-.51c-.31-.31-.68-.52-1.1-.64-.06-.02-.13-.05-.19-.07l.6,.25c-.3-.13-.58-.3-.84-.49l.51,.39c-.27-.22-.52-.46-.74-.74l.39,.51c-.24-.31-.43-.64-.59-1l.25,.6c-.07-.18-.14-.35-.19-.54-.18-.61-.6-1.17-1.15-1.49-.29-.18-.6-.28-.93-.3-.33-.07-.66-.06-1,.04-.6,.2-1.19,.57-1.49,1.15s-.44,1.27-.25,1.93h0Z"/></g><rect class="cls-9" x="-11.25" y="-5.08" width="1007.88" height="610.58"/><g class="cls-16"><ellipse class="cls-22" cx="471.29" cy="217.73" rx="208.01" ry="172.9"/></g><g class="cls-16"><ellipse class="cls-22" cx="471.29" cy="213.04" rx="174.64" ry="149.99"/></g><g class="cls-16"><ellipse class="cls-22" cx="471.29" cy="217.73" rx="233.96" ry="195.58"/></g><ellipse class="cls-23" cx="471.29" cy="225.79" rx="154.32" ry="146.67"/><path class="cls-10" d="M17.98,230.73c11.85-6.83,21.46-6.67,83.66,1.04,77.42,9.6,116.14,14.4,143.88,20.85,74.66,17.37,68.27,26.45,100.09,26.07,56.18-.68,77.54-28.98,124.07-20.85,16.86,2.94,33.31,14.92,66.73,36.49,32.37,20.9,48.54,31.55,47.96,41.71-1.38,24.14-77.61,38.19-113.65,44.83-73.93,13.63-95.99,7.22-188.72,14.6-102.31,8.13-119.11,19.4-176.21,10.43-46.68-7.34-99.88-15.7-119.9-57.34-19.05-39.62-2.54-97.86,32.07-117.82Z"/><path class="cls-21" d="M0,309.61c14.58-17.99,54.64-18.6,134.75-19.81,36.81-.56,65.15,1.1,79.24,2.09,31.82,2.23,72.96,5.3,124.07,17.72,32.56,7.92,29.94,10.1,47.96,12.51,12.72,1.7,48.19,5.2,103.22-11.47,45.97-13.92,43.98-23.26,79.24-34.41,60.21-19.04,115.55-7.48,156.4,1.04,12.52,2.61,.34,.65,111.56,35.45,30.73,9.62,60.45,22.69,91.75,30.24,10.97,2.64,34.79,8.01,61.52,23.98,10.45,6.25,16.43,9.82,21.9,15.64,23.04,24.54,21.72,72.83,8.34,96.97-9.57,17.25-39.88,48.47-240.85,30.24-192.46-17.46-188.36-48.23-304.45-45.88-80.92,1.64-104.42,17.03-267.96,25.02-83.41,4.08-123.38,2.33-158.48-25.02C-2.76,424.2-27.2,343.17,0,309.61Z"/><g><ellipse class="cls-2" cx="280.49" cy="328.68" rx="33.76" ry="32.97"/><ellipse class="cls-3" cx="275.79" cy="338.19" rx="8.22" ry="8.94"/><path class="cls-2" d="M252.67,321.36c3.87,.78,8.56-6.5,9.59-13.12,.76-4.92-.08-12.19-3.35-13.46-3.7-1.44-10.09,4.94-11.3,12.16-1.02,6.06,1.46,13.7,5.06,14.43Z"/><path class="cls-8" d="M252.97,319.6c4.1-4.09,4.45-6.64,8.17-11.74,2.48-3.4-.02-10.86-2.78-11.97-3.12-1.26-8.56,4.45-9.61,10.89-.89,5.41,1.88,15.16,4.22,12.82Z"/><path class="cls-2" d="M307.87,294.96c-4.08,.48-6.98,9.52-6.37,16.64,.46,5.3,3.11,12.48,6.71,12.69,4.07,.24,8.9-8.41,8.32-16.22-.49-6.56-4.87-13.56-8.66-13.12Z"/><path class="cls-8" d="M308.4,296.11c-3.31,.38-7.72,8.71-5.1,13.88,2.32,4.58,3.27,10.99,5.49,10.64,4.27-.67,7.19-6.99,6.69-13.51-.42-5.48-4-11.36-7.08-11.01Z"/><ellipse class="cls-13" cx="293.9" cy="322.04" rx="3.83" ry="4.44"/><ellipse class="cls-13" cx="267.57" cy="322.04" rx="3.83" ry="4.44"/><path class="cls-1" d="M293.1,311.47c.94,.14,2.14,.39,3.46,.86,3.86,1.38,7.31,4.12,6.97,4.88-.54,1.18-8.36-2.1-10.51-1.77-.11,.02-2.43-.84-2.71-1.22-.28-.38-.37-1.23,.02-2.03,.43-.88,2.14-1.08,2.77-.73"/><path class="cls-1" d="M268.4,312.14c-.94,.14-1.21,.23-2.53,.7-3.86,1.38-7.31,4.12-6.97,4.88,.54,1.18,10.2-3.04,12.36-2.71,.11,.02,.59,.11,.87-.28,.28-.38,.37-1.23-.02-2.03-.43-.88-1.32-1.44-1.95-1.09"/><line class="cls-15" x1="276.28" y1="328.68" x2="276.18" y2="328.68"/><ellipse class="cls-3" cx="286.48" cy="338.19" rx="8.22" ry="8.94"/><path class="cls-3" d="M284.8,334.09v27.56c.54,0,1.08,.02,1.6,.05,.93-.21,1.88-.33,2.83-.37,1.12-.4,2.23-.86,3.32-1.15,.55-.14,1.14-.29,1.74-.38,.62-.27,1.23-.56,1.83-.88,2.37-1.26,4.64-2.86,6.76-4.65,.07-.14,.17-.26,.3-.37,1.73-1.44,3.35-3.05,4.77-4.88,1.23-1.58,2.17-3.36,3.14-5.15,.01-.02,.02-.05,.04-.07,.53-1.42,1-2.88,1.49-4.33,.31-1.3,.6-2.6,.88-3.91-7.92,2.71-18.19,4.61-28.68-1.48Z"/><ellipse class="cls-3" cx="299.12" cy="346.55" rx="2.3" ry="2.18"/><path class="cls-3" d="M276.07,334.09v27.56c-.54,0-1.08,.02-1.6,.05-.93-.21-1.88-.33-2.83-.37-1.12-.4-2.23-.86-3.32-1.15-.55-.14-1.14-.29-1.74-.38-.62-.27-1.23-.56-1.83-.88-2.37-1.26-4.64-2.86-6.76-4.65-.07-.14-.17-.26-.3-.37-1.73-1.44-3.35-3.05-4.77-4.88-1.23-1.58-2.17-3.36-3.14-5.15-.01-.02-.02-.05-.04-.07-.53-1.42-1-2.88-1.49-4.33-.31-1.3-.6-2.6-.88-3.91,7.92,2.71,18.19,4.61,28.68-1.48Z"/><path class="cls-3" d="M284.68,361.9c3.84-1.62,6.52-5.28,6.52-9.55,0-5.76-4.89-10.44-10.91-10.44s-10.91,4.67-10.91,10.44c0,4.46,2.93,8.27,7.05,9.76,2.75-.12,5.51-.22,8.26-.21Z"/><ellipse class="cls-12" cx="280.49" cy="332.18" rx="4.02" ry="4.66"/><ellipse class="cls-4" cx="294.68" cy="319.96" rx=".78" ry=".91"/><ellipse class="cls-4" cx="268.59" cy="319.73" rx=".78" ry=".91"/><path class="cls-3" d="M269.01,348.25c2.5,1.59,5.32,3.25,8.4,3.02s5.33-2.2,7.27-4.55h-3.54c3.46,2.97,8.59,5.38,12.75,2.18,1.07-.82,1.64-2.15,.9-3.42-.62-1.05-2.34-1.72-3.42-.9-2.29,1.76-4.77,.25-6.69-1.4-.95-.82-2.62-1.1-3.54,0-1.08,1.3-2.28,3.04-4.13,3.1-2.01,.07-3.88-1.32-5.49-2.35-2.72-1.73-5.23,2.59-2.52,4.32h0Z"/><path class="cls-3" d="M261.34,351.17c3.22,0,3.22-5,0-5s-3.22,5,0,5h0Z"/><path class="cls-3" d="M270.72,345.94c1.84,1.37,4.49,1.56,6.62,.83s3.96-2.21,5.62-3.77c.95-.9,.98-2.64,0-3.54s-2.52-.96-3.54,0c-.31,.29-.62,.58-.94,.86-.16,.14-.32,.28-.48,.41-.08,.07-.17,.13-.25,.2,.08-.08,.4-.3,.13-.1-.34,.24-.68,.48-1.03,.69-.18,.1-.36,.2-.54,.29-.09,.04-.2,.08-.28,.13,.15-.11,.49-.19,.11-.05s-.73,.21-1.11,.3c-.3,.07,.55-.04,.24-.03-.09,0-.19,.02-.28,.02-.19,0-.38,0-.57,0-.09,0-.44-.05-.02,0s.08,0-.02-.01c-.18-.04-.36-.11-.54-.15-.29-.07,.46,.23,.2,.09-.08-.05-.17-.08-.26-.13-.19-.11-.37-.23-.55-.36-.49-.36-1.37-.41-1.93-.25s-1.21,.61-1.49,1.15c-.31,.58-.46,1.28-.25,1.93s.6,1.08,1.15,1.49h0Z"/><path class="cls-3" d="M279,342.38c1.18,1.88,2.85,3.53,4.86,4.5,.95,.46,1.95,.84,2.99,1.01,1.31,.21,2.5,.2,3.81-.01,.58-.09,1.21-.66,1.49-1.15,.31-.54,.45-1.33,.25-1.93s-.57-1.19-1.15-1.49c-.63-.33-1.23-.37-1.93-.25-.08,.01-.16,.03-.25,.04l.66-.09c-.7,.09-1.41,.08-2.11,0l.66,.09c-.63-.09-1.22-.26-1.82-.47-.41-.14,.61,.28,.01,0-.12-.05-.23-.11-.34-.17-.29-.15-.56-.31-.83-.49-.13-.08-.25-.17-.37-.26-.35-.24,.5,.41,0-.01-.24-.2-.46-.41-.68-.63s-.42-.46-.62-.7c-.16-.2-.11-.14,.14,.18-.05-.07-.11-.15-.16-.22-.11-.15-.2-.3-.3-.46-.7-1.11-2.26-1.64-3.42-.9s-1.64,2.24-.9,3.42h0Z"/><path class="cls-11" d="M278.05,340.32c-.13,.22-.28,.43-.43,.63l.39-.51c-.35,.44-.74,.84-1.19,1.19l.51-.39c-.41,.31-.85,.57-1.32,.77l.6-.25c-.06,.02-.12,.05-.17,.07-.33,.08-.61,.23-.85,.45-.27,.18-.49,.41-.64,.7-.18,.29-.28,.6-.3,.93-.07,.33-.06,.66,.04,1,.2,.6,.57,1.19,1.15,1.49l.6,.25c.44,.12,.89,.12,1.33,0,.51-.2,1.02-.41,1.49-.69s.91-.63,1.33-.98c.28-.24,.53-.49,.77-.77,.37-.43,.72-.89,1.02-1.37,.18-.29,.28-.6,.3-.93,.07-.33,.06-.66-.04-1-.08-.33-.23-.61-.45-.85-.18-.27-.41-.49-.7-.64-.58-.31-1.28-.46-1.93-.25s-1.14,.58-1.49,1.15h0Z"/><path class="cls-11" d="M278.03,342.03c.32,1.15,.9,2.14,1.67,3.04,.37,.42,.82,.77,1.27,1.09s.98,.54,1.5,.74c.33,.1,.66,.12,1,.04,.33-.02,.64-.11,.93-.3,.29-.16,.53-.37,.7-.64,.22-.24,.37-.52,.45-.85,.15-.64,.11-1.36-.25-1.93l-.39-.51c-.31-.31-.68-.52-1.1-.64-.05-.02-.11-.04-.16-.06l.6,.25c-.31-.13-.6-.31-.87-.51l.51,.39c-.3-.24-.57-.51-.8-.81l.39,.51c-.26-.34-.47-.71-.64-1.1l.25,.6c-.09-.21-.16-.42-.22-.64-.17-.61-.6-1.18-1.15-1.49-.29-.18-.6-.28-.93-.3-.33-.07-.66-.06-1,.04-.6,.2-1.19,.57-1.49,1.15s-.44,1.27-.25,1.93h0Z"/></g><g><path class="cls-2" d="M512.42,367.94c6.5-12.3-54.24-38.45-65.89-29.14-.76,.61-1.08,1.13-1.04,1.61,.19,1.85,5.02,3,6.24,3.3,4.81,1.2,12.32,5.27,27.33,13.42,17.57,9.53,27.65,21.59,33.35,10.81Z"/><path class="cls-5" d="M454.98,344.62c6.27,.53,6.03,1.13,6.03,1.13l-2.02-2.65,3.53,.89-2.08-2.34,3.39,.62-1.77-2.13,3.65,.99-3.74-2.85,2.87-.37-7.86-1.39-7.95,.57-2.93,1.4-.8,2.35,2.14,1.85,3.86,1.23,3.66,.7Z"/></g><path class="cls-18" d="M0,357.59c29.63-23.47,63.14,11.81,167.07,3.13,39.13-3.27,32.37-8.1,69.86-10.43,51.35-3.19,102.74,3.47,162.65,11.47,29.79,3.98,44.65,6.71,66.73,2.09,30.72-6.43,37.16-19.09,64.64-30.24,33.25-13.48,63.18-10.03,123.03-3.13,41.11,4.74,32.81,7.71,104.26,19.81,70.5,11.94,82.53,9.71,113.65,22.94,18.24,7.75,34.4,17.33,66.73,36.49,44.74,26.51,51.7,28.05,57.99,36.49,21.52,28.87,13.66,77.69,0,102.18-48.2,86.42-272.24,55.44-446.9,31.28-226.54-31.33-273.5-72.84-371.18-33.36-44.75,18.09-104.71,55.02-147.01,29.19-24.15-14.74-32.19-43.61-40.66-74.03C-14.19,483.3-40.32,389.52,0,357.59Z"/><g><ellipse class="cls-2" cx="691.59" cy="410.1" rx="33.76" ry="32.97"/><ellipse class="cls-3" cx="686.89" cy="419.61" rx="8.22" ry="8.94"/><path class="cls-2" d="M663.78,402.78c3.87,.78,8.56-6.5,9.59-13.12,.76-4.92-.08-12.19-3.35-13.46-3.7-1.44-10.09,4.94-11.3,12.16-1.02,6.06,1.46,13.7,5.06,14.43Z"/><path class="cls-8" d="M664.07,401.02c4.1-4.09,4.45-6.64,8.17-11.74,2.48-3.4-.02-10.86-2.78-11.97-3.12-1.26-8.56,4.45-9.61,10.89-.89,5.41,1.88,15.16,4.22,12.82Z"/><path class="cls-2" d="M718.97,376.37c-4.08,.48-6.98,9.52-6.37,16.64,.46,5.3,3.11,12.48,6.71,12.69,4.07,.24,8.9-8.41,8.32-16.22-.49-6.56-4.87-13.56-8.66-13.12Z"/><path class="cls-8" d="M719.5,377.52c-3.31,.38-7.72,8.71-5.1,13.88,2.32,4.58,3.27,10.99,5.49,10.64,4.27-.67,7.19-6.99,6.69-13.51-.42-5.48-4-11.36-7.08-11.01Z"/><ellipse class="cls-13" cx="705.01" cy="403.46" rx="3.83" ry="4.44"/><ellipse class="cls-13" cx="678.67" cy="403.46" rx="3.83" ry="4.44"/><path class="cls-1" d="M704.21,392.89c.94,.14,2.14,.39,3.46,.86,3.86,1.38,7.31,4.12,6.97,4.88-.54,1.18-8.36-2.1-10.51-1.77-.11,.02-2.43-.84-2.71-1.22-.28-.38-.37-1.23,.02-2.03,.43-.88,2.14-1.08,2.77-.73"/><path class="cls-1" d="M679.5,393.56c-.94,.14-1.21,.23-2.53,.7-3.86,1.38-7.31,4.12-6.97,4.88,.54,1.18,10.2-3.04,12.36-2.71,.11,.02,.59,.11,.87-.28,.28-.38,.37-1.23-.02-2.03-.43-.88-1.32-1.44-1.95-1.09"/><line class="cls-15" x1="687.38" y1="410.1" x2="687.28" y2="410.1"/><ellipse class="cls-3" cx="697.58" cy="419.61" rx="8.22" ry="8.94"/><path class="cls-3" d="M695.91,415.5v27.56c.54,0,1.08,.02,1.6,.05,.93-.21,1.88-.33,2.83-.37,1.12-.4,2.23-.86,3.32-1.15,.55-.14,1.14-.29,1.74-.38,.62-.27,1.23-.56,1.83-.88,2.37-1.26,4.64-2.86,6.76-4.65,.07-.14,.17-.26,.3-.37,1.73-1.44,3.35-3.05,4.77-4.88,1.23-1.58,2.17-3.36,3.14-5.15,.01-.02,.02-.05,.04-.07,.53-1.42,1-2.88,1.49-4.33,.31-1.3,.6-2.6,.88-3.91-7.92,2.71-18.19,4.61-28.68-1.48Z"/><ellipse class="cls-3" cx="710.22" cy="427.96" rx="2.3" ry="2.18"/><path class="cls-3" d="M687.18,415.5v27.56c-.54,0-1.08,.02-1.6,.05-.93-.21-1.88-.33-2.83-.37-1.12-.4-2.23-.86-3.32-1.15-.55-.14-1.14-.29-1.74-.38-.62-.27-1.23-.56-1.83-.88-2.37-1.26-4.64-2.86-6.76-4.65-.07-.14-.17-.26-.3-.37-1.73-1.44-3.35-3.05-4.77-4.88-1.23-1.58-2.17-3.36-3.14-5.15-.01-.02-.02-.05-.04-.07-.53-1.42-1-2.88-1.49-4.33-.31-1.3-.6-2.6-.88-3.91,7.92,2.71,18.19,4.61,28.68-1.48Z"/><path class="cls-3" d="M695.79,443.31c3.84-1.62,6.52-5.28,6.52-9.55,0-5.76-4.89-10.44-10.91-10.44s-10.91,4.67-10.91,10.44c0,4.46,2.93,8.27,7.05,9.76,2.75-.12,5.51-.22,8.26-.21Z"/><ellipse class="cls-12" cx="691.59" cy="413.6" rx="4.02" ry="4.66"/><ellipse class="cls-4" cx="705.79" cy="401.38" rx=".78" ry=".91"/><ellipse class="cls-4" cx="679.69" cy="401.15" rx=".78" ry=".91"/><path class="cls-3" d="M680.11,429.67c2.5,1.59,5.32,3.25,8.4,3.02s5.33-2.2,7.27-4.55h-3.54c3.46,2.97,8.59,5.38,12.75,2.18,1.07-.82,1.64-2.15,.9-3.42-.62-1.05-2.34-1.72-3.42-.9-2.29,1.76-4.77,.25-6.69-1.4-.95-.82-2.62-1.1-3.54,0-1.08,1.3-2.28,3.04-4.13,3.1-2.01,.07-3.88-1.32-5.49-2.35-2.72-1.73-5.23,2.59-2.52,4.32h0Z"/><path class="cls-3" d="M672.44,432.59c3.22,0,3.22-5,0-5s-3.22,5,0,5h0Z"/><path class="cls-3" d="M681.83,427.36c1.84,1.37,4.49,1.56,6.62,.83s3.96-2.21,5.62-3.77c.95-.9,.98-2.64,0-3.54s-2.52-.96-3.54,0c-.31,.29-.62,.58-.94,.86-.16,.14-.32,.28-.48,.41-.08,.07-.17,.13-.25,.2,.08-.08,.4-.3,.13-.1-.34,.24-.68,.48-1.03,.69-.18,.1-.36,.2-.54,.29-.09,.04-.2,.08-.28,.13,.15-.11,.49-.19,.11-.05s-.73,.21-1.11,.3c-.3,.07,.55-.04,.24-.03-.09,0-.19,.02-.28,.02-.19,0-.38,0-.57,0-.09,0-.44-.05-.02,0s.08,0-.02-.01c-.18-.04-.36-.11-.54-.15-.29-.07,.46,.23,.2,.09-.08-.05-.17-.08-.26-.13-.19-.11-.37-.23-.55-.36-.49-.36-1.37-.41-1.93-.25s-1.21,.61-1.49,1.15c-.31,.58-.46,1.28-.25,1.93s.6,1.08,1.15,1.49h0Z"/><path class="cls-3" d="M690.11,423.8c1.18,1.88,2.85,3.53,4.86,4.5,.95,.46,1.95,.84,2.99,1.01,1.31,.21,2.5,.2,3.81-.01,.58-.09,1.21-.66,1.49-1.15,.31-.54,.45-1.33,.25-1.93s-.57-1.19-1.15-1.49c-.63-.33-1.23-.37-1.93-.25-.08,.01-.16,.03-.25,.04l.66-.09c-.7,.09-1.41,.08-2.11,0l.66,.09c-.63-.09-1.22-.26-1.82-.47-.41-.14,.61,.28,.01,0-.12-.05-.23-.11-.34-.17-.29-.15-.56-.31-.83-.49-.13-.08-.25-.17-.37-.26-.35-.24,.5,.41,0-.01-.24-.2-.46-.41-.68-.63s-.42-.46-.62-.7c-.16-.2-.11-.14,.14,.18-.05-.07-.11-.15-.16-.22-.11-.15-.2-.3-.3-.46-.7-1.11-2.26-1.64-3.42-.9s-1.64,2.24-.9,3.42h0Z"/><path class="cls-11" d="M689.15,421.73c-.13,.22-.28,.43-.43,.63l.39-.51c-.35,.44-.74,.84-1.19,1.19l.51-.39c-.41,.31-.85,.57-1.32,.77l.6-.25c-.06,.02-.12,.05-.17,.07-.33,.08-.61,.23-.85,.45-.27,.18-.49,.41-.64,.7-.18,.29-.28,.6-.3,.93-.07,.33-.06,.66,.04,1,.2,.6,.57,1.19,1.15,1.49l.6,.25c.44,.12,.89,.12,1.33,0,.51-.2,1.02-.41,1.49-.69s.91-.63,1.33-.98c.28-.24,.53-.49,.77-.77,.37-.43,.72-.89,1.02-1.37,.18-.29,.28-.6,.3-.93,.07-.33,.06-.66-.04-1-.08-.33-.23-.61-.45-.85-.18-.27-.41-.49-.7-.64-.58-.31-1.28-.46-1.93-.25s-1.14,.58-1.49,1.15h0Z"/><path class="cls-11" d="M689.13,423.44c.32,1.15,.9,2.14,1.67,3.04,.37,.42,.82,.77,1.27,1.09s.98,.54,1.5,.74c.33,.1,.66,.12,1,.04,.33-.02,.64-.11,.93-.3,.29-.16,.53-.37,.7-.64,.22-.24,.37-.52,.45-.85,.15-.64,.11-1.36-.25-1.93l-.39-.51c-.31-.31-.68-.52-1.1-.64-.05-.02-.11-.04-.16-.06l.6,.25c-.31-.13-.6-.31-.87-.51l.51,.39c-.3-.24-.57-.51-.8-.81l.39,.51c-.26-.34-.47-.71-.64-1.1l.25,.6c-.09-.21-.16-.42-.22-.64-.17-.61-.6-1.18-1.15-1.49-.29-.18-.6-.28-.93-.3-.33-.07-.66-.06-1,.04-.6,.2-1.19,.57-1.49,1.15s-.44,1.27-.25,1.93h0Z"/></g><path class="cls-19" d="M.48,475.65c2.24-.75,4.44-.46,6.1,0,30.05-14.22,72.85-31.73,126.29-44.81,33.73-8.26,72.72-17.82,123.58-17.65,44.39,.15,63.26,7.61,145.31,23.09,98.51,18.58,105.92,23.23,133.08,21.73,34.71-1.92,31.25-8.6,116.79-28.52,67.63-15.74,102.22-23.52,139.87-19.01,32.79,3.93,29.58,10.58,88.27,24.44,76.6,18.09,92.88,9.32,111.36,24.44,40.49,33.14,26.61,127.9,5.98,173.82-111.88,249.03-933.4,199.25-996.62,0-10.71-33.75-24.29-149.41,0-157.53Z"/><ellipse class="cls-9" cx="91.88" cy="89.48" rx="52.53" ry="35.72"/><ellipse class="cls-9" cx="174.54" cy="152.52" rx="53.93" ry="45.53"/><g class="cls-17"><ellipse class="cls-4" cx="69.65" cy="81.14" rx="26.18" ry="21.21"/><ellipse class="cls-4" cx="127.08" cy="99.17" rx="62.5" ry="22.89"/><ellipse class="cls-4" cx="189.58" cy="69.32" rx="55.78" ry="33.03"/><ellipse class="cls-4" cx="127.08" cy="65.17" rx="64.85" ry="39.44" transform="translate(-14.46 46.1) rotate(-19.48)"/></g><g class="cls-20"><ellipse class="cls-4" cx="686.74" cy="190.35" rx="20.83" ry="17.96"/><ellipse class="cls-4" cx="732.44" cy="205.63" rx="49.74" ry="19.39"/><ellipse class="cls-4" cx="782.18" cy="180.34" rx="44.39" ry="27.97"/><ellipse class="cls-4" cx="732.44" cy="176.83" rx="52.02" ry="33.15" transform="translate(-12.58 289.44) rotate(-22.17)"/></g><g><path class="cls-2" d="M72.65,377.17c6.5-12.3-54.24-38.45-65.89-29.14-.76,.61-1.08,1.13-1.04,1.61,.19,1.85,5.02,3,6.24,3.3,4.81,1.2,12.32,5.27,27.33,13.42,17.57,9.53,27.65,21.59,33.35,10.81Z"/><path class="cls-5" d="M15.21,353.85c6.27,.53,6.03,1.13,6.03,1.13l-2.02-2.65,3.53,.89-2.08-2.34,3.39,.62-1.77-2.13,3.65,.99-3.74-2.85,2.87-.37-7.86-1.39-7.95,.57-2.93,1.4-.8,2.35,2.14,1.85,3.86,1.23,3.66,.7Z"/></g><g><rect class="cls-6" x="32.01" y="343.28" width="273.29" height="161.92" transform="translate(-4.59 1.86) rotate(-.62)"/><rect class="cls-6" x="140.5" y="465.03" width="17.32" height="236.62" transform="translate(97.26 -16.53) rotate(9.4)"/><path class="cls-7" d="M32.9,506.68l273.28-2.97-1.76-161.91-273.28,2.97,1.76,161.91,273.07-22.12-273.19,10.67-.23-21.41,273.32,.5-.35-32.5-273.29,2.25-.35-32.51,273.38,6.8-.39-35.51h0l-273.26,4.61"/><ellipse class="cls-14" cx="42.14" cy="353.01" rx="3.06" ry="4.89" transform="translate(-313.01 336.94) rotate(-80.6)"/><ellipse class="cls-14" cx="43.52" cy="500.19" rx="4.07" ry="7.03" transform="translate(-457.06 461.44) rotate(-80.6)"/><ellipse class="cls-14" cx="292.64" cy="352.01" rx="3.06" ry="4.89" transform="translate(-102.42 583.24) rotate(-80.6)"/><ellipse class="cls-14" cx="295.46" cy="498.3" rx="3.06" ry="4.89" transform="translate(-244.39 708.43) rotate(-80.6)"/></g><g><path class="cls-11" d="M106.48,367.66c-.16-3.13-.34-6.88-.31-9.68h-.09c-.72,2.63-1.59,5.42-2.65,8.52l-3.71,10.88h-2.06l-3.4-10.68c-1-3.16-1.84-6.05-2.43-8.72h-.06c-.06,2.79-.22,6.55-.41,9.91l-.56,9.61h-2.59l1.46-22.42h3.46l3.58,10.84c.87,2.76,1.59,5.22,2.12,7.55h.09c.53-2.26,1.28-4.72,2.21-7.55l3.74-10.84h3.46l1.31,22.42h-2.65l-.53-9.85Z"/><path class="cls-11" d="M116.54,355.09v22.42h-2.71v-22.42h2.71Z"/><path class="cls-11" d="M121.28,377.51v-22.42h2.96l6.73,11.34c1.56,2.63,2.77,4.99,3.77,7.29l.06-.03c-.25-2.99-.31-5.72-.31-9.21v-9.38h2.56v22.42h-2.74l-6.67-11.38c-1.46-2.5-2.87-5.06-3.93-7.48l-.09,.03c.16,2.83,.22,5.52,.22,9.25v9.58h-2.55Z"/><path class="cls-11" d="M141.78,355.09h2.71v10.81h.09c.56-.86,1.12-1.66,1.65-2.39l6.42-8.42h3.37l-7.6,9.51,8.19,12.91h-3.21l-6.92-11.01-1.99,2.46v8.55h-2.71v-22.42Z"/><path class="cls-11" d="M168.66,370.46l-2.18,7.05h-2.8l7.14-22.42h3.27l7.17,22.42h-2.9l-2.24-7.05h-7.45Zm6.89-2.26l-2.06-6.45c-.47-1.46-.78-2.79-1.09-4.09h-.06c-.31,1.33-.65,2.69-1.06,4.06l-2.06,6.49h6.33Z"/><path class="cls-11" d="M201.9,367.66c-.16-3.13-.34-6.88-.31-9.68h-.09c-.72,2.63-1.59,5.42-2.65,8.52l-3.71,10.88h-2.06l-3.4-10.68c-1-3.16-1.84-6.05-2.43-8.72h-.06c-.06,2.79-.22,6.55-.41,9.91l-.56,9.61h-2.59l1.46-22.42h3.46l3.58,10.84c.87,2.76,1.59,5.22,2.12,7.55h.09c.53-2.26,1.28-4.72,2.21-7.55l3.74-10.84h3.46l1.31,22.42h-2.65l-.53-9.85Z"/><path class="cls-11" d="M227.2,366.06c0,7.72-4.39,11.81-9.75,11.81s-9.44-4.59-9.44-11.38c0-7.12,4.14-11.78,9.75-11.78s9.44,4.69,9.44,11.34Zm-16.3,.37c0,4.79,2.43,9.08,6.7,9.08s6.73-4.22,6.73-9.31c0-4.46-2.18-9.11-6.7-9.11s-6.73,4.42-6.73,9.35Z"/><path class="cls-11" d="M230.72,355.09h2.71v10.81h.09c.56-.86,1.12-1.66,1.65-2.39l6.42-8.42h3.37l-7.6,9.51,8.19,12.91h-3.21l-6.92-11.01-1.99,2.46v8.55h-2.71v-22.42Z"/></g></svg>