<?xml version="1.0" encoding="UTF-8"?><svg id="Layer_1" xmlns="http://www.w3.org/2000/svg" width="1376.03" height="431.93" viewBox="0 0 1376.03 431.93"><defs><style>.cls-1{fill:#ee3224;}.cls-2{fill:#231f20;}</style></defs><rect class="cls-1" x="284.71" y="118.54" width="856.38" height="196.07" rx="72.78" ry="72.78"/><g><path class="cls-2" d="M523.28,179.71v7.81c-2.34-1.5-4.68-2.63-7.03-3.39s-4.72-1.14-7.1-1.14c-3.63,0-6.5,.84-8.61,2.53s-3.16,3.97-3.16,6.84c0,2.51,.69,4.43,2.08,5.75,1.38,1.32,3.97,2.42,7.75,3.31l4.04,.91c5.33,1.24,9.22,3.2,11.65,5.87s3.66,6.3,3.66,10.89c0,5.41-1.68,9.53-5.03,12.38s-8.23,4.27-14.62,4.27c-2.67,0-5.34-.29-8.04-.86-2.69-.57-5.4-1.43-8.11-2.57v-8.19c2.92,1.85,5.68,3.21,8.28,4.08s5.22,1.29,7.87,1.29c3.88,0,6.91-.87,9.06-2.61s3.24-4.17,3.24-7.29c0-2.84-.74-5.01-2.23-6.51-1.49-1.5-4.07-2.65-7.75-3.47l-4.11-.95c-5.28-1.19-9.12-3-11.5-5.41s-3.58-5.65-3.58-9.71c0-5.08,1.71-9.15,5.12-12.21s7.95-4.59,13.62-4.59c2.18,0,4.48,.25,6.89,.74,2.41,.5,4.95,1.24,7.62,2.23Z"/><path class="cls-2" d="M555.08,179.86v12.11h15.92v5.45h-15.92v23.16c0,3.15,.6,5.34,1.79,6.59s3.28,1.87,6.25,1.87h7.88v5.6h-8.57c-5.26,0-8.96-1.05-11.12-3.16s-3.24-5.74-3.24-10.89v-23.16h-11.39v-5.45h11.39v-12.11h7.01Z"/><path class="cls-2" d="M618.99,210.29v24.34h-7.05v-6.32c-1.5,2.54-3.38,4.41-5.66,5.62-2.27,1.21-5.03,1.81-8.28,1.81-4.34,0-7.81-1.22-10.4-3.67s-3.88-5.73-3.88-9.85c0-4.75,1.59-8.35,4.78-10.82,3.19-2.46,7.86-3.69,14.03-3.69h9.41v-1.1c-.03-3.4-.89-5.87-2.59-7.41-1.7-1.54-4.42-2.3-8.15-2.3-2.39,0-4.8,.34-7.24,1.03s-4.81,1.69-7.12,3.01v-7.01c2.59-.99,5.07-1.73,7.45-2.23,2.37-.5,4.68-.74,6.91-.74,3.53,0,6.54,.52,9.04,1.56s4.53,2.6,6.08,4.68c.96,1.27,1.65,2.84,2.06,4.7,.41,1.87,.61,4.67,.61,8.4Zm-13.6,2.89h-2.32c-4.09,0-7.17,.72-9.24,2.15-2.07,1.44-3.1,3.57-3.1,6.42,0,2.56,.77,4.56,2.32,5.98s3.69,2.13,6.44,2.13c3.86,0,6.89-1.34,9.1-4.02,2.21-2.68,3.33-6.38,3.35-11.1v-1.56h-6.55Z"/><path class="cls-2" d="M669.6,200.77c-1.5-1.17-3.02-2.02-4.57-2.55s-3.25-.8-5.1-.8c-4.37,0-7.71,1.37-10.02,4.11s-3.47,6.7-3.47,11.88v21.21h-7.05v-42.66h7.05v8.34c1.17-3.02,2.96-5.34,5.39-6.95,2.42-1.61,5.3-2.42,8.63-2.42,1.73,0,3.34,.22,4.84,.65s2.93,1.1,4.3,2.02v7.16Z"/><path class="cls-2" d="M695.96,179.86v12.11h15.92v5.45h-15.92v23.16c0,3.15,.6,5.34,1.79,6.59s3.28,1.87,6.25,1.87h7.88v5.6h-8.57c-5.26,0-8.96-1.05-11.12-3.16s-3.24-5.74-3.24-10.89v-23.16h-11.39v-5.45h11.39v-12.11h7.01Z"/><path class="cls-2" d="M803.55,193.46v6.86c-2.01-1.17-4.02-2.04-6.06-2.63s-4.1-.88-6.21-.88c-3.17,0-5.54,.51-7.1,1.54-1.56,1.03-2.34,2.6-2.34,4.7,0,1.9,.58,3.33,1.75,4.27s4.08,1.85,8.72,2.74l2.82,.53c3.48,.66,6.11,1.98,7.9,3.96,1.79,1.98,2.69,4.56,2.69,7.73,0,4.21-1.5,7.51-4.49,9.88-3,2.38-7.16,3.56-12.49,3.56-2.11,0-4.32-.22-6.63-.67-2.31-.44-4.81-1.11-7.5-2v-7.24c2.62,1.35,5.12,2.36,7.5,3.03s4.65,1.01,6.78,1.01c3.1,0,5.5-.63,7.2-1.89,1.7-1.26,2.55-3.01,2.55-5.27,0-3.25-3.11-5.5-9.33-6.74l-.3-.08-2.63-.53c-4.04-.79-6.98-2.11-8.84-3.98-1.85-1.87-2.78-4.41-2.78-7.64,0-4.09,1.38-7.24,4.15-9.46s6.72-3.33,11.84-3.33c2.29,0,4.48,.21,6.59,.63,2.11,.42,4.18,1.05,6.21,1.89Z"/><path class="cls-2" d="M827.74,229.26v21.59h-7.05v-58.88h7.05v5.45c1.17-2.11,2.72-3.71,4.67-4.82,1.94-1.11,4.18-1.66,6.72-1.66,5.15,0,9.2,1.99,12.13,5.98,2.93,3.99,4.4,9.51,4.4,16.57s-1.47,12.37-4.42,16.32c-2.95,3.95-6.98,5.92-12.11,5.92-2.59,0-4.86-.55-6.8-1.66-1.94-1.1-3.47-2.71-4.59-4.82Zm20.57-15.92c0-5.43-.86-9.53-2.57-12.3-1.71-2.77-4.26-4.15-7.64-4.15s-5.98,1.39-7.73,4.17c-1.75,2.78-2.63,6.87-2.63,12.28s.88,9.47,2.63,12.26,4.33,4.19,7.73,4.19,5.92-1.38,7.64-4.15c1.71-2.77,2.57-6.87,2.57-12.3Z"/><path class="cls-2" d="M872.45,192.12h17.94v37.06h13.9v5.45h-34.81v-5.45h13.9v-31.61h-10.93v-5.45Zm10.93-16.57h7.01v8.84h-7.01v-8.84Z"/><path class="cls-2" d="M934.76,219.2c0,3.15,.58,5.52,1.73,7.12,1.15,1.6,2.86,2.4,5.12,2.4h8.19v5.9h-8.87c-4.19,0-7.43-1.34-9.73-4.02s-3.45-6.48-3.45-11.41v-38.58h-11.24v-5.48h18.24v44.07Z"/></g></svg>