<?xml version="1.0" encoding="UTF-8"?><svg id="Layer_1" xmlns="http://www.w3.org/2000/svg" width="169.06" height="250.87" viewBox="0 0 169.06 250.87"><defs><style>.cls-1{fill:#231f20;}</style></defs><path class="cls-1" d="M110.17,134.17c-.76-1.69-8.38-8.71-7.61-10.39l25.73-26.92L168.44,9.75c1.94-4.21-1.12-9.02-5.76-9.04L84.53,.35,6.41,0C1.77-.02-1.34,4.78,.58,9.01L40.23,96.46l26.58,27.32c.76,1.69-5.31,6.94-6.08,8.62l-19.96,21.62L.62,241.12c-1.94,4.21,1.12,9.02,5.76,9.04l78.15,.35,78.12,.35c4.65,.02,7.75-4.78,5.84-9.01l-39.65-87.45-18.67-20.24Z"/></svg>