<?xml version="1.0" encoding="UTF-8"?><svg id="Layer_1" xmlns="http://www.w3.org/2000/svg" width="1451.63" height="421.44" viewBox="0 0 1451.63 421.44"><defs><style>.cls-1{fill:#ee3224;}.cls-2{fill:#231f20;}</style></defs><rect class="cls-1" x="303.41" y="112.69" width="856.38" height="196.07" rx="72.78" ry="72.78"/><g><path class="cls-2" d="M575.67,171.91h43.38v6.47h-17.79v50.39h-7.73v-50.39h-17.86v-6.47Z"/><path class="cls-2" d="M632.87,186.27h17.94v37.06h13.9v5.45h-34.81v-5.45h13.9v-31.61h-10.93v-5.45Zm10.93-16.57h7.01v8.84h-7.01v-8.84Z"/><path class="cls-2" d="M695.18,213.35c0,3.15,.58,5.52,1.73,7.12,1.15,1.6,2.86,2.4,5.12,2.4h8.19v5.9h-8.87c-4.19,0-7.43-1.34-9.73-4.02s-3.45-6.48-3.45-11.41v-38.58h-11.24v-5.48h18.24v44.07Z"/><path class="cls-2" d="M729.12,191.56c1.12-2.08,2.66-3.68,4.63-4.8,1.97-1.12,4.25-1.68,6.84-1.68,5.13,0,9.17,1.97,12.11,5.92s4.42,9.39,4.42,16.32-1.48,12.55-4.44,16.55c-2.96,4-7.01,6-12.17,6-2.54,0-4.78-.55-6.72-1.66-1.94-1.1-3.5-2.71-4.67-4.82v5.37h-7.01v-59.26h7.01v22.05Zm20.6,15.92c0-5.43-.86-9.53-2.59-12.3s-4.28-4.15-7.66-4.15-5.98,1.39-7.73,4.17c-1.75,2.78-2.63,6.87-2.63,12.28s.88,9.47,2.63,12.26,4.33,4.19,7.73,4.19,5.93-1.38,7.66-4.15,2.59-6.87,2.59-12.3Z"/><path class="cls-2" d="M802.05,204.44v24.34h-7.05v-6.32c-1.5,2.54-3.38,4.41-5.66,5.62-2.27,1.21-5.03,1.81-8.28,1.81-4.34,0-7.81-1.22-10.4-3.67s-3.88-5.73-3.88-9.85c0-4.75,1.59-8.35,4.78-10.82,3.19-2.46,7.86-3.69,14.03-3.69h9.41v-1.1c-.03-3.4-.89-5.87-2.59-7.41-1.7-1.54-4.42-2.3-8.15-2.3-2.39,0-4.8,.34-7.24,1.03s-4.81,1.69-7.12,3.01v-7.01c2.59-.99,5.07-1.73,7.45-2.23,2.37-.5,4.68-.74,6.91-.74,3.53,0,6.54,.52,9.04,1.56s4.53,2.6,6.08,4.68c.96,1.27,1.65,2.84,2.06,4.7,.41,1.87,.61,4.67,.61,8.4Zm-13.6,2.89h-2.32c-4.09,0-7.17,.72-9.24,2.15-2.07,1.44-3.1,3.57-3.1,6.42,0,2.56,.77,4.56,2.32,5.98s3.69,2.13,6.44,2.13c3.86,0,6.89-1.34,9.1-4.02,2.21-2.68,3.33-6.38,3.35-11.1v-1.56h-6.55Z"/><path class="cls-2" d="M848.36,226.03c0,6.4-1.51,11.25-4.53,14.55s-7.46,4.95-13.33,4.95c-1.93,0-3.95-.18-6.06-.53s-4.21-.88-6.32-1.56v-6.93c2.49,1.17,4.75,2.03,6.78,2.59s3.9,.84,5.6,.84c3.78,0,6.54-1.03,8.26-3.08s2.59-5.32,2.59-9.79v-5.07c-1.12,2.39-2.64,4.16-4.57,5.33s-4.28,1.75-7.05,1.75c-4.98,0-8.95-1.99-11.92-5.98s-4.46-9.32-4.46-16,1.49-12.05,4.46-16.03,6.94-5.98,11.92-5.98c2.74,0,5.07,.55,6.97,1.64s3.45,2.78,4.65,5.07v-5.52h7.01v39.76Zm-7.01-18.93c0-5.26-.86-9.25-2.57-11.98-1.71-2.73-4.21-4.09-7.48-4.09s-6.04,1.37-7.85,4.09-2.7,6.72-2.7,11.98,.91,9.26,2.72,12.02c1.81,2.75,4.45,4.13,7.9,4.13,3.22,0,5.69-1.38,7.41-4.15,1.71-2.77,2.57-6.77,2.57-12Z"/><path class="cls-2" d="M898.29,203.94v3.43h-30.35v.23c-.2,5.81,.91,9.99,3.33,12.53,2.42,2.54,5.85,3.81,10.26,3.81,2.23,0,4.57-.36,7.01-1.07s5.04-1.79,7.81-3.24v6.97c-2.67,1.09-5.24,1.91-7.71,2.46-2.48,.55-4.87,.82-7.18,.82-6.63,0-11.81-1.99-15.54-5.96s-5.6-9.45-5.6-16.43,1.83-12.24,5.48-16.3,8.53-6.09,14.62-6.09c5.43,0,9.72,1.84,12.85,5.52,3.13,3.68,4.8,8.12,5.01,13.33Zm-7.01-2.06c-.3-2.95-1.38-5.49-3.22-7.64-1.84-2.14-4.49-3.22-7.94-3.22s-6.16,1.12-8.34,3.35-3.38,4.75-3.58,7.54l23.08-.04Z"/></g></svg>