<?xml version="1.0" encoding="UTF-8"?><svg id="Layer_1" xmlns="http://www.w3.org/2000/svg" width="845.53" height="139.53" viewBox="0 0 845.53 139.53"><defs><style>.cls-1{fill:#f9a561;}.cls-2{fill:#e88833;}.cls-3{fill:#fee1c9;}.cls-4{fill:#231f20;}.cls-5{fill:#1c190f;}.cls-6{fill:#3f3f40;}.cls-7{fill:#954621;}.cls-8{fill:#8e191c;isolation:isolate;opacity:.8;}.cls-9{fill:#fff;stroke:#ec2227;}.cls-9,.cls-10{stroke-miterlimit:10;}.cls-10{fill:none;stroke:#231f20;}</style></defs><rect class="cls-8" x="92.83" y="58.51" width="607.62" height="25.29"/><g><ellipse class="cls-2" cx="716.17" cy="61.16" rx="56.88" ry="43.98"/><ellipse class="cls-3" cx="708.27" cy="73.86" rx="13.85" ry="11.93"/><path class="cls-2" d="M669.32,51.41c6.52,1.06,14.43-8.67,16.15-17.51,1.3-6.56-.12-16.26-5.64-17.96-6.24-1.91-17,6.58-19.04,16.22-1.71,8.08,2.45,18.28,8.52,19.24Z"/><path class="cls-7" d="M669.81,49.05c6.91-5.45,7.49-8.87,13.77-15.67,4.18-4.52-.02-14.49-4.69-15.97-5.27-1.68-14.43,5.94-16.2,14.52-1.5,7.21,3.17,20.23,7.12,17.12Z"/><path class="cls-2" d="M762.31,16.18c-6.87,.64-11.77,12.7-10.72,22.19,.76,7.06,5.23,16.65,11.3,16.94,6.85,.32,15-11.23,14.01-21.64-.82-8.75-8.19-18.1-14.59-17.49h0Z"/><path class="cls-7" d="M763.2,17.72c-5.58,.5-13.01,11.62-8.6,18.51,3.91,6.1,5.52,14.67,9.24,14.2,7.2-.89,12.12-9.32,11.28-18.03-.7-7.31-6.73-15.15-11.91-14.68Z"/><ellipse class="cls-5" cx="738.77" cy="52.31" rx="6.44" ry="5.92"/><ellipse class="cls-5" cx="694.4" cy="52.31" rx="6.44" ry="5.92"/><path class="cls-1" d="M737.43,38.22c1.58,.18,3.6,.52,5.82,1.14,6.5,1.84,12.31,5.51,11.73,6.51-.91,1.57-14.08-2.79-17.72-2.36-.19,.02-4.1-1.13-4.57-1.63s-.62-1.65,.04-2.7c.72-1.18,3.6-1.45,4.67-.97"/><path class="cls-1" d="M695.8,39.11c-1.58,.18-2.04,.3-4.26,.93-6.5,1.84-12.31,5.51-11.73,6.51,.91,1.57,17.18-4.06,20.83-3.61,.19,.02,.99,.14,1.46-.38,.47-.5,.62-1.65-.04-2.7-.72-1.18-2.22-1.93-3.29-1.45"/><line class="cls-10" x1="709.07" y1="61.16" x2="708.91" y2="61.16"/><ellipse class="cls-3" cx="726.26" cy="73.86" rx="13.85" ry="11.93"/><path class="cls-3" d="M723.44,68.39v36.77c.93,0,1.81,.02,2.7,.05,1.56-.29,3.17-.45,4.77-.5,1.89-.54,3.77-1.14,5.6-1.54,.93-.2,1.91-.38,2.94-.5,1.03-.36,2.06-.75,3.07-1.16,3.99-1.68,7.82-3.81,11.38-6.21,.12-.18,.29-.36,.49-.5,2.9-1.93,5.64-4.06,8.05-6.51,2.08-2.11,3.66-4.47,5.29-6.87,0-.04,.04-.05,.06-.09,.88-1.9,1.69-3.85,2.51-5.78,.51-1.73,1.01-3.47,1.48-5.22-13.33,3.61-30.64,6.15-48.32-1.97l-.02,.02Z"/><ellipse class="cls-3" cx="747.56" cy="85" rx="3.87" ry="2.92"/><path class="cls-3" d="M708.75,68.39v36.77c-.93,0-1.81,.02-2.7,.05-1.56-.29-3.17-.45-4.77-.5-1.89-.54-3.77-1.14-5.6-1.54-.93-.2-1.91-.38-2.94-.5-1.03-.36-2.06-.75-3.07-1.16-3.99-1.68-7.82-3.81-11.38-6.21-.12-.18-.29-.36-.49-.5-2.9-1.93-5.64-4.06-8.05-6.51-2.08-2.11-3.66-4.47-5.29-6.87,0-.04-.04-.05-.06-.09-.88-1.9-1.69-3.85-2.51-5.78-.51-1.73-1.01-3.47-1.48-5.22,13.33,3.61,30.64,6.15,48.32-1.97l.02,.02Z"/><path class="cls-3" d="M723.23,105.48c6.46-2.16,10.97-7.05,10.97-12.73,0-7.69-8.23-13.91-18.4-13.91s-18.4,6.24-18.4,13.91c0,5.96,4.94,11.03,11.87,13.02,4.63-.16,9.28-.3,13.91-.29h.04Z"/><ellipse class="cls-6" cx="716.17" cy="65.83" rx="6.77" ry="6.22"/><path class="cls-3" d="M696.38,88.26c4.42,2.24,9.34,4.51,14.63,4.18s9.34-3,12.92-6.4h-7.28c6.36,4.31,15.13,7.62,22.62,3.09,2.28-1.38,3.33-3.92,1.85-6.12-1.32-1.97-4.75-2.99-7.04-1.61-1.09,.66-1.4,.82-2.55,.97,.58-.07-1.03,0-1.01,0-1.09,0,.04,.13-.99-.13-2.04-.5-3.89-1.36-5.6-2.52-2.1-1.43-5.23-1.97-7.28,0-1.07,1.02-2.14,2.13-3.42,2.95-.7,.46-1.77,.84-2.88,.86-3.07,.04-6.07-1.61-8.79-2.99-2.41-1.22-5.64-.48-7.04,1.61s-.56,4.9,1.85,6.12h0v-.02Z"/><path class="cls-3" d="M683.91,92.32c6.63,0,6.63-8.94,0-8.94s-6.63,8.94,0,8.94h0Z"/><path class="cls-3" d="M699.26,85.18c3.37,2,8.03,2.27,11.85,1.22s6.91-3.11,9.9-5.33c.95-.72,1.5-2.11,1.5-3.17s-.56-2.41-1.5-3.17c-2.18-1.73-5.08-1.63-7.28,0-.68,.5-1.36,1-2.06,1.47l1.05-.7c-1.4,.93-2.86,1.75-4.49,2.36l1.23-.45c-.95,.34-1.89,.57-2.88,.7l1.36-.16c-.91,.11-1.79,.11-2.7,0l1.36,.16c-.72-.09-1.42-.27-2.1-.5l1.23,.45c-.45-.18-.86-.38-1.28-.63-1.05-.63-2.76-.73-3.97-.45s-2.49,1.09-3.07,2.06c-1.38,2.27-.54,4.7,1.85,6.12h0l-.02,.02Z"/><path class="cls-3" d="M712.86,80.03c2.16,2.72,5.02,5.08,8.54,6.42,1.73,.66,3.44,1.22,5.31,1.47,1.09,.14,2.2,.29,3.31,.29,1.19,0,2.37-.14,3.54-.3s2.49-1.2,3.07-2.06c.64-.97,.93-2.38,.51-3.45s-1.17-2.13-2.37-2.66l-1.23-.45c-.91-.21-1.83-.21-2.74,0l-.21,.04,1.36-.16c-1.3,.14-2.61,.14-3.91,0l1.36,.16c-1.3-.16-2.57-.46-3.79-.89l1.23,.45c-1.3-.48-2.51-1.09-3.62-1.82l1.05,.7c-1.07-.72-2.02-1.54-2.84-2.47l.8,.91c-.19-.21-.35-.41-.54-.64-.76-.97-1.73-1.73-3.07-2.06-1.23-.29-2.88-.16-3.97,.45-2.2,1.23-3.48,4.06-1.85,6.12h0l.04-.02Z"/><path class="cls-4" d="M711.26,76.11c-.12,.16-.27,.32-.39,.48l.8-.91c-.58,.64-1.21,1.2-1.95,1.7l1.05-.7c-.7,.46-1.46,.86-2.28,1.16l1.23-.45c-.21,.07-.41,.14-.62,.21-.68,.14-1.26,.41-1.75,.8-.56,.32-1.01,.73-1.32,1.25-.37,.52-.58,1.07-.62,1.66-.14,.59-.12,1.18,.08,1.79l.51,1.07c.45,.68,1.07,1.2,1.85,1.61l1.23,.45c.91,.21,1.83,.21,2.74,0,.93-.29,1.87-.63,2.74-1.04s1.65-.95,2.43-1.48c1.26-.86,2.26-1.95,3.15-3.08,.37-.52,.58-1.07,.62-1.66,.14-.59,.12-1.18-.08-1.79-.16-.59-.47-1.09-.93-1.52-.37-.48-.84-.88-1.44-1.14l-1.23-.45c-.91-.21-1.83-.21-2.74,0l-1.23,.45c-.78,.39-1.38,.93-1.85,1.61h0v-.04Z"/><path class="cls-4" d="M711.13,79.28c.29,.84,.7,1.68,1.21,2.43,.16,.23,.33,.45,.51,.66,.43,.48,.84,1,1.34,1.45,.68,.63,1.5,1.16,2.33,1.65,.25,.14,.49,.27,.76,.38,.64,.27,1.32,.52,2,.72,.68,.18,1.36,.21,2.06,.07,.68-.04,1.32-.2,1.91-.54,.6-.29,1.09-.66,1.44-1.14,.45-.43,.76-.93,.93-1.52l.19-1.18c0-.8-.25-1.56-.7-2.25l-.8-.91c-.64-.55-1.4-.93-2.26-1.14-.14-.05-.31-.09-.45-.14l1.23,.45c-.54-.2-1.03-.45-1.5-.75l1.05,.7c-.51-.34-.95-.73-1.34-1.16l.8,.91c-.39-.45-.72-.93-.97-1.45l.51,1.07c-.1-.21-.19-.43-.27-.64-.16-.59-.47-1.09-.93-1.52-.37-.48-.84-.88-1.44-1.14-.6-.32-1.23-.5-1.91-.54-.68-.13-1.36-.11-2.06,.07l-1.23,.45c-.78,.39-1.38,.93-1.85,1.61l-.51,1.07c-.25,.79-.25,1.59,0,2.38h0l-.04-.02Z"/></g><path class="cls-9" d="M686.93,46.6l14.94,11.41"/><path class="cls-9" d="M731.3,46.6l14.94,11.41"/><path class="cls-9" d="M701.89,46.6l-14.94,11.41"/><path class="cls-9" d="M746.24,46.6l-14.94,11.41"/><path class="cls-4" d="M96.47,76.94c-.28-.7-3.04-3.6-2.76-4.29l9.32-11.12,14.55-35.98c.7-1.74-.41-3.73-2.09-3.74l-28.31-.15-28.3-.15c-1.68,0-2.81,1.97-2.11,3.72l14.36,36.12,9.63,11.28c.28,.7-1.92,2.87-2.2,3.56l-7.23,8.93-14.55,35.98c-.7,1.74,.41,3.73,2.09,3.74l28.31,.15,28.3,.15c1.68,0,2.81-1.97,2.11-3.72l-14.36-36.12-6.76-8.36Z"/></svg>